<svg xmlns="http://www.w3.org/2000/svg" width="141.8" height="127" viewBox="0 0 141.8 127"><title>card2</title><g style="isolation:isolate"><g id="b3c806db-86c2-411f-8e64-754196153e0b" data-name="Layer 2"><g id="e4b433de-fb87-45b3-b95b-bb289e2b3103" data-name="OBJECT"><polygon points="70.9 127 0 86.1 0 81.2 70.9 122.1 70.9 127" fill="#fab37a"/><polygon points="70.9 127 70.9 122.1 141.8 81.2 141.8 86.1 70.9 127" fill="#87491f"/><polygon points="70.9 122.1 0 81.2 0 79.3 70.9 120.3 70.9 122.1" fill="#c5f993"/><polygon points="70.9 122.1 70.9 120.3 141.8 79.3 141.8 81.2 70.9 122.1" fill="#61933f"/><polygon points="70.9 120.3 0 79.3 70.9 38.4 141.8 79.3 70.9 120.3" fill="#9dd864"/><polygon points="37 87.5 41.3 87.5 45.6 85.1 43.4 83.8 37 87.5" fill="#2e4149" opacity="0.3" style="mix-blend-mode:multiply"/><polygon points="50.3 87.8 79.3 87.8 96.3 97.7 109.9 97.7 141.8 79.3 128.6 71.7 64.9 79.4 50.3 87.8" fill="#2e4149" opacity="0.3" style="mix-blend-mode:multiply"/><polygon points="25.6 94.1 16.5 88.8 27.9 82.2 37 87.5 25.6 94.1" fill="#dceaef"/><path d="M66.6,88.1c-.1.2-.4.2-.7.2v.2c.1.1,0,.2-.1.2h-.7a.4.4,0,0,1,.1.3c0,.2-.3.1-.5.1h-.2a.3.3,0,0,1-.1.5c-.2.1-.3-.1-.4-.3h-.1v.2h-.3c0,.1-.1.1-.2.1H63c0,.1-.1.1-.1.2h-.2l-.3-.4h0v.2H62a.4.4,0,0,1-.1-.3h0c-.1,0-.1.1-.2,0s-.1.1-.1.2h-.2a.8.8,0,0,1-.2-.5v-.2a.3.3,0,0,1-.3.3h-.1c-.1-.1,0-.3,0-.5h-.4c-.1,0-.1-.2-.1-.3s.2-.1.2-.2l.2-.2h-.4c-.1-.1-.1-.1,0-.2s.2-.2.3-.2-.4-.2-.3-.4l.3-.2h.5c0-.2,0-.4.3-.4h.4c0-.2.2-.2.3-.2h.5l.2-.2a.9.9,0,0,1,.5.3h.2c0-.2.1-.4.2-.4s.4.1.5.3.1.1.1.2h.1c0-.1.1-.3.2-.3a.3.3,0,0,1,.3.3h.5l.4.2a.4.4,0,0,1-.1.3c.2-.1.5-.1.6.1s.1-.1.2,0a.2.2,0,0,1,.2.2l-.2.3h-.1c.1,0,.1.1.2.2h-.1C66.7,87.7,66.7,87.9,66.6,88.1Z" fill="#2e4149" opacity="0.3" style="mix-blend-mode:multiply"/><path d="M66.9,85.3a.4.4,0,0,0-.1-.3h-.1c-.1,0-.1,0,0-.1a.4.4,0,0,0,0-.5l-.2-.2c-.1,0-.1-.1-.1-.2s.1-.2,0-.3-.2-.3-.4-.4h-.1c0-.1,0-.2-.1-.2s-.2,0-.3,0h-.3a.4.4,0,0,0-.2-.5h-.5a.3.3,0,0,1-.1.2H64l-.4.2h-.1a.1.1,0,0,0-.1-.1l-.2-.3c-.3-.1-.5.1-.7.3a.1.1,0,0,1-.1.1c0-.1,0-.1-.1-.1H62a.5.5,0,0,0-.3.5h0c-.2-.1-.3-.2-.5-.1s-.3.3-.3.5.1.1.1.2h0a.1.1,0,0,1-.1.1h-.4a.7.7,0,0,0-.1.5.4.4,0,0,0-.1.5h-.2c0,.1-.1.1-.1.2a.7.7,0,0,0,.1.6h.2c.1.1,0,.2,0,.3l-.2.3a.5.5,0,0,0,.2.4c0,.2-.1.5,0,.7l.3.2h.2c.1,0,.3,0,.2.2h-.1v.2c0,.2.1.3.2.3s.3,0,.4-.1a.2.2,0,0,0,.2.2h.2c.1-.1.2-.2.3-.1s.1.4.4.4l.3-.2c0,.1.1.2.2.3a.2.2,0,0,0,.3,0h.9c.1-.1.1-.2.1-.4h.7c.2-.1.2-.3.3-.5a.4.4,0,0,0,.6-.2.3.3,0,0,0,0-.4h.4l.2-.2v-.3c0-.2.1-.2.1-.3a.3.3,0,0,0,.1-.2c0-.2,0-.3-.1-.4S66.9,85.5,66.9,85.3Z" fill="#008c47"/><path d="M66.2,83.5v-.3h-.4c0-.1,0-.2-.1-.2s-.2,0-.3,0h-.3a.4.4,0,0,0-.2-.5h-.5a.3.3,0,0,1-.1.2H64l-.4.2h-.1a.1.1,0,0,0-.1-.1l-.2-.3c-.3-.1-.5.1-.7.3a.1.1,0,0,1-.1.1c0-.1,0-.1-.1-.1H62a.5.5,0,0,0-.3.5h0c-.2-.1-.3-.2-.5-.1s-.3.3-.3.5.1.1.1.2h0a.1.1,0,0,1-.1.1h-.3a.8.8,0,0,0,.2.5h.3c.1,0,0,.1,0,.1a.4.4,0,0,0,.1.5h.6c.2.1-.1.4-.1.5s.2.3.4.3h.5c.2.1.4-.1.4-.4s0-.2,0-.3h-.1l.2-.2v.2l.2.2h.4a.1.1,0,0,0,.1-.1V85l.2.2h0c.1.1.1.2.2.2h.4a.8.8,0,0,0,.2-.4h0l.3-.2c.1-.1,0-.2-.1-.3s-.1-.2,0-.3.2,0,.2.1h.1a.7.7,0,0,0,.4.6H66a.4.4,0,0,0,.1-.3.5.5,0,0,0-.2-.4c.1-.1.2-.2.1-.4s-.1-.1,0-.2Z" fill="#00ad31"/><path d="M65.6,85h-.3c-.1,0-.1.1-.1.2a.1.1,0,0,1,.1.1h.1c.1.1.1,0,.2,0h.1A.3.3,0,0,0,65.6,85Z" fill="#00ad31"/><path d="M62.4,86.2c0-.1-.1-.2-.2-.3s-.1-.1-.2-.1l-.3.2v.3l.2.2h.1c.1.1.2,0,.3-.1Z" fill="#00ad31"/><path d="M63.2,86.2c0-.1,0-.2-.1-.2h-.3a.4.4,0,0,0-.1.3h.4C63.2,86.4,63.2,86.3,63.2,86.2Z" fill="#00ad31"/><path d="M38.6,93.1a.6.6,0,0,1-.7.2v.2l-.2.2H37c.1.1.2.2.2.3s-.4.1-.5.1h-.2c0,.2.1.4-.1.5s-.3-.1-.4-.2v0h-.2l-.3.2-.3-.2h-.1v.2h-.2c-.2-.1-.2-.3-.3-.4h0l-.2.2c-.1.1-.2,0-.2-.1s-.1-.2-.1-.3h-.5c-.2-.1-.2-.3-.2-.5h0l-.3.2h-.1a.4.4,0,0,1,0-.5c-.1.1-.3.2-.4.1a.2.2,0,0,1-.1-.3l.2-.2.2-.2h-.4v-.2a.5.5,0,0,1,.4-.2c-.2-.1-.5-.2-.4-.4l.4-.2h.5c-.1-.2,0-.4.2-.4h.4c.1-.2.2-.2.4-.2h.5c0-.2.1-.3.2-.3a.9.9,0,0,1,.5.3h.1c0-.2.1-.4.3-.4s.4.1.5.3v.2h0l.3-.3c.2,0,.2.2.3.3h.4c.2,0,.4.1.4.3v.2c.2,0,.4-.1.5.1a.2.2,0,0,1,.3,0,.2.2,0,0,1,.2.2c-.1.1-.2.2-.2.3h-.2a.2.2,0,0,1,.2.2h0C38.7,92.7,38.7,92.9,38.6,93.1Z" fill="#2e4149" opacity="0.3" style="mix-blend-mode:multiply"/><path d="M38.9,90.3a.4.4,0,0,0-.1-.3h-.2a.6.6,0,0,0,0-.6c0-.1-.1-.1-.2-.2a.3.3,0,0,1-.1-.2.4.4,0,0,0,.1-.3c0-.2-.2-.3-.4-.4h-.1a.3.3,0,0,0-.1-.2h-.5c-.1,0-.1,0-.1-.1a.8.8,0,0,0-.2-.5h-.5a.3.3,0,0,1-.1.2h-.1a.1.1,0,0,0-.1-.1h-.3l-.3.3h-.1a.1.1,0,0,1-.1-.1l-.3-.3c-.2-.1-.5.1-.6.3h-.6c-.2.1-.2.4-.2.5h0c-.2-.1-.4-.2-.5-.1a.3.3,0,0,0-.3.5v.2h-.5c-.2.1-.2.3-.1.5s-.2.3-.1.5h-.2v.2a.5.5,0,0,0,.1.6h.1a.2.2,0,0,1,0,.3.4.4,0,0,0-.1.3.5.5,0,0,0,.2.4.9.9,0,0,0,0,.7c0,.2.1.2.3.2s.1.1.2,0,.2,0,.2.2a.3.3,0,0,0-.1.2h0c0,.2.1.3.2.3s.3,0,.4,0h.4c.1-.1.1-.2.2-.1s.2.4.4.4l.3-.2c.1.1.1.2.3.3s.1.1.2.1l.3-.2h.6c.2-.1.2-.2.2-.4h.3c.1,0,.2.1.3,0a.5.5,0,0,0,.3-.5c.3.1.6.1.7-.2s0-.3,0-.4h.4v-.2c.1-.1,0-.2,0-.3l.2-.3c.1-.1.1-.1.1-.2s0-.3-.1-.4A.5.5,0,0,0,38.9,90.3Z" fill="#008c47"/><path d="M38.1,88.5l.2-.2-.3-.2h-.1a.3.3,0,0,0-.1-.2h-.5c-.1,0-.1,0-.1-.1a.8.8,0,0,0-.2-.5h-.5a.3.3,0,0,1-.1.2h-.1a.1.1,0,0,0-.1-.1h-.3l-.3.3h-.1a.1.1,0,0,1-.1-.1l-.3-.3c-.2-.1-.5.1-.6.3h-.6c-.2.1-.2.4-.2.5h0c-.2-.1-.4-.2-.5-.1a.3.3,0,0,0-.3.5v.2h-.4a.4.4,0,0,0,.1.5h.4c-.1.2-.1.4.1.5h.5c.2.1,0,.4,0,.6l.3.2h.6c.2.1.4-.1.4-.3s0-.3-.1-.4h0c0-.1,0-.2.1-.1h.1a.3.3,0,0,0,.1.2.4.4,0,0,0,.5.1h.1V90c.1-.1.2.1.2.2H36a.2.2,0,0,0,.2.2h.3c.2-.1.3-.3.2-.4h.1c.1,0,.2,0,.3-.2a.4.4,0,0,0-.1-.3c-.1-.1-.1-.2,0-.2s.1-.1.2,0h0c.1.3.2.5.5.6s.1.1.2.1.2-.2.2-.3a.5.5,0,0,0-.2-.4c.1-.1.2-.2.1-.4s-.1-.1,0-.2Z" fill="#00ad31"/><path d="M37.5,90h-.2c-.1,0-.1.1-.1.2h.2c0,.1.1,0,.1,0h.1C37.6,90.1,37.6,90,37.5,90Z" fill="#00ad31"/><path d="M34.4,91.2c0-.1-.1-.2-.2-.3H34c-.2,0-.3.1-.3.2a.4.4,0,0,0,.1.3.3.3,0,0,0,.1.2h.5Z" fill="#00ad31"/><path d="M35.2,91.2A.2.2,0,0,0,35,91h-.3v.3h.4A.4.4,0,0,0,35.2,91.2Z" fill="#00ad31"/><path d="M23.9,83.3a.8.8,0,0,1-.8.3.1.1,0,0,0,.1.1L23,84h-.7c.1,0,.1.1.1.2s-.3.2-.5.1h-.2c.1.2.1.4-.1.5s-.3-.1-.4-.2h0a.1.1,0,0,0-.1.1h-.3l-.2.2c-.2,0-.3-.1-.3-.2h-.2c0,.1-.1.1-.2.1s-.2-.2-.2-.4h-.1c0,.1,0,.2-.1.2h-.3c-.1-.1,0-.2,0-.4h-.3a.1.1,0,0,1-.1.1h-.2l-.2-.4v-.2a.2.2,0,0,1-.2.2H18a.4.4,0,0,1,.1-.5.5.5,0,0,1-.5,0c-.1,0-.1-.1-.1-.2l.3-.3h-.3c-.1,0-.1-.1,0-.2l.3-.2c-.2-.1-.4-.2-.3-.4h.8c0-.2.1-.4.3-.4h.3a.1.1,0,0,1,.1-.1l.3-.2.5.2h0c0-.1.1-.2.3-.2l.4.2a.1.1,0,0,0,.1.1h.1l.2-.4a.6.6,0,0,1,.5.3v.2h.1c0-.1.1-.2.3-.2s.2.2.2.3h0l.5-.2c.2,0,.3.1.4.3v.2h.7c.2,0,.2.1.2.3a.2.2,0,0,1-.2.2h-.1c.1.1.2.1.2.2h0C23.9,83,24,83.1,23.9,83.3Z" fill="#2e4149" opacity="0.3" style="mix-blend-mode:multiply"/><path d="M24.1,80.5c0-.1,0-.2-.1-.2h-.1a.4.4,0,0,0,0-.5l-.2-.2a.3.3,0,0,1-.1-.2c.1-.1.1-.2.1-.4a.5.5,0,0,0-.5-.3h0v-.4h-.6a.4.4,0,0,0-.2-.6h-.3c-.1,0-.1,0-.1.1h-.2c-.1,0-.1,0-.1-.1h-.3c-.2,0-.2.1-.3.2h-.1c-.1,0-.1-.1-.1-.2l-.3-.2a.7.7,0,0,0-.7.2.1.1,0,0,1-.1.1h-.4a.7.7,0,0,0-.3.6h-.5a.5.5,0,0,0-.3.5c.1.1.1.1.1.2s.1.1,0,.2h-.5a.9.9,0,0,0-.1.5c-.1.1-.2.4-.1.5l-.2.2h-.1a.6.6,0,0,0,.1.6h.2a.1.1,0,0,1,0,.2.5.5,0,0,0-.2.4c0,.1.1.2.2.3s-.1.6,0,.8l.3.2H18c.1,0,.3,0,.2.1v.4c0,.1.1.2.2.3h.4l.2.2h.2c.1,0,.2-.2.3,0s.2.4.4.4l.3-.3a.5.5,0,0,0,.2.4h.3c.1,0,.1-.2.3-.2l.3.2h.3a.4.4,0,0,0,.1-.3h.7a.5.5,0,0,0,.3-.5c.2,0,.5.1.7-.2s0-.3-.1-.4a.6.6,0,0,0,.5-.2.3.3,0,0,0,.1-.2v-.3l.2-.3v-.2c.1-.1,0-.3,0-.4S24.2,80.7,24.1,80.5Z" fill="#008c47"/><path d="M23.4,78.7v-.2h-.3v-.4h-.6a.4.4,0,0,0-.2-.6h-.3c-.1,0-.1,0-.1.1h-.2c-.1,0-.1,0-.1-.1h-.3c-.2,0-.2.1-.3.2h-.1c-.1,0-.1-.1-.1-.2l-.3-.2a.7.7,0,0,0-.7.2.1.1,0,0,1-.1.1h-.4a.7.7,0,0,0-.3.6h-.5a.5.5,0,0,0-.3.5c.1.1.1.1.1.2s.1.1,0,.2h-.4a.8.8,0,0,0,.2.4l.2.2h.2c0,.1-.1.1-.1.2s0,.3.1.4H19c.2.2-.1.4-.1.6a.4.4,0,0,0,.4.2l.3.2h.2c.3,0,.4-.2.5-.4s-.1-.2-.1-.3h.1l.2.3a.3.3,0,0,0,.4,0H21v-.2h.2v.2h.6a.5.5,0,0,0,.2-.4h.3c.1-.2,0-.3-.1-.4s-.1-.1,0-.2.2,0,.3,0h0a.7.7,0,0,0,.4.5c.1.1.2.2.3.1s.1-.1.1-.3a.6.6,0,0,0-.1-.4c.1-.1.1-.2.1-.4h-.1C23.2,78.8,23.3,78.8,23.4,78.7Z" fill="#00ad31"/><path d="M22.8,80.2h-.1c-.1-.1-.1-.1-.2,0h.4C22.9,80.3,22.8,80.3,22.8,80.2Z" fill="#00ad31"/><path d="M19.6,81.5v-.3l-.3-.2a.2.2,0,0,0-.2.2c-.1.2,0,.3,0,.4h.3a.2.2,0,0,0,.3-.1C19.7,81.6,19.7,81.5,19.6,81.5Z" fill="#00ad31"/><path d="M20.5,81.5c0-.2-.1-.2-.2-.3H20v.2l.3.2h.2A.3.3,0,0,1,20.5,81.5Z" fill="#00ad31"/><path d="M74.3,92.2a.8.8,0,0,1-.8.2v.2a.2.2,0,0,1-.2.2c-.1.1-.2,0-.3,0h-.4l.2.3c-.1.2-.4.1-.6.1h-.1c0,.1.1.4-.1.5s-.4-.1-.5-.2v-.2c0,.1-.1.1-.1.2h-.9c0,.1,0,.1-.1.2h-.1a.5.5,0,0,1-.3-.4h0c-.1.1-.1.2-.2.2s-.2,0-.3-.1v-.3H69a.7.7,0,0,1-.1-.5v-.2q-.2.3-.3.3h-.2c-.1-.1,0-.3.1-.5s-.3.2-.4.1-.2-.2-.1-.3.1-.1.2-.2.1-.1.2-.2h-.5c-.1-.1-.1-.1,0-.2l.3-.2c-.2-.1-.4-.2-.3-.4l.3-.2h.6c-.1-.2,0-.4.2-.4h.4c.1-.2.2-.2.4-.2h.4c.1-.1.1-.2.3-.2s.3.2.5.3h.1c0-.2.1-.4.3-.4s.3.1.4.3v.2H72q0-.2.3-.3c.2,0,.2.2.2.3H73c.2,0,.4.1.4.2v.3a.3.3,0,0,1,.5.1h.3c.1,0,.1.1.1.2l-.2.3a.1.1,0,0,1-.1.1l.2.2h0A.4.4,0,0,1,74.3,92.2Z" fill="#2e4149" opacity="0.3" style="mix-blend-mode:multiply"/><path d="M74.6,89.4c0-.1-.1-.2-.1-.3h-.2a.4.4,0,0,0,0-.5l-.2-.2c-.1,0-.1-.1-.1-.2a.4.4,0,0,0,.1-.3l-.4-.4c-.1,0-.1,0-.1-.1h0a.2.2,0,0,0-.2-.2h-.2c-.1,0-.2.1-.3,0h-.1a.4.4,0,0,0-.2-.5h-.3a.1.1,0,0,1-.1.1l-.2.2c.1,0,0-.1,0-.1h-.4l-.3.3h0c-.1,0-.1,0-.1-.1h-.1l-.3-.3c-.2-.1-.5.1-.6.3H70a.1.1,0,0,1-.1-.1h-.3c-.2.1-.2.3-.3.5h0a.4.4,0,0,0-.5-.1c-.2,0-.3.3-.2.5v.2c.1,0,.1,0,0,.1h-.4c-.2.1-.2.3-.1.5s-.2.3-.2.5h-.1l-.2.2a.7.7,0,0,0,.2.6h.1a.2.2,0,0,1,0,.3.4.4,0,0,0-.1.3c0,.2,0,.3.2.4s-.2.5,0,.7a.2.2,0,0,0,.2.2h.3c.1,0,.2,0,.2.2a.1.1,0,0,0-.1.1.3.3,0,0,0-.1.2c.1.2.1.3.3.3h.5a.1.1,0,0,0,.2,0c.1-.1.2-.2.3-.1s.2.4.4.4l.3-.2.2.3H71l.3-.2h.6a.5.5,0,0,0,.2-.4h.6a.5.5,0,0,0,.3-.5c.3.1.6.1.7-.2a.6.6,0,0,0-.1-.4h.5c0-.1.1-.1.1-.2v-.3c0-.1.1-.2.2-.3a.3.3,0,0,1,.1-.2c0-.2-.1-.3-.1-.4A.5.5,0,0,0,74.6,89.4Z" fill="#008c47"/><path d="M73.8,87.6v-.2a.2.2,0,0,0-.2-.2c-.1,0-.1,0-.1-.1h0a.2.2,0,0,0-.2-.2h-.2c-.1,0-.2.1-.3,0h-.1a.4.4,0,0,0-.2-.5h-.3a.1.1,0,0,1-.1.1l-.2.2c.1,0,0-.1,0-.1h-.4l-.3.3h0c-.1,0-.1,0-.1-.1h-.1l-.3-.3c-.2-.1-.5.1-.6.3H70a.1.1,0,0,1-.1-.1h-.3c-.2.1-.2.3-.3.5h0a.4.4,0,0,0-.5-.1c-.2,0-.3.3-.2.5v.2c.1,0,.1,0,0,.1h-.4a.8.8,0,0,0,.2.5h.3a.1.1,0,0,1,.1.1h-.1c0,.2,0,.4.2.5h.2c.1,0,.2-.1.3,0s-.1.4,0,.5a.3.3,0,0,0,.3.3h.6c.2.1.3-.1.4-.4a.4.4,0,0,0-.1-.3h0c0-.1,0-.2.1-.2s0,.2.1.2,0,.2.1.2.3.2.4.1h.2c0-.1-.1-.2-.1-.3l.2.2a.1.1,0,0,0,.1.1v.2c.2.1.3,0,.4,0l.2-.4h0c.1,0,.3,0,.3-.2s0-.2,0-.3-.2-.2-.1-.2h.3a.7.7,0,0,0,.4.6h.3l.2-.3a.5.5,0,0,0-.2-.4c.1-.1.1-.2.1-.4s-.1-.1-.1-.2Z" fill="#00ad31"/><path d="M73.2,89.1h-.3a.1.1,0,0,0,0,.2h0c0,.1.1.1.2.1h.1a.1.1,0,0,0,.1-.1C73.3,89.2,73.3,89.1,73.2,89.1Z" fill="#00ad31"/><path d="M70,90.3a.4.4,0,0,0-.1-.3h-.3l-.2.2a.4.4,0,0,0,.1.3c0,.1,0,.2.1.2h.1c.1.1.3.1.3,0A.2.2,0,0,0,70,90.3Z" fill="#00ad31"/><path d="M70.9,90.3l-.2-.2h-.1c-.1,0-.1,0-.1.1h-.1c0,.1-.1.2,0,.3h.4A.3.3,0,0,0,70.9,90.3Z" fill="#00ad31"/><path d="M81.9,96.6c-.1.3-.4.3-.7.3h0c0,.1,0,.2-.2.3h-.6a.3.3,0,0,1,.1.2c0,.3-.4.2-.5.1h-.2c0,.2.1.4-.1.5s-.3-.1-.4-.2h-.1a.1.1,0,0,1-.1.1h-.2l-.3.2-.3-.2H78c-.2,0-.2-.2-.3-.4h0l-.2.2h-.2c-.1-.1-.1-.2-.1-.4h-.5a.4.4,0,0,1-.2-.4v-.2l-.3.2h-.1a.4.4,0,0,1,0-.5.3.3,0,0,1-.4,0c-.1,0-.1-.1-.1-.2s.1-.2.2-.3h-.2c-.1,0-.1-.1-.1-.2l.4-.2c-.2-.1-.5-.2-.4-.4h.9c0-.2,0-.4.2-.4H77l.4-.2.4.2h.1l.2-.2.5.2h.1c.1-.1.1-.3.3-.4a.9.9,0,0,1,.5.3c0,.1,0,.2.1.2h0l.3-.2c.2,0,.2.2.3.3h0l.4-.2c.2,0,.4.1.4.3s0,.1,0,.2.5,0,.5.1h.3c.1,0,.2.1.2.3l-.2.3h-.1c0,.1.1.1.1.2h0C82,96.3,82,96.4,81.9,96.6Z" fill="#2e4149" opacity="0.3" style="mix-blend-mode:multiply"/><path d="M82.2,93.8c0-.1,0-.2-.1-.2h-.2c.1-.2.2-.4,0-.5l-.2-.2c0-.1,0-.2-.1-.2s.1-.2.1-.4-.2-.3-.4-.3-.1,0-.1-.1v-.2c0-.1-.1-.1-.1-.2h-.6c0-.3,0-.5-.2-.6h-.4a.1.1,0,0,0-.1.1h-.6l-.3.2h-.1a.3.3,0,0,1-.1-.2c0-.1-.1-.2-.3-.2a.5.5,0,0,0-.6.2h-.6c-.2.1-.2.4-.2.6h-.5c-.3.1-.4.3-.3.5s.1.1.1.2v.2h-.5a.9.9,0,0,0-.1.5c-.1.1-.2.4-.1.5s-.2.1-.2.2h-.1c-.1.2-.1.5.1.6h.1c.1.1.1.2,0,.2s-.1.2-.1.4.1.2.2.3a1.1,1.1,0,0,0,0,.8l.3.2h.4c0,.1-.1.1-.1.2v.2l.2.3h.4c0,.1.1.1.2.2h.2c.1,0,.1-.2.3,0s.1.4.4.4l.3-.3c0,.2,0,.3.2.4h.2l.3-.2.4.2h.2c.2-.1.2-.2.2-.3h.6a1,1,0,0,0,.4-.5c.2,0,.5.1.6-.2s0-.3,0-.4a.4.4,0,0,0,.4-.2c.1,0,.1-.1.1-.2s0-.2,0-.3.2-.2.2-.3.1-.1.1-.2a.6.6,0,0,0-.1-.4A.5.5,0,0,0,82.2,93.8Z" fill="#008c47"/><path d="M81.4,92l.2-.2h-.3c-.1,0-.1,0-.1-.1v-.2c0-.1-.1-.1-.1-.2h-.6c0-.3,0-.5-.2-.6h-.4a.1.1,0,0,0-.1.1h-.6l-.3.2h-.1a.3.3,0,0,1-.1-.2c0-.1-.1-.2-.3-.2a.5.5,0,0,0-.6.2h-.6c-.2.1-.2.4-.2.6h-.5c-.3.1-.4.3-.3.5s.1.1.1.2v.2h-.4a.6.6,0,0,0,.1.4l.3.2h.1v.2c-.1.1,0,.3.1.4H77c.2.2,0,.4,0,.6s.2.2.4.2l.3.2h.2a.4.4,0,0,0,.4-.4.4.4,0,0,0-.1-.3h.2c0,.1.1.2.1.3H79a.1.1,0,0,0,.1-.1v-.2c.1-.1.2,0,.2.1s.1.1.1.2h.6c.1-.1.2-.2.1-.4h.4c0-.2,0-.3-.1-.4s-.1-.1,0-.2.1,0,.2,0h0a.8.8,0,0,0,.5.5c0,.1.1.2.2.1s.2-.1.2-.3l-.2-.4c.1-.1.2-.2.1-.4s-.1-.1,0-.1S81.4,92.1,81.4,92Z" fill="#00ad31"/><path d="M80.8,93.5h-.3c0,.1,0,.1.1.1h0a.1.1,0,0,0,.1.1h.2v-.2C80.9,93.6,80.9,93.6,80.8,93.5Z" fill="#00ad31"/><path d="M77.7,94.8c0-.1-.1-.3-.2-.3a.2.2,0,0,0-.2-.2l-.3.2c0,.2,0,.3.1.4h.3c.1.1.2,0,.3-.1Z" fill="#00ad31"/><path d="M78.5,94.8c0-.2-.1-.2-.2-.3h-.2a.1.1,0,0,1-.1.1v.2l.2.2h.2A.3.3,0,0,0,78.5,94.8Z" fill="#00ad31"/><path d="M89.6,100.9a.8.8,0,0,1-.8.3h0c.1.2,0,.3-.1.3H88c.1.1.1.1.1.3s-.3.1-.5,0h-.2c.1.2.1.5-.1.5s-.3-.1-.4-.2h-.1l-.3.2h-.6v.2h-.2c-.1,0-.2-.2-.2-.3h-.1v.2h-.3c-.1-.1-.1-.2,0-.4h-.4c0,.1-.1.1-.2,0a.5.5,0,0,1-.2-.4v-.2l-.2.2h-.2c-.1-.2,0-.3.1-.5h-.5a.4.4,0,0,1-.1-.3l.2-.2.2-.2h-.4c-.1-.1-.1-.2,0-.2l.3-.3c-.2-.1-.4-.2-.3-.4s.2-.1.3-.1H84c0-.2,0-.4.3-.4h.4c0-.1.2-.2.3-.2l.5.2h0a.2.2,0,0,1,.2-.2.5.5,0,0,1,.5.3h.2c0-.1.1-.3.2-.3s.4.1.5.3v.2h.1a.3.3,0,0,1,.3-.3c.1,0,.2.2.2.3h0l.5-.2a.5.5,0,0,1,.4.3v.2h.7l.2.3c0,.1-.1.2-.2.3a.1.1,0,0,0-.1.1h.2c0,.1,0,.1-.1.2S89.7,100.8,89.6,100.9Z" fill="#2e4149" opacity="0.3" style="mix-blend-mode:multiply"/><path d="M89.8,98.2a.4.4,0,0,0-.1-.3.1.1,0,0,0-.1-.1h0a.5.5,0,0,0,0-.5l-.2-.2v-.2c.1-.1.1-.2,0-.4s-.2-.3-.4-.3h-.1c0-.1.1-.1,0-.2a.1.1,0,0,0-.1-.1h-.6a.5.5,0,0,0-.2-.6h-.5v.2h-.4c-.2,0-.2.1-.3.2h-.2v-.2a.2.2,0,0,0-.2-.2.6.6,0,0,0-.7.2h-.2a.2.2,0,0,0-.3,0,.5.5,0,0,0-.3.5h-.5a.6.6,0,0,0-.3.6h.1c0,.1.1.1,0,.2h-.5a1.1,1.1,0,0,0-.1.5.7.7,0,0,0-.1.6H83a.3.3,0,0,0-.1.2c-.1.1,0,.4.1.5h.2c.1.1,0,.2,0,.3s-.2.2-.2.3.1.3.2.3-.1.6,0,.8l.3.2h.2c.1,0,.3,0,.2.1s-.1.1-.1.2v.2l.2.3h.4l.2.2h.2c.1-.1.2-.3.3-.1s.2.4.4.4l.3-.3a.5.5,0,0,0,.2.4h.3c.1,0,.1-.2.2-.1h.7c.1,0,.1-.2.1-.3H88a.5.5,0,0,0,.3-.5.4.4,0,0,0,.6-.2.3.3,0,0,0,0-.4h.5v-.6a.2.2,0,0,1,.2-.2v-.3c.1-.1,0-.2,0-.3A.6.6,0,0,0,89.8,98.2Z" fill="#008c47"/><path d="M89.1,96.3a.3.3,0,0,0,.1-.2h-.4c0-.1.1-.1,0-.2a.1.1,0,0,0-.1-.1h-.6a.5.5,0,0,0-.2-.6h-.5v.2h-.4c-.2,0-.2.1-.3.2h-.2v-.2a.2.2,0,0,0-.2-.2.6.6,0,0,0-.7.2h-.2a.2.2,0,0,0-.3,0,.5.5,0,0,0-.3.5h-.5a.6.6,0,0,0-.3.6h.1c0,.1.1.1,0,.2h-.4a.8.8,0,0,0,.2.5h.4v.2c-.1.2,0,.3.1.5h.6c.2.1-.1.3-.1.5s.2.2.4.3h.5a.4.4,0,0,0,.4-.4c.1-.1,0-.2,0-.3H86V98l.2.2h.4c.1-.1.1-.1.1-.2v-.2c0-.1.1,0,.2.1v.2l.2.2h.4a.5.5,0,0,0,.2-.4H88c.1-.1,0-.3-.1-.4a.1.1,0,0,1,0-.2h.3a.8.8,0,0,0,.4.6h.3c.1,0,.1-.1.1-.2s0-.4-.2-.5.2-.2.2-.3v-.2Z" fill="#00ad31"/><path d="M88.5,97.9a.1.1,0,0,1-.1-.1h.1c0-.1.1-.1.1-.2Z" fill="#00ad31"/><path d="M85.3,99.1c0-.1-.1-.2-.1-.3h-.3c-.1,0-.2,0-.2.2s0,.2,0,.3l.2.2H85a.2.2,0,0,0,.3-.1C85.4,99.2,85.3,99.2,85.3,99.1Z" fill="#00ad31"/><path d="M86.1,99.1a.4.4,0,0,0-.1-.3h-.2c0,.1,0,.1-.1.1h0c-.1.1-.1.1-.1.2l.3.2a.1.1,0,0,0,.1-.1C86.1,99.2,86.1,99.2,86.1,99.1Z" fill="#00ad31"/><polygon points="96.3 97.6 41.6 66 41.6 22.1 69 21.1 96.3 53.7 96.3 97.6" fill="#a39088"/><polygon points="41.6 56.8 96.3 88.5 96.3 88 41.6 56.4 41.6 56.8" fill="#93786f"/><polygon points="41.6 54.7 96.3 86.3 96.3 85.8 41.6 54.2 41.6 54.7" fill="#93786f"/><polygon points="41.6 52.5 96.3 84.1 96.3 83.7 41.6 52 41.6 52.5" fill="#93786f"/><polygon points="41.6 50.4 96.3 82 96.3 81.5 41.6 49.9 41.6 50.4" fill="#93786f"/><polygon points="41.6 48.2 96.3 79.8 96.3 79.3 41.6 47.7 41.6 48.2" fill="#93786f"/><polygon points="41.6 46 96.3 77.7 96.3 77.2 41.6 45.6 41.6 46" fill="#93786f"/><polygon points="41.6 43.9 96.3 75.5 96.3 75 41.6 43.4 41.6 43.9" fill="#93786f"/><polygon points="41.6 41.7 96.3 73.3 96.3 72.9 41.6 41.2 41.6 41.7" fill="#93786f"/><polygon points="41.6 39.6 96.3 71.2 96.3 70.7 41.6 39.1 41.6 39.6" fill="#93786f"/><polygon points="41.6 37.4 96.3 69 96.3 68.5 41.6 36.9 41.6 37.4" fill="#93786f"/><polygon points="41.6 35.2 96.3 66.9 96.3 66.4 41.6 34.8 41.6 35.2" fill="#93786f"/><polygon points="41.6 33.1 96.3 64.7 96.3 64.2 41.6 32.6 41.6 33.1" fill="#93786f"/><polygon points="41.6 30.9 96.3 62.5 96.3 62.1 41.6 30.4 41.6 30.9" fill="#93786f"/><polygon points="41.6 28.7 96.3 60.4 96.3 59.9 41.6 28.3 41.6 28.7" fill="#93786f"/><polygon points="41.6 26.6 96.3 58.2 96.3 57.7 41.6 26.1 41.6 26.6" fill="#93786f"/><polygon points="41.6 24.4 96.3 56.1 96.3 55.6 41.6 24 41.6 24.4" fill="#93786f"/><polygon points="42.1 22.1 41.6 22.1 41.6 22.3 96.3 53.9 96.3 53.7 95.8 53.1 42.1 22.1" fill="#93786f"/><polygon points="92.3 48.9 45.6 22 44.8 22 93.1 49.9 92.3 48.9" fill="#93786f"/><polygon points="88.8 44.7 49.1 21.8 48.3 21.8 89.6 45.7 88.8 44.7" fill="#93786f"/><polygon points="85.3 40.6 52.6 21.7 51.8 21.7 86.1 41.5 85.3 40.6" fill="#93786f"/><polygon points="81.8 36.4 56.1 21.6 55.4 21.6 82.6 37.3 81.8 36.4" fill="#93786f"/><polyline points="44.3 60.1 64.9 72 64.9 46 44.3 45.2 44.3 60.1" fill="#2e4149" opacity="0.3" style="mix-blend-mode:multiply"/><polygon points="58.3 48.5 47.8 42.4 47.8 62.1 48.6 62.6 48.6 43.8 57.6 48.9 57.6 67.7 58.3 68.2 58.3 48.5" fill="#f0f5f7"/><polygon points="48.6 43.8 48.6 62.6 57.6 67.7 57.6 48.9 48.6 43.8" fill="#4b4751"/><polygon points="49.7 51 52.6 52.6 52.6 52.2 50.1 50.8 49.7 51" fill="#37323f"/><polygon points="49.7 47.1 49.7 51 50.1 50.8 50.1 47.3 49.7 47.1" fill="#25202d"/><polygon points="50.1 47.3 50.1 50.8 52.6 52.2 52.6 48.7 50.1 47.3" fill="#4dd0e1"/><polygon points="50.7 50.4 50.7 47.7 52.6 48.7 50.7 50.4" fill="#b2ebf2"/><polygon points="52.6 49.1 51 50.6 51.3 50.7 52.6 49.5 52.6 49.1" fill="#b2ebf2"/><polygon points="50.5 50.6 50.5 47.5 50.1 47.3 50.1 50.8 52.6 52.2 52.6 51.8 50.5 50.6" fill="#009bbf"/><polygon points="53.6 53.2 56.4 54.8 56.4 54.4 53.9 53 53.6 53.2" fill="#37323f"/><polygon points="53.6 49.3 53.6 53.2 53.9 53 53.9 49.5 53.6 49.3" fill="#25202d"/><polygon points="53.9 49.5 53.9 53 56.4 54.4 56.4 50.9 53.9 49.5" fill="#4dd0e1"/><polygon points="54.6 52.6 54.6 49.9 56.4 50.9 54.6 52.6" fill="#b2ebf2"/><polygon points="56.4 51.3 54.8 52.8 55.1 52.9 56.4 51.8 56.4 51.3" fill="#b2ebf2"/><polygon points="54.3 52.8 54.3 49.7 53.9 49.5 53.9 53 56.4 54.4 56.4 54 54.3 52.8" fill="#009bbf"/><polygon points="49.7 56.1 52.6 57.7 52.6 57.3 50.1 55.9 49.7 56.1" fill="#37323f"/><polygon points="49.7 52.2 49.7 56.1 50.1 55.9 50.1 52.4 49.7 52.2" fill="#25202d"/><polygon points="50.1 52.4 50.1 55.9 52.6 57.3 52.6 53.8 50.1 52.4" fill="#4dd0e1"/><polygon points="50.7 55.5 50.7 52.8 52.6 53.8 50.7 55.5" fill="#b2ebf2"/><polygon points="52.6 54.2 51 55.7 51.3 55.8 52.6 54.7 52.6 54.2" fill="#b2ebf2"/><polygon points="50.5 55.7 50.5 52.6 50.1 52.4 50.1 55.9 52.6 57.3 52.6 56.9 50.5 55.7" fill="#009bbf"/><polygon points="53.6 58.3 56.4 59.9 56.4 59.5 53.9 58.1 53.6 58.3" fill="#37323f"/><polygon points="53.6 54.4 53.6 58.3 53.9 58.1 53.9 54.6 53.6 54.4" fill="#25202d"/><polygon points="53.9 54.6 53.9 58.1 56.4 59.5 56.4 56 53.9 54.6" fill="#4dd0e1"/><polygon points="54.6 57.7 54.6 55 56.4 56 54.6 57.7" fill="#b2ebf2"/><polygon points="56.4 56.4 54.8 57.9 55.1 58 56.4 56.9 56.4 56.4" fill="#b2ebf2"/><polygon points="54.3 57.9 54.3 54.8 53.9 54.6 53.9 58.1 56.4 59.5 56.4 59.1 54.3 57.9" fill="#009bbf"/><polygon points="96.3 53.8 130.1 34.3 130.1 78.2 96.3 97.7 96.3 53.8" fill="#896a60"/><polygon points="130.1 68.5 96.3 88 96.3 88.5 130.1 69 130.1 68.5" fill="#775850"/><polygon points="130.1 66.3 96.3 85.8 96.3 86.3 130.1 66.8 130.1 66.3" fill="#775850"/><polygon points="130.1 64.2 96.3 83.7 96.3 84.1 130.1 64.6 130.1 64.2" fill="#775850"/><polygon points="130.1 62 96.3 81.5 96.3 82 130.1 62.5 130.1 62" fill="#775850"/><polygon points="130.1 59.8 96.3 79.3 96.3 79.8 130.1 60.3 130.1 59.8" fill="#775850"/><polygon points="130.1 57.7 96.3 77.2 96.3 77.7 130.1 58.2 130.1 57.7" fill="#775850"/><polygon points="130.1 55.5 96.3 75 96.3 75.5 130.1 56 130.1 55.5" fill="#775850"/><polygon points="130.1 53.4 96.3 72.9 96.3 73.3 130.1 53.8 130.1 53.4" fill="#775850"/><polygon points="130.1 51.2 96.3 70.7 96.3 71.2 130.1 51.7 130.1 51.2" fill="#775850"/><polygon points="130.1 49 96.3 68.5 96.3 69 130.1 49.5 130.1 49" fill="#775850"/><polygon points="130.1 46.9 96.3 66.4 96.3 66.9 130.1 47.4 130.1 46.9" fill="#775850"/><polygon points="130.1 44.7 96.3 64.2 96.3 64.7 130.1 45.2 130.1 44.7" fill="#775850"/><polygon points="130.1 42.6 96.3 62.1 96.3 62.5 130.1 43 130.1 42.6" fill="#775850"/><polygon points="130.1 40.4 96.3 59.9 96.3 60.4 130.1 40.9 130.1 40.4" fill="#775850"/><polygon points="130.1 38.2 96.3 57.7 96.3 58.2 130.1 38.7 130.1 38.2" fill="#775850"/><polygon points="41.6 66 96.3 97.6 96.3 90.3 41.6 58.7 41.6 66" fill="#93786f"/><polygon points="96.3 97.7 130.1 78.2 130.1 70.8 96.3 90.3 96.3 97.7" fill="#775850"/><polygon points="50.3 80.3 64.9 72 64.9 79.4 50.3 87.8 50.3 80.3" fill="#896a60"/><polygon points="27 66.9 41.6 58.5 64.9 72 50.3 80.3 27 66.9" fill="#bca7a0"/><polygon points="46.3 61.3 45.7 60.9 41.3 60.9 41.3 61.3 45.2 61.3 44.3 61.7 39.9 61.7 39.9 62.1 43.7 62.1 42.9 62.6 38.5 62.6 38.5 62.9 42.3 62.9 41.6 63.3 37 63.3 37 63.7 41 63.7 40.1 64.2 35.6 64.2 35.6 64.5 39.5 64.5 38.7 65 34.2 65 34.2 65.4 38.1 65.4 37.5 65.7 30.2 65.7 30.2 67.7 35 67.7 36.3 68.4 32.8 68.4 32.8 68.8 37 68.8 37.8 69.3 34.2 69.3 34.2 69.7 38.5 69.7 39.2 70.1 35.6 70.1 35.6 70.5 39.9 70.5 48.8 75.4 44.7 75.4 44.7 75.8 49.5 75.8 50.2 76.3 46.1 76.3 46.1 76.7 50.9 76.7 51.7 77.1 47.5 77.1 47.5 77.5 50.3 77.5 50.3 79.3 52.1 79.3 55.6 77.3 55.6 77.3 56.3 76.9 56.3 76.9 64.9 72 46.3 61.3" fill="#2e4149" opacity="0.3" style="mix-blend-mode:multiply"/><polygon points="44.3 60.1 42.7 60.1 42.7 60.5 44.9 60.5 44.3 60.1" fill="#2e4149" opacity="0.3" style="mix-blend-mode:multiply"/><polygon points="27 66.9 27 74.4 50.3 87.8 50.3 80.3 27 66.9" fill="#a39088"/><polygon points="37 86 43.4 82.3 43.4 83.8 37 87.5 37 86" fill="#25202d"/><polygon points="27.9 80.8 34.3 77.1 43.4 82.3 37 86 27.9 80.8" fill="#37323f"/><polygon points="27.9 80.8 27.9 82.2 37 87.5 37 86 27.9 80.8" fill="#4b4751"/><polygon points="38.4 83.8 43.4 80.9 43.4 82.3 38.4 85.2 38.4 83.8" fill="#25202d"/><polygon points="29.3 78.5 34.3 75.6 43.4 80.9 38.4 83.8 29.3 78.5" fill="#37323f"/><polygon points="29.3 78.5 29.3 80 38.4 85.2 38.4 83.8 29.3 78.5" fill="#4b4751"/><polygon points="39.7 81.5 43.4 79.4 43.4 80.9 39.7 83 39.7 81.5" fill="#25202d"/><polygon points="30.6 76.3 34.3 74.2 43.4 79.4 39.7 81.5 30.6 76.3" fill="#37323f"/><polygon points="30.6 76.3 30.6 77.7 39.7 83 39.7 81.5 30.6 76.3" fill="#4b4751"/><polygon points="41.2 79.3 43.4 77.9 43.4 79.4 41.2 80.7 41.2 79.3" fill="#25202d"/><polygon points="32.1 74 34.3 72.7 43.4 77.9 41.2 79.3 32.1 74" fill="#37323f"/><polygon points="32.1 74 32.1 75.5 41.2 80.7 41.2 79.3 32.1 74" fill="#4b4751"/><polygon points="33.2 57.9 33.2 65.9 32.8 66.2 32.8 58.1 33.2 57.9" fill="#80acb7"/><polyline points="32.8 58.1 32.4 57.9 32.4 65.9 32.8 66.2 32.8 58.1" fill="#fff"/><polygon points="34.6 57.1 34.6 65.1 34.2 65.4 34.2 57.3 34.6 57.1" fill="#80acb7"/><polyline points="34.2 57.3 33.8 57.1 33.8 65.1 34.2 65.4 34.2 57.3" fill="#fff"/><polygon points="36 56.2 36 64.3 35.6 64.5 35.6 56.5 36 56.2" fill="#80acb7"/><polyline points="35.6 56.5 35.2 56.2 35.2 64.3 35.6 64.5 35.6 56.5" fill="#fff"/><polygon points="37.5 55.4 37.5 63.5 37 63.7 37 55.7 37.5 55.4" fill="#80acb7"/><polyline points="37 55.7 36.6 55.4 36.6 63.5 37 63.7 37 55.7" fill="#fff"/><polygon points="38.9 54.6 38.9 62.7 38.5 62.9 38.5 54.9 38.9 54.6" fill="#80acb7"/><polyline points="38.5 54.9 38 54.6 38 62.7 38.5 62.9 38.5 54.9" fill="#fff"/><polygon points="40.3 53.8 40.3 61.8 39.9 62.1 39.9 54 40.3 53.8" fill="#80acb7"/><polyline points="39.9 54 39.5 53.8 39.5 61.8 39.9 62.1 39.9 54" fill="#fff"/><polygon points="41.7 53 41.7 61 41.3 61.3 41.3 53.2 41.7 53" fill="#80acb7"/><polyline points="41.3 53.2 40.9 53 40.9 61 41.3 61.3 41.3 53.2" fill="#fff"/><polygon points="43.1 52.2 43.1 60.2 42.7 60.5 42.7 52.4 43.1 52.2" fill="#80acb7"/><polyline points="42.7 52.4 42.3 52.2 42.3 60.2 42.7 60.5 42.7 52.4" fill="#fff"/><polygon points="44.1 51.1 29.5 59.4 30 59.7 44.6 51.3 44.1 51.1" fill="#fff"/><polygon points="44.6 51.3 30 59.7 30 60.3 44.6 51.9 44.6 51.3" fill="#80acb7"/><polyline points="30.2 41.9 30.2 67.7 28.8 66.9 28.8 41.1" fill="#fff"/><polyline points="30.2 41.9 30.2 67.7 31.5 66.9 31.5 41.1" fill="#80acb7"/><polygon points="53.5 69.4 53.5 77.4 53.1 77.7 53.1 69.6 53.5 69.4" fill="#80acb7"/><polyline points="53.1 69.6 52.7 69.4 52.7 77.4 53.1 77.7 53.1 69.6" fill="#fff"/><polygon points="54.9 68.6 54.9 76.6 54.5 76.9 54.5 68.8 54.9 68.6" fill="#80acb7"/><polyline points="54.5 68.8 54.1 68.6 54.1 76.6 54.5 76.9 54.5 68.8" fill="#fff"/><polygon points="56.3 67.8 56.3 75.8 55.9 76.1 55.9 68 56.3 67.8" fill="#80acb7"/><polyline points="55.9 68 55.5 67.8 55.5 75.8 55.9 76.1 55.9 68" fill="#fff"/><polygon points="57.8 66.9 57.8 75 57.3 75.2 57.3 67.2 57.8 66.9" fill="#80acb7"/><polyline points="57.3 67.2 56.9 66.9 56.9 75 57.3 75.2 57.3 67.2" fill="#fff"/><polygon points="59.2 66.1 59.2 74.2 58.8 74.4 58.8 66.4 59.2 66.1" fill="#80acb7"/><polyline points="58.8 66.4 58.3 66.1 58.3 74.2 58.8 74.4 58.8 66.4" fill="#fff"/><polygon points="60.6 65.3 60.6 73.4 60.2 73.6 60.2 65.6 60.6 65.3" fill="#80acb7"/><polyline points="60.2 65.6 59.8 65.3 59.8 73.4 60.2 73.6 60.2 65.6" fill="#fff"/><polygon points="62 64.5 62 72.5 61.6 72.8 61.6 64.7 62 64.5" fill="#80acb7"/><polyline points="61.6 64.7 61.2 64.5 61.2 72.5 61.6 72.8 61.6 64.7" fill="#fff"/><polygon points="63.4 63.7 63.4 71.7 63 72 63 63.9 63.4 63.7" fill="#80acb7"/><polyline points="63 63.9 62.6 63.7 62.6 71.7 63 72 63 63.9" fill="#fff"/><polygon points="64.4 62.6 49.8 71 50.3 71.2 64.9 62.9 64.4 62.6" fill="#fff"/><polygon points="64.9 62.9 50.3 71.2 50.3 71.8 64.9 63.4 64.9 62.9" fill="#80acb7"/><polygon points="47.1 69.2 47.1 77.2 47.5 77.5 47.5 69.4 47.1 69.2" fill="#fff"/><polyline points="47.5 69.4 48 69.2 48 77.2 47.5 77.5 47.5 69.4" fill="#80acb7"/><polygon points="45.7 68.4 45.7 76.4 46.1 76.7 46.1 68.6 45.7 68.4" fill="#fff"/><polyline points="46.1 68.6 46.5 68.4 46.5 76.4 46.1 76.7 46.1 68.6" fill="#80acb7"/><polygon points="44.3 67.6 44.3 75.6 44.7 75.8 44.7 67.8 44.3 67.6" fill="#fff"/><polyline points="44.7 67.8 45.1 67.6 45.1 75.6 44.7 75.8 44.7 67.8" fill="#80acb7"/><polygon points="44.7 67.3 49.4 70 49 70.3 44.3 67.6 44.7 67.3" fill="#bfd7dd"/><polygon points="44.3 67.6 49 70.3 49 70.8 44.3 68.1 44.3 67.6" fill="#fff"/><polyline points="50.3 53.5 50.3 79.3 49 78.5 49 52.7" fill="#fff"/><polyline points="50.3 53.5 50.3 79.3 51.7 78.5 51.7 52.7" fill="#80acb7"/><polygon points="66.7 23 39.3 24 39.3 26.7 66.7 25.6 94.1 58.3 94.1 55.6 66.7 23" fill="#fff"/><polygon points="131.9 33.8 131.9 36.4 94.1 58.3 94.1 55.6 131.9 33.8" fill="#80acb7"/><polygon points="66.7 21.8 39.3 22.9 39.3 24 66.7 23 94.1 55.6 94.1 54.5 66.7 21.8" fill="#635d6d"/><polygon points="66.7 21.8 104.5 0 131.9 32.7 94.1 54.5 66.7 21.8" fill="#37323f"/><polygon points="39.3 22.9 77.1 1 104.5 0 66.7 21.8 39.3 22.9" fill="#4b4751"/><polygon points="131.9 32.7 131.9 33.8 94.1 55.6 94.1 54.5 131.9 32.7" fill="#25202d"/><polygon points="39.6 36.2 27 36.7 27 37.7 39.6 37.2 52.1 52.2 52.1 51.1 39.6 36.2" fill="#635d6d"/><polygon points="39.6 36.2 54.1 27.8 66.7 42.8 52.1 51.1 39.6 36.2" fill="#37323f"/><polygon points="27 36.7 41.6 28.3 54.1 27.8 39.6 36.2 27 36.7" fill="#4b4751"/><polygon points="66.7 42.8 66.7 43.8 52.1 52.2 52.1 51.1 66.7 42.8" fill="#25202d"/><polygon points="39.6 37.2 27 37.7 27 39.6 39.6 39.1 52.1 54.1 52.1 52.2 39.6 37.2" fill="#fff"/><polygon points="66.7 43.8 66.7 45.7 52.1 54.1 52.1 52.2 66.7 43.8" fill="#80acb7"/><polygon points="50.3 53.6 51.2 53 50.3 51.9 50.3 53.6" fill="#896a60"/><polygon points="39.6 39.1 28.8 39.5 28.8 41.2 50.3 53.6 50.3 51.9 39.6 39.1" fill="#bca7a0"/><path d="M69,52l5.9,3.4V68.2L69,64.8V52m-.8-1.4V65.3l7.4,4.2V54.9l-7.4-4.3Z" fill="#f0f5f7"/><polygon points="69 64.8 74.9 68.2 74.9 67.3 69.7 64.4 69 64.8" fill="#bfd7dd"/><polygon points="69 52 69 64.8 69.7 64.4 69.7 52.4 69 52" fill="#80acb7"/><polygon points="69.7 52.4 69.7 64.4 74.9 67.3 74.9 55.4 69.7 52.4" fill="#4dd0e1"/><polygon points="71.1 58.9 71.1 53.2 74.9 55.4 71.1 58.9" fill="#b2ebf2"/><polygon points="74.9 56.2 71.6 59.2 72.2 59.6 74.9 57.1 74.9 56.2" fill="#b2ebf2"/><polygon points="70.5 63.9 70.5 52.8 69.7 52.4 69.7 64.4 74.9 67.3 74.9 66.5 70.5 63.9" fill="#009bbf"/><polygon points="74.9 61.1 69.7 58.1 69.3 58.4 74.9 61.6 74.9 61.1" fill="#bfd7dd"/><polygon points="74.9 61.6 69.3 58.4 69.3 58.9 74.9 62.1 74.9 61.6" fill="#f0f5f7"/><path d="M83.9,60.6,89.8,64V76.9l-5.9-3.4V60.6m-.7-1.3V73.9l7.4,4.3V63.6l-7.4-4.3Z" fill="#f0f5f7"/><polygon points="83.9 73.5 89.8 76.9 89.8 76 84.7 73 83.9 73.5" fill="#bfd7dd"/><polygon points="83.9 60.6 83.9 73.5 84.7 73 84.7 61.1 83.9 60.6" fill="#80acb7"/><polygon points="84.7 61.1 84.7 73 89.8 76 89.8 64 84.7 61.1" fill="#4dd0e1"/><polygon points="86 67.6 86 61.8 89.8 64 86 67.6" fill="#b2ebf2"/><polygon points="89.8 64.9 86.6 67.9 87.2 68.2 89.8 65.8 89.8 64.9" fill="#b2ebf2"/><polygon points="85.5 72.6 85.5 61.5 84.7 61.1 84.7 73 89.8 76 89.8 75.1 85.5 72.6" fill="#009bbf"/><polygon points="89.8 69.8 84.7 66.8 84.3 67.1 89.8 70.3 89.8 69.8" fill="#bfd7dd"/><polygon points="89.8 70.3 84.3 67.1 84.3 67.5 89.8 70.7 89.8 70.3" fill="#f0f5f7"/><path d="M122.3,52.8V65.7l-5.9,3.4V56.2l5.9-3.4m.8-1.3-7.4,4.3V70.4l7.4-4.3V51.5Z" fill="#f0f5f7"/><polygon points="122.3 65.7 116.4 69.1 116.4 68.2 121.6 65.2 122.3 65.7" fill="#bfd7dd"/><polygon points="122.3 52.8 122.3 65.7 121.6 65.2 121.6 53.2 122.3 52.8" fill="#80acb7"/><polygon points="121.6 53.2 121.6 65.2 116.4 68.2 116.4 56.2 121.6 53.2" fill="#4dd0e1"/><polygon points="120.2 59.8 120.2 54 116.4 56.2 120.2 59.8" fill="#b2ebf2"/><polygon points="116.4 57.1 119.7 60.1 119.1 60.4 116.4 57.9 116.4 57.1" fill="#b2ebf2"/><polygon points="120.8 64.8 120.8 53.7 121.6 53.2 121.6 65.2 116.4 68.2 116.4 67.3 120.8 64.8" fill="#009bbf"/><polygon points="116.4 61.9 121.6 59 122 59.2 116.4 62.5 116.4 61.9" fill="#bfd7dd"/><polygon points="116.4 62.5 122 59.2 122 59.7 116.4 62.9 116.4 62.5" fill="#f0f5f7"/><path d="M109.9,59.9V72.8L104,76.2V63.3l5.9-3.4m.8-1.3-7.4,4.3V77.5l7.4-4.2V58.6Z" fill="#f0f5f7"/><polygon points="109.9 72.8 104 76.2 104 75.3 109.2 72.4 109.9 72.8" fill="#bfd7dd"/><polygon points="109.9 59.9 109.9 72.8 109.2 72.4 109.2 60.4 109.9 59.9" fill="#80acb7"/><polygon points="109.2 60.4 109.2 72.4 104 75.3 104 63.4 109.2 60.4" fill="#4dd0e1"/><polygon points="107.8 66.9 107.8 61.2 104 63.4 107.8 66.9" fill="#b2ebf2"/><polygon points="104 64.2 107.3 67.2 106.7 67.5 104 65.1 104 64.2" fill="#b2ebf2"/><polygon points="108.4 71.9 108.4 60.8 109.2 60.4 109.2 72.4 104 75.3 104 74.5 108.4 71.9" fill="#009bbf"/><polygon points="104 69.1 109.2 66.1 109.6 66.4 104 69.6 104 69.1" fill="#bfd7dd"/><polygon points="104 69.6 109.6 66.4 109.6 66.9 104 70.1 104 69.6" fill="#f0f5f7"/><polygon points="63.3 34.9 68.5 37.8 68.5 36.8 64.3 34.4 63.3 34.9" fill="#bca7a0"/><polygon points="63.3 27.9 63.3 34.9 64.3 34.4 64.3 28.4 63.3 27.9" fill="#896a60"/><polygon points="64.3 28.4 64.3 34.4 68.5 36.8 68.5 30.9 64.3 28.4" fill="#4dd0e1"/><polygon points="65.4 33.8 65.4 29.1 68.5 30.9 65.4 33.8" fill="#b2ebf2"/><polygon points="68.5 31.6 65.8 34 66.3 34.3 68.5 32.3 68.5 31.6" fill="#b2ebf2"/><polygon points="64.9 34 64.9 28.8 64.3 28.4 64.3 34.4 68.5 36.8 68.5 36.1 64.9 34" fill="#009bbf"/><polygon points="35.2 62.2 35.2 70.2 35.6 70.5 35.6 62.4 35.2 62.2" fill="#fff"/><polyline points="35.6 62.4 36 62.2 36 70.2 35.6 70.5 35.6 62.4" fill="#80acb7"/><polygon points="33.8 61.4 33.8 69.4 34.2 69.7 34.2 61.6 33.8 61.4" fill="#fff"/><polyline points="34.2 61.6 34.6 61.4 34.6 69.4 34.2 69.7 34.2 61.6" fill="#80acb7"/><polygon points="32.4 60.5 32.4 68.6 32.8 68.8 32.8 60.8 32.4 60.5" fill="#fff"/><polyline points="32.8 60.8 33.2 60.5 33.2 68.6 32.8 68.8 32.8 60.8" fill="#80acb7"/><polygon points="31.4 59.5 36 62.2 35.6 62.4 30.9 59.7 31.4 59.5" fill="#bfd7dd"/><polygon points="30.9 59.7 35.6 62.4 35.6 63 30.9 60.3 30.9 59.7" fill="#fff"/><polygon points="130 30.3 92.1 52.2 92.4 52.5 130.2 30.7 130 30.3" fill="#25202d"/><polygon points="128.2 28.2 90.3 50 90.6 50.3 128.4 28.5 128.2 28.2" fill="#25202d"/><polygon points="126.4 26 88.5 47.9 88.8 48.2 126.6 26.3 126.4 26" fill="#25202d"/><polygon points="124.6 23.9 86.7 45.7 87 46 124.8 24.2 124.6 23.9" fill="#25202d"/><polygon points="122.7 21.7 84.9 43.5 85.2 43.9 123 22 122.7 21.7" fill="#25202d"/><polygon points="120.9 19.6 83.1 41.4 83.4 41.7 121.2 19.9 120.9 19.6" fill="#25202d"/><polygon points="119.1 17.4 81.3 39.2 81.5 39.6 119.4 17.7 119.1 17.4" fill="#25202d"/><polygon points="117.3 15.3 79.5 37.1 79.7 37.4 117.6 15.6 117.3 15.3" fill="#25202d"/><polygon points="115.5 13.1 77.7 34.9 77.9 35.3 115.8 13.4 115.5 13.1" fill="#25202d"/><polygon points="113.7 10.9 75.9 32.8 76.1 33.1 114 11.3 113.7 10.9" fill="#25202d"/><polygon points="111.9 8.8 74.1 30.6 74.3 30.9 112.2 9.1 111.9 8.8" fill="#25202d"/><polygon points="110.1 6.6 72.2 28.5 72.5 28.8 110.4 7 110.1 6.6" fill="#25202d"/><polygon points="108.3 4.5 70.4 26.3 70.7 26.6 108.6 4.8 108.3 4.5" fill="#25202d"/><polygon points="106.5 2.3 68.6 24.2 68.9 24.5 106.8 2.6 106.5 2.3" fill="#25202d"/><polygon points="101.5 0.1 63.6 21.9 64.5 21.9 102.4 0.1 101.5 0.1" fill="#37323f"/><polygon points="97.8 0.3 60 22.1 60.9 22.1 98.7 0.2 97.8 0.3" fill="#37323f"/><polygon points="94.2 0.4 56.3 22.2 57.2 22.2 95.1 0.4 94.2 0.4" fill="#37323f"/><polygon points="90.5 0.5 52.7 22.4 53.5 22.3 91.4 0.5 90.5 0.5" fill="#37323f"/><polygon points="86.9 0.7 49 22.5 49.9 22.5 87.7 0.6 86.9 0.7" fill="#37323f"/><polygon points="83.2 0.8 45.4 22.6 46.2 22.6 84.1 0.8 83.2 0.8" fill="#37323f"/><polygon points="79.6 1 41.7 22.8 42.6 22.8 80.4 0.9 79.6 1" fill="#37323f"/></g></g></g></svg>