<svg xmlns="http://www.w3.org/2000/svg" width="141.8" height="129.7" viewBox="0 0 141.8 129.7"><title>card3</title><g style="isolation:isolate"><g id="b0302d96-e612-4895-a54a-d4bda47c9373" data-name="Layer 2"><g id="b9f0a8e1-13d4-4e3e-8d12-a4ddeb0c2f3c" data-name="OBJECT"><polygon points="70.9 129.7 0 88.7 0 83.8 70.9 124.7 70.9 129.7" fill="#fab37a"/><polygon points="70.9 129.7 70.9 124.7 141.8 83.8 141.8 88.7 70.9 129.7" fill="#87491f"/><polygon points="70.9 124.7 0 83.8 0 82 70.9 122.9 70.9 124.7" fill="#c5f993"/><polygon points="70.9 124.7 70.9 122.9 141.8 82 141.8 83.8 70.9 124.7" fill="#61933f"/><polygon points="70.9 122.9 0 82 70.9 41 141.8 82 70.9 122.9" fill="#9dd864"/><polygon points="84.5 107.5 97.6 107.5 141.8 82 125.9 72.8 84.5 107.5" fill="#2e4149" opacity="0.3" style="mix-blend-mode:multiply"/><path d="M38.7,89c-.4-.2-.4-.6,0-.9l6.4-3.7-7.5-4.3-6.4,3.6c-4.6,2.7-4.6,7,0,9.7.4.2.4.6,0,.9l-5,2.8,7.6,4.4,4.9-2.9C43.3,96,43.3,91.7,38.7,89Z" fill="#dceaef"/><polygon points="27.4 73.1 27.4 74.5 84.5 107.5 84.5 106.1 27.4 73.1" fill="#fff"/><polygon points="129.5 80.2 84.5 106.1 84.5 107.5 129.5 81.6 129.5 80.2" fill="#80acb7"/><polygon points="72.4 47.2 27.4 73.1 84.5 106.1 129.5 80.2 72.4 47.2" fill="#bfd7dd"/><polygon points="32.5 74.3 53.5 86.4 53.5 73.9 40.8 66.5 40.8 65.4 32.5 70.2 32.5 74.3" fill="#2e4149" opacity="0.3" style="mix-blend-mode:multiply"/><polygon points="53.5 61.6 40.8 54.2 40.8 66.5 53.5 73.9 53.5 61.6" fill="#3383aa"/><polygon points="40.8 56.2 53.5 63.6 53.5 63.2 40.8 55.8 40.8 56.2" fill="#1a6489"/><polygon points="40.8 58.3 53.5 65.7 53.5 65.3 40.8 57.9 40.8 58.3" fill="#1a6489"/><polygon points="40.8 60.3 53.5 67.7 53.5 67.3 40.8 60 40.8 60.3" fill="#1a6489"/><polygon points="40.8 62.4 53.5 69.8 53.5 69.4 40.8 62 40.8 62.4" fill="#1a6489"/><polygon points="40.8 64.4 53.5 71.8 53.5 71.4 40.8 64.1 40.8 64.4" fill="#1a6489"/><polygon points="48.6 52.1 48.6 71 57.7 76.3 57.7 57.3 48.6 52.1" fill="#f0f5f7"/><polygon points="49.8 59.4 52.6 61 52.6 60.6 50.1 59.2 49.8 59.4" fill="#bfd7dd"/><polygon points="49.8 55.4 49.8 59.4 50.1 59.2 50.1 55.6 49.8 55.4" fill="#80acb7"/><polygon points="50.1 55.6 50.1 59.2 52.6 60.6 52.6 57.1 50.1 55.6" fill="#4dd0e1"/><polygon points="50.8 58.8 50.8 56 52.6 57.1 50.8 58.8" fill="#b2ebf2"/><polygon points="52.6 57.5 51 58.9 51.3 59.1 52.6 57.9 52.6 57.5" fill="#b2ebf2"/><polygon points="50.5 58.9 50.5 55.8 50.1 55.6 50.1 59.2 52.6 60.6 52.6 60.2 50.5 58.9" fill="#009bbf"/><polygon points="53.6 61.6 56.5 63.2 56.5 62.8 54 61.4 53.6 61.6" fill="#bfd7dd"/><polygon points="53.6 57.6 53.6 61.6 54 61.4 54 57.9 53.6 57.6" fill="#80acb7"/><polygon points="54 57.9 54 61.4 56.5 62.8 56.5 59.3 54 57.9" fill="#4dd0e1"/><polygon points="54.6 61 54.6 58.2 56.5 59.3 54.6 61" fill="#b2ebf2"/><polygon points="56.5 59.7 54.9 61.2 55.2 61.3 56.5 60.1 56.5 59.7" fill="#b2ebf2"/><polygon points="54.4 61.2 54.4 58.1 54 57.9 54 61.4 56.5 62.8 56.5 62.4 54.4 61.2" fill="#009bbf"/><polygon points="49.8 64.5 52.6 66.2 52.6 65.7 50.1 64.3 49.8 64.5" fill="#bfd7dd"/><polygon points="49.8 60.6 49.8 64.5 50.1 64.3 50.1 60.8 49.8 60.6" fill="#80acb7"/><polygon points="50.1 60.8 50.1 64.3 52.6 65.7 52.6 62.2 50.1 60.8" fill="#4dd0e1"/><polygon points="50.8 63.9 50.8 61.2 52.6 62.2 50.8 63.9" fill="#b2ebf2"/><polygon points="52.6 62.6 51 64.1 51.3 64.2 52.6 63.1 52.6 62.6" fill="#b2ebf2"/><polygon points="50.5 64.1 50.5 61 50.1 60.8 50.1 64.3 52.6 65.7 52.6 65.3 50.5 64.1" fill="#009bbf"/><polygon points="53.6 66.8 56.5 68.4 56.5 68 54 66.5 53.6 66.8" fill="#bfd7dd"/><polygon points="53.6 62.8 53.6 66.8 54 66.5 54 63 53.6 62.8" fill="#80acb7"/><polygon points="54 63 54 66.5 56.5 68 56.5 64.5 54 63" fill="#4dd0e1"/><polygon points="54.6 66.2 54.6 63.4 56.5 64.5 54.6 66.2" fill="#b2ebf2"/><polygon points="56.5 64.9 54.9 66.3 55.2 66.5 56.5 65.3 56.5 64.9" fill="#b2ebf2"/><polygon points="54.4 66.3 54.4 63.2 54 63 54 66.5 56.5 68 56.5 67.5 54.4 66.3" fill="#009bbf"/><polygon points="32.5 74.3 29.9 72.8 29.9 47.9 32.5 49.4 32.5 74.3" fill="#fff"/><polygon points="32.5 74.3 35 72.8 35 47.9 32.5 49.4 32.5 74.3" fill="#80acb7"/><polygon points="28.9 39.4 28.9 47.3 53.5 61.6 53.5 86.4 84.5 104.3 84.5 71.5 28.9 39.4" fill="#5293ba"/><polygon points="53.5 72 84.5 89.9 84.5 88.3 53.5 70.4 53.5 72" fill="none"/><polygon points="28.9 45.5 84.5 77.6 84.5 75.9 28.9 43.8 28.9 45.5" fill="none"/><polygon points="53.5 70 84.5 87.9 84.5 86.2 53.5 68.3 53.5 70" fill="none"/><polygon points="28.9 47.3 53.5 61.6 53.5 61.8 84.5 79.7 84.5 78 28.9 45.9 28.9 47.3" fill="none"/><polygon points="53.5 84.4 84.5 102.2 84.5 100.6 53.5 82.7 53.5 84.4" fill="none"/><polygon points="53.5 82.3 84.5 100.2 84.5 98.5 53.5 80.6 53.5 82.3" fill="none"/><polygon points="53.5 76.2 84.5 94 84.5 92.4 53.5 74.5 53.5 76.2" fill="none"/><polygon points="53.5 78.2 84.5 96.1 84.5 94.4 53.5 76.5 53.5 78.2" fill="none"/><polygon points="53.5 86.4 84.5 104.3 84.5 102.6 53.5 84.7 53.5 86.4" fill="none"/><polygon points="53.5 74.1 84.5 92 84.5 90.3 53.5 72.4 53.5 74.1" fill="none"/><polygon points="53.5 80.3 84.5 98.1 84.5 96.5 53.5 78.6 53.5 80.3" fill="none"/><polygon points="28.9 43.5 84.5 75.6 84.5 73.9 28.9 41.8 28.9 43.5" fill="none"/><polygon points="53.5 63.8 84.5 81.7 84.5 80.1 53.5 62.2 53.5 63.8" fill="none"/><polygon points="28.9 39.4 28.9 41.4 84.5 73.5 84.5 71.5 28.9 39.4" fill="none"/><polygon points="53.5 65.9 84.5 83.8 84.5 82.1 53.5 64.2 53.5 65.9" fill="none"/><polygon points="53.5 67.9 84.5 85.8 84.5 84.2 53.5 66.3 53.5 67.9" fill="none"/><polygon points="28.9 41.8 84.5 73.9 84.5 73.5 28.9 41.4 28.9 41.8" fill="#3383aa"/><polygon points="28.9 43.8 84.5 75.9 84.5 75.6 28.9 43.5 28.9 43.8" fill="#3383aa"/><polygon points="28.9 45.9 84.5 78 84.5 77.6 28.9 45.5 28.9 45.9" fill="#3383aa"/><polygon points="53.5 62.2 84.5 80.1 84.5 79.7 53.5 61.8 53.5 62.2" fill="#3383aa"/><polygon points="53.5 64.2 84.5 82.1 84.5 81.7 53.5 63.8 53.5 64.2" fill="#3383aa"/><polygon points="53.5 66.3 84.5 84.2 84.5 83.8 53.5 65.9 53.5 66.3" fill="#3383aa"/><polygon points="53.5 68.3 84.5 86.2 84.5 85.8 53.5 67.9 53.5 68.3" fill="#3383aa"/><polygon points="53.5 70.4 84.5 88.3 84.5 87.9 53.5 70 53.5 70.4" fill="#3383aa"/><polygon points="53.5 72.4 84.5 90.3 84.5 89.9 53.5 72 53.5 72.4" fill="#3383aa"/><polygon points="53.5 74.5 84.5 92.4 84.5 92 53.5 74.1 53.5 74.5" fill="#3383aa"/><polygon points="53.5 76.5 84.5 94.4 84.5 94 53.5 76.2 53.5 76.5" fill="#3383aa"/><polygon points="53.5 78.6 84.5 96.5 84.5 96.1 53.5 78.2 53.5 78.6" fill="#3383aa"/><polygon points="53.5 80.6 84.5 98.5 84.5 98.1 53.5 80.3 53.5 80.6" fill="#3383aa"/><polygon points="53.5 82.7 84.5 100.6 84.5 100.2 53.5 82.3 53.5 82.7" fill="#3383aa"/><polygon points="53.5 84.7 84.5 102.6 84.5 102.2 53.5 84.4 53.5 84.7" fill="#3383aa"/><polygon points="84.5 71.5 126.9 47.1 126.9 80 84.5 104.3 84.5 71.5" fill="#1a6489"/><polygon points="126.9 63.8 84.5 88.3 84.5 89.9 126.9 65.5 126.9 63.8" fill="none"/><polygon points="126.9 55.6 84.5 80.1 84.5 81.7 126.9 57.3 126.9 55.6" fill="none"/><polygon points="126.9 65.8 84.5 90.3 84.5 92 126.9 67.5 126.9 65.8" fill="none"/><polygon points="126.9 59.7 84.5 84.2 84.5 85.8 126.9 61.4 126.9 59.7" fill="none"/><polygon points="126.9 61.7 84.5 86.2 84.5 87.9 126.9 63.4 126.9 61.7" fill="none"/><polygon points="126.9 57.6 84.5 82.1 84.5 83.8 126.9 59.3 126.9 57.6" fill="none"/><polygon points="126.9 47.1 84.5 71.5 84.5 73.5 126.9 49 126.9 47.1" fill="none"/><polygon points="126.9 49.4 84.5 73.9 84.5 75.6 126.9 51.1 126.9 49.4" fill="none"/><polygon points="126.9 51.5 84.5 75.9 84.5 77.6 126.9 53.2 126.9 51.5" fill="none"/><polygon points="126.9 53.5 84.5 78 84.5 79.7 126.9 55.2 126.9 53.5" fill="none"/><polygon points="84.5 102.6 84.5 104.3 126.9 80 126.9 78.2 84.5 102.6" fill="none"/><polygon points="126.9 76.1 84.5 100.6 84.5 102.2 126.9 77.8 126.9 76.1" fill="none"/><polygon points="126.9 74.1 84.5 98.5 84.5 100.2 126.9 75.7 126.9 74.1" fill="none"/><polygon points="126.9 67.9 84.5 92.4 84.5 94 126.9 69.6 126.9 67.9" fill="none"/><polygon points="126.9 70 84.5 94.4 84.5 96.1 126.9 71.6 126.9 70" fill="none"/><polygon points="126.9 72 84.5 96.5 84.5 98.1 126.9 73.7 126.9 72" fill="none"/><polygon points="126.9 49 84.5 73.5 84.5 73.9 126.9 49.4 126.9 49" fill="#105a77"/><polygon points="126.9 51.1 84.5 75.6 84.5 75.9 126.9 51.5 126.9 51.1" fill="#105a77"/><polygon points="126.9 53.2 84.5 77.6 84.5 78 126.9 53.5 126.9 53.2" fill="#105a77"/><polygon points="126.9 55.2 84.5 79.7 84.5 80.1 126.9 55.6 126.9 55.2" fill="#105a77"/><polygon points="126.9 57.3 84.5 81.7 84.5 82.1 126.9 57.6 126.9 57.3" fill="#105a77"/><polygon points="126.9 59.3 84.5 83.8 84.5 84.2 126.9 59.7 126.9 59.3" fill="#105a77"/><polygon points="126.9 61.4 84.5 85.8 84.5 86.2 126.9 61.7 126.9 61.4" fill="#105a77"/><polygon points="126.9 63.4 84.5 87.9 84.5 88.3 126.9 63.8 126.9 63.4" fill="#105a77"/><polygon points="126.9 65.5 84.5 89.9 84.5 90.3 126.9 65.8 126.9 65.5" fill="#105a77"/><polygon points="126.9 67.5 84.5 92 84.5 92.4 126.9 67.9 126.9 67.5" fill="#105a77"/><polygon points="126.9 69.6 84.5 94 84.5 94.4 126.9 70 126.9 69.6" fill="#105a77"/><polygon points="126.9 71.6 84.5 96.1 84.5 96.5 126.9 72 126.9 71.6" fill="#105a77"/><polygon points="126.9 73.7 84.5 98.1 84.5 98.5 126.9 74.1 126.9 73.7" fill="#105a77"/><polygon points="126.9 75.7 84.5 100.2 84.5 100.6 126.9 76.1 126.9 75.7" fill="#105a77"/><polygon points="126.9 77.8 84.5 102.2 84.5 102.6 126.9 78.2 126.9 77.8" fill="#105a77"/><polygon points="27.7 37.3 27.7 38.7 84.5 71.5 84.5 70.1 27.7 37.3" fill="#fff"/><polygon points="127.6 45.3 84.5 70.1 84.5 71.5 127.6 46.7 127.6 45.3" fill="#80acb7"/><polygon points="70.8 12.6 27.7 37.3 84.5 70.1 127.6 45.3 70.8 12.6" fill="#bfd7dd"/><polygon points="54.9 0 30.4 37.4 84.5 68.7 109 31.2 54.9 0" fill="#4b4751"/><polygon points="109 31.2 84.5 68.7 125.3 45.2 109 31.2" fill="#25202d"/><polygon points="87.7 63.7 33.6 32.5 33.4 32.8 87.5 64 87.7 63.7" fill="#37323f"/><polygon points="90 60.2 35.9 29.1 35.7 29.4 89.8 60.5 90 60.2" fill="#37323f"/><polygon points="92.3 56.8 38.2 25.6 38 25.9 92.1 57.1 92.3 56.8" fill="#37323f"/><polygon points="94.6 53.3 40.4 22.1 40.2 22.4 94.4 53.6 94.6 53.3" fill="#37323f"/><polygon points="96.8 49.8 42.7 18.7 42.5 19 96.6 50.1 96.8 49.8" fill="#37323f"/><polygon points="99.1 46.4 45 15.2 44.8 15.5 98.9 46.7 99.1 46.4" fill="#37323f"/><polygon points="101.4 42.9 47.3 11.7 47.1 12 101.2 43.2 101.4 42.9" fill="#37323f"/><polygon points="103.6 39.4 49.5 8.2 49.3 8.6 103.4 39.7 103.6 39.4" fill="#37323f"/><polygon points="105.9 36 51.8 4.8 51.6 5.1 105.7 36.3 105.9 36" fill="#37323f"/><polygon points="108.2 32.5 54.1 1.3 53.9 1.6 108 32.8 108.2 32.5" fill="#37323f"/><polygon points="86.6 65.4 32.5 34.3 32.3 34.6 86.4 65.8 86.6 65.4" fill="#37323f"/><polygon points="85.5 67.2 31.3 36 31.1 36.4 85.2 67.5 85.5 67.2" fill="#37323f"/><polygon points="88.9 62 34.8 30.8 34.6 31.1 88.7 62.3 88.9 62" fill="#37323f"/><polygon points="91.1 58.5 37 27.3 36.8 27.6 90.9 58.8 91.1 58.5" fill="#37323f"/><polygon points="93.4 55 39.3 23.9 39.1 24.2 93.2 55.3 93.4 55" fill="#37323f"/><polygon points="95.7 51.6 41.6 20.4 41.4 20.7 95.5 51.9 95.7 51.6" fill="#37323f"/><polygon points="98 48.1 43.8 16.9 43.6 17.2 97.8 48.4 98 48.1" fill="#37323f"/><polygon points="100.2 44.6 46.1 13.4 45.9 13.8 100 44.9 100.2 44.6" fill="#37323f"/><polygon points="102.5 41.2 48.4 10 48.2 10.3 102.3 41.5 102.5 41.2" fill="#37323f"/><polygon points="104.8 37.7 50.7 6.5 50.5 6.8 104.6 38 104.8 37.7" fill="#37323f"/><polygon points="107 34.2 52.9 3 52.7 3.4 106.8 34.5 107 34.2" fill="#37323f"/><path d="M58.4,67.5l5.8,3.3V83.2l-5.8-3.3V67.5m-.7-1.3V80.4l7.2,4.1V70.3l-7.2-4.1Z" fill="#f0f5f7"/><polygon points="58.4 79.9 64.2 83.2 64.2 82.4 59.2 79.5 58.4 79.9" fill="#bfd7dd"/><polygon points="58.4 67.5 58.4 79.9 59.2 79.5 59.2 67.9 58.4 67.5" fill="#80acb7"/><polygon points="59.2 67.9 59.2 79.5 64.2 82.4 64.2 70.8 59.2 67.9" fill="#4dd0e1"/><polygon points="60.5 74.2 60.5 68.7 64.2 70.8 60.5 74.2" fill="#b2ebf2"/><polygon points="64.2 71.6 61 74.5 61.6 74.8 64.2 72.5 64.2 71.6" fill="#b2ebf2"/><polygon points="59.9 79.1 59.9 68.3 59.2 67.9 59.2 79.5 64.2 82.4 64.2 81.5 59.9 79.1" fill="#009bbf"/><polygon points="64.2 76.3 59.2 73.5 58.7 73.7 64.2 76.8 64.2 76.3" fill="#bfd7dd"/><polygon points="64.2 76.8 58.7 73.7 58.7 74.2 64.2 77.3 64.2 76.8" fill="#f0f5f7"/><path d="M73,75.9l5.7,3.3V91.6L73,88.3V75.9m-.8-1.3V88.8l7.2,4.1V78.7l-7.2-4.1Z" fill="#f0f5f7"/><polygon points="73 88.3 78.7 91.6 78.7 90.8 73.7 87.9 73 88.3" fill="#bfd7dd"/><polygon points="73 75.9 73 88.3 73.7 87.9 73.7 76.3 73 75.9" fill="#80acb7"/><polygon points="73.7 76.3 73.7 87.9 78.7 90.8 78.7 79.2 73.7 76.3" fill="#4dd0e1"/><polygon points="75 82.6 75 77 78.7 79.2 75 82.6" fill="#b2ebf2"/><polygon points="78.7 80 75.5 82.9 76.1 83.2 78.7 80.9 78.7 80" fill="#b2ebf2"/><polygon points="74.4 87.5 74.4 76.7 73.7 76.3 73.7 87.9 78.7 90.8 78.7 89.9 74.4 87.5" fill="#009bbf"/><polygon points="78.7 84.7 73.7 81.9 73.3 82.1 78.7 85.2 78.7 84.7" fill="#bfd7dd"/><polygon points="78.7 85.2 73.3 82.1 73.3 82.6 78.7 85.7 78.7 85.2" fill="#f0f5f7"/><path d="M117.1,63.4V75.9l-5.7,3.3V66.7l5.7-3.3m.7-1.2-7.2,4.1V80.5l7.2-4.2V62.2Z" fill="#f0f5f7"/><polygon points="117.1 75.9 111.4 79.2 111.4 78.4 116.4 75.5 117.1 75.9" fill="#bfd7dd"/><polygon points="117.1 63.4 117.1 75.9 116.4 75.5 116.4 63.9 117.1 63.4" fill="#80acb7"/><polygon points="116.4 63.9 116.4 75.5 111.4 78.4 111.4 66.7 116.4 63.9" fill="#4dd0e1"/><polygon points="115.1 70.2 115.1 64.6 111.4 66.7 115.1 70.2" fill="#b2ebf2"/><polygon points="111.4 67.6 114.5 70.5 114 70.8 111.4 68.4 111.4 67.6" fill="#b2ebf2"/><polygon points="115.6 75.1 115.6 64.3 116.4 63.9 116.4 75.5 111.4 78.4 111.4 77.5 115.6 75.1" fill="#009bbf"/><polygon points="111.4 72.3 116.4 69.4 116.8 69.7 111.4 72.8 111.4 72.3" fill="#bfd7dd"/><polygon points="111.4 72.8 116.8 69.7 116.8 70.1 111.4 73.3 111.4 72.8" fill="#f0f5f7"/><path d="M100,73.3V85.8l-5.7,3.3V76.6l5.7-3.3m.7-1.2-7.2,4.1V90.4l7.2-4.2V72.1Z" fill="#f0f5f7"/><polygon points="100 85.8 94.3 89.1 94.3 88.2 99.3 85.4 100 85.8" fill="#bfd7dd"/><polygon points="100 73.3 100 85.8 99.3 85.4 99.3 73.8 100 73.3" fill="#80acb7"/><polygon points="99.3 73.8 99.3 85.4 94.3 88.2 94.3 76.6 99.3 73.8" fill="#4dd0e1"/><polygon points="98 80.1 98 74.5 94.3 76.6 98 80.1" fill="#b2ebf2"/><polygon points="94.3 77.5 97.4 80.4 96.9 80.7 94.3 78.3 94.3 77.5" fill="#b2ebf2"/><polygon points="98.5 84.9 98.5 74.2 99.3 73.8 99.3 85.4 94.3 88.2 94.3 87.4 98.5 84.9" fill="#009bbf"/><polygon points="94.3 82.2 99.3 79.3 99.7 79.6 94.3 82.7 94.3 82.2" fill="#bfd7dd"/><polygon points="94.3 82.7 99.7 79.6 99.7 80 94.3 83.2 94.3 82.7" fill="#f0f5f7"/><polygon points="92.5 36.5 78.3 56.3 78.3 45.2 92.5 36.5" fill="#1a6489"/><polygon points="43.5 24.5 78.3 44.7 78.3 56.3 43.5 36.2 43.5 24.5" fill="#5293ba"/><polygon points="43.5 28.1 78.3 48.3 78.3 47.9 43.5 27.7 43.5 28.1" fill="#3383aa"/><polygon points="43.5 30.2 78.3 50.3 78.3 49.9 43.5 29.8 43.5 30.2" fill="#3383aa"/><polygon points="43.5 32.2 78.3 52.4 78.3 52 43.5 31.8 43.5 32.2" fill="#3383aa"/><polygon points="43.5 34.3 78.3 54.4 78.3 54 43.5 33.9 43.5 34.3" fill="#3383aa"/><polygon points="59.1 14.5 42.3 24.9 77.1 45 93.9 34.6 59.1 14.5" fill="#bfd7dd"/><polygon points="93.9 34.6 92.5 36.5 77.1 46.1 77.1 45 93.9 34.6" fill="#80acb7"/><polygon points="42.3 24.9 42.3 25.9 77.1 46.1 77.1 45 42.3 24.9" fill="#fff"/><polygon points="60.5 12.6 42.3 23.9 77.1 44 95.3 32.7 60.5 12.6" fill="#37323f"/><polygon points="95.3 32.7 93.9 34.6 77.1 45 77.1 44 95.3 32.7" fill="#25202d"/><polygon points="42.3 23.9 42.3 24.9 77.1 45 77.1 44 42.3 23.9" fill="#413b49"/><polygon points="48.7 36.3 52.2 38.3 52.2 37.7 49.3 36 48.7 36.3" fill="#bfd7dd"/><polygon points="48.7 31.6 48.7 36.3 49.3 36 49.3 32 48.7 31.6" fill="#f0f5f7"/><polygon points="49.3 32 49.3 36 52.2 37.7 52.2 33.6 49.3 32" fill="#4dd0e1"/><polygon points="50.1 35.6 50.1 32.4 52.2 33.6 50.1 35.6" fill="#b2ebf2"/><polygon points="52.2 34.1 50.4 35.8 50.7 35.9 52.2 34.6 52.2 34.1" fill="#b2ebf2"/><polygon points="49.8 35.8 49.8 32.2 49.3 32 49.3 36 52.2 37.7 52.2 37.2 49.8 35.8" fill="#009bbf"/><polygon points="59.2 42.4 62.6 44.4 62.6 43.7 59.8 42.1 59.2 42.4" fill="#bfd7dd"/><polygon points="59.2 37.7 59.2 42.4 59.8 42.1 59.8 38 59.2 37.7" fill="#f0f5f7"/><polygon points="59.8 38 59.8 42.1 62.6 43.7 62.6 39.7 59.8 38" fill="#4dd0e1"/><polygon points="60.6 41.6 60.6 38.5 62.6 39.7 60.6 41.6" fill="#b2ebf2"/><polygon points="62.6 40.2 60.9 41.8 61.2 42 62.6 40.6 62.6 40.2" fill="#b2ebf2"/><polygon points="60.2 41.8 60.2 38.3 59.8 38 59.8 42.1 62.6 43.7 62.6 43.2 60.2 41.8" fill="#009bbf"/><polygon points="69.6 48.5 73.1 50.5 73.1 49.8 70.3 48.2 69.6 48.5" fill="#bfd7dd"/><polygon points="69.6 43.7 69.6 48.5 70.3 48.2 70.3 44.1 69.6 43.7" fill="#f0f5f7"/><polygon points="70.3 44.1 70.3 48.2 73.1 49.8 73.1 45.8 70.3 44.1" fill="#4dd0e1"/><polygon points="71 47.7 71 44.6 73.1 45.8 71 47.7" fill="#b2ebf2"/><polygon points="73.1 46.2 71.3 47.9 71.6 48.1 73.1 46.7 73.1 46.2" fill="#b2ebf2"/><polygon points="70.7 47.9 70.7 44.4 70.3 44.1 70.3 48.2 73.1 49.8 73.1 49.3 70.7 47.9" fill="#009bbf"/><polygon points="78.3 56.3 85.5 56.3 95.3 32.7 78.3 56.3" fill="#2e4149" opacity="0.3" style="mix-blend-mode:multiply"/><path d="M52.6,96a.8.8,0,0,1-.8.2c0,.1.1.1.1.2l-.2.3H51l.2.3c-.1.3-.4.1-.6.1h-.2a.4.4,0,0,1,0,.5c-.2.1-.4-.1-.5-.2h-.4l-.2.2-.3-.2a.1.1,0,0,1-.1-.1c0,.1,0,.2-.1.2a.1.1,0,0,1-.1.1c-.2-.1-.3-.2-.3-.4h-.1c0,.1,0,.2-.1.2s-.2,0-.3,0v-.4h-.3a.1.1,0,0,1-.1.1h-.2a.6.6,0,0,1-.1-.4v-.2l-.3.2h-.2c-.1-.1,0-.3.1-.4h-.5c-.1,0-.1-.2,0-.2l.2-.3h-.3c-.1,0-.1-.1,0-.2l.3-.2c-.2-.1-.4-.2-.3-.4h.9c-.1-.1,0-.3.2-.3h.4l.3-.2h.5c.1-.2.1-.3.3-.3s.3.2.4.3h.2c0-.2.1-.3.3-.4s.3.2.4.3v.2h.1c0-.1.1-.2.3-.2s.2.1.2.3h.1l.4-.2c.2,0,.4.1.4.3v.2c.1,0,.4-.1.5.1h.3c.1,0,.1.1.1.2s-.1.3-.2.3,0,.1-.1.1a.2.2,0,0,1,.2.2h0A.4.4,0,0,1,52.6,96Z" fill="#2e4149" opacity="0.3" style="mix-blend-mode:multiply"/><path d="M52.9,93.2a.3.3,0,0,0-.1-.2c-.1-.1-.1-.1-.1-.2h-.1a.4.4,0,0,0,0-.5l-.2-.3a.1.1,0,0,1-.1-.1.6.6,0,0,0,.1-.4.5.5,0,0,0-.4-.3h-.1v-.2l-.2-.2h-.2c-.1,0-.2.1-.3,0h-.1a.4.4,0,0,0-.2-.5h-.6c.1,0,0-.1,0-.1h-.4l-.3.2h-.1V90l-.3-.3a.7.7,0,0,0-.6.3h-.6c-.2.1-.2.4-.3.6h0a.4.4,0,0,0-.5-.1c-.2,0-.3.3-.2.5v.2c.1.1.1.1,0,.1h-.4c-.2.1-.2.3-.1.5s-.2.3-.2.5h-.1l-.2.2a.7.7,0,0,0,.2.6h.1c.1,0,.1.1,0,.2a.4.4,0,0,0-.1.3c0,.2,0,.3.2.4s-.2.5,0,.7.1.2.2.3h.3c.1,0,.2-.1.1.1v.2c-.1,0-.1.1-.1.2s.1.2.3.2h.5c.1.1.2.1.2,0s.2-.2.3-.1.2.5.4.4l.3-.2c.1.1.1.3.2.3h.3l.3-.2h.6c.1-.1.2-.2.1-.4H51c.2,0,.3-.3.3-.5s.6.1.7-.2a.8.8,0,0,0-.1-.4.4.4,0,0,0,.5-.1.3.3,0,0,0,.1-.2v-.3l.2-.3c0-.1.1-.1.1-.2s-.1-.3-.1-.4A.5.5,0,0,0,52.9,93.2Z" fill="#008c47"/><path d="M52.1,91.4v-.2c0-.1-.1-.1-.2-.1h-.1v-.2l-.2-.2h-.2c-.1,0-.2.1-.3,0h-.1a.4.4,0,0,0-.2-.5h-.6c.1,0,0-.1,0-.1h-.4l-.3.2h-.1V90l-.3-.3a.7.7,0,0,0-.6.3h-.6c-.2.1-.2.4-.3.6h0a.4.4,0,0,0-.5-.1c-.2,0-.3.3-.2.5v.2c.1.1.1.1,0,.1h-.4a.8.8,0,0,0,.2.5H47a.4.4,0,0,0,.2.5c0,.1.1.1.2.1h.3c.2.1-.1.4,0,.6s.2.2.3.2h.3l.3.2c.2,0,.3-.2.4-.4a.6.6,0,0,0-.1-.4h0c0-.1,0-.2.1-.1h.1c0,.1,0,.2.1.2s.3.2.4.1h.1a.1.1,0,0,0,0-.2h.2a.1.1,0,0,0,.1.1v.2h.4l.2-.4h0a.1.1,0,0,1-.1-.1h.1c.1,0,.3,0,.3-.2s0-.2,0-.3-.2-.2-.1-.2h.3a.7.7,0,0,0,.4.5h.3l.2-.3-.2-.4c.1-.1.1-.2.1-.4s-.1-.1-.1-.2Z" fill="#00ad31"/><path d="M51.5,92.9h-.3c0,.1-.1.1,0,.2h0c0,.1.1.1.2.2h.1a.1.1,0,0,0,.1-.1C51.6,93,51.6,92.9,51.5,92.9Z" fill="#00ad31"/><path d="M48.3,94.1a.4.4,0,0,0-.1-.3h-.3a.2.2,0,0,0-.2.2c-.1.1,0,.3.1.4a.1.1,0,0,0,.1.1h.4A.2.2,0,0,0,48.3,94.1Z" fill="#00ad31"/><path d="M49.2,94.1l-.2-.2h-.3a.1.1,0,0,0,0,.2.2.2,0,0,0,.2.2h.2C49.1,94.3,49.2,94.2,49.2,94.1Z" fill="#00ad31"/><path d="M28.6,82c-.1.2-.5.2-.8.2s.1.1.1.2l-.2.2H27l.2.3c0,.2-.4.1-.5.1h-.2c0,.1.1.4-.1.5s-.4-.1-.4-.3h-.1v.2h-.9v.2c-.1,0-.1.1-.2,0s-.2-.2-.3-.3h0l-.2.2H24a.4.4,0,0,1-.1-.3h-.2c-.1.1-.1.1-.1.2h-.2c-.2-.1-.2-.3-.2-.5v-.2l-.3.3h-.2a.9.9,0,0,1,.1-.5h-.4c-.1-.1-.2-.2-.1-.3a.2.2,0,0,1,.2-.2l.2-.2c-.2,0-.3.1-.5,0v-.2l.4-.3c-.2,0-.5-.2-.4-.3s.2-.2.4-.2h.5c-.1-.2,0-.4.2-.4h1.3c0-.1,0-.2.2-.2a.9.9,0,0,1,.5.3h.1c0-.2.1-.4.3-.4s.3.1.4.3l.2.2h0l.3-.3c.2,0,.2.2.3.3h.4c.2,0,.4.1.4.2v.3h.8c.1.1.2.2.1.3s-.1.2-.2.3h.1v.2A.4.4,0,0,1,28.6,82Z" fill="#2e4149" opacity="0.3" style="mix-blend-mode:multiply"/><path d="M28.9,79.2c0-.1-.1-.2-.1-.3h-.2a.4.4,0,0,0,0-.5l-.2-.2c0-.1-.1-.1-.1-.2a.4.4,0,0,0,.1-.3c-.1-.2-.2-.4-.4-.4h-.1a.2.2,0,0,0-.2-.2h-.5a.5.5,0,0,0-.3-.5h-.4a.3.3,0,0,0-.1.2h-.5l-.3.2h-.2c-.1-.2-.1-.3-.3-.3a.5.5,0,0,0-.6.2v.2h-.2c-.1,0-.2-.1-.3,0s-.2.3-.3.5h0l-.4-.2a.4.4,0,0,0-.3.6H23v.2h-.5c-.2.1-.2.3-.1.5s-.2.3-.2.5h-.1c-.1,0-.1.1-.1.2s-.1.4.1.5h.1a.2.2,0,0,1,0,.3.4.4,0,0,0-.1.3.5.5,0,0,0,.2.4.9.9,0,0,0,0,.7c0,.1.1.2.3.2h.2c.1,0,.2,0,.2.2h-.1c0,.1-.1.2,0,.2s.1.3.2.3.3,0,.4-.1,0,.2.1.2h.3c.1-.1.1-.2.2-.1s.2.4.4.4l.3-.2c.1.1.1.2.3.3h.2c.1,0,.2-.2.3-.1h.6a.8.8,0,0,0,.2-.4c.1,0,.2,0,.2.1H27a.5.5,0,0,0,.3-.5c.3.1.6.1.7-.2v-.4h.4c.1-.1.1-.1.1-.2s0-.2,0-.3.1-.2.2-.3.1-.2.1-.3a.4.4,0,0,0-.1-.3A.8.8,0,0,0,28.9,79.2Z" fill="#008c47"/><path d="M28.1,77.4l.2-.3h-.4a.2.2,0,0,0-.2-.2h-.5a.5.5,0,0,0-.3-.5h-.4a.3.3,0,0,0-.1.2h-.5l-.3.2h-.2c-.1-.2-.1-.3-.3-.3a.5.5,0,0,0-.6.2v.2h-.2c-.1,0-.2-.1-.3,0s-.2.3-.3.5h0l-.4-.2a.4.4,0,0,0-.3.6H23v.2h-.4a.4.4,0,0,0,.1.5H23c0,.2,0,.4.2.5h.2c.1,0,.2-.1.3,0s0,.4,0,.5a.3.3,0,0,0,.3.3h.6c.2.1.4-.2.4-.4a.4.4,0,0,0-.1-.3h0a.1.1,0,0,1,.1-.1c0,.1.1.1.1.2v.2h.4a.2.2,0,0,0,.2-.2v-.2c.1-.1.2,0,.2.2H26c0,.1.1.1.1.2h.4c.2,0,.3-.2.2-.3v-.2h0l.4-.2c0-.1,0-.3-.1-.3a.2.2,0,0,1,0-.3h.2c.1.2.2.5.4.6h.3a.2.2,0,0,0,.2-.2c0-.2-.1-.3-.2-.5a.2.2,0,0,0,.1-.3c0-.1-.1-.1-.1-.2Z" fill="#00ad31"/><path d="M27.5,78.9h0a.1.1,0,0,0-.1-.1h-.2v.2h.3c.1,0,.1-.1.1-.2Z" fill="#00ad31"/><path d="M24.4,80.1l-.2-.3H24c-.2,0-.3.1-.3.2a.4.4,0,0,0,.1.3c0,.1.1.1.1.2H24c.1.1.3,0,.4-.1Z" fill="#00ad31"/><path d="M25.2,80.1l-.2-.2h0c0-.1-.1,0-.1,0h-.2v.3c0,.1.1.1.2.1h.2C25.2,80.3,25.2,80.2,25.2,80.1Z" fill="#00ad31"/><path d="M60.6,101.1a1.1,1.1,0,0,1-.8.2c0,.1.1.1.1.2l-.2.2H59c.1.1.2.2.1.3s-.3.1-.5.1h-.2a.3.3,0,0,1-.1.5c-.1.1-.3-.1-.4-.3h0c-.1.1-.1.1-.1.2h-.3c0,.1-.1.1-.2.1h-.4v.2h-.1a.5.5,0,0,1-.3-.4h-.1c0,.1,0,.2-.1.2h-.3v-.3h-.3c0,.1,0,.1-.1.2h-.2a.7.7,0,0,1-.1-.5v-.2l-.3.3h-.2c-.1-.1,0-.3.1-.5h-.5c-.1,0-.1-.2,0-.3l.2-.2.2-.2h-.5c-.1-.1-.1-.2,0-.2l.3-.2c-.2-.1-.4-.3-.3-.4l.3-.2h.6c-.1-.2,0-.4.2-.4h1.2c0-.1.1-.2.3-.2l.4.3h.2c0-.2.1-.4.2-.4s.4.1.5.3.1.1.1.2h.1a.3.3,0,0,1,.3-.3c.2,0,.2.2.2.3h.5l.4.2v.3a.3.3,0,0,1,.5.1h.3a.4.4,0,0,1,.1.3l-.2.3h-.1a.2.2,0,0,1,.2.2h0A.4.4,0,0,1,60.6,101.1Z" fill="#2e4149" opacity="0.3" style="mix-blend-mode:multiply"/><path d="M60.9,98.3V98h-.2a.4.4,0,0,0,0-.5l-.2-.2c-.1,0-.1-.1-.1-.2a.4.4,0,0,0,.1-.3c-.1-.2-.3-.4-.4-.4h-.1l-.2-.2a.1.1,0,0,0-.2,0h-.3a.1.1,0,0,0-.1-.1.4.4,0,0,0-.2-.5h-.4c-.1.1-.1.2-.2.2s0-.1,0-.1a.1.1,0,0,0-.1-.1h-.3l-.3.2h-.1a.1.1,0,0,1-.1-.1l-.3-.3c-.2-.1-.5.1-.6.2s-.1.2-.2.2h-.4c-.2.1-.2.3-.3.5h0a.4.4,0,0,0-.5-.1c-.2,0-.3.3-.2.5h0c.1.1.1.1,0,.2s0,.1-.1.1h-.3c-.2.1-.2.3-.1.5s-.2.3-.2.5H54a.3.3,0,0,1-.1.2c0,.2,0,.4.2.5s0,.1.1.1,0,.2,0,.3L54,99c0,.2.1.3.3.4a.9.9,0,0,0-.1.7l.3.2h.3c.1,0,.2,0,.1.2h-.1v.2c.1.2.1.3.2.3s.3,0,.4-.1.1.2.2.2h.2c.1-.1.2-.2.3-.1s.2.4.4.4l.3-.2c0,.1.1.2.2.3a.2.2,0,0,0,.3,0h.9c.1-.1.2-.3.1-.4H59a.5.5,0,0,0,.3-.5c.3.1.6.1.7-.2a.6.6,0,0,0-.1-.4h.5v-.5c0-.2.1-.2.2-.3v-.2c0-.2-.1-.3-.1-.4A.8.8,0,0,0,60.9,98.3Z" fill="#008c47"/><path d="M60.1,96.5a.4.4,0,0,0,.1-.3h-.3l-.2-.2a.1.1,0,0,0-.2,0h-.3a.1.1,0,0,0-.1-.1.4.4,0,0,0-.2-.5h-.4c-.1.1-.1.2-.2.2s0-.1,0-.1a.1.1,0,0,0-.1-.1h-.3l-.3.2h-.1a.1.1,0,0,1-.1-.1l-.3-.3c-.2-.1-.5.1-.6.2s-.1.2-.2.2h-.4c-.2.1-.2.3-.3.5h0a.4.4,0,0,0-.5-.1c-.2,0-.3.3-.2.5h0c.1.1.1.1,0,.2s0,.1-.1.1h-.3a.8.8,0,0,0,.2.5H55a.4.4,0,0,0,.2.5h.5c.2.1-.1.4-.1.5a.5.5,0,0,0,.4.3h.6c.2.1.3-.2.4-.4s-.1-.2-.1-.3h0c0-.1,0-.2.1-.2v.2c0,.1,0,.1.1.2h.4c.1,0,.1-.1.1-.2s0-.1,0-.2l.2.2H58c0,.1,0,.1.1.2h.4a.8.8,0,0,0,.2-.4h0l.3-.2c.1-.1,0-.2-.1-.3s-.1-.2,0-.3h.3a.7.7,0,0,0,.4.6h.3c.1-.1.2-.2.2-.3s-.1-.3-.2-.5.1-.2.1-.3-.1-.1-.1-.2Z" fill="#00ad31"/><path d="M59.5,98h-.3a.1.1,0,0,0,0,.2h.3c.1,0,.1-.1.1-.2Z" fill="#00ad31"/><path d="M56.3,99.2c0-.1-.1-.2-.1-.3h-.3a.2.2,0,0,0-.2.2c-.1.1,0,.2.1.3s0,.1.1.2H56a.2.2,0,0,0,.3-.1C56.4,99.4,56.4,99.3,56.3,99.2Z" fill="#00ad31"/><path d="M57.2,99.2A.2.2,0,0,0,57,99h-.3c0,.1-.1.2,0,.3h.4Z" fill="#00ad31"/><path d="M68.8,105.7c-.1.3-.4.3-.8.3h.1c0,.1-.1.3-.2.3h-.7l.2.2c0,.3-.4.2-.5.1h-.2c0,.2.1.4-.1.5s-.3-.1-.4-.2H66c0,.1-.1.2-.2.1l-.3.2h-.4v.2h-.2c-.2,0-.2-.2-.3-.4h0c-.1,0-.1.1-.2.2s-.2,0-.2-.1-.1-.2-.1-.4h-.3c-.1.1-.2.1-.2,0s-.2-.2-.2-.4V106l-.3.2H63a.5.5,0,0,1,0-.5h-.4c-.1-.1-.2-.2-.1-.3a.2.2,0,0,1,.2-.2c.1-.1.1-.2.2-.2h-.4c-.1,0-.1-.1-.1-.2l.4-.2c-.2-.1-.5-.2-.4-.4h.9c-.1-.2,0-.4.2-.4h.4a.5.5,0,0,1,.4-.2l.4.2h.1a.2.2,0,0,1,.2-.2.5.5,0,0,1,.5.3h.1a.5.5,0,0,1,.3-.4.7.7,0,0,1,.5.4v.2h0l.3-.3c.2,0,.2.2.3.3h0l.4-.2c.2,0,.4.1.4.3v.2h.8l.2.3c-.1.1-.2.2-.2.3h-.2l.2.2v.2A.2.2,0,0,1,68.8,105.7Z" fill="#2e4149" opacity="0.3" style="mix-blend-mode:multiply"/><path d="M69.1,103a.4.4,0,0,0-.1-.3.1.1,0,0,0-.1-.1h-.1a.5.5,0,0,0,0-.5c0-.1-.1-.1-.2-.2s-.1-.1-.1-.2.1-.2.1-.4-.2-.3-.4-.3h-.1v-.2a.3.3,0,0,1-.1-.2h-.6a.7.7,0,0,0-.3-.6h-.6c0-.1,0-.1-.1-.2h-.3l-.3.2h-.1c-.1,0-.1-.1-.1-.2s-.1-.2-.3-.2a.5.5,0,0,0-.6.2h-.3a.2.2,0,0,0-.3,0c-.2,0-.2.3-.2.5h-.5a.4.4,0,0,0-.3.6h.1v.2h-.5c-.2.2-.2.4-.1.5a.5.5,0,0,0-.1.6h-.2a.1.1,0,0,0-.1.1c-.1.2-.1.5.1.6h.1a.2.2,0,0,1,0,.3c-.1.1-.1.1-.1.3s.1.3.2.3a1.1,1.1,0,0,0,0,.8c0,.1.1.2.3.2h.4c0,.1-.1.1-.1.2v.2l.2.3h.4c0,.1.1.1.1.2h.3c.1-.1.1-.3.2-.1s.2.4.4.4l.3-.3c.1.2.1.3.3.4h.2l.3-.2.3.2h.3c.2-.1.2-.2.2-.3h.6a.5.5,0,0,0,.3-.5c.3,0,.6.1.7-.2v-.4h.4a.4.4,0,0,0,.1-.3c.1-.1,0-.2,0-.3s.1-.2.2-.3.1-.1.1-.2a.8.8,0,0,0-.1-.4C69,103.3,69.1,103.1,69.1,103Z" fill="#008c47"/><path d="M68.3,101.1l.2-.2h-.4v-.2a.3.3,0,0,1-.1-.2h-.6a.7.7,0,0,0-.3-.6h-.6c0-.1,0-.1-.1-.2h-.3l-.3.2h-.1c-.1,0-.1-.1-.1-.2s-.1-.2-.3-.2a.5.5,0,0,0-.6.2h-.3a.2.2,0,0,0-.3,0c-.2,0-.2.3-.2.5h-.5a.4.4,0,0,0-.3.6h.1v.2h-.4c-.1.2,0,.3.1.5h.4v.2c-.1.2-.1.3.1.5h.5c.2.2,0,.4,0,.6s.2.2.3.3h.6a.4.4,0,0,0,.4-.4.4.4,0,0,0-.1-.3h0a.1.1,0,0,1,.1-.1c.1,0,.1.1.1.2v.2h.5v-.2c0-.1-.1-.1-.1-.2s.2,0,.2.1v.2l.2.2h.3c.2-.1.3-.2.2-.4h.4c0-.2,0-.3-.1-.4s-.1-.1,0-.2h.2a1.3,1.3,0,0,0,.5.6h.2a.2.2,0,0,0,.2-.2.8.8,0,0,0-.2-.5c.1-.1.2-.2.1-.3s-.1-.2,0-.2S68.3,101.2,68.3,101.1Z" fill="#00ad31"/><path d="M67.7,102.7h-.2a.1.1,0,0,0-.1.1h.3c.1-.1.1-.1.1-.2Z" fill="#00ad31"/><path d="M64.6,103.9c0-.1-.1-.2-.2-.3h-.2c-.2,0-.3,0-.3.2a.4.4,0,0,0,.1.3h.2c.1.1.3,0,.4-.1Z" fill="#00ad31"/><path d="M65.4,103.9c0-.1-.1-.2-.2-.3h-.1a.1.1,0,0,0-.1.1h-.1v.2a.2.2,0,0,0,.2.2h.2Z" fill="#00ad31"/><path d="M77.2,110.6c-.1.3-.5.3-.8.3h.1c0,.2-.1.3-.2.3h-.7l.2.3c0,.2-.4.1-.5,0h-.2c0,.2.1.5-.1.6a.4.4,0,0,1-.4-.3.1.1,0,0,0-.2,0l-.2.2h-.6a.1.1,0,0,0-.1-.1v.2h-.2c-.2,0-.2-.2-.3-.3h0l-.2.2h-.2a.4.4,0,0,1-.1-.3h-.2v.2H72a.6.6,0,0,1-.2-.5v-.2l-.3.2c-.1.1-.1,0-.2,0a.9.9,0,0,1,.1-.5H71c-.1-.1-.2-.2-.1-.3a.2.2,0,0,1,.2-.2l.2-.2h-.5v-.2l.4-.3c-.2,0-.5-.2-.4-.4h.9c-.1-.2,0-.4.2-.4h.4l.4-.2.4.2h.1c0-.1,0-.2.2-.2a.9.9,0,0,1,.5.3H74a.3.3,0,0,1,.3-.3c.2-.1.4.1.4.3l.2.2h0c.1-.1.2-.3.3-.3s.2.2.3.3h.4c.2-.1.4,0,.4.2v.2h.8c.1.1.2.2.1.3l-.2.3h.1v.2C77.2,110.3,77.3,110.5,77.2,110.6Z" fill="#2e4149" opacity="0.3" style="mix-blend-mode:multiply"/><path d="M77.5,107.9c0-.1-.1-.2-.1-.3h-.2a.5.5,0,0,0,0-.5l-.2-.2v-.2a.4.4,0,0,0,.1-.3c-.1-.3-.2-.4-.4-.4s-.1,0-.1-.1v-.2h-.7a.7.7,0,0,0-.3-.6h-.4a.3.3,0,0,0-.1.2.1.1,0,0,0-.1-.1h-.4l-.3.2h-.1c-.1,0-.1-.1-.1-.2s-.1-.2-.3-.2a.5.5,0,0,0-.6.2c0,.1-.1.2-.1.1h-.1a.1.1,0,0,0-.1-.1h-.3c-.2.1-.2.3-.3.5h-.4a.4.4,0,0,0-.3.6.1.1,0,0,0,.1.1v.2h-.5c-.2.2-.2.4-.1.5a.7.7,0,0,0-.2.6.1.1,0,0,0-.1.1h0c-.1,0-.1.1-.1.2s-.1.4.1.5h.1a.2.2,0,0,1,0,.3.4.4,0,0,0-.1.3c0,.2.1.3.2.3a1.1,1.1,0,0,0,0,.8c0,.1.1.2.3.2h.4c-.1.1-.1.1-.1.2s-.1.1,0,.2l.2.3h.4c0,.1,0,.2.1.2h.3c.1-.1.1-.3.2-.1s.2.4.4.4l.3-.2.3.3h.2c.1,0,.2-.2.3-.1h.6c.2,0,.2-.2.2-.3s.2,0,.2.1h.4a.5.5,0,0,0,.3-.5c.3.1.6.1.7-.2v-.4H77v-.2c.1-.2,0-.2,0-.4l.2-.2a.5.5,0,0,0,0-.6A.8.8,0,0,0,77.5,107.9Z" fill="#008c47"/><path d="M76.7,106l.2-.2h-.3c-.1,0-.1,0-.1-.1v-.2h-.7a.7.7,0,0,0-.3-.6h-.4a.3.3,0,0,0-.1.2.1.1,0,0,0-.1-.1h-.4l-.3.2h-.1c-.1,0-.1-.1-.1-.2s-.1-.2-.3-.2a.5.5,0,0,0-.6.2c0,.1-.1.2-.1.1h-.1a.1.1,0,0,0-.1-.1h-.3c-.2.1-.2.3-.3.5h-.4a.4.4,0,0,0-.3.6.1.1,0,0,0,.1.1v.2h-.4a.4.4,0,0,0,.1.5h.3a.1.1,0,0,1,.1.1h-.1c0,.2,0,.4.2.5H72c.1,0,.2-.1.3,0s0,.3,0,.5a.3.3,0,0,0,.3.3h.6c.2.1.4-.2.4-.4a.4.4,0,0,0-.1-.3h.1a.3.3,0,0,1,.1.2v.2h.4c.1-.1.2-.1.2-.2s-.1-.1-.1-.2.2,0,.2.1.1.1.1.2v.2h.4c.2,0,.3-.2.2-.4h.4a.6.6,0,0,0-.1-.4c-.1,0-.1-.1,0-.2h.2c.1.2.2.5.4.6h.3l.2-.2c0-.2-.1-.3-.2-.5a.2.2,0,0,0,.1-.3.3.3,0,0,0-.1-.2Z" fill="#00ad31"/><path d="M76.1,107.6h-.3v.2h.3v-.2A.1.1,0,0,0,76.1,107.6Z" fill="#00ad31"/><path d="M73,108.8l-.2-.3h-.2c-.2,0-.3,0-.3.2a.4.4,0,0,0,.1.3v.2h.1c.1.1.3,0,.4-.1Z" fill="#00ad31"/><path d="M73.8,108.8l-.2-.3h-.2a.1.1,0,0,1-.1.1v.2l.2.2h.2C73.8,109,73.8,108.9,73.8,108.8Z" fill="#00ad31"/></g></g></g></svg>