<svg xmlns="http://www.w3.org/2000/svg" width="141.8" height="132.1" viewBox="0 0 141.8 132.1"><title>card1</title><g style="isolation:isolate"><g id="afc7884a-1170-497c-be08-b843152f7d5b" data-name="Layer 2"><g id="f9953f67-f835-498b-99a9-4b7d4cbaf7e4" data-name="OBJECT"><polygon points="70.9 132.1 0 91.2 0 86.3 70.9 127.2 70.9 132.1" fill="#fab37a"/><polygon points="70.9 132.1 70.9 127.2 141.8 86.3 141.8 91.2 70.9 132.1" fill="#87491f"/><polygon points="70.9 127.2 0 86.3 0 84.4 70.9 125.3 70.9 127.2" fill="#c5f993"/><polygon points="70.9 127.2 70.9 125.3 141.8 84.4 141.8 86.3 70.9 127.2" fill="#61933f"/><polygon points="70.9 125.3 0 84.4 70.9 43.5 141.8 84.4 70.9 125.3" fill="#9dd864"/><polygon points="75.4 105.6 105.1 105.6 141.8 84.4 120.8 72.3 75.4 105.6" fill="#2e4149" opacity="0.3" style="mix-blend-mode:multiply"/><path d="M52.4,99.9c-.4-.3-.4-.7,0-.9l6.4-3.7-7.5-4.4-6.4,3.7c-4.6,2.7-4.6,7,0,9.6.4.3.4.7,0,.9l-4.5,2.6,7.5,4.4,4.5-2.6C57,106.8,57,102.5,52.4,99.9Z" fill="#dceaef"/><polygon points="36.5 29.6 36.5 76 87.8 105.6 87.8 59.2 36.5 29.6" fill="#e07b36"/><polygon points="55 45.7 51.7 43.8 51.7 42 55 43.9 55 45.7" fill="#f48d47"/><polygon points="59.8 50.3 56.6 48.4 56.6 46.6 59.8 48.5 59.8 50.3" fill="#f48d47"/><polygon points="47.8 58.1 44.5 56.2 44.5 54.4 47.8 56.2 47.8 58.1" fill="#f48d47"/><polygon points="47.8 66.8 44.5 65 44.5 63.1 47.8 65 47.8 66.8" fill="#f48d47"/><polygon points="55 55.1 51.7 53.3 51.7 51.5 55 53.3 55 55.1" fill="#f48d47"/><polygon points="59.8 46.7 56.6 44.8 56.6 43 59.8 44.8 59.8 46.7" fill="#f48d47"/><polygon points="67.7 53.1 64.5 51.2 64.5 49.4 67.7 51.3 67.7 53.1" fill="#f48d47"/><polygon points="72.5 57.7 69.3 55.8 69.3 54 72.5 55.9 72.5 57.7" fill="#f48d47"/><polygon points="78.8 76.6 75.5 74.8 75.5 72.9 78.8 74.8 78.8 76.6" fill="#f48d47"/><polygon points="80.4 87.5 77.2 85.6 77.2 83.8 80.4 85.6 80.4 87.5" fill="#f48d47"/><polygon points="72.5 65.2 69.3 63.3 69.3 61.5 72.5 63.4 72.5 65.2" fill="#f48d47"/><polygon points="84.6 60.1 87.8 62 87.8 63.8 84.6 62 84.6 60.1" fill="#f48d47"/><polygon points="84.6 56.5 87.8 58.3 87.8 60.2 84.6 58.3 84.6 56.5" fill="#f48d47"/><polygon points="79.7 55.5 83 57.4 83 59.2 79.7 57.3 79.7 55.5" fill="#b7591a"/><polygon points="84.6 83.1 87.8 85 87.8 86.8 84.6 85 84.6 83.1" fill="#f48d47"/><polygon points="84.6 79.5 87.8 81.3 87.8 83.2 84.6 81.3 84.6 79.5" fill="#f48d47"/><polygon points="79.7 78.5 83 80.4 83 82.2 79.7 80.3 79.7 78.5" fill="#b7591a"/><polygon points="84.6 94.9 87.8 96.7 87.8 98.6 84.6 96.7 84.6 94.9" fill="#f48d47"/><polygon points="84.6 91.2 87.8 93.1 87.8 94.9 84.6 93 84.6 91.2" fill="#f48d47"/><polygon points="79.7 90.3 83 92.1 83 93.9 79.7 92.1 79.7 90.3" fill="#b7591a"/><polygon points="84.6 71.2 87.8 73.1 87.8 74.9 84.6 73 84.6 71.2" fill="#f48d47"/><polygon points="84.6 67.6 87.8 69.4 87.8 71.3 84.6 69.4 84.6 67.6" fill="#f48d47"/><polygon points="79.7 66.6 83 68.5 83 70.3 79.7 68.4 79.7 66.6" fill="#b7591a"/><polygon points="39.7 67.5 36.5 65.6 36.5 63.8 39.7 65.6 39.7 67.5" fill="#f48d47"/><polygon points="39.7 71.1 36.5 69.3 36.5 67.4 39.7 69.3 39.7 71.1" fill="#f48d47"/><polygon points="44.6 72.1 41.3 70.2 41.3 68.4 44.6 70.3 44.6 72.1" fill="#b7591a"/><polygon points="39.7 44.1 36.5 42.3 36.5 40.4 39.7 42.3 39.7 44.1" fill="#f48d47"/><polygon points="39.7 47.8 36.5 45.9 36.5 44.1 39.7 46 39.7 47.8" fill="#f48d47"/><polygon points="44.6 48.8 41.3 46.9 41.3 45.1 44.6 46.9 44.6 48.8" fill="#b7591a"/><polygon points="39.7 32.4 36.5 30.5 36.5 28.7 39.7 30.6 39.7 32.4" fill="#f48d47"/><polygon points="39.7 36 36.5 34.2 36.5 32.4 39.7 34.2 39.7 36" fill="#f48d47"/><polygon points="44.6 37 41.3 35.1 41.3 33.3 44.6 35.2 44.6 37" fill="#b7591a"/><polygon points="33 73.3 33 74 42.7 79.6 42.7 78.9 33 73.3" fill="#4b4751"/><polygon points="36.5 68.3 33 73.3 42.7 78.9 46.1 73.9 36.5 68.3" fill="#37323f"/><polygon points="35.3 70 45 75.6 45.2 75.3 35.5 69.8 35.3 70" fill="#25202d"/><polygon points="34 71.9 43.7 77.4 43.9 77.2 34.2 71.6 34 71.9" fill="#25202d"/><polygon points="42.7 79.6 42.7 78.9 46.1 73.9 46.1 74.6 42.7 79.6" fill="#25202d"/><path d="M74.9,56.1l5.4,3.1V71.1l-5.4-3.2V56.1m-.7-1.2V68.3l6.9,4V58.8l-6.9-3.9Z" fill="#f0f5f7"/><polygon points="74.9 67.9 80.3 71.1 80.3 70.3 75.6 67.5 74.9 67.9" fill="#bfd7dd"/><polygon points="74.9 56.1 74.9 67.9 75.6 67.5 75.6 56.5 74.9 56.1" fill="#80acb7"/><polygon points="75.6 56.5 75.6 67.5 80.3 70.3 80.3 59.2 75.6 56.5" fill="#4dd0e1"/><polygon points="76.9 62.5 76.9 57.2 80.3 59.2 76.9 62.5" fill="#b2ebf2"/><polygon points="80.3 60 77.4 62.8 77.9 63.1 80.3 60.8 80.3 60" fill="#b2ebf2"/><polygon points="76.3 67.1 76.3 56.9 75.6 56.5 75.6 67.5 80.3 70.3 80.3 69.4 76.3 67.1" fill="#009bbf"/><polygon points="80.3 64.5 75.6 61.8 75.2 62 80.3 65 80.3 64.5" fill="#bfd7dd"/><polygon points="80.3 65 75.2 62 75.2 62.5 80.3 65.4 80.3 65" fill="#f0f5f7"/><polygon points="80.1 72.8 73.3 68.9 73.3 69.8 80.1 73.7 80.1 72.8" fill="#c16f4c"/><polygon points="81 72.3 74.2 68.3 73.3 68.9 80.1 72.8 81 72.3" fill="#7c3f21"/><polygon points="80.1 72.8 80.1 73.7 81 73.2 81 72.3 80.1 72.8" fill="#5b2a12"/><polygon points="123.4 38.7 87.8 59.2 87.8 105.6 123.4 85 123.4 38.7" fill="#b7591a"/><polygon points="91 65.9 87.8 67.7 87.8 69.6 91 67.7 91 65.9" fill="#a54c0f"/><polygon points="91 62.2 87.8 64.1 87.8 65.9 91 64.1 91 62.2" fill="#a54c0f"/><polygon points="95.9 61.3 92.6 63.1 92.6 65 95.9 63.1 95.9 61.3" fill="#a54c0f"/><polygon points="100.6 52.8 103.9 51 103.9 49.1 100.6 51 100.6 52.8" fill="#a54c0f"/><polygon points="100.6 56.5 103.9 54.6 103.9 52.8 100.6 54.7 100.6 56.5" fill="#a54c0f"/><polygon points="95.8 57.5 99 55.6 99 53.8 95.8 55.6 95.8 57.5" fill="#a54c0f"/><polygon points="100.6 62.9 103.9 61.1 103.9 59.2 100.6 61.1 100.6 62.9" fill="#a54c0f"/><polygon points="100.6 66.6 103.9 64.7 103.9 62.9 100.6 64.8 100.6 66.6" fill="#a54c0f"/><polygon points="95.8 67.5 99 65.7 99 63.9 95.8 65.7 95.8 67.5" fill="#a54c0f"/><polygon points="100.6 74.2 103.9 72.3 103.9 70.5 100.6 72.3 100.6 74.2" fill="#a54c0f"/><polygon points="100.6 77.8 103.9 76 103.9 74.1 100.6 76 100.6 77.8" fill="#a54c0f"/><polygon points="95.8 78.8 99 76.9 99 75.1 95.8 76.9 95.8 78.8" fill="#a54c0f"/><polygon points="100.6 86.7 103.9 84.9 103.9 83 100.6 84.9 100.6 86.7" fill="#a54c0f"/><polygon points="100.6 90.4 103.9 88.5 103.9 86.7 100.6 88.6 100.6 90.4" fill="#a54c0f"/><polygon points="95.8 91.4 99 89.5 99 87.7 95.8 89.5 95.8 91.4" fill="#a54c0f"/><polygon points="120.2 41.5 123.4 39.6 123.4 37.8 120.2 39.6 120.2 41.5" fill="#a54c0f"/><polygon points="120.2 45.1 123.4 43.3 123.4 41.4 120.2 43.3 120.2 45.1" fill="#a54c0f"/><polygon points="115.3 46.1 118.6 44.2 118.6 42.4 115.3 44.3 115.3 46.1" fill="#a54c0f"/><polygon points="120.2 51.6 123.4 49.7 123.4 47.9 120.2 49.7 120.2 51.6" fill="#a54c0f"/><polygon points="120.2 55.2 123.4 53.4 123.4 51.5 120.2 53.4 120.2 55.2" fill="#a54c0f"/><polygon points="115.3 56.2 118.6 54.3 118.6 52.5 115.3 54.4 115.3 56.2" fill="#a54c0f"/><polygon points="120.2 62.8 123.4 60.9 123.4 59.1 120.2 61 120.2 62.8" fill="#a54c0f"/><polygon points="120.2 66.5 123.4 64.6 123.4 62.8 120.2 64.6 120.2 66.5" fill="#a54c0f"/><polygon points="115.3 67.4 118.6 65.6 118.6 63.7 115.3 65.6 115.3 67.4" fill="#a54c0f"/><polygon points="120.2 75.4 123.4 73.5 123.4 71.7 120.2 73.5 120.2 75.4" fill="#a54c0f"/><polygon points="120.2 79 123.4 77.2 123.4 75.3 120.2 77.2 120.2 79" fill="#a54c0f"/><polygon points="115.3 80 118.6 78.1 118.6 76.3 115.3 78.2 115.3 80" fill="#a54c0f"/><polygon points="91 89.1 87.8 90.9 87.8 92.8 91 90.9 91 89.1" fill="#a54c0f"/><polygon points="91 85.4 87.8 87.3 87.8 89.1 91 87.2 91 85.4" fill="#a54c0f"/><polygon points="95.9 84.5 92.6 86.3 92.6 88.1 95.9 86.3 95.9 84.5" fill="#a54c0f"/><polygon points="33.9 26.8 33.9 28.1 87.8 59.2 87.8 58 33.9 26.8" fill="#f0f5f7"/><polygon points="125.2 36.4 87.8 58 87.8 59.2 125.2 37.7 125.2 36.4" fill="#80acb7"/><polygon points="71.3 5.3 33.9 26.8 87.8 58 125.2 36.4 71.3 5.3" fill="#bfd7dd"/><polygon points="55.2 0 36.5 27 87.8 56.6 106.5 29.6 55.2 0" fill="#4b4751"/><polygon points="106.5 29.6 87.8 56.6 123.4 36.1 106.5 29.6" fill="#25202d"/><polygon points="55.2 0 106.5 29.6 123.4 36.1 72.1 6.4 55.2 0" fill="#37323f"/><polygon points="56 52.8 74.7 105.2 75.4 105.6 56 51.3 36.5 83.1 37.2 83.5 56 52.8" fill="#4b4751"/><polygon points="37.2 83.5 38.4 82.8 56.3 53.7 56 52.8 37.2 83.5" fill="#25202d"/><polygon points="56.3 53.7 38.4 82.8 74.1 103.4 56.3 53.7" fill="#f48d47"/><polygon points="53.6 62.9 51.9 62 52.7 60.6 53.6 61.1 53.6 62.9" fill="#e07b36"/><polygon points="53.6 66.6 50.4 64.7 51.2 63.4 53.6 64.8 53.6 66.6" fill="#e07b36"/><polygon points="58.4 67.6 55.2 65.7 55.2 63.9 58.4 65.7 58.4 67.6" fill="#e07b36"/><polygon points="66.6 92.7 63.4 90.9 63.4 89 66.6 90.9 66.6 92.7" fill="#e07b36"/><polygon points="71.2 97.3 67.9 95.5 67.9 93.7 71.2 95.5 71.2 97.3" fill="#e07b36"/><polygon points="69.5 91.4 67.9 90.4 67.9 88.6 68.7 89 69.5 91.4" fill="#e07b36"/><polygon points="52.4 74.7 49.2 72.8 49.2 71 52.4 72.8 52.4 74.7" fill="#e07b36"/><polygon points="45.5 79.7 42.3 77.8 42.9 76.4 45.5 77.8 45.5 79.7" fill="#e07b36"/><polygon points="43.5 82.4 40.2 80.5 41 79.1 43.5 80.5 43.5 82.4" fill="#e07b36"/><polygon points="62.9 73.6 60.2 72 60.2 70.2 62 71.3 62.9 73.6" fill="#e07b36"/><polygon points="56.3 55.3 73.4 103 74.1 103.4 56.3 53.7 38.4 82.8 39.1 83.2 56.3 55.3" fill="#f0f5f7"/><polygon points="56 51.3 62.1 47.8 81.6 102 75.4 105.6 56 51.3" fill="#25202d"/><polygon points="105.6 30.9 54.2 1.4 54 1.7 105.4 31.2 105.6 30.9" fill="#37323f"/><polygon points="104.3 32.8 53 3.2 52.8 3.5 104.1 33.1 104.3 32.8" fill="#37323f"/><polygon points="103 34.6 51.7 5 51.5 5.3 102.8 34.9 103 34.6" fill="#37323f"/><polygon points="101.8 36.5 50.4 6.9 50.2 7.2 101.6 36.8 101.8 36.5" fill="#37323f"/><polygon points="100.5 38.3 49.1 8.7 48.9 9 100.3 38.6 100.5 38.3" fill="#37323f"/><polygon points="99.2 40.1 47.9 10.6 47.7 10.9 99 40.4 99.2 40.1" fill="#37323f"/><polygon points="97.9 42 46.6 12.4 46.4 12.7 97.7 42.3 97.9 42" fill="#37323f"/><polygon points="96.7 43.8 45.3 14.2 45.1 14.5 96.5 44.1 96.7 43.8" fill="#37323f"/><polygon points="95.4 45.7 44 16.1 43.8 16.4 95.2 45.9 95.4 45.7" fill="#37323f"/><polygon points="94.1 47.5 42.8 17.9 42.6 18.2 93.9 47.8 94.1 47.5" fill="#37323f"/><polygon points="92.8 49.3 41.5 19.8 41.3 20 92.6 49.6 92.8 49.3" fill="#37323f"/><polygon points="91.6 51.2 40.2 21.6 40 21.9 91.4 51.5 91.6 51.2" fill="#37323f"/><polygon points="90.3 53 39 23.4 38.8 23.7 90.1 53.3 90.3 53" fill="#37323f"/><polygon points="89 54.9 37.7 25.3 37.5 25.6 88.8 55.1 89 54.9" fill="#37323f"/><path d="M43.9,38.2l5.5,3.1V53.2L43.9,50V38.2M43.2,37V50.4l6.9,4V40.9L43.2,37Z" fill="#f0f5f7"/><polygon points="43.9 50 49.4 53.2 49.4 52.4 44.6 49.6 43.9 50" fill="#bfd7dd"/><polygon points="43.9 38.2 43.9 50 44.6 49.6 44.6 38.6 43.9 38.2" fill="#80acb7"/><polygon points="44.6 38.6 44.6 49.6 49.4 52.4 49.4 41.3 44.6 38.6" fill="#4dd0e1"/><polygon points="45.9 44.6 45.9 39.3 49.4 41.3 45.9 44.6" fill="#b2ebf2"/><polygon points="49.4 42.1 46.4 44.9 46.9 45.2 49.4 42.9 49.4 42.1" fill="#b2ebf2"/><polygon points="45.3 49.2 45.3 39 44.6 38.6 44.6 49.6 49.4 52.4 49.4 51.5 45.3 49.2" fill="#009bbf"/><polygon points="49.4 46.6 44.6 43.9 44.2 44.1 49.4 47.1 49.4 46.6" fill="#bfd7dd"/><polygon points="49.4 47.1 44.2 44.1 44.2 44.6 49.4 47.5 49.4 47.1" fill="#f0f5f7"/><polygon points="49.1 54.9 42.3 51 42.3 51.9 49.1 55.8 49.1 54.9" fill="#c16f4c"/><polygon points="50.1 54.4 43.2 50.4 42.3 51 49.1 54.9 50.1 54.4" fill="#7c3f21"/><polygon points="49.1 54.9 49.1 55.8 50.1 55.3 50.1 54.4 49.1 54.9" fill="#5b2a12"/><path d="M98.6,57.9V69.7l-5.4,3.2V61l5.4-3.1m.7-1.2-6.8,3.9V74.1l6.8-4V56.7Z" fill="#bfd7dd"/><polygon points="98.6 69.7 93.2 72.8 93.2 72 97.9 69.3 98.6 69.7" fill="#f0f5f7"/><polygon points="98.6 57.9 98.6 69.7 97.9 69.3 97.9 58.3 98.6 57.9" fill="#80acb7"/><polygon points="97.9 58.3 97.9 69.3 93.2 72 93.2 61 97.9 58.3" fill="#4dd0e1"/><polygon points="96.7 64.3 96.7 59 93.2 61 96.7 64.3" fill="#b2ebf2"/><polygon points="93.2 61.8 96.2 64.6 95.7 64.9 93.2 62.6 93.2 61.8" fill="#b2ebf2"/><polygon points="97.2 68.9 97.2 58.7 97.9 58.3 97.9 69.3 93.2 72 93.2 71.2 97.2 68.9" fill="#009bbf"/><polygon points="93.2 66.3 97.9 63.6 98.4 63.8 93.2 66.8 93.2 66.3" fill="#f0f5f7"/><polygon points="93.2 66.8 98.4 63.8 98.4 64.2 93.2 67.2 93.2 66.8" fill="#bfd7dd"/><polygon points="93.5 74.6 100.3 70.7 100.3 71.6 93.5 75.5 93.5 74.6" fill="#5b2a12"/><polygon points="92.5 74.1 99.3 70.1 100.3 70.7 93.5 74.6 92.5 74.1" fill="#7c3f21"/><polygon points="93.5 74.6 93.5 75.5 92.5 75 92.5 74.1 93.5 74.6" fill="#c16f4c"/><path d="M117,47.3V59.2l-5.4,3.1V50.5l5.4-3.2m.7-1.2-6.8,4V63.5l6.8-3.9V46.1Z" fill="#bfd7dd"/><polygon points="117 59.2 111.6 62.3 111.6 61.5 116.3 58.8 117 59.2" fill="#f0f5f7"/><polygon points="117 47.3 117 59.2 116.3 58.8 116.3 47.7 117 47.3" fill="#80acb7"/><polygon points="116.3 47.7 116.3 58.8 111.6 61.5 111.6 50.5 116.3 47.7" fill="#4dd0e1"/><polygon points="115.1 53.7 115.1 48.5 111.6 50.5 115.1 53.7" fill="#b2ebf2"/><polygon points="111.6 51.3 114.6 54 114 54.3 111.6 52.1 111.6 51.3" fill="#b2ebf2"/><polygon points="115.6 58.4 115.6 48.2 116.3 47.7 116.3 58.8 111.6 61.5 111.6 60.7 115.6 58.4" fill="#009bbf"/><polygon points="111.6 55.7 116.3 53 116.7 53.3 111.6 56.2 111.6 55.7" fill="#f0f5f7"/><polygon points="111.6 56.2 116.7 53.3 116.7 53.7 111.6 56.7 111.6 56.2" fill="#bfd7dd"/><polygon points="111.8 64.1 118.7 60.1 118.7 61 111.8 65 111.8 64.1" fill="#5b2a12"/><polygon points="110.9 63.5 117.7 59.6 118.7 60.1 111.8 64.1 110.9 63.5" fill="#7c3f21"/><polygon points="111.8 64.1 111.8 65 110.9 64.4 110.9 63.5 111.8 64.1" fill="#c16f4c"/><path d="M98.6,79.7V91.5l-5.4,3.2V82.9l5.4-3.2m.7-1.2-6.8,4V95.9L99.3,92V78.5Z" fill="#bfd7dd"/><polygon points="98.6 91.5 93.2 94.7 93.2 93.9 97.9 91.1 98.6 91.5" fill="#f0f5f7"/><polygon points="98.6 79.7 98.6 91.5 97.9 91.1 97.9 80.1 98.6 79.7" fill="#80acb7"/><polygon points="97.9 80.1 97.9 91.1 93.2 93.9 93.2 82.9 97.9 80.1" fill="#4dd0e1"/><polygon points="96.7 86.1 96.7 80.8 93.2 82.9 96.7 86.1" fill="#b2ebf2"/><polygon points="93.2 83.6 96.2 86.4 95.7 86.7 93.2 84.4 93.2 83.6" fill="#b2ebf2"/><polygon points="97.2 90.7 97.2 80.5 97.9 80.1 97.9 91.1 93.2 93.9 93.2 93.1 97.2 90.7" fill="#009bbf"/><polygon points="93.2 88.1 97.9 85.4 98.4 85.6 93.2 88.6 93.2 88.1" fill="#f0f5f7"/><polygon points="93.2 88.6 98.4 85.6 98.4 86.1 93.2 89 93.2 88.6" fill="#bfd7dd"/><polygon points="93.5 96.5 100.3 92.5 100.3 93.4 93.5 97.3 93.5 96.5" fill="#5b2a12"/><polygon points="92.5 95.9 99.3 92 100.3 92.5 93.5 96.5 92.5 95.9" fill="#7c3f21"/><polygon points="93.5 96.5 93.5 97.3 92.5 96.8 92.5 95.9 93.5 96.5" fill="#c16f4c"/><path d="M117,69.2V81l-5.4,3.1V72.3l5.4-3.1m.7-1.2-6.8,3.9V85.3l6.8-3.9V68Z" fill="#bfd7dd"/><polygon points="117 81 111.6 84.1 111.6 83.3 116.3 80.6 117 81" fill="#f0f5f7"/><polygon points="117 69.2 117 81 116.3 80.6 116.3 69.6 117 69.2" fill="#80acb7"/><polygon points="116.3 69.6 116.3 80.6 111.6 83.3 111.6 72.3 116.3 69.6" fill="#4dd0e1"/><polygon points="115.1 75.6 115.1 70.3 111.6 72.3 115.1 75.6" fill="#b2ebf2"/><polygon points="111.6 73.1 114.6 75.9 114 76.2 111.6 73.9 111.6 73.1" fill="#b2ebf2"/><polygon points="115.6 80.2 115.6 70 116.3 69.6 116.3 80.6 111.6 83.3 111.6 82.5 115.6 80.2" fill="#009bbf"/><polygon points="111.6 77.6 116.3 74.8 116.7 75.1 111.6 78.1 111.6 77.6" fill="#f0f5f7"/><polygon points="111.6 78.1 116.7 75.1 116.7 75.5 111.6 78.5 111.6 78.1" fill="#bfd7dd"/><polygon points="111.8 85.9 118.7 82 118.7 82.9 111.8 86.8 111.8 85.9" fill="#5b2a12"/><polygon points="110.9 85.3 117.7 81.4 118.7 82 111.8 85.9 110.9 85.3" fill="#7c3f21"/><polygon points="111.8 85.9 111.8 86.8 110.9 86.2 110.9 85.3 111.8 85.9" fill="#c16f4c"/><polygon points="74.7 97.4 74.7 98.1 84.3 103.7 84.3 102.9 74.7 97.4" fill="#4b4751"/><polygon points="78.1 92.4 74.7 97.4 84.3 102.9 87.8 98 78.1 92.4" fill="#37323f"/><polygon points="77 94.1 86.6 99.7 86.8 99.4 77.2 93.8 77 94.1" fill="#25202d"/><polygon points="75.7 95.9 85.3 101.5 85.5 101.2 75.9 95.6 75.7 95.9" fill="#25202d"/><polygon points="84.3 103.7 84.3 102.9 87.8 98 87.8 98.7 84.3 103.7" fill="#25202d"/><polygon points="37.7 82.7 74.2 103.7 73.6 101.9 38.9 81.9 37.7 82.7" fill="#bfd7dd"/><polygon points="37.7 82.7 37.2 83.5 74.7 105.2 74.2 103.7 37.7 82.7" fill="#f0f5f7"/><polygon points="61.3 76 51.2 70.2 51.2 89 51.9 89.5 51.9 71.5 60.6 76.4 60.6 94.4 61.3 94.9 61.3 76" fill="#f0f5f7"/><polygon points="51.9 71.5 51.9 89.5 60.6 94.4 60.6 76.4 51.9 71.5" fill="#4b4751"/><polygon points="53.1 78.4 55.8 80 55.8 79.6 53.4 78.2 53.1 78.4" fill="#37323f"/><polygon points="53.1 74.7 53.1 78.4 53.4 78.2 53.4 74.9 53.1 74.7" fill="#25202d"/><polygon points="53.4 74.9 53.4 78.2 55.8 79.6 55.8 76.2 53.4 74.9" fill="#4dd0e1"/><polygon points="54 77.8 54 75.2 55.8 76.2 54 77.8" fill="#b2ebf2"/><polygon points="55.8 76.6 54.3 78 54.5 78.1 55.8 77 55.8 76.6" fill="#b2ebf2"/><polygon points="53.8 78 53.8 75.1 53.4 74.9 53.4 78.2 55.8 79.6 55.8 79.1 53.8 78" fill="#009bbf"/><polygon points="56.7 80.5 59.4 82.1 59.4 81.7 57.1 80.3 56.7 80.5" fill="#37323f"/><polygon points="56.7 76.8 56.7 80.5 57.1 80.3 57.1 77 56.7 76.8" fill="#25202d"/><polygon points="57.1 77 57.1 80.3 59.4 81.7 59.4 78.3 57.1 77" fill="#4dd0e1"/><polygon points="57.7 79.9 57.7 77.3 59.4 78.3 57.7 79.9" fill="#b2ebf2"/><polygon points="59.4 78.7 57.9 80.1 58.2 80.2 59.4 79.1 59.4 78.7" fill="#b2ebf2"/><polygon points="57.4 80.1 57.4 77.2 57.1 77 57.1 80.3 59.4 81.7 59.4 81.3 57.4 80.1" fill="#009bbf"/><polygon points="53.1 83.3 55.8 84.9 55.8 84.4 53.4 83.1 53.1 83.3" fill="#37323f"/><polygon points="53.1 79.6 53.1 83.3 53.4 83.1 53.4 79.8 53.1 79.6" fill="#25202d"/><polygon points="53.4 79.8 53.4 83.1 55.8 84.4 55.8 81.1 53.4 79.8" fill="#4dd0e1"/><polygon points="54 82.7 54 80.1 55.8 81.1 54 82.7" fill="#b2ebf2"/><polygon points="55.8 81.5 54.3 82.9 54.5 83 55.8 81.9 55.8 81.5" fill="#b2ebf2"/><polygon points="53.8 82.9 53.8 80 53.4 79.8 53.4 83.1 55.8 84.4 55.8 84 53.8 82.9" fill="#009bbf"/><polygon points="56.7 85.4 59.4 87 59.4 86.6 57.1 85.2 56.7 85.4" fill="#37323f"/><polygon points="56.7 81.7 56.7 85.4 57.1 85.2 57.1 81.9 56.7 81.7" fill="#25202d"/><polygon points="57.1 81.9 57.1 85.2 59.4 86.6 59.4 83.2 57.1 81.9" fill="#4dd0e1"/><polygon points="57.7 84.8 57.7 82.2 59.4 83.2 57.7 84.8" fill="#b2ebf2"/><polygon points="59.4 83.6 57.9 85 58.2 85.1 59.4 84 59.4 83.6" fill="#b2ebf2"/><polygon points="57.4 85 57.4 82.1 57.1 81.9 57.1 85.2 59.4 86.6 59.4 86.2 57.4 85" fill="#009bbf"/><polygon points="46.7 77.3 49.6 79 49.6 78.4 47.3 77.1 46.7 77.3" fill="#e07b36"/><polygon points="46.7 73.4 46.7 77.3 47.3 77.1 47.3 73.7 46.7 73.4" fill="#b7591a"/><polygon points="47.3 73.7 47.3 77.1 49.6 78.4 49.6 75.1 47.3 73.7" fill="#4dd0e1"/><polygon points="47.9 76.7 47.9 74.1 49.6 75.1 47.9 76.7" fill="#b2ebf2"/><polygon points="49.6 75.5 48.2 76.9 48.4 77 49.6 75.9 49.6 75.5" fill="#b2ebf2"/><polygon points="47.6 76.9 47.6 73.9 47.3 73.7 47.3 77.1 49.6 78.4 49.6 78 47.6 76.9" fill="#009bbf"/><polygon points="62.9 86.7 65.7 88.4 65.7 87.8 63.4 86.4 62.9 86.7" fill="#e07b36"/><polygon points="62.9 82.8 62.9 86.7 63.4 86.4 63.4 83.1 62.9 82.8" fill="#b7591a"/><polygon points="63.4 83.1 63.4 86.4 65.7 87.8 65.7 84.5 63.4 83.1" fill="#4dd0e1"/><polygon points="64 86.1 64 83.5 65.7 84.5 64 86.1" fill="#b2ebf2"/><polygon points="65.7 84.8 64.3 86.2 64.5 86.4 65.7 85.2 65.7 84.8" fill="#b2ebf2"/><polygon points="63.7 86.2 63.7 83.3 63.4 83.1 63.4 86.4 65.7 87.8 65.7 87.4 63.7 86.2" fill="#009bbf"/><polygon points="112.5 45 106 48.7 106 97.6 112.5 93.8 112.5 45" fill="#c66524"/><polygon points="103.8 50 103.8 96.3 106 97.6 106 48.7 103.8 50" fill="#e07b36"/><polygon points="39.7 56 36.5 54.2 36.5 52.4 39.7 54.2 39.7 56" fill="#f48d47"/><polygon points="39.7 59.7 36.5 57.8 36.5 56 39.7 57.9 39.7 59.7" fill="#f48d47"/><polygon points="44.6 60.7 41.3 58.8 41.3 57 44.6 58.8 44.6 60.7" fill="#b7591a"/><polygon points="109.3 54.5 106 56.3 106 58.2 109.3 56.3 109.3 54.5" fill="#e07b36"/><polygon points="109.3 50.8 106 52.7 106 54.5 109.3 52.6 109.3 50.8" fill="#e07b36"/><polygon points="112.5 50.8 110.9 51.7 110.9 53.5 112.5 52.6 112.5 50.8" fill="#b7591a"/><polygon points="109.3 65.7 106 67.6 106 69.4 109.3 67.5 109.3 65.7" fill="#e07b36"/><polygon points="109.3 62 106 63.9 106 65.7 109.3 63.9 109.3 62" fill="#e07b36"/><polygon points="112.5 62 110.9 62.9 110.9 64.8 112.5 63.8 112.5 62" fill="#b7591a"/><polygon points="109.3 76.9 106 78.8 106 80.6 109.3 78.7 109.3 76.9" fill="#e07b36"/><polygon points="109.3 73.3 106 75.1 106 76.9 109.3 75.1 109.3 73.3" fill="#e07b36"/><polygon points="112.5 73.2 110.9 74.2 110.9 76 112.5 75.1 112.5 73.2" fill="#b7591a"/><polygon points="109.3 88.1 106 90 106 91.8 109.3 90 109.3 88.1" fill="#e07b36"/><polygon points="109.3 84.5 106 86.3 106 88.2 109.3 86.3 109.3 84.5" fill="#e07b36"/><polygon points="112.5 84.4 110.9 85.4 110.9 87.2 112.5 86.3 112.5 84.4" fill="#b7591a"/><path d="M35.1,80.5c-.1.3-.4.3-.7.3h0c0,.1,0,.2-.2.3h-.3l-.3-.2h0v.3c0,.3-.4.2-.5.1H33c.1.2.1.4-.1.5s-.3-.1-.4-.2h-.2c0,.1-.1.1-.2.1s-.1.2-.3.2l-.3-.2h0v.2c0,.1-.1.1-.2.1s-.2-.2-.3-.4h0l-.2.2c0,.1-.2.1-.2,0a.6.6,0,0,1-.1-.4h-.5a.4.4,0,0,1-.2-.4v-.2c-.1.1-.1.2-.3.2h-.1a.4.4,0,0,1,0-.5h-.4c-.1,0-.1-.1-.1-.2L29,80h-.2c-.1,0-.1-.1-.1-.2l.4-.2c-.2-.1-.4-.2-.3-.4h.3a.3.3,0,0,1,.4,0h.1c0-.2,0-.4.3-.4h.3l.4-.2a.5.5,0,0,1,.4.2h.1c0-.1.1-.3.2-.3a.9.9,0,0,1,.5.3h.1c.1-.1.1-.3.3-.4a.9.9,0,0,1,.5.3c0,.1,0,.2.1.2h0l.3-.2a.3.3,0,0,1,.3.3h0l.4-.2a.5.5,0,0,1,.5.3c0,.1,0,.1-.1.2H35c.1,0,.2.1.2.3l-.2.2h-.1c.1.1.1.1.1.2s0,.1,0,.1S35.2,80.3,35.1,80.5Z" fill="#2e4149" opacity="0.3" style="mix-blend-mode:multiply"/><path d="M35.4,77.7c0-.1,0-.2-.1-.2h-.1c0-.1,0-.1-.1-.1h0c.1-.2.2-.4,0-.5a.2.2,0,0,0-.2-.2v-.2c0-.1.1-.3,0-.4s-.2-.3-.4-.3h-.1v-.4H34c-.1.1-.1.1-.2,0h-.1c0-.2,0-.4-.2-.5H32.4l-.3.2H32v-.2a.2.2,0,0,0-.2-.2.6.6,0,0,0-.7.2h-.6c-.2.1-.2.4-.2.6h-.5c-.2.1-.4.3-.3.5v.2H29a.9.9,0,0,0-.1.5.4.4,0,0,0-.1.5h-.2a.3.3,0,0,0-.1.2.6.6,0,0,0,.1.6.1.1,0,0,1,.1.1c.1.1.1.1,0,.2s-.1.2-.1.4l.2.3a1.1,1.1,0,0,0,0,.8l.3.2h.2c.1,0,.3-.1.2.1v.4c0,.1.1.2.2.3H30l.2.2h.2c.1,0,.1-.2.3,0s.1.4.4.3l.3-.2a.5.5,0,0,0,.2.4h.2l.3-.2.4.2h.2c.2-.1.2-.2.2-.3h.7c.2,0,.2-.2.3-.4s.5,0,.6-.2a.5.5,0,0,0,0-.5c.1.1.3,0,.4-.1l.2-.2V79l.2-.3c.1,0,.1-.1.1-.2a.6.6,0,0,0-.1-.4A.5.5,0,0,0,35.4,77.7Z" fill="#008c47"/><path d="M34.6,75.9c.1,0,.1-.1.2-.2h-.4v-.4H34c-.1.1-.1.1-.2,0h-.1c0-.2,0-.4-.2-.5H32.4l-.3.2H32v-.2a.2.2,0,0,0-.2-.2.6.6,0,0,0-.7.2h-.6c-.2.1-.2.4-.2.6h-.5c-.2.1-.4.3-.3.5v.2h-.4a.4.4,0,0,0,.2.4c0,.1.1.1.2.2h.1v.2c-.1.1,0,.3.1.4h.6c.1.1-.1.4-.1.6s.2.2.4.2h.3a.2.2,0,0,0,.2.2.4.4,0,0,0,.4-.4v-.3h-.1c0-.1.1-.2.1-.1h.1v.2c.2.1.3.2.5.1h.1c0-.1-.1-.2,0-.2h.2v.2h.6a.5.5,0,0,0,.2-.4h.3c.1-.2,0-.3-.1-.4s-.1-.1,0-.2h.2a1.2,1.2,0,0,0,.5.5h.3c.1,0,.1-.2.1-.3l-.2-.4c.1-.1.2-.2.1-.4a.1.1,0,0,1,0-.2Z" fill="#00ad31"/><path d="M34,77.4h-.1a.1.1,0,0,0-.1-.1v.2h.1c0,.1,0,.2.1.2h.2Z" fill="#00ad31"/><path d="M30.9,78.7c0-.2-.1-.3-.2-.3a.2.2,0,0,0-.2-.2l-.3.2a.6.6,0,0,0,.1.4h.6Z" fill="#00ad31"/><path d="M31.7,78.6v-.2h-.3c-.1,0-.1.1-.1.2a.2.2,0,0,0,.2.2h.2A.4.4,0,0,0,31.7,78.6Z" fill="#00ad31"/><path d="M27.4,85c-.1.3-.5.3-.8.3a.1.1,0,0,1,.1.1l-.2.3h-.3l-.4-.2h0l.2.3c0,.3-.4.2-.5.1h-.2c0,.2.1.4-.1.5s-.3-.1-.4-.2h-.2c0,.1-.1.1-.2.1l-.3.2-.3-.2h-.1v.2h-.2c-.2,0-.2-.2-.3-.4h0l-.2.2c-.1.1-.2.1-.2,0a.6.6,0,0,1-.1-.4h-.2a.1.1,0,0,0-.1.1h-.2a.4.4,0,0,1-.2-.4v-.2l-.3.2h-.1a.4.4,0,0,1,0-.5h-.4c-.1,0-.2-.1-.1-.2l.2-.3H21v-.2l.4-.2c-.2-.1-.5-.2-.4-.4h.4a.3.3,0,0,1,.4,0h.1c-.1-.2,0-.4.2-.4h.4a.5.5,0,0,1,.4-.2l.4.2h.1c0-.1.1-.3.2-.3a.9.9,0,0,1,.5.3h.1a.5.5,0,0,1,.3-.4.9.9,0,0,1,.5.3c0,.1,0,.2.1.2h0l.3-.2c.2,0,.2.1.3.3h0l.4-.2c.2,0,.4.1.4.3v.2h.8c.1,0,.2.1.1.2s-.1.3-.2.3,0,.1-.1.1.2.1.2.2h0A.4.4,0,0,1,27.4,85Z" fill="#2e4149" opacity="0.3" style="mix-blend-mode:multiply"/><path d="M27.7,82.2c0-.1,0-.2-.1-.2h-.2a.4.4,0,0,0,0-.5.2.2,0,0,0-.2-.2v-.2a.6.6,0,0,0,.1-.4c0-.2-.2-.3-.4-.3h-.1v-.2c0-.1-.1-.1-.1-.2h-.3c-.1.1-.2.1-.2,0H26a.5.5,0,0,0-.3-.5h-1l-.3.2h-.1V79c-.1-.1-.1-.2-.3-.2a.5.5,0,0,0-.6.2h-.6c-.2.1-.2.4-.2.6H22a.3.3,0,0,0-.3.5v.2h-.5c-.2.1-.2.3-.1.5s-.2.3-.2.5h-.1c-.1.1-.1.1-.1.2s-.1.5.1.6a.1.1,0,0,1,.1.1c.1.1.1.1,0,.2s-.1.2-.1.4l.2.3a1.1,1.1,0,0,0,0,.8c0,.1.1.2.3.2h.2c.1,0,.2-.1.2.1v.4a.2.2,0,0,0,.2.2h.4c0,.1.1.1.1.2h.3c.1,0,.1-.2.2,0s.2.4.4.3l.3-.2c.1.2.1.3.3.4h.2l.3-.2.3.2H25c.2-.1.2-.2.2-.3h.6c.2,0,.3-.2.3-.4s.6,0,.7-.2v-.5c.1.1.3,0,.4-.1s.1-.1.1-.2,0-.2,0-.3l.2-.3c.1,0,.1-.1.1-.2a.6.6,0,0,0-.1-.4A.5.5,0,0,0,27.7,82.2Z" fill="#008c47"/><path d="M26.9,80.4l.2-.2h-.4v-.2c0-.1-.1-.1-.1-.2h-.3c-.1.1-.2.1-.2,0H26a.5.5,0,0,0-.3-.5h-1l-.3.2h-.1V79c-.1-.1-.1-.2-.3-.2a.5.5,0,0,0-.6.2h-.6c-.2.1-.2.4-.2.6H22a.3.3,0,0,0-.3.5v.2h-.2c-.1,0-.2,0-.2.1s0,.3.1.4l.3.2h.1v.2a.2.2,0,0,0,.1.4h.5c.2.1,0,.4,0,.6s.2.2.3.2h.3l.3.2a.4.4,0,0,0,.4-.4.4.4,0,0,0-.1-.3h0c0-.1,0-.2.1-.1h.1v.2c.1.1.3.2.4.1h.2a.3.3,0,0,0-.1-.2c.1-.1.2,0,.2.1v.2h.5c.2-.1.3-.2.2-.4h.4c0-.2,0-.3-.1-.4s-.1-.1,0-.2H26a1,1,0,0,0,.4.5h.3l.2-.3-.2-.4c.1-.1.2-.2.1-.4a.1.1,0,0,1,0-.2Z" fill="#00ad31"/><path d="M26.3,81.9h-.1a.1.1,0,0,0-.1-.1V82h.1c0,.1,0,.2.1.2h.1c.1,0,.1,0,.1-.1Z" fill="#00ad31"/><path d="M23.2,83.2c0-.2-.1-.3-.2-.3l-.2-.2c-.2,0-.3.1-.3.2a.6.6,0,0,0,.1.4h.6Z" fill="#00ad31"/><path d="M24,83.1l-.2-.2h-.3v.2a.2.2,0,0,0,.2.2h.2A.4.4,0,0,0,24,83.1Z" fill="#00ad31"/><path d="M19.5,89.6c-.1.3-.4.3-.7.3h0c0,.1-.1.3-.2.3h-.7a.2.2,0,0,1,.2.2c0,.3-.4.2-.5.1h-.2c0,.2.1.4-.1.5s-.3-.1-.4-.2h-.1a.1.1,0,0,1-.1.1c0,.1-.1.2-.2.1l-.3.2h-.3c0-.1,0-.1-.1-.1V91h-.2c-.2,0-.2-.2-.3-.4h0l-.2.2h-.2c-.1-.1-.1-.2-.1-.4s0,.1-.1.1h-.4c-.2-.1-.2-.2-.2-.4v-.2l-.3.2h-.1a.5.5,0,0,1,0-.5h-.4a.4.4,0,0,1-.1-.3.2.2,0,0,1,.2-.2l.2-.2h-.4c-.1,0-.1-.1-.1-.2l.4-.2c-.2-.1-.5-.2-.4-.4H14c-.1-.2,0-.4.2-.4h.4l.4-.2.4.2h.1l.2-.2a.5.5,0,0,1,.5.3h.1a.5.5,0,0,1,.3-.4.7.7,0,0,1,.5.4.1.1,0,0,0,.1.1h0q.2-.3.3-.3c.2,0,.2.2.3.3h0l.4-.2c.2,0,.4.1.4.3a.1.1,0,0,1,0,.2h.8l.2.3-.2.3h-.1c0,.1.1.1.1.2v.2C19.6,89.3,19.6,89.4,19.5,89.6Z" fill="#2e4149" opacity="0.3" style="mix-blend-mode:multiply"/><path d="M19.8,86.9a.4.4,0,0,0-.1-.3h-.2c.1-.2.2-.3,0-.5l-.2-.2v-.2c.1-.1.1-.2.1-.4s-.2-.3-.4-.3-.1,0-.1-.1v-.2c0-.1-.1-.1-.1-.2h-.6a1.1,1.1,0,0,0-.2-.6H16.8l-.3.2h-.1a.3.3,0,0,1-.1-.2c0-.1-.1-.2-.3-.2a.5.5,0,0,0-.6.2.1.1,0,0,1-.1.1h-.1c0-.1,0-.1-.1-.1h-.3c-.2,0-.2.3-.2.5h-.5a.4.4,0,0,0-.3.6.1.1,0,0,0,.1.1v.2h-.5a1.1,1.1,0,0,0-.1.5c-.1.2-.2.4-.1.5s-.2.1-.2.2h-.1c-.1.2-.1.5.1.6h.1a.2.2,0,0,1,0,.3c0,.1-.1.1-.1.3s.1.3.2.3a1.1,1.1,0,0,0,0,.8l.3.2h.4c0,.1-.1.1-.1.2v.2l.2.3h.4c0,.1.1.1.1.2h.3c.1-.1.1-.3.3-.1s.1.4.4.4l.3-.3c0,.2,0,.3.2.4h.2l.3-.2a.5.5,0,0,0,.4.2h.2c.2-.1.2-.2.2-.3h.6a1,1,0,0,0,.4-.5c.2,0,.5.1.6-.2s0-.3,0-.4h.4a.4.4,0,0,0,.1-.3c.1-.1,0-.2,0-.3s.2-.2.2-.3.1-.1.1-.2a.8.8,0,0,0-.1-.4C19.7,87.2,19.8,87,19.8,86.9Z" fill="#008c47"/><path d="M19,85c.1,0,.1-.1.2-.2h-.3c-.1,0-.1,0-.1-.1v-.2c0-.1-.1-.1-.1-.2h-.6a1.1,1.1,0,0,0-.2-.6H16.8l-.3.2h-.1a.3.3,0,0,1-.1-.2c0-.1-.1-.2-.3-.2a.5.5,0,0,0-.6.2.1.1,0,0,1-.1.1h-.1c0-.1,0-.1-.1-.1h-.3c-.2,0-.2.3-.2.5h-.5a.4.4,0,0,0-.3.6.1.1,0,0,0,.1.1v.2h-.4c-.1.2,0,.3.1.5H14v.2c-.1.2-.1.3.1.4h.5c.2.2,0,.4,0,.6s.2.2.4.3h.5a.4.4,0,0,0,.4-.4.4.4,0,0,0-.1-.3h.1c.1,0,.1.1.1.2a.3.3,0,0,1,.1.2h.5c0-.1.1-.1.1-.2s-.1-.1-.1-.2.2,0,.2.1.1.1.1.2l.2.2h.4c.1-.1.2-.2.1-.4H18c0-.2,0-.3-.1-.4s-.1-.1,0-.2h.2a1.3,1.3,0,0,0,.5.6h.2c.2,0,.2-.1.2-.2a.8.8,0,0,0-.2-.5c.1-.1.2-.2.1-.4s-.1-.1,0-.1S19,85.1,19,85Z" fill="#00ad31"/><path d="M18.4,86.6h-.3c0,.1,0,.1.1.1h0a.1.1,0,0,0,.1.1h.2v-.2A.1.1,0,0,0,18.4,86.6Z" fill="#00ad31"/><path d="M15.3,87.8l-.2-.3h-.2a.2.2,0,0,0-.3.1c0,.2,0,.3.1.4H15c0,.1.2,0,.3-.1Z" fill="#00ad31"/><path d="M16.1,87.8l-.2-.3h-.2a.1.1,0,0,1-.1.1v.2l.2.2H16C16.1,87.9,16.1,87.9,16.1,87.8Z" fill="#00ad31"/><path d="M83.5,109c-.1.3-.4.3-.7.3h0l-.2.3h-.7l.2.2c0,.3-.4.2-.5.1s-.2,0-.2-.1.1.4-.1.5-.3-.1-.4-.2h-.2c0,.1-.1.1-.2.1l-.3.2-.3-.2h-.3c-.2,0-.2-.2-.3-.4h0l-.2.2c-.1.1-.2.1-.2,0a.6.6,0,0,1-.1-.4h-.2a.1.1,0,0,0-.1.1h-.2a.4.4,0,0,1-.2-.4v-.2l-.3.2h-.1a.4.4,0,0,1,0-.5h-.4c-.1,0-.2-.1-.1-.2l.2-.3h-.2c-.1,0-.1-.1-.1-.2l.4-.2c-.2-.1-.5-.2-.4-.4H78c-.1-.2,0-.4.2-.4h.4a.5.5,0,0,1,.4-.2l.4.2h.1a.2.2,0,0,1,.2-.2l.5.2h.1a.5.5,0,0,1,.3-.4.9.9,0,0,1,.5.3c0,.1,0,.2.1.2h0l.3-.2c.2,0,.2.1.3.3h0l.4-.2c.2,0,.4.1.4.3s0,.1,0,.2h.8c.1,0,.2.1.2.3l-.2.2h-.1c0,.1.1.1.1.2h0C83.6,108.7,83.6,108.8,83.5,109Z" fill="#2e4149" opacity="0.3" style="mix-blend-mode:multiply"/><path d="M83.8,106.2c0-.1,0-.2-.1-.2h-.1a.1.1,0,0,0-.1-.1h0c.1-.2.2-.4,0-.5a.2.2,0,0,0-.2-.2c0-.1,0-.2-.1-.2s.1-.2.1-.4-.2-.3-.4-.3h-.1v-.2c0-.1-.1-.1-.1-.2h-.6a.8.8,0,0,0-.2-.6H80.8l-.3.2h-.1V103c-.1-.1-.1-.2-.3-.2a.5.5,0,0,0-.6.2h-.6c-.2.1-.2.4-.2.6h-.5c-.3.1-.4.3-.3.5v.4h-.5a.9.9,0,0,0-.1.5.3.3,0,0,0-.1.5H77a.3.3,0,0,0-.1.2c-.1.2-.1.5.1.6h.1c.1.1.1.2,0,.2s-.1.2-.1.4l.2.3a1.1,1.1,0,0,0,0,.8c0,.1.2.2.3.2h.2c.1,0,.2-.1.2.1v.4c0,.1.1.2.2.3h.4c0,.1.1.1.1.2h.3c.1,0,.1-.2.2,0s.2.4.5.4l.2-.3c.1.2.1.3.3.4h.2l.3-.2.4.2h.2c.2-.1.2-.2.2-.3h.6c.2,0,.3-.2.4-.4s.5,0,.6-.2,0-.3,0-.4a.4.4,0,0,0,.4-.2c.1,0,.1-.1.1-.2s0-.2,0-.3l.2-.3c.1,0,.1-.1.1-.2a.6.6,0,0,0-.1-.4A.5.5,0,0,0,83.8,106.2Z" fill="#008c47"/><path d="M83,104.4l.2-.2h-.4v-.2c0-.1-.1-.1-.1-.2h-.6a.8.8,0,0,0-.2-.6H80.8l-.3.2h-.1V103c-.1-.1-.1-.2-.3-.2a.5.5,0,0,0-.6.2h-.6c-.2.1-.2.4-.2.6h-.5c-.3.1-.4.3-.3.5v.4h-.4c-.1.1,0,.3.1.4l.3.2H78v.2a.2.2,0,0,0,.1.4h.5c.2.2,0,.4,0,.6s.2.2.4.2l.3.2h.2a.4.4,0,0,0,.4-.4.4.4,0,0,0-.1-.3H80v.3c.1,0,.3.1.5,0h.1a.3.3,0,0,0-.1-.2c.1-.1.2,0,.2.1v.2h.5c.2-.1.3-.2.2-.4H82c0-.2,0-.3-.1-.4s-.1-.1,0-.2h.2a.8.8,0,0,0,.5.5c0,.1.1.2.2.1s.2-.2.2-.3a.8.8,0,0,0-.2-.4c.1-.1.2-.2.1-.4a.1.1,0,0,1,0-.2Z" fill="#00ad31"/><path d="M82.4,105.9h-.1c0-.1-.1-.1-.1,0h.2c.1,0,.1,0,.1-.1Z" fill="#00ad31"/><path d="M79.3,107.2c0-.1-.1-.3-.2-.3a.2.2,0,0,0-.2-.2c-.1,0-.3.1-.3.2a.6.6,0,0,0,.1.4h.2c.1.1.3,0,.4-.1Z" fill="#00ad31"/><path d="M80.1,107.2c0-.2-.1-.2-.2-.3h-.3v.2a.2.2,0,0,0,.2.2H80Z" fill="#00ad31"/><path d="M75.8,113.5a.8.8,0,0,1-.8.3.1.1,0,0,1,.1.1l-.2.3h-.3l-.4-.2h0l.2.3a.3.3,0,0,1-.5.1c-.1,0-.2,0-.2-.1s.1.4-.1.5a.3.3,0,0,1-.4-.2h-.4l-.3.2-.3-.2H72a.1.1,0,0,1-.1.1c-.2,0-.3-.2-.3-.4h0l-.2.2a.2.2,0,0,1-.3,0v-.4h-.6a.6.6,0,0,1-.1-.4v-.2l-.3.2h-.2a.7.7,0,0,1,.1-.5h-.4c-.1,0-.2-.1-.1-.2l.2-.3h-.3a.1.1,0,0,1,0-.2l.4-.2c-.2-.1-.5-.2-.4-.4h.3c.2,0,.3-.1.5,0h.1c-.1-.2,0-.4.2-.4h.4a.5.5,0,0,1,.4-.2l.4.2h.1c0-.1,0-.2.2-.2l.5.2h.1a.5.5,0,0,1,.3-.4c.2,0,.3.2.4.3v.2h.1c.1-.1.1-.2.3-.2s.2.1.2.3.1,0,.1.1l.4-.2c.2,0,.4.1.4.3v.2h.8c.1,0,.2.1.1.3l-.2.2c0,.1,0,.1-.1.1s.2.1.2.2h0C75.8,113.2,75.9,113.3,75.8,113.5Z" fill="#2e4149" opacity="0.3" style="mix-blend-mode:multiply"/><path d="M76.1,110.7a.3.3,0,0,0-.1-.2h-.2a.4.4,0,0,0,0-.5.2.2,0,0,0-.2-.2v-.2a.6.6,0,0,0,.1-.4c-.1-.2-.2-.3-.4-.3h-.1v-.2l-.2-.2h-.2a.2.2,0,0,1-.3,0h0a.6.6,0,0,0-.3-.6h-.6c.1,0,0,0,0-.1h-.4l-.3.2h-.1c-.1,0-.1-.1-.1-.2l-.3-.2a.5.5,0,0,0-.6.2h-.6c-.2.1-.2.4-.3.6h-.5a.4.4,0,0,0-.2.5v.4h-.5c-.2.2-.2.3-.1.5s-.2.3-.2.5h-.1c-.1.1-.1.2-.2.2s0,.5.2.6a.1.1,0,0,1,.1.1c.1.1.1.2,0,.2s-.1.2-.1.4l.2.3a1.1,1.1,0,0,0,0,.8c0,.1.1.2.3.2H70c.1,0,.2-.1.2.1v.2c-.1,0-.1.1,0,.2s.1.2.2.3h.4v.2c.1,0,.2,0,.2-.1s.2-.2.3,0,.2.4.4.4l.3-.3c.1.2.1.3.2.4h.3l.3-.2.3.2h.3l.2-.3h.6c.2,0,.3-.2.3-.4s.6,0,.7-.2v-.5a.2.2,0,0,0,.4-.1c.1,0,.1-.1.1-.2s0-.2,0-.3l.2-.3v-.2a.6.6,0,0,0-.1-.4A.5.5,0,0,0,76.1,110.7Z" fill="#008c47"/><path d="M75.3,108.9c.1,0,.1-.1.1-.2s-.1-.1-.2-.1h-.1v-.2l-.2-.2h-.2a.2.2,0,0,1-.3,0h0a.6.6,0,0,0-.3-.6h-.6c.1,0,0,0,0-.1h-.4l-.3.2h-.1c-.1,0-.1-.1-.1-.2l-.3-.2a.5.5,0,0,0-.6.2h-.6c-.2.1-.2.4-.3.6h-.5a.4.4,0,0,0-.2.5v.4H70c-.1,0-.2,0-.2.1s0,.3.1.4l.3.2h.1v.2a.4.4,0,0,0,.2.4c0,.1.1.1.2.1h.3c.2.1-.1.4,0,.6s.2.2.3.2l.3.2h.3a.4.4,0,0,0,.4-.4.4.4,0,0,0-.1-.3h.2a.4.4,0,0,0,.1.3c.1,0,.3.1.4,0H73a.3.3,0,0,0-.1-.2h.2c0,.1,0,.1.1.2h.5a.5.5,0,0,0,.2-.4h.4c0-.2,0-.3-.1-.4s-.2-.1,0-.2h.2a.7.7,0,0,0,.4.5c.1.1.2.2.3.1s.2-.2.2-.3a.8.8,0,0,0-.2-.4c.1-.1.2-.2.1-.4V109Z" fill="#00ad31"/><path d="M74.7,110.4h-.1c0-.1-.1-.1-.2,0h0a.2.2,0,0,0,.2.2h.1c.1,0,.1,0,.1-.1Z" fill="#00ad31"/><path d="M71.6,111.7c-.1-.2-.1-.3-.2-.3l-.3-.2a.2.2,0,0,0-.2.2.6.6,0,0,0,.1.4h.2c.1.1.3,0,.4-.1Z" fill="#00ad31"/><path d="M72.4,111.6l-.2-.2h-.3a.1.1,0,0,0,0,.2.2.2,0,0,0,.2.2h.2A.4.4,0,0,0,72.4,111.6Z" fill="#00ad31"/><path d="M67.9,118.1c-.1.3-.5.3-.8.3h.1c0,.2-.1.3-.2.3h-.7c.1.1.2.1.2.3s-.4.1-.5,0h-.2c0,.2.1.5-.1.5a.3.3,0,0,1-.4-.2.1.1,0,0,0-.2,0l-.2.2h-.6a.1.1,0,0,0-.1-.1v.2H64c-.2,0-.2-.2-.3-.3h0l-.2.2h-.2c-.1-.1-.1-.2-.1-.4s0,.1-.1.1h-.4c-.2-.1-.2-.2-.2-.4v-.2l-.3.2c-.1.1-.1,0-.2,0a.9.9,0,0,1,.1-.5h-.4c-.1-.1-.2-.2-.1-.3a.2.2,0,0,1,.2-.2l.2-.2h-.5v-.3l.4-.2c-.2-.1-.5-.2-.4-.4h.9c-.1-.2,0-.4.2-.4H63l.4-.2.4.2h.1c0-.1,0-.2.2-.2a.5.5,0,0,1,.5.3h.1a.3.3,0,0,1,.3-.3c.2-.1.4.1.4.3l.2.2h0c.1-.1.2-.3.3-.3s.2.2.3.3h0l.4-.2c.2,0,.4.1.4.3v.2h.8c.1.1.2.2.1.3l-.2.3h.1v.2C67.9,117.8,68,118,67.9,118.1Z" fill="#2e4149" opacity="0.3" style="mix-blend-mode:multiply"/><path d="M68.2,115.4c0-.1-.1-.2-.1-.3h-.2a.5.5,0,0,0,0-.5l-.2-.2v-.2c.1-.1.1-.2.1-.4s-.2-.3-.4-.3-.1,0-.1-.1v-.2h-.7a.7.7,0,0,0-.3-.6h-.6c0-.1-.1-.1-.1-.2h-.3l-.3.2h-.1c-.1,0-.1-.1-.1-.2s-.1-.2-.3-.2a.5.5,0,0,0-.6.2.1.1,0,0,1-.1.1h-.1a.1.1,0,0,0-.1-.1h-.3c-.2.1-.2.3-.3.5h-.4a.4.4,0,0,0-.3.6.1.1,0,0,0,.1.1v.2h-.5c-.2.2-.2.4-.1.5a.7.7,0,0,0-.2.6.1.1,0,0,0-.1.1h0c-.1,0-.1.1-.1.2a.3.3,0,0,0,.1.5h.1a.2.2,0,0,1,0,.3.4.4,0,0,0-.1.3c0,.1.1.3.2.3a1.1,1.1,0,0,0,0,.8c0,.1.1.2.3.2h.4c-.1.1-.1.1-.1.2s-.1.1,0,.2l.2.3h.4c0,.1,0,.2.1.2h.3c.1-.1.1-.3.2-.1s.2.4.4.4l.3-.3c.1.2.1.3.3.4h.2c.1,0,.2-.2.3-.1h.6c.1-.1.2-.2.2-.3h.6a.5.5,0,0,0,.3-.5c.3.1.6.1.7-.2v-.4h.4V117c.1-.2,0-.3,0-.4l.2-.2a.4.4,0,0,0,.1-.3.8.8,0,0,0-.1-.4C68.1,115.7,68.2,115.5,68.2,115.4Z" fill="#008c47"/><path d="M67.4,113.5l.2-.2h-.3c-.1,0-.1,0-.1-.1v-.2h-.7a.7.7,0,0,0-.3-.6h-.6c0-.1-.1-.1-.1-.2h-.3l-.3.2h-.1c-.1,0-.1-.1-.1-.2s-.1-.2-.3-.2a.5.5,0,0,0-.6.2.1.1,0,0,1-.1.1h-.1a.1.1,0,0,0-.1-.1h-.3c-.2.1-.2.3-.3.5h-.4a.4.4,0,0,0-.3.6.1.1,0,0,0,.1.1v.2h-.4a.4.4,0,0,0,.1.5h.4c0,.1,0,.1-.1.2a.6.6,0,0,0,.2.5H63c.2.1,0,.3,0,.5s.2.2.3.3h.6a.4.4,0,0,0,.4-.4.4.4,0,0,0-.1-.3h.1a.3.3,0,0,1,.1.2v.2h.4c.1-.1.2-.1.2-.2s-.1-.1-.1-.2.2,0,.2.1.1.1.1.2v.2h.4c.2-.1.3-.2.2-.4h.4a.6.6,0,0,0-.1-.4c-.1,0-.1-.1,0-.2h.2c.1.2.2.5.4.6h.3l.2-.2a.8.8,0,0,0-.2-.5c.1-.1.2-.2.1-.3a.3.3,0,0,0-.1-.2Z" fill="#00ad31"/><path d="M66.8,115.1h0v-.2A.1.1,0,0,0,66.8,115.1Z" fill="#00ad31"/><path d="M63.7,116.3l-.2-.3h-.2c-.2,0-.3,0-.3.2a.4.4,0,0,0,.1.3h.2c.1.1.3,0,.4-.1Z" fill="#00ad31"/><path d="M64.5,116.3l-.2-.3H64v.2l.2.2h.2C64.5,116.4,64.5,116.4,64.5,116.3Z" fill="#00ad31"/></g></g></g></svg>