<?xml version="1.0" encoding="UTF-8"?>
<svg id="Layer_2" data-name="Layer 2" xmlns="http://www.w3.org/2000/svg" width="443.4" height="148.47" viewBox="0 0 443.4 148.47">
  <defs>
    <style>
      .cls-1, .cls-2, .cls-3 {
        fill: none;
        stroke: #196489;
        stroke-linecap: round;
        stroke-miterlimit: 10;
        stroke-width: 3px;
      }

      .cls-2 {
        stroke-dasharray: 0 0 7.83 7.83;
      }

      .cls-4 {
        opacity: .5;
      }

      .cls-3 {
        stroke-dasharray: 0 0 7.8 7.8;
      }

      .cls-5 {
        fill: #4ca4d6;
      }

      .cls-5, .cls-6 {
        stroke-width: 0px;
      }

      .cls-6 {
        fill: #196489;
      }
    </style>
  </defs>
  <g id="Layer_1-2" data-name="Layer 1">
    <g>
      <g class="cls-4">
        <g>
          <path class="cls-1" d="M75.04,129.88c.96.93,1.94,1.82,2.96,2.69"/>
          <path class="cls-3" d="M84.25,137.22c9.48,6.16,20.8,9.74,32.96,9.74,74.93,0,104.92-64.88,180.53-101.6"/>
          <path class="cls-1" d="M301.28,43.68c1.2-.56,2.42-1.11,3.65-1.66"/>
        </g>
      </g>
      <g class="cls-4">
        <g>
          <path class="cls-1" d="M1.5,61.73c.6,1.19,1.22,2.37,1.88,3.53"/>
          <path class="cls-2" d="M7.56,71.86c9.25,13.16,22.56,23.65,38.9,29.36,42.28,14.75,78.84,8.85,116.44-3.19"/>
          <path class="cls-1" d="M166.63,96.82c1.26-.42,2.53-.84,3.79-1.27"/>
        </g>
      </g>
      <g>
        <polygon class="cls-5" points="443.4 0 304.48 0 339.68 32.88 339.68 32.88 326.86 45.18 348.18 40.82 348.18 40.82 363.78 55.38 443.4 0"/>
        <path class="cls-6" d="M339.68,32.88l-12.83,12.3v-24.28L443.4,0l-103.71,32.88ZM343.74,35.62v6.11l4.44-.91-4.44-5.2Z"/>
      </g>
    </g>
  </g>
</svg>