<?xml version="1.0" encoding="utf-8"?>
<!-- Generator: Adobe Illustrator 28.1.0, SVG Export Plug-In . SVG Version: 6.00 Build 0)  -->
<svg version="1.1" xmlns="http://www.w3.org/2000/svg" xmlns:xlink="http://www.w3.org/1999/xlink" x="0px" y="0px"
	 viewBox="0 0 1200 840" enable-background="new 0 0 1200 840" xml:space="preserve">
<g id="artwork">
	<rect fill="#F3FAFF" width="1200" height="840"/>
	<polygon fill="#E7F5FF" points="1200,424.4 1200,783.2 0,90.3 0,0 464.9,0 	"/>
	<polygon fill="#E7F5FF" points="1200,0 1200,373.6 552.9,0 	"/>
	<ellipse fill="#415984" fill-opacity="0.06" cx="959.9" cy="736.3" rx="77.3" ry="33.9"/>
	<path fill="#FFB2B2" d="M468.3,285.3c-2.1-1.2-4.3-2.2-6.6-3.1c-1.6-0.7-3.3-1.3-5.1-1.6h-0.3l-1-0.2l-1-0.2
		c0.1,0.6,0.2,1.2,0.2,1.8c0.2,2,0.1,4-0.4,6c2.8,1.1,10.4,3.3,10.6,3.4c3.3,1.8,4.7,1.2,4.4,0.1s2.6,0.2,2.6-0.8
		c0.4-0.2,0.7-0.5,1-0.9c-0.1-0.8-0.4-1.6-0.7-2.4C471.4,286.8,469.1,285.8,468.3,285.3z"/>
	<path fill="#FFB2B2" d="M403.6,259.7c-0.5,8.1,33.4,22,52.3,28.9c0.5-2.6,1.6-5.1,3-7.3c-14.9-7.9-33.5-23.7-43.8-29.1
		C412.1,250.6,404.2,250.7,403.6,259.7z"/>
	<path fill="#010080" d="M353.8,490.1c-0.4-1.9-0.6-3.8-0.8-5.7l-8.9,0.4v3.1c-2.3,2.2,0.1,9.3,0.5,11.2s6.1,5.8,8.4,5.3
		s4.1-2,3.5-4.7S354.5,493.3,353.8,490.1z"/>
	<path fill="#FFB2B2" d="M344.1,484.8v3.1c0.3,0.6,0.6,1.2,1,1.8c0.8,0.7,3-0.4,5.2-0.8s3,0.4,3.3,0c-0.3-1.5-0.5-3-0.6-4.5
		L344.1,484.8z"/>
	<path fill="#010080" d="M421.2,447.7l-2.8-3.2l-8.2,2.2c0,0,0.3,1.8,0.7,3.7c-0.6,1.3-0.5,2.7,0.3,3.9c0.8,1.1,6.2,1.9,7.7,3.3
		c2,1.9,4.7,2.9,7.4,2.9c3.5-0.2,7.7-1.7,7.7-3.4C434,453.7,423.7,450.1,421.2,447.7z"/>
	<path fill="#FFB2B2" d="M410.2,446.7c0,0,0.3,1.8,0.7,3.7c0,0,4.6,1.3,6.1,0.6c1.7-0.7,3.1-1.8,4.2-3.3c-1-1-1.9-2.2-2.6-3.5
		L410.2,446.7z"/>
	<path fill="#45366D" d="M371.5,281.8L371.5,281.8c0.8,7.3,34.3,165,34.3,165s10.9,3.5,13.9-3.5c0,0-13.1-168.4-13.5-171.6
		C404.2,275,376.2,283.7,371.5,281.8z"/>
	<path fill="#45366D" d="M339.8,314c-0.5,7.3,1.8,170.9,1.8,170.9s9.6,3.5,14.4,0.3c0,0,19.2-167.5,19.5-170.7
		C372.9,317.1,344,317.2,339.8,314z"/>
	<path fill="#FFB2B2" d="M410.6,267.2c-0.8-0.3-1.6-0.7-2.4-1.1c-0.7-0.4-1.4-0.9-1.9-1.5l-0.7-0.9l-0.2-0.2l-1.2-1.6l0,0
		c-10.2-14.8-20.8-52-17.3-61.5c0.2-0.6,0.5-1.1,0.9-1.5c0.8-0.8,1.7-1.5,2.6-2.1s2-1,3.1-1.1h0.7c3.1,0.1,5.9,1.9,7.2,4.7
		c1.4,3.2,2.8,7.5,4.4,12.5c3.7,12.1,8.1,27.9,12.8,38.9c0.5,1.1,1,2.3,1.3,3.5C423.7,266.8,416.2,268.9,410.6,267.2z"/>
	<path fill="#E13F8E" d="M415.6,316.4c-1.8,0.9-3.7,1.5-5.7,1.7c-7.2,0.5-13.9-4-16.2-10.8l-5-13.5l-1.1,6c-1.2,7.5-4.1,14.7-8.3,21
		c-1.6,2.3-3.3,4.5-5.3,6.5c-5.5,5.8-12.5,10-20.2,12.2l-13.9,4l-6.1,1.8l0,0c0-19.5,0.8-43.2,1.8-65.1c0.1-1.4,0.1-2.8,0.2-4.1
		c0.3-5.7,0.6-11.2,0.9-16.5c1.2-21.1,2.5-38.1,3.4-44.1c0-0.7,0.2-1.4,0.4-2l0,0c0.2-0.7,0.4-1.5,0.7-2.2
		c3.2-9.6,7.9-14.8,14.5-17.5l0.7-0.4c2.9-1.1,6-1.9,9.1-2.4c2.2-0.3,4.4-0.5,6.6-0.5h2.5l4.6,0.2c2.4,0.2,4.8,0.6,7.2,1.3l3.2,1.1
		c1.5,0.6,2.9,1.4,4.3,2.2l0.3,0.2c7.3,4.9,9.2,12.2,10.1,17.3c0,0.2,0.1,0.4,0.1,0.6c1,6.1,2.7,21.4,4.6,38.4
		c0.5,5,1.1,10.2,1.6,15.4c0,0.2,0,0.5,0.1,0.7C413.2,292.8,415.6,316.4,415.6,316.4z"/>
	<path fill="#FFFFFE" d="M374.6,190.5c-6.4-0.4-12.7,0.6-18.7,2.8c-0.5,0.7-0.8,1.5-0.8,2.3c0,4.3,7.9,7.8,17.7,7.8
		s17.8-3.5,17.8-7.8c0-0.9-0.4-1.8-1-2.5C384.8,191.3,379.7,190.4,374.6,190.5z"/>
	<path fill="#FFB2B2" d="M379.3,182.4c-2.9,0.5-14.1-3.8-15.2-4.3c1.9,4.1,1.9,13.6,0.7,15.3c3.9,5.6,14.9,3.7,15.4,0.2
		C378,190,379.3,183,379.3,182.4z"/>
	<path fill="#FFB2B2" d="M373.8,154.9c-7.5,1-11.5,7.9-10.5,15.2c0.1,0.1,1.1,7.7,1.1,7.7c0.8,5.5,10.6,13.1,15.3,11.4
		c11.1-4.1,10.6-25.4,9.9-27.7C387.6,155,380.7,153.9,373.8,154.9z"/>
	<path fill="#45366D" d="M359,145.2c-9,10.6-3.7,28.8,6.2,35.5c0,0-2.9-11.5,1.4-18.3c30.6,2.4,32.6-5.6,32-8.8
		C396.2,139.4,370.8,131.3,359,145.2z"/>
	<path fill="#FFB2B2" d="M462,280.5c-1.5,0.4-3,0.6-4.6,0.6c1.7,0.3,1.4,1.3,3.1,1.9s3.5-1.5,3.3-2.2S462.8,280.2,462,280.5z"/>
	<path fill="#FFB2B2" d="M370.6,311.8c-1.5-0.5-2.9-1.2-4.2-2.1c1.3,1.2,0.4,1.9,1.5,3.3s3.8,0.7,4,0S371.4,312,370.6,311.8z"/>
	<path fill="#FFB2B2" d="M373.1,318.9c-1.2-2.1-2.6-4.1-4-6.1c-1.1-1.4-2.3-2.7-3.6-4c-0.1,0-0.1-0.1-0.2-0.2l-0.8-0.7l-0.7-0.6
		l-0.7,1.6c-0.8,1.8-2,3.5-3.5,4.9c1.8,2.5,7.3,8.2,7.4,8.4c1.9,3.3,3.4,3.4,3.7,2.4s2.1,1.5,2.6,0.6c0.5,0,1-0.1,1.4-0.3
		c0.3-0.8,0.4-1.6,0.5-2.4C375.1,321.8,373.6,319.8,373.1,318.9z"/>
	<path fill="#FFB2B2" d="M359.3,211.6c-0.2,1.6-0.6,3.5-1,5.5c-2.6,12.8-8.7,33-10.5,47.4c-2.7,20.5-16.1,11.3-17.3,4.9
		c-2.3-12.6,3.8-41.1,10.6-56.2c2.4-5.4,4.9-9.1,7.2-9.8C357,200.8,359.8,208.2,359.3,211.6z"/>
	<path fill="#FFB2B2" d="M330.7,263.8c-4.5,6.6,17.5,36,30.2,51.6c1.8-1.7,4-2.7,7.5-4.6c-8.7-14.4-17.9-37.7-24-47.6
		C342.7,260.3,335.8,256.3,330.7,263.8z"/>
	<path fill="#E13F8E" d="M360.3,211.8l-1.1,6c-1.6-1.4-5.3-2.6-6.3-3c-3.1-1.1-6.8-2.2-10.1-1.7l-2.7,0.4c2.7-6,5.5-10.1,8-10.8
		C357.7,199.9,360.8,208,360.3,211.8z"/>
	<path fill="none" stroke="#312E4E" stroke-width="0.44" stroke-linecap="round" stroke-miterlimit="10" d="M377.9,167.8
		c-0.4-0.6-1-0.9-1.7-0.9c-0.8,0-1.5,0.4-1.9,1.1"/>
	<path fill="#312E4E" d="M376.4,170.6c0,0.5-0.5,1-1,1s-0.9-0.4-0.9-0.9v-0.1c0-0.5,0.4-0.9,0.9-0.9
		C375.9,169.7,376.3,170.1,376.4,170.6z"/>
	<path fill="none" stroke="#312E4E" stroke-width="0.44" stroke-linecap="round" stroke-miterlimit="10" d="M386.2,167.5
		c-0.4-0.6-1.1-0.9-1.8-0.9c-0.7,0-1.4,0.5-1.8,1.1"/>
	<path fill="#312E4E" d="M385.4,170.6c0,0.5-0.4,0.9-0.9,0.9s-0.9-0.4-0.9-0.9s0.4-0.9,0.9-0.9l0,0
		C385,169.7,385.4,170.1,385.4,170.6z"/>
	<path fill="#FFFFFF" d="M375.9,179.9h7.9C383.8,179.9,379.6,185,375.9,179.9z"/>
	<path fill="#E13F8E" d="M405.8,212.7c-0.5-0.1-1,0-1.5,0.1c-0.6,0.2-1.3,0.1-1.9-0.1c-1.3-0.4-2.2-1.8-2.9-2.9
		c-1.7-2.7-2.5-5.8-4.1-8.5s-3.3-4.2-1.9-5.7h0.1l0.3-0.2l0.3,0.2c3.1,0.1,5.9,1.9,7.2,4.7C402.8,203.4,404.2,207.7,405.8,212.7z"/>
	<ellipse fill="#415984" fill-opacity="0.06" cx="376.4" cy="478.2" rx="77.7" ry="34"/>
	<polygon fill="#FAB37A" points="667.9,702.4 384.1,538.6 384.1,518.9 667.9,682.8 	"/>
	<polygon fill="#87491F" points="667.9,702.4 667.9,682.8 951.6,519 951.6,538.6 	"/>
	<polygon fill="#C5F993" points="667.9,682.8 384.1,518.9 384.1,511.6 667.9,675.4 	"/>
	<polygon fill="#61933F" points="667.9,682.8 667.9,675.4 951.6,511.6 951.6,519 	"/>
	<polygon fill="#9DD864" points="667.9,675.4 384.1,511.6 667.9,347.8 951.6,511.6 	"/>
	<polygon opacity="0.3" fill="#2E4149" enable-background="new    " points="734.9,596.2 805.1,596.2 951.6,511.6 892.5,477.5 
		790.8,536.3 	"/>
	<polygon fill="#DCEAEF" points="583.1,626.7 547.3,606.1 650.1,546.4 686,567.1 	"/>
	<polygon fill="#E8E1DF" points="522.1,364.4 522.1,374.7 528.9,378.7 528.9,368.3 	"/>
	<polygon fill="#D6C8C4" points="631.5,301.1 522.1,364.3 528.9,368.3 638.3,305.1 	"/>
	<polygon fill="#BCA7A0" points="528.9,368.3 528.9,378.7 638.3,315.5 638.3,305.1 	"/>
	<polygon fill="#E8E1DF" points="522.1,271.3 522.1,281.6 528.9,285.7 528.9,275.3 	"/>
	<polygon fill="#D6C8C4" points="631.5,208.1 522.1,271.3 528.9,275.3 638.3,212.1 	"/>
	<polygon fill="#BCA7A0" points="528.9,275.3 528.9,285.7 638.3,222.4 638.3,212.1 	"/>
	<polygon fill="#E07B36" points="581.3,222 581.2,454.2 787.1,573.1 787.1,340.9 	"/>
	<polygon fill="#C66524" points="678.2,166 581.2,222 787.1,340.9 884,284.8 	"/>
	<polygon fill="#B7591A" points="787.1,340.9 787.1,573.1 884,517.1 884,284.8 	"/>
	<path fill="#FFFFFF" d="M758,377.1l18.1,10.5v51.2L758,428.3V377.1 M755.7,373v56.7l22.8,13.1v-56.6L755.7,373z"/>
	<polygon fill="#BFD7DD" points="758,428.3 776.1,438.8 776.1,436 760.4,426.9 	"/>
	<polygon fill="#80ACB7" points="758,377.1 758,428.3 760.4,426.9 760.4,378.5 	"/>
	<polygon fill="#4DD0E1" points="760.4,378.5 760.4,426.9 776.1,436 776.1,387.6 	"/>
	<polygon fill="#B2EBF2" points="764.5,398.4 764.5,380.8 776.1,387.6 	"/>
	<polygon fill="#B2EBF2" points="776.1,390.2 766.2,399.4 768,400.4 776.1,392.9 	"/>
	<polygon fill="#009BBF" points="762.7,425.6 762.7,379.8 760.4,378.5 760.4,426.9 776.1,436 776.1,433.3 	"/>
	<polygon fill="#BFD7DD" points="776.1,405.2 760.4,396.1 759,396.9 776.1,406.8 	"/>
	<polygon fill="#F0F5F7" points="776.1,406.8 759,396.9 759,398.3 776.1,408.2 	"/>
	<path fill="#FFFFFF" d="M686.7,336.4l18.1,10.5v51.2l-18.1-10.5V336.4 M684.4,332.4V389l22.8,13.1v-56.6L684.4,332.4z"/>
	<polygon fill="#BFD7DD" points="686.7,387.6 704.8,398.1 704.8,395.4 689.1,386.3 	"/>
	<polygon fill="#80ACB7" points="686.7,336.4 686.7,387.6 689.1,386.3 689.1,337.8 	"/>
	<polygon fill="#4DD0E1" points="689.1,337.8 689.1,386.3 704.8,395.4 704.8,346.9 	"/>
	<polygon fill="#B2EBF2" points="693.2,357.8 693.2,340.2 704.8,346.9 	"/>
	<polygon fill="#B2EBF2" points="704.8,349.5 694.9,358.8 696.6,359.8 704.8,352.2 	"/>
	<polygon fill="#009BBF" points="691.4,384.9 691.4,339.1 689.1,337.8 689.1,386.3 704.8,395.4 704.8,392.7 	"/>
	<polygon fill="#BFD7DD" points="704.8,364.5 689.1,355.4 687.7,356.2 704.8,366.1 	"/>
	<polygon fill="#F0F5F7" points="704.8,366.1 687.7,356.2 687.7,357.6 704.8,367.5 	"/>
	<polygon fill="#FFFFFF" points="714.6,346.1 714.6,415.1 747.6,434.2 747.6,365.2 	"/>
	<polygon fill="#BFD7DD" points="718.9,372.7 729.2,378.7 729.2,377.1 720.2,371.9 	"/>
	<polygon fill="#80ACB7" points="718.9,358.4 718.9,372.7 720.2,371.9 720.2,359.1 	"/>
	<polygon fill="#4DD0E1" points="720.2,359.1 720.2,371.9 729.2,377.1 729.2,364.3 	"/>
	<polygon fill="#B2EBF2" points="722.6,370.6 722.6,360.5 729.2,364.3 	"/>
	<polygon fill="#B2EBF2" points="729.2,365.8 723.6,371.1 724.6,371.7 729.2,367.4 	"/>
	<polygon fill="#009BBF" points="721.6,371.2 721.6,359.9 720.2,359.1 720.2,371.9 729.2,377.1 729.2,375.6 	"/>
	<polygon fill="#BFD7DD" points="732.9,380.8 743.3,386.8 743.3,385.2 734.3,380.1 	"/>
	<polygon fill="#80ACB7" points="732.9,366.5 732.9,380.8 734.3,380.1 734.3,367.2 	"/>
	<polygon fill="#4DD0E1" points="734.3,367.2 734.3,380.1 743.3,385.2 743.3,372.4 	"/>
	<polygon fill="#B2EBF2" points="736.6,378.7 736.6,368.6 743.3,372.4 	"/>
	<polygon fill="#B2EBF2" points="743.3,373.9 737.6,379.2 738.6,379.8 743.3,375.5 	"/>
	<polygon fill="#009BBF" points="735.6,379.3 735.6,368 734.3,367.2 734.3,380.1 743.3,385.2 743.3,383.7 	"/>
	<polygon fill="#BFD7DD" points="718.9,391.5 729.2,397.5 729.2,395.9 720.2,390.7 	"/>
	<polygon fill="#80ACB7" points="718.9,377.1 718.9,391.5 720.2,390.7 720.2,377.9 	"/>
	<polygon fill="#4DD0E1" points="720.2,377.9 720.2,390.7 729.2,395.9 729.2,383.1 	"/>
	<polygon fill="#B2EBF2" points="722.6,389.3 722.6,379.3 729.2,383.1 	"/>
	<polygon fill="#B2EBF2" points="729.2,384.6 723.6,389.9 724.6,390.5 729.2,386.2 	"/>
	<polygon fill="#009BBF" points="721.6,389.9 721.6,378.7 720.2,377.9 720.2,390.7 729.2,395.9 729.2,394.4 	"/>
	<polygon fill="#BFD7DD" points="732.9,399.6 743.3,405.6 743.3,404 734.3,398.8 	"/>
	<polygon fill="#80ACB7" points="732.9,385.2 732.9,399.6 734.3,398.8 734.3,386 	"/>
	<polygon fill="#4DD0E1" points="734.3,386 734.3,398.8 743.3,404 743.3,391.2 	"/>
	<polygon fill="#B2EBF2" points="736.6,397.4 736.6,387.4 743.3,391.2 	"/>
	<polygon fill="#B2EBF2" points="743.3,392.7 737.6,398 738.6,398.6 743.3,394.3 	"/>
	<polygon fill="#009BBF" points="735.6,398.1 735.6,386.8 734.3,386 734.3,398.8 743.3,404 743.3,402.5 	"/>
	<polygon fill="#E8E1DF" points="569.7,211 569.7,221.3 790.8,349 790.8,338.7 	"/>
	<polygon fill="#D6C8C4" points="679.1,147.8 569.7,211 790.8,338.7 900.2,275.5 	"/>
	<polygon fill="#BCA7A0" points="790.8,338.7 790.8,349 900.2,285.8 900.2,275.5 	"/>
	<polygon fill="#E8E1DF" points="522.1,271.3 522.1,281.6 741.7,408.5 741.7,398.1 	"/>
	<polygon fill="#D6C8C4" points="574.3,241.1 522.1,271.3 741.7,398.1 793.9,367.9 	"/>
	<polygon fill="#BCA7A0" points="741.7,398.1 741.7,408.5 793.9,378.3 793.9,367.9 	"/>
	<polygon fill="#E8E1DF" points="528.2,371.1 528.2,476.8 734.9,596.2 734.9,490.5 	"/>
	<polygon fill="#BCA7A0" points="734.9,490.5 734.9,596.2 781,569.5 781,463.8 	"/>
	<polygon fill="#D6C8C4" points="528.2,448 734.9,567.4 734.9,566.5 528.2,447.1 	"/>
	<polygon fill="#AA8F88" points="734.9,567.4 781,540.8 781,539.8 734.9,566.5 	"/>
	<polygon fill="#D6C8C4" points="528.2,440.3 734.9,559.7 734.9,558.7 528.2,439.3 	"/>
	<polygon fill="#AA8F88" points="734.9,559.7 781,533 781,532.1 734.9,558.7 	"/>
	<polygon fill="#D6C8C4" points="528.2,432.5 734.9,551.9 734.9,551 528.2,431.6 	"/>
	<polygon fill="#AA8F88" points="734.9,551.9 781,525.3 781,524.3 734.9,551 	"/>
	<polygon fill="#D6C8C4" points="528.2,471.3 734.9,590.7 734.9,589.7 528.2,470.3 	"/>
	<polygon fill="#AA8F88" points="734.9,590.7 781,564 781,563.1 734.9,589.7 	"/>
	<polygon fill="#D6C8C4" points="528.2,463.5 734.9,582.9 734.9,582 528.2,462.6 	"/>
	<polygon fill="#AA8F88" points="734.9,582.9 781,556.3 781,555.3 734.9,582 	"/>
	<polygon fill="#D6C8C4" points="528.2,455.8 734.9,575.2 734.9,574.2 528.2,454.8 	"/>
	<polygon fill="#AA8F88" points="734.9,575.2 781,548.5 781,547.6 734.9,574.2 	"/>
	<polygon fill="#D6C8C4" points="528.2,424.8 734.9,544.2 734.9,543.2 528.2,423.8 	"/>
	<polygon fill="#AA8F88" points="734.9,544.2 781,517.5 781,516.6 734.9,543.2 	"/>
	<polygon fill="#D6C8C4" points="528.2,417 734.9,536.4 734.9,535.5 528.2,416.1 	"/>
	<polygon fill="#AA8F88" points="734.9,536.4 781,509.8 781,508.8 734.9,535.5 	"/>
	<polygon fill="#D6C8C4" points="528.2,409.3 734.9,528.7 734.9,527.7 528.2,408.3 	"/>
	<polygon fill="#AA8F88" points="734.9,528.7 781,502 781,501 734.9,527.7 	"/>
	<polygon fill="#D6C8C4" points="528.2,401.5 734.9,520.9 734.9,519.9 528.2,400.5 	"/>
	<polygon fill="#AA8F88" points="734.9,520.9 781,494.3 781,493.3 734.9,519.9 	"/>
	<polygon fill="#D6C8C4" points="528.2,393.8 734.9,513.2 734.9,512.2 528.2,392.8 	"/>
	<polygon fill="#AA8F88" points="734.9,513.2 781,486.5 781,485.5 734.9,512.2 	"/>
	<polygon fill="#D6C8C4" points="528.2,386 734.9,505.4 734.9,504.4 528.2,385 	"/>
	<polygon fill="#AA8F88" points="734.9,505.4 781,478.7 781,477.8 734.9,504.4 	"/>
	<polygon opacity="0.2" fill="#2E4149" enable-background="new    " points="528.2,371.1 528.2,476.8 528.2,476.8 528.2,385.6 
		734.9,505 734.9,490.5 	"/>
	<polygon opacity="0.2" fill="#2E4149" enable-background="new    " points="734.9,490.5 734.9,505 781,478.4 781,463.8 	"/>
	<polygon fill="#E8E1DF" points="784.1,522 784,532.3 790.8,536.3 790.8,525.9 	"/>
	<polygon fill="#D6C8C4" points="893.5,458.7 784,521.9 790.8,525.9 900.2,462.7 	"/>
	<polygon fill="#BCA7A0" points="790.8,525.9 790.8,536.3 900.2,473.1 900.2,462.7 	"/>
	<polygon fill="#E8E1DF" points="735,394.2 734.9,404.5 741.7,408.5 741.7,398.1 	"/>
	<polygon fill="#D6C8C4" points="844.4,330.9 734.9,394.1 741.7,398.1 851.1,334.9 	"/>
	<polygon fill="#BCA7A0" points="741.7,398.1 741.7,408.5 851.1,345.3 851.1,334.9 	"/>
	<polygon fill="#E8E1DF" points="522.1,364.3 522.1,374.6 741.7,501.5 741.7,491.1 	"/>
	<polygon fill="#D6C8C4" points="574.3,334.1 522.1,364.3 741.7,491.1 793.9,460.9 	"/>
	<polygon fill="#BCA7A0" points="678.3,371.5 626.4,341.9 626.4,424.6 678.3,394.6 	"/>
	<polygon fill="#BCA7A0" points="741.7,491.1 741.7,501.5 793.9,471.3 793.9,460.9 	"/>
	<polygon fill="#E8E1DF" points="735,487.2 734.9,497.5 741.7,501.5 741.7,491.1 	"/>
	<polygon fill="#D6C8C4" points="844.4,424 734.9,487.1 741.7,491.1 851.1,427.9 	"/>
	<polygon fill="#BCA7A0" points="741.7,491.1 741.7,501.5 851.1,438.3 851.1,427.9 	"/>
	<polygon fill="#BCA7A0" points="900.2,285.8 900.2,462.7 890.9,468.1 890.9,291.2 	"/>
	<polygon fill="#E8E1DF" points="890.9,291.2 890.9,468.1 884,464.1 884,295.2 	"/>
	<path fill="#FFFFFF" d="M841.5,362.7v54.4L800,441.3v-54.5L841.5,362.7 M844.2,358l-46.9,27.2V446l46.9-27.3V358L844.2,358z"/>
	<polygon fill="#BFD7DD" points="841.5,417.1 800,441.3 800,438.1 838.8,415.6 	"/>
	<polygon fill="#80ACB7" points="841.5,362.7 841.5,417.1 838.8,415.6 838.8,364.2 	"/>
	<polygon fill="#4DD0E1" points="838.8,364.2 838.8,415.6 800,438.1 800,386.8 	"/>
	<polygon fill="#B2EBF2" points="834,412.7 834,367 803.9,384.5 	"/>
	<polygon fill="#B2EBF2" points="800,386.8 829.9,415.1 825.8,417.5 800,393.2 	"/>
	<polygon fill="#009BBF" points="836.1,414 836.1,365.8 838.8,364.2 838.8,415.6 800,438.1 800,435 	"/>
	<polygon fill="#BFD7DD" points="800,407.1 838.8,384.5 840.4,385.4 800,408.9 	"/>
	<polygon fill="#F0F5F7" points="800,408.9 840.4,385.4 840.4,387.1 800,410.6 	"/>
	<polygon fill="#E8E1DF" points="626.4,424.6 522.1,364.4 522.1,281.6 626.4,341.9 	"/>
	<polygon fill="#80ACB7" points="746.6,450 746.6,480.3 745.1,481.2 745.1,451 	"/>
	<polyline fill="#FFFFFF" points="745.1,451 743.5,450 743.5,480.3 745.1,481.2 745.1,451 	"/>
	<polygon fill="#80ACB7" points="752,447 752,477.2 750.4,478.1 750.4,447.9 	"/>
	<polyline fill="#FFFFFF" points="750.4,447.9 748.8,447 748.8,477.2 750.4,478.1 750.4,447.9 	"/>
	<polygon fill="#80ACB7" points="757.3,443.9 757.3,474.1 755.7,475 755.7,444.8 	"/>
	<polyline fill="#FFFFFF" points="755.7,444.8 754.1,443.9 754.1,474.1 755.7,475 755.7,444.8 	"/>
	<polygon fill="#80ACB7" points="762.6,440.8 762.6,471.1 761.1,472 761.1,441.8 	"/>
	<polyline fill="#FFFFFF" points="761.1,441.8 759.5,440.8 759.5,471.1 761.1,472 761.1,441.8 	"/>
	<polygon fill="#80ACB7" points="768,437.8 768,468 766.4,468.9 766.4,438.7 	"/>
	<polyline fill="#FFFFFF" points="766.4,438.7 764.8,437.8 764.8,468 766.4,468.9 766.4,438.7 	"/>
	<polygon fill="#80ACB7" points="773.3,434.7 773.3,464.9 771.7,465.8 771.7,435.6 	"/>
	<polyline fill="#FFFFFF" points="771.7,435.6 770.1,434.7 770.1,464.9 771.7,465.8 771.7,435.6 	"/>
	<polygon fill="#80ACB7" points="778.6,431.6 778.6,461.8 777.1,462.8 777.1,432.5 	"/>
	<polyline fill="#FFFFFF" points="777.1,432.5 775.5,431.6 775.5,461.8 777.1,462.8 777.1,432.5 	"/>
	<polygon fill="#80ACB7" points="784,428.6 784,458.8 782.4,459.7 782.4,429.5 	"/>
	<polyline fill="#FFFFFF" points="782.4,429.5 780.8,428.6 780.8,458.8 782.4,459.7 782.4,429.5 	"/>
	<polygon fill="#BFD7DD" points="785.2,425.7 739.9,451.8 741.7,452.9 787.1,426.8 	"/>
	<polygon fill="#80ACB7" points="787.1,426.8 739.9,453.9 739.9,456.1 787.1,429 	"/>
	<polygon fill="#FFFFFF" points="734.9,451.1 734.9,481.3 736.5,482.3 736.5,452 	"/>
	<polyline fill="#80ACB7" points="736.5,452 738.1,451.1 738.1,481.3 736.5,482.3 736.5,452 	"/>
	<polygon fill="#FFFFFF" points="729.6,448 729.6,478.3 731.2,479.2 731.2,449 	"/>
	<polyline fill="#80ACB7" points="731.2,449 732.8,448 732.8,478.3 731.2,479.2 731.2,449 	"/>
	<polygon fill="#FFFFFF" points="724.3,445 724.3,475.2 725.8,476.1 725.8,445.9 	"/>
	<polyline fill="#80ACB7" points="725.8,445.9 727.4,445 727.4,475.2 725.8,476.1 725.8,445.9 	"/>
	<polygon fill="#FFFFFF" points="718.9,441.9 718.9,472.1 720.5,473 720.5,442.8 	"/>
	<polyline fill="#80ACB7" points="720.5,442.8 722.1,441.9 722.1,472.1 720.5,473 720.5,442.8 	"/>
	<polygon fill="#FFFFFF" points="713.6,438.8 713.6,469.1 715.2,470 715.2,439.8 	"/>
	<polyline fill="#80ACB7" points="715.2,439.8 716.8,438.8 716.8,469.1 715.2,470 715.2,439.8 	"/>
	<polygon fill="#FFFFFF" points="708.3,435.8 708.3,466 709.8,466.9 709.8,436.7 	"/>
	<polyline fill="#80ACB7" points="709.8,436.7 711.4,435.8 711.4,466 709.8,466.9 709.8,436.7 	"/>
	<polygon fill="#FFFFFF" points="702.9,432.7 702.9,462.9 704.5,463.8 704.5,433.6 	"/>
	<polyline fill="#80ACB7" points="704.5,433.6 706.1,432.7 706.1,462.9 704.5,463.8 704.5,433.6 	"/>
	<polygon fill="#FFFFFF" points="697.6,429.6 697.6,459.8 699.2,460.8 699.2,430.5 	"/>
	<polyline fill="#80ACB7" points="699.2,430.5 700.8,429.6 700.8,459.8 699.2,460.8 699.2,430.5 	"/>
	<polygon fill="#FFFFFF" points="692.3,426.6 692.3,456.8 693.8,457.7 693.8,427.5 	"/>
	<polyline fill="#80ACB7" points="693.8,427.5 695.4,426.6 695.4,456.8 693.8,457.7 693.8,427.5 	"/>
	<polygon fill="#FFFFFF" points="686.9,423.5 686.9,453.7 688.5,454.6 688.5,424.4 	"/>
	<polyline fill="#80ACB7" points="688.5,424.4 690.1,423.5 690.1,453.7 688.5,454.6 688.5,424.4 	"/>
	<polygon fill="#FFFFFF" points="681.6,420.4 681.6,450.6 683.2,451.6 683.2,421.3 	"/>
	<polyline fill="#80ACB7" points="683.2,421.3 684.8,420.4 684.8,450.6 683.2,451.6 683.2,421.3 	"/>
	<polygon fill="#FFFFFF" points="676.3,417.3 676.3,447.6 677.8,448.5 677.8,418.3 	"/>
	<polyline fill="#80ACB7" points="677.8,418.3 679.4,417.3 679.4,447.6 677.8,448.5 677.8,418.3 	"/>
	<polygon fill="#FFFFFF" points="670.9,414.3 670.9,444.5 672.5,445.4 672.5,415.2 	"/>
	<polyline fill="#80ACB7" points="672.5,415.2 674.1,414.3 674.1,444.5 672.5,445.4 672.5,415.2 	"/>
	<polygon fill="#FFFFFF" points="665.6,411.2 665.6,441.4 667.2,442.3 667.2,412.1 	"/>
	<polyline fill="#80ACB7" points="667.2,412.1 668.8,411.2 668.8,441.4 667.2,442.3 667.2,412.1 	"/>
	<polygon fill="#FFFFFF" points="660.3,408.1 660.3,438.4 661.8,439.3 661.8,409.1 	"/>
	<polyline fill="#80ACB7" points="661.8,409.1 663.4,408.1 663.4,438.4 661.8,439.3 661.8,409.1 	"/>
	<polygon fill="#FFFFFF" points="654.9,405.1 654.9,435.3 656.5,436.2 656.5,406 	"/>
	<polyline fill="#80ACB7" points="656.5,406 658.1,405.1 658.1,435.3 656.5,436.2 656.5,406 	"/>
	<polygon fill="#FFFFFF" points="649.6,402 649.6,432.2 651.2,433.1 651.2,402.9 	"/>
	<polyline fill="#80ACB7" points="651.2,402.9 652.8,402 652.8,432.2 651.2,433.1 651.2,402.9 	"/>
	<polygon fill="#FFFFFF" points="644.3,398.9 644.3,429.1 645.8,430.1 645.8,399.8 	"/>
	<polyline fill="#80ACB7" points="645.8,399.8 647.4,398.9 647.4,429.1 645.8,430.1 645.8,399.8 	"/>
	<polygon fill="#FFFFFF" points="638.9,395.9 638.9,426.1 640.5,427 640.5,396.8 	"/>
	<polyline fill="#80ACB7" points="640.5,396.8 642.1,395.9 642.1,426.1 640.5,427 640.5,396.8 	"/>
	<polygon fill="#FFFFFF" points="633.6,392.8 633.6,423 635.2,423.9 635.2,393.7 	"/>
	<polyline fill="#80ACB7" points="635.2,393.7 636.8,392.8 636.8,423 635.2,423.9 635.2,393.7 	"/>
	<polygon fill="#BFD7DD" points="631.9,389.5 741.7,452.9 739.9,453.9 630,390.6 	"/>
	<polygon fill="#FFFFFF" points="630,390.6 739.9,453.9 739.9,456.1 630,392.8 	"/>
	<path fill="#FFFFFF" d="M553.5,313.8l41.5,24.1v54.5l-41.5-24.1V313.8 M550.8,309.1v60.7l46.9,27.3v-60.7L550.8,309.1L550.8,309.1z
		"/>
	<polygon fill="#BFD7DD" points="553.5,368.3 595,392.4 595,389.3 556.2,366.7 	"/>
	<polygon fill="#80ACB7" points="553.5,313.8 553.5,368.3 556.2,366.7 556.2,315.4 	"/>
	<polygon fill="#4DD0E1" points="556.2,315.4 556.2,366.7 595,389.3 595,337.9 	"/>
	<polygon fill="#B2EBF2" points="561,363.9 561,318.1 591.1,335.7 	"/>
	<polygon fill="#B2EBF2" points="595,337.9 565.1,366.2 569.2,368.6 595,344.4 	"/>
	<polygon fill="#009BBF" points="558.9,365.2 558.9,316.9 556.2,315.4 556.2,366.7 595,389.3 595,386.2 	"/>
	<polygon fill="#BFD7DD" points="595,358.2 556.2,335.7 554.6,336.6 595,360.1 	"/>
	<polygon fill="#F0F5F7" points="595,360.1 554.6,336.6 554.6,338.2 595,361.7 	"/>
	<path fill="#FFFFFF" d="M598.5,444l33.3,19.4v49l-33.3-19.3V444 M595.8,439.3v55.3l38.7,22.5v-55.3L595.8,439.3z"/>
	<polygon fill="#BFD7DD" points="598.5,493.1 631.8,512.4 631.8,509.3 601.2,491.5 	"/>
	<polygon fill="#80ACB7" points="598.5,444 598.5,493.1 601.2,491.5 601.2,445.6 	"/>
	<polygon fill="#4DD0E1" points="601.2,445.6 601.2,491.5 631.8,509.3 631.8,463.4 	"/>
	<polygon fill="#B2EBF2" points="606,483 606,448.3 628.8,461.6 	"/>
	<polygon fill="#B2EBF2" points="631.8,463.4 606,487.8 609.1,489.7 631.8,468.3 	"/>
	<polygon fill="#009BBF" points="603.9,489.9 603.9,447.1 601.2,445.6 601.2,491.5 631.8,509.3 631.8,506.2 	"/>
	<polygon fill="#BFD7DD" points="631.8,483.7 601.2,465.9 599.6,466.8 631.8,485.5 	"/>
	<polygon fill="#F0F5F7" points="631.8,485.5 599.6,466.8 599.6,468.5 631.8,487.2 	"/>
	<path fill="#FFFFFF" d="M544.9,413l33.2,19.4v49l-33.2-19.3V413 M542.2,408.3v55.3l38.6,22.5v-55.3L542.2,408.3z"/>
	<polygon fill="#BFD7DD" points="544.9,462.1 578.1,481.4 578.1,478.3 547.6,460.5 	"/>
	<polygon fill="#80ACB7" points="544.9,413 544.9,462.1 547.6,460.5 547.6,414.6 	"/>
	<polygon fill="#4DD0E1" points="547.6,414.6 547.6,460.5 578.1,478.3 578.1,432.4 	"/>
	<polygon fill="#B2EBF2" points="552.3,452.1 552.3,417.4 575.2,430.7 	"/>
	<polygon fill="#B2EBF2" points="578.1,432.4 552.3,456.8 555.4,458.8 578.1,437.3 	"/>
	<polygon fill="#009BBF" points="550.3,459 550.3,416.2 547.6,414.6 547.6,460.5 578.1,478.3 578.1,475.2 	"/>
	<polygon fill="#BFD7DD" points="578.1,452.7 547.6,434.9 545.9,435.8 578.1,454.5 	"/>
	<polygon fill="#F0F5F7" points="578.1,454.5 545.9,435.8 545.9,437.5 578.1,456.2 	"/>
	<polygon fill="#FFFFFF" points="649.4,470.5 649.4,546.8 685.2,567.4 685.2,491.2 	"/>
	<polygon fill="#BFD7DD" points="654.1,499.3 665.3,505.8 665.3,504.1 655.5,498.5 	"/>
	<polygon fill="#80ACB7" points="654.1,483.8 654.1,499.3 655.5,498.5 655.5,484.6 	"/>
	<polygon fill="#4DD0E1" points="655.5,484.6 655.5,498.5 665.3,504.1 665.3,490.3 	"/>
	<polygon fill="#B2EBF2" points="658.1,497 658.1,486.1 665.3,490.3 	"/>
	<polygon fill="#B2EBF2" points="665.3,491.9 659.2,497.6 660.2,498.2 665.3,493.5 	"/>
	<polygon fill="#009BBF" points="657,497.7 657,485.5 655.5,484.6 655.5,498.5 665.3,504.1 665.3,502.5 	"/>
	<polygon fill="#BFD7DD" points="669.3,508.1 680.5,514.6 680.5,512.9 670.8,507.3 	"/>
	<polygon fill="#80ACB7" points="669.3,492.6 669.3,508.1 670.8,507.3 670.8,493.4 	"/>
	<polygon fill="#4DD0E1" points="670.8,493.4 670.8,507.3 680.5,512.9 680.5,499 	"/>
	<polygon fill="#B2EBF2" points="673.3,505.8 673.3,494.9 680.5,499 	"/>
	<polygon fill="#B2EBF2" points="680.5,500.7 674.4,506.4 675.5,507 680.5,502.3 	"/>
	<polygon fill="#009BBF" points="672.2,506.5 672.2,494.2 670.8,493.4 670.8,507.3 680.5,512.9 680.5,511.3 	"/>
	<polygon fill="#BFD7DD" points="654.1,519.7 665.3,526.2 665.3,524.5 655.5,518.9 	"/>
	<polygon fill="#80ACB7" points="654.1,504.1 654.1,519.7 655.5,518.9 655.5,505 	"/>
	<polygon fill="#4DD0E1" points="655.5,505 655.5,518.9 665.3,524.5 665.3,510.6 	"/>
	<polygon fill="#B2EBF2" points="658.1,517.4 658.1,506.5 665.3,510.6 	"/>
	<polygon fill="#B2EBF2" points="665.3,512.2 659.2,518 660.2,518.6 665.3,513.9 	"/>
	<polygon fill="#009BBF" points="657,518 657,505.8 655.5,505 655.5,518.9 665.3,524.5 665.3,522.8 	"/>
	<polygon fill="#BFD7DD" points="669.3,528.5 680.5,535 680.5,533.3 670.8,527.7 	"/>
	<polygon fill="#80ACB7" points="669.3,512.9 669.3,528.5 670.8,527.7 670.8,513.8 	"/>
	<polygon fill="#4DD0E1" points="670.8,513.8 670.8,527.7 680.5,533.3 680.5,519.4 	"/>
	<polygon fill="#B2EBF2" points="673.3,526.2 673.3,515.2 680.5,519.4 	"/>
	<polygon fill="#B2EBF2" points="680.5,521 674.4,526.8 675.5,527.4 680.5,522.7 	"/>
	<polygon fill="#009BBF" points="672.2,526.8 672.2,514.6 670.8,513.8 670.8,527.7 680.5,533.3 680.5,531.6 	"/>
	<path fill="#FFFFFF" d="M700.5,502.7l18.1,10.4V563l-18.1-10.5V502.7 M698.2,498.6v55.3l22.8,13.2v-55.3L698.2,498.6L698.2,498.6z"
		/>
	<polygon fill="#BFD7DD" points="700.5,552.5 718.6,563 718.6,560.3 702.8,551.2 	"/>
	<polygon fill="#80ACB7" points="700.5,502.7 700.5,552.5 702.8,551.2 702.8,504 	"/>
	<polygon fill="#4DD0E1" points="702.8,504 702.8,551.2 718.6,560.3 718.6,513.1 	"/>
	<polygon fill="#B2EBF2" points="707,524 707,506.4 718.6,513.1 	"/>
	<polygon fill="#B2EBF2" points="718.6,515.8 708.7,525 710.4,526 718.6,518.5 	"/>
	<polygon fill="#009BBF" points="705.2,549.8 705.2,505.4 702.8,504 702.8,551.2 718.6,560.3 718.6,557.6 	"/>
	<polygon fill="#BFD7DD" points="718.6,530.8 702.8,521.6 701.4,522.5 718.6,532.4 	"/>
	<polygon fill="#F0F5F7" points="718.6,532.4 701.4,522.5 701.4,523.9 718.6,533.8 	"/>
	<path fill="#010080" d="M1000.8,743.3l-8.8-0.4c-0.2,1.9-0.4,3.9-0.8,5.8c-0.7,3.1-2.3,8-2.7,9.5s0.9,4,3.6,4.6s7.5-2.3,8.2-5.2
		s2.8-9,0.6-11.2L1000.8,743.3z"/>
	<path fill="#FFB2B2" d="M992,742.9c0,0-0.2,2.6-0.5,4.5s1.4-0.2,3.2,0.1s4.4,1.4,5.2,0.7l1-1.8c0-1.8-0.1-3.1-0.1-3.1L992,742.9z"
		/>
	<path fill="#010080" d="M926.9,703.3c-0.9,1.1-1.8,2.1-2.8,3.1c-2.4,2.4-12.7,6-12.7,9.4c0,1.7,4.2,3.2,7.7,3.3
		c2.7,0.1,5.4-0.9,7.4-2.8c1.5-1.4,6.9-2.2,7.6-3.2c0.8-1.2,0.9-2.7,0.3-4c0.4-1.9,0.7-3.7,0.7-3.7L926.9,703.3z"/>
	<path fill="#FFB2B2" d="M924.1,706.4c1.1,1.4,2.6,2.6,4.2,3.3c1.6,0.7,6.1-0.6,6.1-0.6c0.4-1.9,0.7-3.7,0.7-3.7l-8.4-2.5
		C926,704.2,925.2,705.4,924.1,706.4z"/>
	<path fill="#99A2CF" d="M1005.1,573.4c-4.1,3.2-32.8,3.1-35.4,0.5c0.2,3.2,19.4,169.8,19.4,169.8c4.7,3.2,14.2,0.1,14.3-0.2
		S1005.7,580.7,1005.1,573.4z"/>
	<path fill="#99A2CF" d="M939,531.3c-0.3,3.2-13.4,170.8-13.4,170.8c3,6.9,13.7,3.7,13.9,3.5s33.3-157,34.1-164.3
		C969,543.2,941.1,534.6,939,531.3z"/>
	<path fill="#FFB2B2" d="M878.4,537.7c-0.2,0.7,2.6,2.2,3.3,2.2s1.4-1.6,3.1-1.9c-1.6,0-3.1-0.2-4.6-0.6
		C879.4,537.1,878.7,536.6,878.4,537.7z"/>
	<path fill="#FFB2B2" d="M891,536.8h-1l-1,0.2h-0.3c-1.8,0.3-3.5,0.8-5.2,1.3c-2,0.7-6.4,2.6-6.7,2.8c-1.3,0.5-2.6,1.2-3.8,1.9
		c-0.3,0.7-0.6,1.5-0.8,2.3c0.2,0.4,0.6,0.8,1,1c-0.1,1,2.5,0.7,2.4,0.9s0.6,1.8,4.8,1.5s7.5-3.2,10.4-4.2c-0.5-2-0.5-4-0.2-6
		C890.7,537.9,890.9,537.3,891,536.8z"/>
	<path fill="#3A3060" d="M945.2,460.9c-5.2,10.6-12.4,35.1-19.9,50.2c-9.2,18.4,7,18.2,11.5,13.5c12.1-12.3,27.8-57.4,22-64.3
		S946.7,457.9,945.2,460.9z"/>
	<path fill="#2F2A51" d="M928.8,511.8c-10.5,4.9-31.1,19-46.3,26c1.9,3.5,3.5,6.8,4,9.2c19.2-5.8,53.4-19.1,53.3-27.1
		S931.9,510.4,928.8,511.8z"/>
	<path fill="#45366D" d="M989.1,453.3c-5.9-2.2-12.3-3.2-18.6-2.8c-5.1-0.1-10.1,0.8-14.9,2.6c-11.5,4.6-13.7,14.2-14.7,20.2
		c-2.7,16.5-10.6,106.6-10.6,106.6c25.8,28.8,82.9,24.6,82.9,24.6c0-49-5.8-124.7-7.6-131.1C1002.3,462,996.6,456.2,989.1,453.3z"/>
	<path fill="#FFB2B2" d="M965.9,442.4c-0.1,0.7,1.3,7.6-1,11.2c0.6,3.5,11.5,5.4,15.4-0.2c-1.3-1.7-1.2-11.1,0.6-15.3
		C979.9,438.7,968.8,443,965.9,442.4z"/>
	<path fill="#D7E3E3" d="M969.4,455.5c-0.9-0.3-1.8-0.2-2.6,0.2c0.9,1,3.1,1,3.1,1C969.9,456.2,969.7,455.8,969.4,455.5z"/>
	<path fill="#D7E3E3" d="M969.9,456.7c0,0,2.7,0.7,4.3-0.1c-0.9-0.7-2-1-3.1-0.9C970.6,455.8,970.1,456.2,969.9,456.7z"/>
	<path fill="#FFB2B2" d="M1003.6,568.1c-0.7,0.4-1.7,0.7-1,1.6s3.4-0.5,3.9-1s-0.3-2.1,0.6-3.6
		C1006.1,566.3,1004.9,567.3,1003.6,568.1z"/>
	<path fill="#FFB2B2" d="M1010,563.5l-1-1.4l-0.6,0.8l-0.6,0.8c0,0.1,0,0.2-0.1,0.3c-0.9,1.5-1.7,3.1-2.4,4.8
		c-0.8,1.9-2.2,6.5-2.3,6.9c-0.4,1.3-0.8,2.6-1.1,4c0.3,0.7,0.7,1.4,1.2,2.1c0.5,0.1,1,0.1,1.4-0.1c0.7,0.8,2.2-1.4,2.3-1.2
		s2,0.4,3-3.2c0-0.3,3.8-7.2,4.9-10C1012.9,566.3,1011.4,565,1010,563.5z"/>
	<path fill="#45366D" d="M996.7,458.3c-9-0.2-9.8,7.6-8.4,10.7c4.6,10.8,18.4,32.3,24.9,47.8c7.9,19,18.3,6.7,17.8,0.2
		C1029.5,499.8,1005.7,458.4,996.7,458.3z"/>
	<path fill="#FEFFFF" d="M979.5,448.6c-1.2,6.5-8.4,7.1-8.4,7.1c3.8,0.5,6.7,8.4,6.7,8.4c2.8-2.3,7.1-10.5,5.4-12.6
		C982.2,450.3,980.9,449.3,979.5,448.6z"/>
	<path fill="#FEFFFF" d="M966.1,449.8c-1.1,0.1-2.2,0.5-3,1.2c-1.8,1.3-2.2,7.4-0.9,10c0,0,3-6.4,7.2-5.5
		C969.4,455.5,965,453.8,966.1,449.8z"/>
	<path fill="#FFB2B2" d="M876.9,544c0.8-0.7,0-2-3.7-2.3c-1.5-0.1-2.4,6.5-0.2,7c1.3,0.4,2.7,0.5,4.1,0.3c0.8-0.3,1.5-0.8,1.9-1.6
		c0.1-0.5,0-1-0.4-1.3C879.2,545.2,876.8,544.2,876.9,544z"/>
	<path fill="#45366D" d="M1016,514.7c-3.2,11.1-6,35.9-10.6,52c3.9,0.9,7.4,1.8,9.6,3c8.1-18.3,20.5-52.9,14.4-58
		S1017,511.4,1016,514.7z"/>
</g>
<g id="active">
	<g id="bush9">
		<path opacity="0.3" fill="#2E4149" enable-background="new    " d="M702.9,600.5c-0.6,1-1.8,1.1-3,1s0.1,0.4,0.2,0.6
			c0,0.5-0.3,0.9-0.8,1c-0.4,0.1-0.9,0.1-1.3,0l-1.4-0.5l0,0c0.4,0.3,0.6,0.7,0.6,1.1c-0.1,1.1-1.4,0.6-2,0.4l-0.8-0.4
			c0.2,0.7,0.4,1.7-0.4,2s-1.3-0.4-1.7-0.9s-0.1-0.3-0.2-0.4l-0.4,0.5c-0.2,0.3-0.6,0.5-1,0.5c-0.2,0.4-0.6,0.6-1,0.6
			c-0.5,0-0.9-0.2-1.2-0.6l-0.3-0.4c-0.1,0.3-0.2,0.6-0.3,0.8c-0.2,0.2-0.4,0.3-0.7,0.2c-0.7-0.1-0.9-0.9-1.1-1.4s-0.1-0.3-0.1-0.4
			c-0.1,0.3-0.3,0.6-0.6,0.8c-0.4,0.2-0.8,0.1-1.1-0.2c-0.3-0.5-0.3-1-0.2-1.5l-0.3,0.2h-0.7c-0.1,0.2-0.2,0.4-0.4,0.5
			c-0.2,0.2-0.5,0.3-0.7,0.1l-0.1-0.1c-0.4-0.5-0.7-1.1-0.7-1.7v-0.8c-0.2,0.4-0.6,0.8-1.1,0.9c-0.2,0.1-0.5,0-0.6-0.2
			c-0.3-0.6-0.2-1.4,0.2-1.9c-0.5,0.3-1.1,0.3-1.7,0.2c-0.4-0.2-0.6-0.6-0.4-1c0,0,0,0,0-0.1l0.8-0.9l0.9-0.7
			c-0.6,0.2-1.2,0.1-1.8-0.1c-0.3-0.2-0.4-0.5-0.3-0.8c0,0,0-0.1,0.1-0.1c0.4-0.4,0.9-0.7,1.4-0.9c-0.8-0.3-1.7-0.8-1.3-1.5
			s0.8-0.5,1.3-0.6c0.6-0.1,1.2-0.1,1.8,0h0.3c-0.2-0.7,0-1.6,1-1.6c0.5,0,1,0.2,1.4,0.4c0-0.1,0.1-0.2,0.1-0.3
			c0.3-0.5,0.9-0.7,1.5-0.7s1.3,0.2,1.8,0.6c0.1,0,0.1,0,0.1,0.1c0.1-0.5,0.4-1,1-1s1.4,0.7,1.9,1.2v0.2h0.4v-0.2
			c0-0.7,0.5-1.3,1.1-1.6c0.9-0.2,1.5,0.7,1.9,1.3l0.4,0.8l0,0l0.2-0.4c0.3-0.4,0.6-1,1.2-1.1s0.9,0.7,1,1.3s0.1,0.2,0.1,0.3
			c0.5-0.4,1.2-0.6,1.8-0.6c0.7-0.1,1.4,0.4,1.6,1.1c0,0.3,0,0.6-0.1,0.9c0.6-0.1,1.7-0.2,2.1,0.4c0.3-0.2,0.7-0.2,1-0.1
			c0.4,0.2,0.7,0.6,0.7,1.1c-0.2,0.4-0.4,0.8-0.8,1.1l-0.4,0.3c0.3,0.2,0.5,0.4,0.7,0.7c0,0.2,0,0.4-0.1,0.6
			C703.1,599,703.3,599.8,702.9,600.5z"/>
		<path fill="#008C47" d="M704,589.4c0-0.4-0.1-0.8-0.4-1.1l-0.4-0.4l-0.3-0.3l0,0c0-0.1,0-0.2,0.1-0.3c0.4-0.6,0.4-1.5,0-2.1
			l-0.9-0.8c-0.1-0.2-0.2-0.5-0.3-0.8c0.3-0.4,0.4-0.9,0.3-1.4c-0.2-0.8-0.9-1.3-1.7-1.4c-0.3,0-0.3,0-0.3-0.4v-0.6
			c-0.1-0.3-0.3-0.6-0.6-0.8c-0.4-0.1-0.7,0-1.1,0.1c-0.3,0.1-0.6,0.1-0.9,0c-0.2-0.1-0.3-0.2-0.4-0.4c0.2-0.8-0.1-1.6-0.8-2.1
			c-0.4-0.2-0.9-0.3-1.3-0.1c-0.2,0-0.4,0.1-0.5,0.3c-0.2,0.1-0.4,0.5-0.6,0.6s0-0.2-0.1-0.3s-0.3-0.4-0.5-0.5
			c-0.4-0.2-0.8-0.2-1.2-0.2c-0.5,0.1-0.8,0.5-1.2,0.9h-0.4c-0.3-0.1-0.3-0.4-0.4-0.6c-0.2-0.5-0.6-0.9-1.1-1.1c-1-0.2-2,0.2-2.6,1
			c-0.1,0.2-0.2,0.5-0.4,0.5l-0.3-0.3l-0.3-0.3c-0.4-0.2-0.9-0.3-1.3-0.1c-0.8,0.3-0.9,1.4-1,2.1v0.2c-0.6-0.4-1.3-0.6-2-0.5
			c-0.9,0.3-1.4,1.2-1.1,2.1v0.1l0.3,0.6c0.1,0.3,0.2,0.3,0,0.6s-0.3,0.3-0.5,0.3c-0.5-0.1-1,0.1-1.4,0.4c-0.3,1.4-0.6,2.7-0.9,4.1
			l-0.7,0.4l0,0l-0.5,0.7c-0.3,0.8-0.1,1.7,0.5,2.3c0.2,0.2,0.4,0.2,0.5,0.4s0.3,0.6,0,1s-0.5,0.8-0.5,1.3c0,0.6,0.3,1.1,0.8,1.4
			c-0.4,1-0.4,2,0,3c0.2,0.5,0.6,0.8,1.1,0.9h0.9c0.4-0.1,1-0.2,0.8,0.5c-0.2,0.2-0.3,0.5-0.4,0.7c-0.1,0.2-0.1,0.5-0.1,0.7
			c0.1,0.5,0.4,1,0.9,1.2c0.6,0.2,1.1,0,1.6-0.3c0.1,0.3,0.3,0.6,0.6,0.7c0.3,0.1,0.6,0.1,0.9-0.1c0.4-0.3,0.7-0.9,1.1-0.3
			s0.7,1.7,1.6,1.5s0.8-0.6,1.2-0.9c0.1,0.6,0.4,1.1,0.9,1.4c0.3,0.2,0.7,0.2,1,0.1c0.4-0.2,0.7-0.7,1.2-0.6l1.3,0.5
			c0.4,0,0.8,0,1.1-0.2c0.5-0.3,0.7-0.8,0.7-1.4l1.1,0.2c0.5,0.2,1,0.3,1.5,0.1c0.8-0.2,1.1-1.1,1.2-1.9s2.2,0.3,2.7-0.8
			c0.2-0.6,0.1-1.2-0.2-1.7c0.6,0.1,1.3,0,1.8-0.4c0.2-0.2,0.4-0.5,0.5-0.8c0.1-0.4,0.1-0.9,0-1.3c0-0.5,0.4-0.8,0.7-1.2
			c0.2-0.2,0.3-0.6,0.3-0.9c0-0.5-0.1-1-0.3-1.5C703.9,590.8,704.2,590.1,704,589.4z"/>
		<path fill="#00AD31" d="M701,582.1c0.2-0.3,0.4-0.6,0.5-0.9c-0.3-0.3-0.7-0.4-1.1-0.5c-0.3,0-0.3,0-0.3-0.4v-0.6
			c-0.1-0.3-0.3-0.6-0.6-0.8c-0.4-0.1-0.7,0-1.1,0.1c-0.3,0.1-0.6,0.1-0.9,0c-0.2-0.1-0.3-0.2-0.4-0.4c0.2-0.8-0.1-1.6-0.8-2.1
			c-0.4-0.2-0.9-0.3-1.3-0.1c-0.2,0-0.4,0.1-0.5,0.3c-0.2,0.1-0.4,0.5-0.6,0.6s0-0.2-0.1-0.3s-0.3-0.4-0.5-0.5
			c-0.4-0.2-0.8-0.2-1.2-0.2c-0.5,0.1-0.8,0.5-1.2,0.9h-0.4c-0.3-0.1-0.3-0.4-0.4-0.6c-0.2-0.5-0.6-0.9-1.1-1.1c-1-0.2-2,0.2-2.6,1
			c-0.1,0.2-0.2,0.5-0.4,0.5l-0.3-0.3l-0.3-0.3c-0.4-0.2-0.9-0.3-1.3-0.1c-0.8,0.3-0.9,1.4-1,2.1v0.2c-0.6-0.4-1.3-0.6-2-0.5
			c-0.9,0.3-1.4,1.2-1.1,2.1v0.1l0.3,0.6c0.1,0.3,0.2,0.3,0,0.6s-0.3,0.3-0.5,0.3c-0.4,0-0.8,0-1.1,0.2c-0.1,0.7,0.2,1.4,0.7,1.9
			c0.3,0.2,0.6,0.4,1,0.5c0.2,0,0.4,0,0.5,0.2s-0.2,0.4-0.2,0.6c-0.3,0.7-0.1,1.5,0.5,1.9c0.3,0.2,0.6,0.3,1,0.3
			c0.3,0,0.9-0.2,1.2,0s-0.3,1.6-0.2,2.3s0.9,0.9,1.4,1l1.2,0.4c0.3,0.2,0.6,0.4,1,0.5c0.9,0.2,1.5-0.7,1.7-1.5
			c0-0.5-0.1-0.9-0.3-1.3c-0.1-0.1-0.1-0.1-0.1-0.2c0-0.3,0.1-0.7,0.4-0.5s0.2,0.4,0.3,0.6c0.1,0.3,0.3,0.6,0.5,0.8
			c0.5,0.4,1.2,0.6,1.8,0.4c0.2-0.1,0.4-0.3,0.5-0.6c0-0.3-0.3-0.6-0.2-0.9s0.5,0.1,0.8,0.6s0.1,0.4,0.2,0.6
			c0.2,0.3,0.4,0.5,0.7,0.7c0.5,0.2,1.1,0.2,1.5-0.2c0.5-0.3,0.8-0.9,0.8-1.5c0-0.2-0.1-0.3-0.2-0.5l-0.3-0.3h0.6
			c0.5-0.1,1-0.1,1.2-0.6c0.3-0.5,0.1-1.1-0.3-1.4c-0.3-0.3-0.5-0.6-0.1-0.9s0.7,0,1,0.1v0.2c0.3,1,0.9,1.8,1.8,2.3
			c0.3,0.3,0.7,0.4,1.1,0.2c0.4-0.2,0.6-0.6,0.6-1c0-0.7-0.3-1.3-0.7-1.8c0.5-0.3,0.6-0.9,0.4-1.4c-0.1-0.3-0.4-0.5-0.2-0.8
			S700.8,582.3,701,582.1z"/>
		<path fill="#00AD31" d="M698.6,588.2h-0.5c-0.2-0.1-0.4-0.2-0.6-0.1c-0.2,0.2-0.3,0.4-0.3,0.6l0.3,0.5l0,0c0,0.3,0.2,0.5,0.5,0.5
			c0.2,0.1,0.5,0.1,0.6-0.1c0.2-0.1,0.3-0.4,0.3-0.6C699,588.7,698.9,588.4,698.6,588.2z"/>
		<path fill="#00AD31" d="M685.9,593.1c0-0.5-0.2-0.9-0.6-1.2c-0.2-0.3-0.6-0.5-1-0.5c-0.5,0-0.9,0.3-1,0.8c0,0.5,0.1,0.9,0.3,1.3
			c0.1,0.3,0.3,0.5,0.6,0.6l0.3,0.2h0.1c0.4,0.2,1,0.1,1.3-0.3C686.1,593.7,686.1,593.4,685.9,593.1z"/>
		<path fill="#00AD31" d="M689.2,593c0.1-0.4-0.2-0.7-0.6-0.9h-0.1c-0.1-0.1-0.3,0-0.5,0l-0.4,0.3c-0.1,0.1-0.2,0.2-0.2,0.4
			c-0.2,0.2-0.3,0.6-0.2,0.9c0.1,0.4,0.5,0.6,0.9,0.6c0.3,0,0.6-0.1,0.8-0.3C689.1,593.7,689.3,593.4,689.2,593z"/>
	</g>
	<g id="bush8">
		<path opacity="0.3" fill="#2E4149" enable-background="new    " d="M672.5,618c-0.6,1.1-1.8,1.2-3.1,1.1c0.2,0.2,0.2,0.4,0.3,0.6
			c0,0.5-0.3,0.9-0.8,1h-1.3l-1.4-0.5l0,0c0.4,0.3,0.6,0.7,0.6,1.1c-0.1,1-1.4,0.6-2,0.4l-0.8-0.4c0.2,0.7,0.4,1.6-0.4,2
			s-1.3-0.4-1.7-0.9l-0.2-0.5l-0.4,0.6c-0.2,0.3-0.6,0.5-1,0.4c-0.2,0.4-0.6,0.7-1,0.7c-0.5,0-0.9-0.2-1.2-0.6l-0.3-0.4l-0.3,0.8
			c-0.2,0.2-0.4,0.3-0.7,0.2c-0.7-0.2-0.9-0.9-1.1-1.5s-0.1-0.2-0.1-0.4c-0.1,0.3-0.3,0.7-0.6,0.9c-0.4,0.2-0.9,0.1-1.1-0.3l0,0
			c-0.3-0.4-0.4-0.9-0.2-1.4h-0.3l-0.7,0.2l-0.4,0.5c-0.2,0.2-0.6,0.2-0.8,0c-0.4-0.5-0.7-1.1-0.7-1.8v-0.7
			c-0.2,0.4-0.6,0.8-1.1,0.9c-0.3,0-0.5,0-0.6-0.2c-0.3-0.6-0.3-1.4,0.2-2c-0.5,0.3-1.1,0.4-1.7,0.3c-0.4-0.2-0.6-0.6-0.4-1
			c0,0,0,0,0-0.1l0.8-0.9l0.9-0.7c-0.6,0.2-1.3,0.1-1.9-0.2c-0.2-0.1-0.3-0.4-0.2-0.7l0.1-0.1c0.4-0.4,0.9-0.7,1.4-0.9
			c-0.8-0.3-1.7-0.8-1.3-1.6s0.8-0.5,1.3-0.5h2.1c-0.2-0.8,0-1.6,1-1.6c0.5,0,1,0.1,1.4,0.3c0.1-0.1,0.1-0.1,0.1-0.2
			c0.3-0.5,0.9-0.7,1.5-0.7s1.2,0.2,1.8,0.5c0,0.1,0,0.1,0.1,0.1c0.1-0.4,0.4-0.9,0.9-0.9c0.8,0.1,1.5,0.6,2,1.2h0.5V610
			c0.1-0.7,0.5-1.2,1.1-1.5c0.9-0.2,1.5,0.6,1.9,1.3l0.4,0.7l0,0l0.2-0.3c0.3-0.5,0.6-1,1.2-1.1s0.9,0.7,1,1.2s0.1,0.3,0.1,0.4
			c0.5-0.4,1.2-0.6,1.8-0.6c0.7,0,1.4,0.4,1.6,1.1c0,0.3,0,0.5-0.1,0.8c0.6,0,1.7-0.1,2.1,0.4c0.3-0.1,0.7-0.1,1,0
			c0.4,0.1,0.7,0.5,0.7,1c-0.1,0.5-0.4,0.9-0.8,1.2l-0.5,0.3c0.4,0.1,0.7,0.3,0.8,0.7c0,0.2,0,0.4-0.1,0.6
			C672.7,616.6,672.9,617.4,672.5,618L672.5,618z"/>
		<path fill="#008C47" d="M673.6,607c0-0.4-0.1-0.8-0.4-1.1l-0.4-0.4l-0.3-0.3l0,0c0-0.1,0-0.2,0.1-0.3c0.4-0.7,0.4-1.4,0-2.1
			c-0.3-0.3-0.6-0.6-0.9-0.9c-0.2-0.2-0.3-0.4-0.3-0.7c0.3-0.4,0.4-0.9,0.3-1.4c-0.2-0.8-0.9-1.3-1.7-1.4c-0.3,0-0.3-0.1-0.3-0.4
			c0-0.2,0-0.4-0.1-0.6c0-0.3-0.2-0.6-0.5-0.8c-0.4-0.1-0.7,0-1.1,0.1c-0.3,0.1-0.6,0.1-0.9,0c-0.2-0.1-0.3-0.2-0.4-0.4
			c0.2-0.9-0.1-1.7-0.9-2.2c-0.4-0.2-0.8-0.2-1.2-0.1l-0.6,0.4c-0.1,0.1-0.3,0.5-0.5,0.6s0-0.2-0.1-0.4l-0.5-0.4
			c-0.4-0.2-0.8-0.3-1.2-0.2c-0.5,0.1-0.8,0.5-1.2,0.9h-0.4c-0.3-0.1-0.4-0.5-0.5-0.6c-0.2-0.5-0.5-0.9-1-1.1c-1-0.2-2,0.2-2.6,1
			c-0.1,0.2-0.2,0.5-0.4,0.4l-0.3-0.2l-0.3-0.3c-0.4-0.3-0.9-0.4-1.3-0.2c-0.8,0.4-0.9,1.4-1,2.2l0,0c-0.6-0.3-1.3-0.5-2-0.4
			c-0.9,0.2-1.4,1.1-1.1,2c0,0.1,0,0.1,0,0.1l0.3,0.7c0.1,0.3,0.2,0.3,0,0.6s-0.3,0.3-0.5,0.3c-0.5-0.1-1,0.1-1.4,0.4
			c-0.5,0.5-0.7,1.2-0.4,1.9c-0.6,0.5-0.8,1.3-0.6,2.1l-0.6,0.5l0,0c-0.2,0.2-0.4,0.4-0.5,0.7c-0.3,0.8-0.1,1.7,0.5,2.3l0.5,0.3
			c0.4,0.4,0.3,0.7,0,1.1c-0.3,0.3-0.5,0.8-0.5,1.2c0,0.6,0.3,1.2,0.8,1.5c-0.4,1-0.4,2,0,3c0.2,0.5,0.6,0.8,1.1,0.8
			c0.3,0.1,0.6,0.1,0.9,0c0.4,0,1-0.1,0.8,0.5l-0.4,0.8c-0.1,0.2-0.1,0.5-0.1,0.7c0.1,0.5,0.4,0.9,0.9,1.1c0.5,0.2,1.2,0.2,1.6-0.2
			c0.1,0.3,0.3,0.5,0.6,0.7c0.3,0.1,0.6,0,0.9-0.1c0.4-0.3,0.6-0.9,1.1-0.3s0.7,1.6,1.6,1.5s0.8-0.6,1.2-0.9c0.1,0.5,0.5,1,0.9,1.3
			c0.3,0.2,0.7,0.3,1,0.2c0.4-0.2,0.7-0.8,1.2-0.7s0.8,0.5,1.3,0.6c0.4,0,0.8-0.1,1.1-0.3c0.5-0.2,0.8-0.8,0.7-1.3l1.1,0.2
			c0.5,0.2,1,0.2,1.5,0.1c0.7-0.3,1.2-1.1,1.2-1.9c1,0.2,2.2,0.3,2.7-0.8c0.2-0.6,0.1-1.2-0.2-1.7c0.6,0.1,1.3,0,1.8-0.4
			c0.2-0.3,0.4-0.6,0.5-0.9c0.1-0.4,0.1-0.8,0-1.2c0-0.5,0.4-0.8,0.7-1.2c0.2-0.3,0.3-0.6,0.3-0.9c0-0.5-0.1-1-0.3-1.5
			C673.5,608.3,673.7,607.6,673.6,607z"/>
		<path fill="#00AD31" d="M670.5,599.7c0.3-0.3,0.5-0.6,0.6-0.9c-0.3-0.3-0.7-0.5-1.1-0.5c-0.3,0-0.3-0.1-0.3-0.4
			c0-0.2,0-0.4-0.1-0.6c0-0.3-0.2-0.6-0.5-0.8c-0.4-0.1-0.7,0-1.1,0.1c-0.3,0.1-0.6,0.1-0.9,0c-0.2-0.1-0.3-0.2-0.4-0.4
			c0.2-0.9-0.1-1.7-0.9-2.2c-0.4-0.2-0.8-0.2-1.2-0.1l-0.6,0.4c-0.1,0.1-0.3,0.5-0.5,0.6s0-0.2-0.1-0.4l-0.5-0.4
			c-0.4-0.2-0.8-0.3-1.2-0.2c-0.5,0.1-0.8,0.5-1.2,0.9h-0.4c-0.3-0.1-0.4-0.5-0.5-0.6c-0.2-0.5-0.5-0.9-1-1.1c-1-0.2-2,0.2-2.6,1
			c-0.1,0.2-0.2,0.5-0.4,0.4l-0.3-0.2L655,594c-0.4-0.3-0.9-0.4-1.3-0.2c-0.8,0.4-0.9,1.4-1,2.2l0,0c-0.6-0.3-1.3-0.5-2-0.4
			c-0.9,0.2-1.4,1.1-1.1,2c0,0.1,0,0.1,0,0.1l0.3,0.7c0.1,0.3,0.2,0.3,0,0.6s-0.3,0.3-0.5,0.3c-0.4,0-0.8,0-1.1,0.2
			c-0.1,0.7,0.2,1.4,0.7,1.9c0.3,0.2,0.6,0.4,1,0.5c0.2,0,0.4,0,0.5,0.2s-0.2,0.4-0.2,0.5c-0.3,0.7-0.1,1.5,0.5,1.9
			c0.3,0.2,0.6,0.4,1,0.4c0.3,0,0.9-0.2,1.2,0s-0.3,1.6-0.2,2.2s0.8,1,1.4,1.1c0.4,0,0.9,0.1,1.2,0.4l1,0.5c0.9,0.2,1.5-0.7,1.7-1.6
			c0-0.4-0.1-0.8-0.3-1.2c-0.1-0.1-0.1-0.2-0.1-0.3c0-0.2,0.1-0.6,0.4-0.4s0.2,0.4,0.3,0.6c0.1,0.3,0.3,0.6,0.5,0.8
			c0.5,0.4,1.2,0.6,1.8,0.4c0.2-0.1,0.4-0.3,0.5-0.6c0-0.3-0.3-0.6-0.2-0.9s0.5,0.1,0.8,0.5s0.1,0.5,0.2,0.6
			c0.1,0.3,0.4,0.6,0.7,0.8c0.5,0.2,1.1,0.1,1.5-0.2c0.6-0.3,0.9-1,0.8-1.6c0-0.1-0.1-0.3-0.2-0.4l-0.3-0.3c0.1,0.1,0.4,0,0.6-0.1
			s1,0,1.2-0.5s0.1-1.1-0.3-1.5c-0.3-0.2-0.5-0.6-0.1-0.8c0.3-0.2,0.7-0.1,1,0.1v0.2c0.3,1,0.9,1.8,1.8,2.3c0.3,0.3,0.7,0.3,1.1,0.2
			c0.4-0.2,0.6-0.6,0.6-1.1c0-0.6-0.3-1.2-0.7-1.7c0.5-0.4,0.6-1,0.4-1.5c-0.1-0.2-0.4-0.4-0.2-0.7S670.4,599.9,670.5,599.7z"/>
		<path fill="#00AD31" d="M668.2,605.8l-0.3-0.2h-0.2c-0.2-0.1-0.4-0.2-0.6-0.1c-0.2,0.1-0.4,0.4-0.3,0.6s0.2,0.3,0.2,0.5
			c0.1,0,0.1,0,0.1,0.1c0,0.3,0.2,0.5,0.5,0.5c0.2,0.1,0.4,0,0.6-0.1c0.2-0.2,0.3-0.4,0.3-0.6C668.5,606.2,668.4,606,668.2,605.8z"
			/>
		<path fill="#00AD31" d="M655.5,610.6c-0.1-0.5-0.3-0.9-0.6-1.2c-0.3-0.2-0.6-0.4-1-0.4c-0.5-0.1-0.9,0.2-1,0.7s0,1,0.3,1.4
			c0.1,0.3,0.3,0.5,0.6,0.6l0.3,0.2h0.1c0.4,0.2,1,0.1,1.3-0.3C655.7,611.3,655.7,610.9,655.5,610.6z"/>
		<path fill="#00AD31" d="M658.8,610.6c0.1-0.4-0.2-0.8-0.6-0.9h-0.1c-0.1-0.1-0.4-0.1-0.5,0c-0.2,0-0.3,0.1-0.4,0.3l-0.2,0.3
			c-0.2,0.2-0.3,0.6-0.2,0.9c0.1,0.4,0.5,0.7,0.9,0.7c0.3,0,0.6-0.1,0.8-0.3C658.7,611.3,658.8,611,658.8,610.6z"/>
	</g>
	<g id="bush7">
		<path opacity="0.3" fill="#2E4149" enable-background="new    " d="M642.1,635.6c-0.6,1.1-1.8,1.2-3.1,1c0.1,0.2,0.2,0.4,0.2,0.6
			c0.1,0.5-0.2,1-0.7,1.1c-0.4,0.1-0.9,0-1.3-0.1l-1.4-0.4l0,0c0.3,0.3,0.5,0.7,0.6,1.1c-0.1,1-1.5,0.5-2.1,0.3l-0.7-0.4
			c0.2,0.7,0.4,1.7-0.4,2.1s-1.3-0.5-1.7-0.9s-0.2-0.3-0.2-0.5l-0.4,0.5c-0.2,0.3-0.6,0.5-1,0.5c-0.2,0.4-0.6,0.6-1,0.6
			c-0.5,0-0.9-0.2-1.2-0.6l-0.3-0.3l-0.3,0.7c-0.1,0.3-0.4,0.3-0.7,0.3s-0.9-0.9-1.1-1.5s-0.1-0.2-0.1-0.4s-0.3,0.7-0.6,0.9
			c-0.4,0.2-0.9,0.1-1.1-0.3l0,0c-0.3-0.4-0.3-0.9-0.2-1.4H623c-0.2,0.1-0.5,0.2-0.7,0.1c-0.1,0.2-0.2,0.4-0.4,0.6
			c-0.2,0.2-0.6,0.2-0.8,0c-0.5-0.5-0.7-1.1-0.7-1.8v-0.8c-0.3,0.5-0.6,0.9-1.1,1c-0.3,0-0.5-0.1-0.7-0.3c-0.3-0.6-0.1-1.4,0.3-1.9
			c-0.5,0.3-1.1,0.4-1.7,0.3c-0.4-0.2-0.6-0.6-0.4-1c0,0,0,0,0-0.1c0.2-0.4,0.5-0.7,0.8-1l0.9-0.6c-0.6,0.1-1.3,0.1-1.9-0.2
			c-0.2-0.1-0.3-0.4-0.2-0.7l0.1-0.1c0.4-0.4,0.9-0.7,1.4-0.9c-0.8-0.3-1.7-0.8-1.3-1.6s0.8-0.5,1.3-0.5h2.1c-0.2-0.7,0-1.5,1-1.5
			c0.5,0,1,0.1,1.4,0.3c0-0.1,0.1-0.1,0.1-0.2c0.3-0.5,0.9-0.7,1.5-0.7s1.2,0.1,1.7,0.5h0.2c0.1-0.5,0.4-0.9,0.9-0.9
			c0.8,0.1,1.5,0.5,2,1.1c0,0.1,0.1,0.1,0.1,0.2h0.4v-0.3c0-0.7,0.5-1.3,1.1-1.5c0.9-0.3,1.5,0.6,1.9,1.2s0.3,0.5,0.4,0.8l0,0
			l0.2-0.3c0.2-0.5,0.6-1.1,1.2-1.1s0.9,0.7,1,1.2s0.1,0.3,0.1,0.4c0.5-0.3,1.1-0.6,1.7-0.6c0.7-0.1,1.4,0.3,1.7,1
			c0,0.3,0,0.6-0.1,0.9c0.6-0.1,1.7-0.2,2,0.4c0.4-0.1,0.7-0.1,1.1,0c0.4,0.1,0.7,0.5,0.7,1c-0.2,0.5-0.4,0.9-0.8,1.2l-0.5,0.3
			c0.4,0.1,0.7,0.3,0.8,0.7c0,0.2,0,0.4-0.1,0.5C642.3,634.1,642.5,634.9,642.1,635.6z"/>
		<path fill="#008C47" d="M643.2,624.5c0-0.4-0.1-0.7-0.4-1l-0.4-0.5l-0.3-0.2l0,0c0-0.1,0-0.3,0.1-0.4c0.4-0.6,0.4-1.4,0-2
			l-0.9-0.9c-0.2-0.2-0.3-0.4-0.3-0.7c0.3-0.4,0.4-0.9,0.3-1.4c-0.2-0.8-0.9-1.3-1.7-1.4c-0.3-0.1-0.3-0.1-0.3-0.4
			c0-0.2,0-0.4-0.1-0.6c0-0.3-0.2-0.7-0.5-0.8c-0.4-0.2-0.7-0.2-1.1,0c-0.3,0.1-0.6,0.2-0.9,0.1c-0.2-0.1-0.3-0.3-0.4-0.4
			c0.3-0.9-0.1-1.8-0.9-2.2c-0.4-0.2-0.8-0.2-1.2-0.1l-0.6,0.4c-0.1,0.1-0.3,0.5-0.5,0.6s0-0.3-0.2-0.4s-0.3-0.3-0.4-0.4
			c-0.4-0.2-0.8-0.3-1.2-0.2c-0.5,0.1-0.8,0.5-1.2,0.8h-0.5c-0.2-0.1-0.3-0.5-0.4-0.7c-0.2-0.4-0.6-0.8-1-1c-1-0.2-2,0.1-2.6,0.9
			c-0.1,0.2-0.2,0.6-0.4,0.5l-0.3-0.2l-0.3-0.3c-0.4-0.3-0.9-0.4-1.3-0.2c-0.8,0.4-0.9,1.4-1,2.2l0,0c-0.6-0.4-1.3-0.5-2-0.4
			c-0.9,0.2-1.4,1.1-1.1,2c0,0.1,0,0.1,0,0.1l0.3,0.7c0.1,0.3,0.2,0.3,0,0.6s-0.3,0.2-0.6,0.3c-0.9-0.2-1.7,0.4-1.8,1.3
			c-0.1,0.3,0,0.7,0.1,1c-0.6,0.5-0.8,1.3-0.6,2.1l-0.6,0.5l0,0c-0.2,0.2-0.4,0.4-0.5,0.7c-0.3,0.8-0.1,1.7,0.5,2.3l0.5,0.3
			c0.4,0.3,0.3,0.7,0,1.1c-0.3,0.3-0.5,0.7-0.5,1.2c0,0.6,0.3,1.1,0.8,1.4c-0.4,1-0.4,2.1,0,3.1c0.2,0.4,0.6,0.7,1.1,0.8h0.9
			c0.4,0,1-0.1,0.7,0.5s-0.3,0.5-0.3,0.7c-0.1,0.3-0.1,0.5-0.1,0.8c0.1,0.5,0.4,0.9,0.9,1.1c0.5,0.2,1.2,0.1,1.6-0.3
			c0.1,0.3,0.3,0.6,0.6,0.7c0.3,0.2,0.6,0.1,0.9-0.1c0.4-0.2,0.6-0.9,1.1-0.3s0.7,1.7,1.6,1.6s0.8-0.7,1.2-0.9
			c0.1,0.5,0.5,1,0.9,1.3c0.3,0.2,0.7,0.3,1,0.2c0.4-0.2,0.7-0.8,1.2-0.7s0.8,0.5,1.3,0.5c0.4,0.1,0.8,0,1.1-0.2
			c0.5-0.3,0.8-0.8,0.7-1.4l1.1,0.3c0.5,0.1,1,0.2,1.5,0.1c0.7-0.4,1.2-1.2,1.2-2c1,0.3,2.2,0.4,2.7-0.8c0.1-0.5,0.1-1.1-0.2-1.6
			c0.6,0.1,1.3,0,1.8-0.5c0.2-0.2,0.4-0.5,0.5-0.8c0.1-0.4-0.1-0.8,0-1.3s0.4-0.7,0.7-1.1c0.2-0.3,0.3-0.6,0.3-0.9
			c0.1-0.5,0-1-0.3-1.5C643,625.8,643.3,625.1,643.2,624.5z"/>
		<path fill="#00AD31" d="M640.1,617.3c0.3-0.3,0.5-0.6,0.6-1c-0.3-0.2-0.7-0.4-1.1-0.4c-0.3-0.1-0.3-0.1-0.3-0.4
			c0-0.2,0-0.4-0.1-0.6c0-0.3-0.2-0.7-0.5-0.8c-0.4-0.2-0.7-0.2-1.1,0c-0.3,0.1-0.6,0.2-0.9,0.1c-0.2-0.1-0.3-0.3-0.4-0.4
			c0.3-0.9-0.1-1.8-0.9-2.2c-0.4-0.2-0.8-0.2-1.2-0.1l-0.6,0.4c-0.1,0.1-0.3,0.5-0.5,0.6s0-0.3-0.2-0.4s-0.3-0.3-0.4-0.4
			c-0.4-0.2-0.8-0.3-1.2-0.2c-0.5,0.1-0.8,0.5-1.2,0.8h-0.5c-0.2-0.1-0.3-0.5-0.4-0.7c-0.2-0.4-0.6-0.8-1-1c-1-0.2-2,0.1-2.6,0.9
			c-0.1,0.2-0.2,0.6-0.4,0.5l-0.3-0.2l-0.3-0.3c-0.4-0.3-0.9-0.4-1.3-0.2c-0.8,0.4-0.9,1.4-1,2.2l0,0c-0.6-0.4-1.3-0.5-2-0.4
			c-0.9,0.2-1.4,1.1-1.1,2c0,0.1,0,0.1,0,0.1l0.3,0.7c0.1,0.3,0.2,0.3,0,0.6s-0.3,0.2-0.6,0.3h-1c-0.1,0.7,0.2,1.4,0.7,1.9
			c0.3,0.3,0.6,0.5,1,0.5c0.1,0.1,0.4,0,0.5,0.3s-0.2,0.3-0.2,0.5c-0.4,0.7-0.2,1.5,0.5,1.9l1,0.4c0.3,0,0.9-0.2,1.2,0
			s-0.3,1.5-0.2,2.2s0.8,1,1.4,1c0.4,0.1,0.8,0.2,1.2,0.5c0.3,0.2,0.6,0.4,1,0.5c0.9,0.2,1.5-0.7,1.6-1.6c0.1-0.4,0-0.9-0.2-1.3
			c-0.1-0.1-0.1-0.1-0.1-0.2s0.1-0.6,0.4-0.5s0.2,0.5,0.3,0.6c0.1,0.3,0.3,0.7,0.5,0.9c0.5,0.4,1.1,0.5,1.7,0.3
			c0.3-0.1,0.5-0.2,0.6-0.5s-0.3-0.7-0.2-0.9s0.5,0.1,0.8,0.5s0.1,0.4,0.2,0.6c0.1,0.3,0.4,0.6,0.7,0.7c0.5,0.3,1.1,0.2,1.5-0.1
			c0.5-0.3,0.9-1,0.8-1.6c-0.1-0.1-0.1-0.3-0.2-0.4l-0.3-0.3h0.6c0.5,0.1,1-0.2,1.2-0.6c0.3-0.5,0-1-0.3-1.4s-0.5-0.6-0.1-0.9
			s0.7,0,1,0.1v0.3c0.3,1,0.9,1.8,1.8,2.3c0.3,0.3,0.7,0.3,1.1,0.2c0.4-0.2,0.6-0.6,0.6-1.1c0-0.6-0.3-1.2-0.7-1.7
			c0.5-0.4,0.6-1,0.4-1.5c-0.1-0.3-0.4-0.5-0.2-0.7S640,617.4,640.1,617.3z"/>
		<path fill="#00AD31" d="M637.8,623.3h-0.4c0-0.1,0-0.1-0.1-0.1l0,0c-0.2-0.2-0.4-0.2-0.6-0.1c-0.2,0.1-0.4,0.4-0.3,0.6
			s0.2,0.3,0.2,0.5c0.1,0,0.1,0,0.1,0.1c0,0.2,0.3,0.4,0.5,0.5s0.4,0,0.6-0.1c0.2-0.2,0.3-0.4,0.3-0.6
			C638.2,623.8,638,623.5,637.8,623.3z"/>
		<path fill="#00AD31" d="M625.1,628.2c-0.1-0.4-0.3-0.9-0.6-1.2c-0.2-0.3-0.6-0.5-1-0.5c-0.5,0-0.9,0.3-1,0.8c-0.2,0.5,0,1,0.3,1.4
			c0.1,0.2,0.4,0.5,0.6,0.6h0.4c0.4,0.3,1,0.1,1.2-0.3c0,0,0-0.1,0.1-0.1C625.2,628.7,625.2,628.4,625.1,628.2z"/>
		<path fill="#00AD31" d="M628.4,628.2c0.1-0.4-0.2-0.8-0.6-0.9h-0.6c-0.2,0.1-0.3,0.2-0.4,0.4c-0.1,0.1-0.2,0.2-0.2,0.3
			c-0.2,0.2-0.3,0.6-0.2,0.9c0.1,0.4,0.5,0.7,0.9,0.7c0.3,0,0.5-0.2,0.7-0.4C628.3,629,628.5,628.6,628.4,628.2z"/>
	</g>
	<g id="bush6">
		<path opacity="0.3" fill="#2E4149" enable-background="new    " d="M560.5,588.7c-0.6,1.1-1.8,1.2-3,1c0.1,0.2,0.1,0.5,0.2,0.7
			c0,0.5-0.3,0.9-0.8,1c-0.4,0.1-0.9,0-1.3-0.1c-0.5-0.1-1-0.2-1.4-0.4l0,0c0.4,0.3,0.6,0.7,0.6,1.1c-0.1,1-1.4,0.6-2,0.3L552,592
			c0.2,0.6,0.4,1.6-0.4,2s-1.3-0.5-1.7-0.9s-0.1-0.3-0.2-0.5l-0.4,0.6c-0.2,0.2-0.6,0.4-0.9,0.4c-0.2,0.4-0.6,0.6-1.1,0.6
			s-0.9-0.2-1.2-0.6l-0.3-0.3c-0.1,0.3-0.1,0.5-0.3,0.7c-0.1,0.3-0.4,0.4-0.6,0.3h-0.1c-0.7-0.2-0.9-0.9-1.1-1.5s-0.1-0.2-0.1-0.4
			c-0.1,0.4-0.3,0.7-0.6,0.9c-0.4,0.2-0.9,0.1-1.1-0.3l0,0c-0.2-0.4-0.3-0.9-0.2-1.4h-0.3c-0.2,0.1-0.5,0.2-0.7,0.1
			c-0.1,0.2-0.2,0.4-0.4,0.6c-0.2,0.2-0.6,0.2-0.8,0c-0.4-0.5-0.7-1.1-0.7-1.8v-0.8c-0.3,0.5-0.6,0.9-1.1,1s-0.5,0-0.6-0.3
			s-0.2-1.2,0.2-1.9c-0.5,0.3-1.1,0.4-1.7,0.3c-0.4-0.2-0.6-0.6-0.4-1c0,0,0,0,0-0.1c0.2-0.4,0.5-0.7,0.8-1l0.9-0.6
			c-0.6,0.2-1.2,0.1-1.8-0.2c-0.3-0.1-0.4-0.4-0.3-0.6c0-0.1,0.1-0.1,0.1-0.2c0.4-0.4,0.9-0.7,1.4-0.9c-0.8-0.3-1.7-0.8-1.3-1.6
			s0.8-0.5,1.3-0.5h2.1c-0.2-0.7,0-1.5,1-1.5c0.5,0,1,0.1,1.4,0.3c0-0.1,0.1-0.1,0.1-0.2c0.3-0.5,0.9-0.7,1.5-0.7s1.3,0.2,1.8,0.5
			c0,0.1,0,0.1,0.1,0.1c0.1-0.5,0.5-0.9,1-0.9c0.7,0,1.4,0.7,1.9,1.2h0.5v-0.3c0-0.7,0.5-1.3,1.1-1.5c0.9-0.3,1.5,0.6,1.9,1.2
			s0.3,0.5,0.4,0.8l0,0c0.1-0.1,0.2-0.2,0.2-0.3s0.6-1.1,1.2-1.1s0.9,0.7,1,1.2c0.1,0.1,0.1,0.3,0.1,0.4c0.5-0.4,1.2-0.6,1.8-0.6
			c0.7,0,1.5,0.3,1.6,1c0.1,0.3,0,0.6-0.1,0.9c0.6-0.1,1.7-0.2,2.1,0.4c0.3-0.1,0.7-0.1,1,0c0.5,0.1,0.8,0.5,0.7,1
			c-0.2,0.5-0.4,0.9-0.8,1.2l-0.4,0.3c0.3,0.1,0.6,0.4,0.7,0.7c0,0.2,0,0.4-0.1,0.5C560.8,587.1,561,588,560.5,588.7L560.5,588.7z"
			/>
		<path fill="#008C47" d="M561.7,577.6c-0.1-0.4-0.3-0.7-0.5-1l-0.4-0.5c-0.1-0.1-0.2-0.1-0.2-0.2h-0.1c0-0.1,0-0.3,0.1-0.4
			c0.4-0.6,0.4-1.4,0-2l-0.9-0.9c-0.2-0.2-0.2-0.5-0.3-0.7c0.3-0.4,0.4-0.9,0.3-1.4c-0.2-0.8-0.9-1.4-1.7-1.5
			c-0.3,0-0.3-0.1-0.3-0.4V568c0-0.4-0.3-0.7-0.6-0.8c-0.4-0.2-0.8-0.1-1.1,0.1c-0.3,0.1-0.6,0.1-0.9,0c-0.2-0.1-0.3-0.2-0.3-0.4
			c0.2-0.8-0.2-1.7-0.9-2.2c-0.4-0.2-0.9-0.2-1.3-0.1c-0.2,0.1-0.4,0.2-0.5,0.4c-0.2,0.1-0.4,0.5-0.6,0.6s0-0.3-0.1-0.4l-0.5-0.4
			c-0.4-0.2-0.8-0.3-1.2-0.2c-0.5,0.1-0.8,0.5-1.2,0.8h-0.4c-0.3-0.1-0.3-0.5-0.4-0.7c-0.3-0.4-0.6-0.8-1.1-1c-1-0.2-2,0.2-2.6,1
			c-0.1,0.1-0.2,0.5-0.4,0.4l-0.3-0.2l-0.3-0.3c-0.4-0.3-0.9-0.4-1.3-0.2c-0.8,0.4-0.9,1.4-1,2.2l0,0c-0.6-0.4-1.3-0.5-2-0.4
			c-0.9,0.2-1.4,1.1-1.1,2c0,0.1,0,0.1,0,0.1l0.3,0.7c0.1,0.3,0.2,0.3,0,0.6s-0.3,0.2-0.5,0.3c-0.5-0.1-1,0.1-1.4,0.4
			c-0.5,0.5-0.7,1.2-0.4,1.9c-0.6,0.5-0.8,1.4-0.5,2.1c-0.3,0.1-0.5,0.3-0.7,0.5l0,0c-0.2,0.2-0.4,0.4-0.5,0.7
			c-0.3,0.8-0.1,1.7,0.5,2.3l0.5,0.3c0.4,0.4,0.3,0.7,0,1.1c-0.3,0.3-0.5,0.7-0.5,1.2c0,0.6,0.3,1.1,0.8,1.4c-0.4,1-0.4,2.1,0,3.1
			c0.2,0.4,0.6,0.7,1.1,0.8c0.3,0.1,0.6,0.1,0.9,0c0.4,0,1-0.1,0.8,0.5c-0.1,0.2-0.2,0.5-0.4,0.7c-0.1,0.3-0.1,0.5-0.1,0.8
			c0.1,0.5,0.4,0.9,0.9,1.1c0.5,0.2,1.1,0.1,1.6-0.2c0.1,0.3,0.3,0.5,0.6,0.7c0.3,0.1,0.7,0,0.9-0.2c0.4-0.2,0.7-0.9,1.1-0.2
			s0.7,1.6,1.6,1.5s0.8-0.6,1.2-0.9c0.1,0.5,0.5,1,0.9,1.3c0.3,0.2,0.7,0.3,1,0.2c0.4-0.2,0.7-0.8,1.2-0.7s0.8,0.5,1.3,0.5
			c0.4,0.1,0.8,0,1.1-0.2c0.5-0.3,0.8-0.8,0.7-1.4l1.1,0.3c0.5,0.1,1,0.2,1.5,0.1c0.7-0.4,1.2-1.2,1.2-2c1,0.3,2.2,0.4,2.7-0.8
			c0.2-0.5,0.1-1.1-0.1-1.6c0.6,0.1,1.3,0,1.7-0.5c0.2-0.2,0.4-0.5,0.5-0.8c0.1-0.4,0.1-0.9,0-1.3c0-0.4,0.4-0.7,0.7-1.1
			c0.2-0.3,0.3-0.6,0.3-0.9c0.1-0.5,0-1-0.3-1.5C561.4,578.8,561.7,578.2,561.7,577.6z"/>
		<path fill="#00AD31" d="M558.6,570.4c0.2-0.3,0.4-0.6,0.5-0.9c-0.3-0.3-0.7-0.5-1.1-0.5c-0.3,0-0.3-0.1-0.3-0.4V568
			c0-0.4-0.3-0.7-0.6-0.8c-0.4-0.2-0.8-0.1-1.1,0.1c-0.3,0.1-0.6,0.1-0.9,0c-0.2-0.1-0.3-0.2-0.3-0.4c0.2-0.8-0.2-1.7-0.9-2.2
			c-0.4-0.2-0.9-0.2-1.3-0.1c-0.2,0.1-0.4,0.2-0.5,0.4c-0.2,0.1-0.4,0.5-0.6,0.6s0-0.3-0.1-0.4l-0.5-0.4c-0.4-0.2-0.8-0.3-1.2-0.2
			c-0.5,0.1-0.8,0.5-1.2,0.8h-0.4c-0.3-0.1-0.3-0.5-0.4-0.7c-0.3-0.4-0.6-0.8-1.1-1c-1-0.2-2,0.2-2.6,1c-0.1,0.1-0.2,0.5-0.4,0.4
			l-0.3-0.2l-0.3-0.3c-0.4-0.3-0.9-0.4-1.3-0.2c-0.8,0.4-0.9,1.4-1,2.2l0,0c-0.6-0.4-1.3-0.5-2-0.4c-0.9,0.2-1.4,1.1-1.1,2
			c0,0.1,0,0.1,0,0.1l0.3,0.7c0.1,0.3,0.2,0.3,0,0.6s-0.3,0.2-0.5,0.3h-1.1c-0.1,0.7,0.2,1.4,0.7,1.9c0.2,0.3,0.6,0.5,1,0.5
			c0.2,0.1,0.4,0.1,0.5,0.3s-0.2,0.3-0.2,0.5c-0.3,0.7-0.1,1.5,0.5,1.9l1,0.4c0.3,0,0.9-0.2,1.2,0s-0.3,1.6-0.2,2.2s0.9,1,1.4,1.1
			c0.4,0,0.9,0.1,1.2,0.4l1,0.5c0.9,0.2,1.5-0.7,1.7-1.6c0-0.4-0.1-0.9-0.3-1.3v-0.2c0-0.2,0.1-0.6,0.4-0.5s0.2,0.5,0.3,0.6
			c0.2,0.9,1.1,1.5,2,1.3c0.1,0,0.2,0,0.3-0.1c0.2-0.1,0.4-0.3,0.5-0.5c0-0.4-0.3-0.6-0.2-0.9s0.5,0.1,0.8,0.5s0.1,0.4,0.2,0.6
			c0.2,0.3,0.4,0.5,0.7,0.7c0.5,0.3,1.1,0.2,1.5-0.1c0.5-0.3,0.9-1,0.8-1.6c0-0.1-0.1-0.3-0.2-0.4l-0.3-0.3c0.1,0.1,0.4-0.1,0.6-0.1
			s1-0.1,1.2-0.6c0.3-0.5,0.1-1.1-0.3-1.4c-0.3-0.2-0.5-0.6-0.1-0.8s0.7-0.1,1,0.1v0.2c0.3,1,0.9,1.8,1.8,2.3
			c0.3,0.3,0.7,0.3,1.1,0.2c0.4-0.2,0.6-0.6,0.6-1.1c0-0.6-0.3-1.2-0.7-1.7c0.5-0.3,0.7-1,0.4-1.5c-0.1-0.3-0.4-0.5-0.2-0.7
			C558.2,570.6,558.4,570.5,558.6,570.4z"/>
		<path fill="#00AD31" d="M556.2,576.4H556c0-0.1-0.1-0.1-0.2-0.1h-0.1c-0.1-0.2-0.4-0.2-0.6-0.1c-0.2,0.1-0.3,0.4-0.3,0.6l0.3,0.5
			l0,0c0,0.2,0.3,0.4,0.5,0.5s0.4,0,0.6-0.1c0.2-0.2,0.3-0.4,0.3-0.6C556.5,576.8,556.4,576.6,556.2,576.4z"/>
		<path fill="#00AD31" d="M543.5,581.3c-0.1-0.5-0.3-0.9-0.6-1.2s-0.6-0.4-1-0.5c-0.5,0-0.9,0.3-1,0.8s0,1,0.3,1.4
			c0.1,0.3,0.3,0.5,0.6,0.6h0.4c0.4,0.3,1,0.1,1.2-0.3c0,0,0-0.1,0.1-0.1C543.6,581.8,543.6,581.5,543.5,581.3z"/>
		<path fill="#00AD31" d="M546.9,581.3c0-0.4-0.3-0.8-0.7-0.9h-0.1c-0.1-0.1-0.3-0.1-0.4,0c-0.2,0-0.4,0.1-0.5,0.3
			c-0.1,0.1-0.2,0.2-0.2,0.3c-0.2,0.2-0.3,0.6-0.2,0.9c0.1,0.4,0.5,0.7,0.9,0.7c0.3,0,0.6-0.2,0.8-0.4
			C546.7,582,546.9,581.6,546.9,581.3z"/>
	</g>
	<g id="bush5">
		<path opacity="0.3" fill="#2E4149" enable-background="new    " d="M590.9,571.2c-0.6,1-1.8,1.1-3,1s0.1,0.4,0.2,0.6
			c0,0.4-0.3,0.8-0.7,1c-0.4,0.1-0.9,0.1-1.3,0l-1.4-0.5h-0.1c0.4,0.3,0.6,0.7,0.6,1.1c-0.1,1.1-1.4,0.6-2,0.4l-0.8-0.4
			c0.2,0.7,0.4,1.6-0.4,2s-1.3-0.4-1.6-0.9l-0.3-0.4l-0.4,0.5c-0.2,0.3-0.5,0.5-0.9,0.4c-0.2,0.4-0.6,0.7-1.1,0.7
			c-0.5-0.1-0.9-0.3-1.2-0.6l-0.3-0.4c0,0.3-0.1,0.6-0.3,0.8c-0.1,0.2-0.4,0.3-0.6,0.2c-0.8-0.1-1-0.9-1.2-1.5s-0.1-0.2-0.1-0.3
			c-0.1,0.3-0.3,0.6-0.6,0.8c-0.4,0.2-0.8,0.1-1.1-0.2c-0.2-0.5-0.3-1-0.2-1.5h-0.3l-0.7,0.2c-0.1,0.2-0.2,0.4-0.4,0.5
			c-0.2,0.2-0.5,0.3-0.7,0.1l-0.1-0.1c-0.4-0.5-0.7-1.1-0.7-1.8v-0.7c-0.2,0.4-0.6,0.8-1.1,0.9c-0.2,0-0.5,0-0.6-0.2
			c-0.3-0.7-0.2-1.4,0.2-2c-0.5,0.3-1.1,0.4-1.7,0.3c-0.4-0.2-0.6-0.6-0.4-1c0,0,0,0,0-0.1c0.2-0.3,0.6-0.7,0.9-0.9
			c0.2-0.3,0.5-0.5,0.8-0.7c-0.6,0.1-1.4,0.2-1.8-0.2c-0.2-0.1-0.3-0.4-0.2-0.7l0.1-0.1c0.3-0.4,0.8-0.7,1.3-0.9
			c-0.8-0.3-1.7-0.8-1.3-1.6s0.8-0.5,1.3-0.5h2.1c-0.2-0.8,0.1-1.6,1-1.6c0.5,0,1,0.1,1.4,0.4c0-0.1,0.1-0.2,0.1-0.3
			c0.3-0.5,0.9-0.7,1.5-0.7s1.2,0.2,1.8,0.5c0,0.1,0.1,0.1,0.1,0.2s0.4-1,1-1s1.4,0.7,1.9,1.2h0.5v-0.3c0.1-0.7,0.5-1.2,1.1-1.5
			c0.9-0.2,1.5,0.6,1.9,1.3l0.4,0.7l0,0c0.1-0.1,0.2-0.2,0.2-0.3s0.6-1,1.2-1.1s0.9,0.7,1,1.2c0.1,0.1,0.1,0.3,0.1,0.4
			c0.5-0.4,1.2-0.6,1.8-0.6c0.7-0.1,1.4,0.4,1.6,1.1c0.1,0.3,0,0.6-0.1,0.9c0.6-0.1,1.7-0.2,2.1,0.3c0.3-0.1,0.7-0.1,1,0
			c0.5,0.2,0.8,0.6,0.7,1c-0.1,0.5-0.4,0.9-0.8,1.2l-0.4,0.3c0.3,0.1,0.6,0.4,0.7,0.7c0,0.2,0,0.4-0.1,0.6c0.7,0.4,0.9,1.2,0.5,1.9
			C591,571.1,590.9,571.1,590.9,571.2z"/>
		<path fill="#008C47" d="M592.1,560.1c-0.1-0.4-0.2-0.8-0.4-1.1l-0.5-0.4c-0.1-0.1-0.2-0.2-0.2-0.3h-0.1c0-0.1,0-0.2,0.1-0.3
			c0.4-0.6,0.4-1.5,0-2.1c-0.2-0.4-0.6-0.5-0.9-0.9s-0.2-0.4-0.3-0.7c0.3-0.4,0.4-0.9,0.3-1.4c-0.2-0.8-0.9-1.3-1.7-1.4
			c-0.3,0-0.3,0-0.3-0.4v-0.6c-0.1-0.3-0.3-0.6-0.6-0.8c-0.4-0.1-0.7,0-1.1,0.1c-0.3,0.1-0.6,0.1-0.9,0c-0.1-0.1-0.3-0.2-0.3-0.4
			c0.1-0.8-0.2-1.7-0.9-2.2c-0.4-0.2-0.9-0.2-1.3-0.1l-0.5,0.4c-0.2,0.1-0.4,0.5-0.6,0.6s0-0.2-0.1-0.4l-0.5-0.4
			c-0.4-0.2-0.8-0.3-1.2-0.2c-0.5,0.1-0.8,0.5-1.2,0.9h-0.4c-0.2-0.1-0.3-0.4-0.4-0.6c-0.2-0.5-0.6-0.9-1.1-1.1c-1-0.2-2,0.2-2.5,1
			c-0.2,0.2-0.3,0.5-0.5,0.4l-0.3-0.2l-0.3-0.3c-0.3-0.4-0.9-0.4-1.3-0.1c-0.8,0.3-0.9,1.4-1,2.1l0,0c-0.6-0.3-1.3-0.5-2-0.4
			c-0.9,0.3-1.4,1.2-1.1,2.1v0.1l0.3,0.6c0.1,0.3,0.2,0.3,0,0.6s-0.2,0.3-0.5,0.3c-0.5-0.1-1,0.1-1.4,0.4c-0.5,0.5-0.7,1.2-0.4,1.9
			c-0.5,0.6-0.7,1.4-0.5,2.1c-0.3,0.1-0.5,0.3-0.7,0.5l0,0c-0.2,0.2-0.4,0.4-0.5,0.7c-0.3,0.8-0.1,1.7,0.5,2.3l0.5,0.3
			c0.4,0.4,0.3,0.7,0,1.1c-0.3,0.4-0.4,0.8-0.5,1.2c0,0.6,0.3,1.2,0.8,1.5c-0.4,1-0.4,2,0,3c0.2,0.5,0.6,0.8,1.1,0.8h1
			c0.3,0,0.9-0.1,0.7,0.5l-0.4,0.8c-0.1,0.2-0.1,0.5-0.1,0.7c0.1,0.5,0.4,0.9,0.9,1.1c0.5,0.2,1.2,0.2,1.6-0.2
			c0.1,0.3,0.3,0.5,0.6,0.7c0.3,0.1,0.6,0.1,0.9-0.1c0.4-0.3,0.7-0.9,1.1-0.3s0.7,1.6,1.7,1.5s0.8-0.6,1.1-0.9
			c0.1,0.6,0.5,1,0.9,1.4c0.3,0.1,0.7,0.2,1,0.1c0.4-0.2,0.7-0.8,1.2-0.7s0.9,0.5,1.4,0.6l1-0.2c0.5-0.3,0.7-0.8,0.7-1.4l1.1,0.2
			c0.5,0.2,1,0.3,1.5,0.1c0.7-0.4,1.2-1.1,1.3-1.9c0.9,0.2,2.1,0.3,2.6-0.8c0.2-0.6,0.1-1.2-0.1-1.7c0.6,0.1,1.2,0,1.7-0.4
			c0.3-0.2,0.4-0.6,0.5-0.9c0.2-0.4,0-0.8,0-1.2s0.5-0.8,0.7-1.2c0.2-0.3,0.3-0.6,0.4-0.9c0-0.5-0.1-1-0.4-1.5
			C591.8,561.3,592.1,560.7,592.1,560.1z"/>
		<path fill="#00AD31" d="M589,552.8c0.2-0.3,0.4-0.6,0.5-0.9c-0.3-0.3-0.7-0.5-1.1-0.5c-0.3,0-0.3,0-0.3-0.4v-0.6
			c-0.1-0.3-0.3-0.6-0.6-0.8c-0.4-0.1-0.7,0-1.1,0.1c-0.3,0.1-0.6,0.1-0.9,0c-0.1-0.1-0.3-0.2-0.3-0.4c0.1-0.8-0.2-1.7-0.9-2.2
			c-0.4-0.2-0.9-0.2-1.3-0.1l-0.5,0.4c-0.2,0.1-0.4,0.5-0.6,0.6s0-0.2-0.1-0.4l-0.5-0.4c-0.4-0.2-0.8-0.3-1.2-0.2
			c-0.5,0.1-0.8,0.5-1.2,0.9h-0.4c-0.2-0.1-0.3-0.4-0.4-0.6c-0.2-0.5-0.6-0.9-1.1-1.1c-1-0.2-2,0.2-2.5,1c-0.2,0.2-0.3,0.5-0.5,0.4
			l-0.3-0.2l-0.3-0.3c-0.3-0.4-0.9-0.4-1.3-0.1c-0.8,0.3-0.9,1.4-1,2.1l0,0c-0.6-0.3-1.3-0.5-2-0.4c-0.9,0.3-1.4,1.2-1.1,2.1v0.1
			l0.3,0.6c0.1,0.3,0.2,0.3,0,0.6s-0.2,0.3-0.5,0.3c-0.4,0-0.8,0-1.1,0.2c-0.1,0.7,0.2,1.4,0.7,1.9c0.3,0.2,0.6,0.4,1,0.5
			c0.2,0,0.4,0,0.5,0.2s-0.2,0.4-0.2,0.5c-0.3,0.7-0.1,1.5,0.5,1.9c0.3,0.2,0.6,0.4,1,0.4s0.9-0.2,1.2,0s-0.3,1.6-0.2,2.3
			s0.9,0.9,1.5,1c0.4,0,0.9,0.1,1.2,0.4l0.9,0.5c0.9,0.2,1.6-0.7,1.7-1.5c0-0.5-0.1-0.9-0.3-1.3c-0.1-0.1-0.1-0.2-0.1-0.3
			c0-0.2,0.1-0.6,0.4-0.4s0.2,0.4,0.3,0.6c0.1,0.3,0.3,0.6,0.6,0.8c0.4,0.4,1.1,0.6,1.7,0.4c0.2-0.1,0.4-0.3,0.5-0.6
			s-0.3-0.6-0.2-0.9s0.5,0.1,0.8,0.5s0.1,0.5,0.2,0.6c0.2,0.3,0.4,0.6,0.7,0.8c0.5,0.2,1.1,0.1,1.5-0.2c0.6-0.3,0.9-1,0.8-1.6
			c0-0.1-0.1-0.3-0.2-0.4c0-0.1-0.2-0.2-0.3-0.3s0.4,0,0.6,0s1-0.1,1.2-0.6c0.3-0.5,0.1-1.1-0.3-1.5c-0.3-0.2-0.5-0.5-0.1-0.8
			c0.3-0.2,0.7-0.1,1,0.1v0.2c0.3,1,0.9,1.8,1.8,2.3c0.3,0.3,0.7,0.3,1.1,0.2c0.4-0.2,0.7-0.6,0.7-1.1c-0.1-0.6-0.4-1.2-0.8-1.7
			c0.5-0.3,0.7-1,0.4-1.5c-0.1-0.2-0.4-0.4-0.2-0.7S588.8,553,589,552.8z"/>
		<path fill="#00AD31" d="M586.6,558.9l-0.3-0.2l0,0c-0.1,0-0.1,0-0.1-0.1l0,0c-0.2-0.1-0.5-0.2-0.7-0.1c-0.2,0.1-0.3,0.4-0.2,0.6
			c0,0.2,0.1,0.3,0.2,0.5l0,0c0,0.3,0.2,0.5,0.5,0.5c0.2,0.1,0.5,0,0.7-0.1c0.1-0.2,0.2-0.4,0.2-0.6
			C586.9,559.2,586.8,559,586.6,558.9z"/>
		<path fill="#00AD31" d="M573.9,563.8c0-0.5-0.3-0.9-0.6-1.3c-0.3-0.3-0.6-0.4-1-0.4c-0.5-0.1-0.9,0.2-1,0.7s0,1,0.3,1.4
			c0.1,0.3,0.3,0.5,0.6,0.6l0.4,0.2l0,0c0.4,0.2,1,0.1,1.3-0.3C574.1,564.4,574.1,564.1,573.9,563.8z"/>
		<path fill="#00AD31" d="M577.3,563.7c0-0.4-0.3-0.8-0.7-0.9h-0.5c-0.2,0-0.4,0.1-0.5,0.3c-0.1,0.1-0.2,0.2-0.2,0.3
			c-0.2,0.2-0.3,0.6-0.2,0.9c0.1,0.4,0.5,0.7,0.9,0.7c0.3,0,0.6-0.1,0.8-0.3C577.1,564.4,577.3,564.1,577.3,563.7z"/>
	</g>
	<g id="bush4">
		<path opacity="0.3" fill="#2E4149" enable-background="new    " d="M621.3,553.6c-0.6,1-1.8,1.1-3,1c0.1,0.2,0.2,0.4,0.2,0.6
			c0.1,0.5-0.2,0.9-0.7,1h-1.3l-1.4-0.5H615c0.4,0.3,0.6,0.7,0.6,1.2c-0.1,1-1.4,0.5-2,0.3c-0.3-0.1-0.6-0.2-0.8-0.4
			c0.2,0.7,0.4,1.7-0.4,2s-1.3-0.4-1.6-0.9l-0.3-0.4l-0.3,0.5c-0.3,0.3-0.6,0.5-1,0.5c-0.3,0.4-0.7,0.6-1.1,0.6
			c-0.5-0.1-0.9-0.3-1.2-0.6l-0.3-0.4c0,0.3-0.1,0.6-0.3,0.8c-0.1,0.2-0.4,0.3-0.6,0.2c-0.8-0.1-1-0.9-1.2-1.4s-0.1-0.3-0.1-0.4
			c-0.1,0.3-0.3,0.6-0.6,0.8c-0.4,0.2-0.8,0.1-1.1-0.2c-0.2-0.5-0.2-1-0.2-1.5l-0.3,0.2h-0.7l-0.3,0.5c-0.2,0.2-0.6,0.3-0.8,0.1
			c0,0,0,0-0.1-0.1c-0.4-0.5-0.7-1.1-0.7-1.7v-0.8c-0.2,0.4-0.6,0.8-1.1,0.9c-0.2,0.1-0.5,0-0.6-0.2c-0.3-0.6-0.2-1.3,0.2-1.9
			c-0.5,0.3-1.1,0.3-1.7,0.2c-0.4-0.2-0.6-0.6-0.4-1c0,0,0,0,0-0.1c0.3-0.3,0.6-0.6,0.9-0.9l0.8-0.7c-0.6,0.2-1.2,0.1-1.8-0.1
			c-0.3-0.3-0.4-0.6-0.1-0.9c0.4-0.4,0.8-0.7,1.3-0.8c-0.8-0.4-1.7-0.9-1.3-1.6s0.9-0.5,1.3-0.6c0.6-0.1,1.2-0.1,1.8,0h0.3
			c-0.2-0.6,0.1-1.3,0.7-1.5c0.1,0,0.2-0.1,0.3-0.1c0.5,0,1,0.2,1.4,0.4c0-0.1,0.1-0.2,0.1-0.3c0.3-0.5,0.9-0.7,1.5-0.7
			s1.3,0.2,1.8,0.6c0.1,0,0.1,0,0.1,0.1c0.1-0.5,0.4-1,1-1s1.4,0.7,1.9,1.2s0.1,0.1,0.1,0.2h0.4v-0.2c0.1-0.6,0.4-1.4,1.1-1.5
			s1.5,0.6,1.9,1.2c0.2,0.3,0.3,0.5,0.4,0.8l0,0l0.2-0.4c0.3-0.4,0.6-1,1.2-1.1s0.9,0.7,1,1.3s0.1,0.2,0.1,0.4
			c0.5-0.4,1.1-0.7,1.8-0.7c0.7-0.1,1.4,0.4,1.6,1.1c0.1,0.3,0,0.6-0.1,0.9c0.6-0.1,1.7-0.2,2.1,0.4c0.3-0.1,0.7-0.2,1-0.1
			c0.5,0.1,0.8,0.6,0.7,1.1c-0.2,0.4-0.4,0.8-0.8,1.1c-0.1,0.1-0.3,0.2-0.4,0.4c0.3,0.1,0.6,0.3,0.7,0.6c0,0.2,0,0.4-0.1,0.6
			C621.5,552.1,621.7,553,621.3,553.6z"/>
		<path fill="#008C47" d="M622.5,542.5c0-0.4-0.2-0.8-0.4-1.1l-0.5-0.4l-0.2-0.3h-0.1c0-0.2,0-0.3,0.1-0.4c0.5-0.6,0.5-1.5,0-2.1
			c-0.3-0.3-0.6-0.6-0.9-0.8l-0.3-0.8c0.3-0.4,0.4-0.9,0.3-1.4c-0.2-0.8-0.9-1.3-1.7-1.4c-0.3,0-0.3,0-0.3-0.4v-0.6
			c-0.1-0.3-0.3-0.6-0.6-0.8c-0.4-0.1-0.7,0-1.1,0.1c-0.3,0.1-0.6,0.1-0.9,0c-0.1-0.1-0.3-0.2-0.3-0.4c0.2-0.8-0.2-1.7-0.9-2.1
			c-0.4-0.2-0.9-0.3-1.3-0.1c-0.2,0-0.4,0.1-0.5,0.3c-0.2,0.2-0.4,0.5-0.6,0.6s0-0.2-0.1-0.3l-0.5-0.5c-0.4-0.2-0.8-0.2-1.2-0.2
			c-0.5,0.1-0.8,0.5-1.2,0.9h-0.4c-0.2-0.1-0.3-0.5-0.4-0.7s-0.6-0.9-1.1-1c-0.9-0.3-2,0-2.5,0.9c-0.2,0.2-0.3,0.5-0.5,0.5l-0.3-0.3
			l-0.3-0.2c-0.4-0.3-0.9-0.4-1.3-0.2c-0.8,0.3-0.9,1.4-1,2.1v0.2c-0.6-0.4-1.3-0.6-2-0.5c-0.9,0.3-1.3,1.3-1,2.2l0,0
			c0,0.2,0.1,0.4,0.2,0.6c0.2,0.3,0.2,0.3,0,0.6s-0.2,0.3-0.5,0.3c-0.5-0.1-1,0.1-1.4,0.4c-0.5,0.6-0.6,1.3-0.4,2
			c-0.6,0.5-0.8,1.4-0.5,2.1l-0.7,0.4l0,0l-0.5,0.7c-0.3,0.8-0.1,1.7,0.5,2.3c0.2,0.2,0.4,0.2,0.5,0.4s0.3,0.6,0,1s-0.4,0.8-0.5,1.3
			c0,0.6,0.3,1.1,0.8,1.4c-0.3,1-0.3,2,0,3c0.2,0.5,0.7,0.8,1.2,0.9h0.9c0.3-0.1,0.9-0.2,0.7,0.5c-0.2,0.2-0.3,0.5-0.4,0.7
			c-0.1,0.2-0.1,0.5-0.1,0.7c0,0.5,0.4,1,0.9,1.2c0.6,0.2,1.1,0,1.6-0.3c0.1,0.3,0.3,0.6,0.6,0.7c0.3,0.1,0.6,0.1,0.9-0.1
			c0.4-0.3,0.7-0.9,1.1-0.3s0.7,1.7,1.7,1.5s0.8-0.6,1.1-0.9c0.1,0.6,0.4,1.1,0.9,1.4c0.3,0.2,0.7,0.2,1,0.1
			c0.5-0.1,0.7-0.7,1.2-0.6l1.4,0.5c0.3,0,0.7,0,1-0.2c0.5-0.3,0.7-0.8,0.7-1.4l1.1,0.2c0.5,0.2,1,0.3,1.5,0.1
			c0.8-0.2,1.1-1.1,1.3-1.9c0.9,0.5,2.1,0.1,2.6-0.8c0.2-0.6,0.1-1.2-0.1-1.7c0.6,0.2,1.2,0,1.7-0.4c0.3-0.2,0.5-0.5,0.5-0.8
			c0.2-0.5,0-0.9,0-1.3s0.5-0.8,0.7-1.1s0.3-0.6,0.4-1c0-0.5-0.1-1-0.4-1.5C622.2,543.7,622.5,543.1,622.5,542.5z"/>
		<path fill="#00AD31" d="M619.4,535.2c0.2-0.3,0.4-0.6,0.5-0.9c-0.3-0.3-0.7-0.4-1.1-0.5c-0.3,0-0.3,0-0.3-0.4v-0.6
			c-0.1-0.3-0.3-0.6-0.6-0.8c-0.4-0.1-0.7,0-1.1,0.1c-0.3,0.1-0.6,0.1-0.9,0c-0.1-0.1-0.3-0.2-0.3-0.4c0.2-0.8-0.2-1.7-0.9-2.1
			c-0.4-0.2-0.9-0.3-1.3-0.1c-0.2,0-0.4,0.1-0.5,0.3c-0.2,0.2-0.4,0.5-0.6,0.6s0-0.2-0.1-0.3l-0.5-0.5c-0.4-0.2-0.8-0.2-1.2-0.2
			c-0.5,0.1-0.8,0.5-1.2,0.9h-0.4c-0.2-0.1-0.3-0.5-0.4-0.7s-0.6-0.9-1.1-1c-0.9-0.3-2,0-2.5,0.9c-0.2,0.2-0.3,0.5-0.5,0.5l-0.3-0.3
			l-0.3-0.2c-0.4-0.3-0.9-0.4-1.3-0.2c-0.8,0.3-0.9,1.4-1,2.1v0.2c-0.6-0.4-1.3-0.6-2-0.5c-0.9,0.3-1.3,1.3-1,2.2l0,0
			c0,0.2,0.1,0.4,0.2,0.6c0.2,0.3,0.2,0.3,0,0.6s-0.2,0.3-0.5,0.3s-0.7,0-1,0.2c-0.2,0.7,0.1,1.4,0.6,1.9c0.3,0.3,0.6,0.4,1,0.5
			c0.2,0,0.5,0,0.5,0.2s-0.1,0.4-0.2,0.6c-0.3,0.7-0.1,1.5,0.5,1.9c0.3,0.2,0.6,0.3,1,0.3s0.9-0.2,1.2,0s-0.3,1.6-0.2,2.3
			s0.9,0.9,1.5,1c0.4,0.1,0.8,0.3,1.2,0.5c0.3,0.2,0.6,0.4,0.9,0.4c0.9,0.2,1.6-0.7,1.7-1.5c0-0.5-0.1-0.9-0.3-1.3
			c-0.1-0.1-0.1-0.1-0.1-0.2c0-0.3,0.1-0.7,0.4-0.5c0.2,0.1,0.3,0.4,0.3,0.6c0.1,0.3,0.3,0.6,0.6,0.8c0.4,0.4,1.1,0.6,1.7,0.4
			c0.2-0.1,0.4-0.3,0.5-0.6s-0.3-0.6-0.2-0.9s0.5,0.1,0.8,0.6s0.1,0.4,0.2,0.6c0.2,0.3,0.4,0.5,0.7,0.7c0.5,0.3,1.2,0.2,1.6-0.2
			c0.5-0.3,0.7-0.9,0.7-1.5c0-0.2-0.1-0.3-0.2-0.5l-0.3-0.3c0.1,0.1,0.5,0,0.6,0s1-0.1,1.3-0.6c0.2-0.5,0-1.1-0.4-1.4
			c-0.2-0.3-0.5-0.6-0.1-0.9s0.7,0,1,0.1v0.2c0.2,1,0.9,1.9,1.8,2.3c0.3,0.3,0.7,0.4,1.1,0.2c0.4-0.1,0.7-0.5,0.7-1
			c-0.1-0.7-0.3-1.3-0.8-1.8c0.5-0.3,0.6-0.9,0.4-1.4c-0.1-0.3-0.4-0.5-0.2-0.8S619.2,535.4,619.4,535.2z"/>
		<path fill="#00AD31" d="M617,541.3L617,541.3c-0.2,0-0.3,0-0.3-0.1h-0.1c-0.2-0.1-0.5-0.2-0.7-0.1c-0.2,0.2-0.3,0.4-0.2,0.7
			c0,0.1,0.1,0.3,0.2,0.4l0,0c0,0.3,0.2,0.5,0.5,0.5c0.2,0.1,0.5,0.1,0.7-0.1c0.2-0.2,0.3-0.4,0.3-0.6
			C617.4,541.7,617.2,541.4,617,541.3z"/>
		<path fill="#00AD31" d="M604.3,546.2c0-0.5-0.2-0.9-0.6-1.2c-0.2-0.3-0.6-0.5-1-0.5c-0.5,0-0.9,0.3-1,0.8s0,0.9,0.3,1.3
			c0.2,0.3,0.3,0.5,0.6,0.6c0.1,0.1,0.2,0.2,0.4,0.2l0,0c0.4,0.2,1,0.1,1.3-0.3C604.5,546.8,604.5,546.5,604.3,546.2z"/>
		<path fill="#00AD31" d="M607.7,546.1c0-0.4-0.3-0.8-0.7-0.9h-0.5l-0.5,0.3c-0.1,0.1-0.1,0.2-0.2,0.4c-0.2,0.2-0.3,0.6-0.2,0.9
			c0.1,0.4,0.5,0.6,0.9,0.6c0.3,0,0.6-0.1,0.8-0.3C607.5,546.8,607.7,546.5,607.7,546.1z"/>
	</g>
	<g id="bush3">
		<path opacity="0.3" fill="#2E4149" enable-background="new    " d="M590.1,536c-0.6,1-1.9,1.1-3.1,1c0.1,0.2,0.2,0.4,0.2,0.6
			c0.1,0.5-0.2,0.9-0.7,1c-0.4,0-0.9,0-1.3,0l-1.4-0.5l0,0c0.3,0.3,0.5,0.7,0.5,1.1c0,1.1-1.4,0.6-2,0.4l-0.8-0.4
			c0.3,0.7,0.4,1.7-0.4,2s-1.3-0.4-1.6-0.9l-0.3-0.4l-0.3,0.5c-0.2,0.3-0.6,0.5-1,0.5c-0.2,0.3-0.6,0.6-1,0.6
			c-0.5,0-0.9-0.3-1.3-0.6l-0.3-0.4c0,0.3-0.1,0.5-0.2,0.8c-0.2,0.2-0.4,0.3-0.7,0.2c-0.7-0.1-0.9-0.9-1.1-1.5l-0.2-0.3
			c-0.1,0.3-0.3,0.6-0.6,0.8s-0.8,0.1-1-0.2c-0.3-0.5-0.4-1-0.3-1.5c0,0.1-0.1,0.1-0.2,0.2h-0.7l-0.4,0.5c-0.2,0.2-0.5,0.3-0.7,0.1
			l-0.1-0.1c-0.5-0.4-0.8-1.1-0.7-1.7V537c-0.3,0.5-0.7,0.8-1.2,0.9c-0.2,0.1-0.5,0-0.6-0.2c-0.2-0.6-0.2-1.3,0.2-1.9
			c-0.5,0.3-1.1,0.3-1.7,0.2c-0.4-0.2-0.5-0.7-0.3-1.1l0,0c0.2-0.4,0.5-0.7,0.8-0.9l0.8-0.7c-0.6,0.2-1.3,0.1-1.8-0.2
			c-0.2-0.1-0.3-0.4-0.2-0.7l0.1-0.1c0.4-0.4,0.9-0.7,1.4-0.9c-0.8-0.3-1.7-0.8-1.3-1.5s0.8-0.5,1.2-0.6c0.6-0.1,1.2-0.1,1.8,0h0.4
			c-0.2-0.7,0-1.6,1-1.6c0.5,0,1,0.1,1.4,0.4c0-0.1,0-0.2,0.1-0.3c0.3-0.5,0.8-0.7,1.4-0.7c0.7,0,1.3,0.2,1.8,0.6h0.2
			c-0.1-0.5,0.3-0.9,0.8-1h0.1c0.8,0.1,1.4,0.6,1.9,1.2h0.5c0-0.1,0-0.1,0.1-0.2c0-0.7,0.5-1.3,1.1-1.6c0.9-0.2,1.5,0.7,1.8,1.3
			c0.2,0.3,0.4,0.5,0.5,0.8l0,0c0-0.2,0.1-0.3,0.2-0.4c0.2-0.5,0.7-0.9,1.2-1.1c0.7,0,0.9,0.7,1,1.2s0,0.3,0.1,0.4
			c0.5-0.3,1.1-0.6,1.7-0.6c0.7,0,1.4,0.4,1.7,1.1c0,0.3,0,0.6-0.1,0.9c0.6-0.1,1.7-0.2,2,0.3h1.1c0.4,0.2,0.6,0.6,0.6,1
			c-0.1,0.5-0.4,0.9-0.8,1.2l-0.4,0.3c0.4,0.2,0.7,0.4,0.7,0.7c0.1,0.2,0,0.4-0.1,0.6c0.7,0.3,1,1.1,0.7,1.8
			C590.3,535.8,590.2,535.9,590.1,536z"/>
		<path fill="#008C47" d="M591.2,524.9c0-0.4-0.2-0.8-0.4-1.1c-0.1-0.2-0.3-0.3-0.5-0.4l-0.2-0.3l0,0v-0.3c0.5-0.6,0.5-1.5,0-2.1
			c-0.2-0.3-0.6-0.5-0.8-0.8c-0.2-0.2-0.3-0.5-0.3-0.8c0.3-0.4,0.3-0.9,0.2-1.4c-0.2-0.7-0.8-1.3-1.6-1.4c-0.4,0-0.4,0-0.4-0.4
			s0.1-0.4,0-0.6c0-0.3-0.2-0.6-0.5-0.8c-0.4-0.1-0.8,0-1.1,0.1s-0.6,0.1-0.9,0c-0.2-0.1-0.3-0.2-0.4-0.4c0.2-0.8-0.1-1.7-0.9-2.1
			c-0.4-0.2-0.8-0.3-1.2-0.1c-0.2,0-0.4,0.2-0.6,0.3s-0.3,0.5-0.5,0.6s-0.1-0.2-0.2-0.4l-0.5-0.4c-0.3-0.2-0.7-0.3-1.1-0.2
			c-0.6,0.1-0.8,0.5-1.2,0.9h-0.5c-0.2-0.1-0.3-0.4-0.4-0.6c-0.2-0.5-0.5-0.9-1-1.1c-1-0.3-2,0.1-2.6,1c-0.1,0.2-0.2,0.5-0.5,0.5
			s-0.1-0.2-0.2-0.3l-0.3-0.3c-0.4-0.2-0.9-0.3-1.3-0.1c-0.8,0.3-0.9,1.4-1.1,2.1v0.2c-0.5-0.4-1.2-0.6-1.9-0.5
			c-0.9,0.2-1.4,1.1-1.2,1.9c0,0.1,0.1,0.2,0.1,0.3l0.3,0.6c0.1,0.2,0.1,0.4,0,0.6c-0.2,0.3-0.3,0.3-0.6,0.3s-1,0-1.3,0.4
			c-0.5,0.5-0.7,1.3-0.4,2c-0.6,0.5-0.8,1.3-0.6,2l-0.7,0.5l0,0c-0.2,0.2-0.3,0.4-0.4,0.7c-0.3,0.8-0.1,1.7,0.5,2.3l0.5,0.3
			c0.4,0.4,0.2,0.7,0,1.1c-0.4,0.3-0.6,0.8-0.6,1.3c0,0.6,0.4,1.1,0.9,1.4c-0.4,1-0.4,2-0.1,3c0.2,0.5,0.7,0.8,1.2,0.8h0.9
			c0.4-0.1,1-0.2,0.7,0.5c-0.2,0.2-0.3,0.5-0.4,0.7c0,0.2-0.1,0.5,0,0.7c0.1,0.5,0.4,0.9,0.8,1.1c0.5,0.2,1.2,0.2,1.6-0.2
			c0.1,0.3,0.4,0.6,0.7,0.7c0.3,0.1,0.6,0.1,0.9-0.1c0.4-0.3,0.6-0.9,1.1-0.3s0.7,1.7,1.6,1.5s0.8-0.6,1.2-0.9
			c0.1,0.6,0.4,1.1,0.9,1.4c0.3,0.2,0.7,0.2,1,0.1c0.4-0.2,0.7-0.8,1.1-0.7s0.9,0.5,1.4,0.6c0.4,0,0.8,0,1.1-0.2
			c0.5-0.3,0.7-0.9,0.6-1.4l1.1,0.2c0.5,0.2,1.1,0.3,1.6,0.1c0.8-0.4,1.2-1.2,1.2-2c1,0.2,2.2,0.3,2.6-0.8c0.2-0.6,0.2-1.2-0.1-1.7
			c0.6,0.1,1.3,0,1.8-0.4c0.2-0.2,0.4-0.6,0.5-0.9c0.1-0.4-0.1-0.8-0.1-1.2s0.5-0.8,0.8-1.2c0.2-0.2,0.3-0.6,0.3-0.9
			c0-0.5-0.1-1-0.3-1.5C590.9,526,591.2,525.5,591.2,524.9z"/>
		<path fill="#00AD31" d="M588.1,517.6c0.2-0.3,0.4-0.6,0.6-0.9c-0.3-0.3-0.7-0.4-1.1-0.5c-0.4,0-0.4,0-0.4-0.4s0.1-0.4,0-0.6
			c0-0.3-0.2-0.6-0.5-0.8c-0.4-0.1-0.8,0-1.1,0.1s-0.6,0.1-0.9,0c-0.2-0.1-0.3-0.2-0.4-0.4c0.2-0.8-0.1-1.7-0.9-2.1
			c-0.4-0.2-0.8-0.3-1.2-0.1c-0.2,0-0.4,0.2-0.6,0.3l-0.5,0.6c0.1-0.1-0.1-0.2-0.2-0.4l-0.5-0.4c-0.3-0.2-0.7-0.3-1.1-0.2
			c-0.6,0.1-0.8,0.5-1.2,0.9h-0.5c-0.2-0.1-0.3-0.4-0.4-0.6c-0.2-0.5-0.5-0.9-1-1.1c-1-0.3-2,0.1-2.6,1c-0.1,0.2-0.2,0.5-0.5,0.5
			s-0.1-0.2-0.2-0.3l-0.3-0.3c-0.4-0.2-0.9-0.3-1.3-0.1c-0.8,0.3-0.9,1.4-1.1,2.1v0.2c-0.5-0.4-1.2-0.6-1.9-0.5
			c-0.9,0.2-1.4,1.1-1.2,1.9c0,0.1,0.1,0.2,0.1,0.3l0.3,0.6c0.1,0.2,0.1,0.4,0,0.6c-0.2,0.3-0.3,0.3-0.6,0.3s-0.7,0-1,0.2
			c-0.1,0.7,0.2,1.4,0.6,1.9l1,0.5c0.2,0,0.5,0,0.6,0.2c0,0.2-0.1,0.4-0.3,0.5c-0.3,0.7,0,1.5,0.6,2c0.3,0.2,0.6,0.3,0.9,0.3
			c0.4,0,0.9-0.2,1.3,0s-0.3,1.6-0.3,2.3s0.9,0.9,1.5,1c0.4,0,0.8,0.2,1.2,0.4c0.3,0.2,0.6,0.4,1,0.5c0.9,0.2,1.5-0.7,1.6-1.5
			c0.1-0.5,0-0.9-0.3-1.3c0-0.1,0-0.2-0.1-0.3c0.1-0.2,0.2-0.6,0.5-0.4s0.2,0.4,0.3,0.6c0.1,0.3,0.2,0.6,0.5,0.8
			c0.5,0.4,1.1,0.6,1.7,0.4c0.3,0,0.5-0.3,0.5-0.6c0.1-0.3-0.2-0.6-0.1-0.9s0.5,0.1,0.8,0.5c0,0.2,0.1,0.5,0.2,0.7
			c0.1,0.3,0.3,0.5,0.6,0.7c0.5,0.2,1.1,0.1,1.6-0.2s0.8-0.9,0.8-1.5c-0.1-0.2-0.2-0.3-0.2-0.5l-0.3-0.3h0.5c0.5-0.1,1-0.1,1.3-0.6
			c0.2-0.5,0.1-1.1-0.3-1.4c-0.3-0.3-0.5-0.6-0.1-0.9c0.3-0.2,0.7-0.1,1,0.1v0.2c0.3,1,0.9,1.8,1.7,2.3c0.3,0.3,0.8,0.3,1.2,0.2
			c0.4-0.2,0.6-0.6,0.6-1c0-0.7-0.3-1.3-0.8-1.8c0.5-0.3,0.7-0.9,0.5-1.5c-0.1-0.2-0.4-0.4-0.3-0.7L588.1,517.6z"/>
		<path fill="#00AD31" d="M585.7,523.7h-0.4c-0.2-0.1-0.5-0.2-0.7-0.1c-0.1,0.2-0.3,0.4-0.2,0.6s0.1,0.4,0.2,0.5l0,0
			c0,0.3,0.3,0.5,0.6,0.5c0.2,0.1,0.4,0,0.6-0.1c0.2-0.1,0.3-0.4,0.3-0.6C586.2,524.2,586.1,523.8,585.7,523.7L585.7,523.7z"/>
		<path fill="#00AD31" d="M573.1,528.6c-0.1-0.4-0.3-0.8-0.6-1.2c-0.2-0.3-0.6-0.5-1-0.5c-0.5,0-0.9,0.3-1.1,0.8
			c-0.1,0.5,0.1,0.9,0.4,1.3c0.1,0.3,0.3,0.5,0.5,0.6l0.4,0.2h0.1c0.4,0.2,1,0.1,1.3-0.3C573.2,529.2,573.2,528.9,573.1,528.6z"/>
		<path fill="#00AD31" d="M576.4,528.5c0-0.4-0.2-0.8-0.6-0.9h-0.1c-0.1-0.1-0.3,0-0.5,0s-0.3,0.2-0.5,0.3s-0.1,0.2-0.1,0.4
			c-0.2,0.2-0.3,0.6-0.2,0.9c0.1,0.4,0.4,0.6,0.8,0.6c0.3,0,0.6-0.1,0.8-0.3C576.3,529.2,576.4,528.9,576.4,528.5z"/>
	</g>
	<g id="bush2">
		<path opacity="0.3" fill="#2E4149" enable-background="new    " d="M558.8,518.4c-0.6,1-1.8,1.1-3,1s0.1,0.4,0.2,0.6
			c0,0.4-0.3,0.8-0.7,1c-0.5,0-0.9,0-1.4,0l-1.4-0.5l0,0c0.4,0.3,0.6,0.7,0.6,1.1c-0.1,1-1.4,0.6-2,0.4l-0.8-0.4
			c0.2,0.7,0.4,1.6-0.4,2s-1.3-0.4-1.7-0.9c0-0.2-0.1-0.3-0.2-0.4l-0.4,0.5c-0.2,0.3-0.5,0.5-0.9,0.4c-0.2,0.4-0.6,0.7-1.1,0.7
			s-0.9-0.2-1.2-0.6l-0.3-0.4c-0.1,0.3-0.2,0.6-0.3,0.8c-0.2,0.2-0.4,0.3-0.7,0.2c-0.7-0.1-0.9-0.9-1.1-1.5s-0.1-0.2-0.1-0.3
			c-0.1,0.3-0.3,0.6-0.6,0.8c-0.4,0.2-0.9,0.1-1.1-0.3l0,0c-0.3-0.3-0.2-0.9-0.2-1.4h-0.3l-0.7,0.2l-0.4,0.5c-0.2,0.2-0.6,0.2-0.8,0
			c-0.4-0.5-0.7-1.1-0.7-1.8v-0.7c-0.2,0.4-0.6,0.8-1.1,0.9c-0.2,0-0.5,0-0.6-0.2c-0.3-0.6-0.3-1.4,0.2-2c-0.5,0.3-1.1,0.4-1.7,0.3
			c-0.4-0.2-0.6-0.6-0.4-1c0,0,0,0,0-0.1l0.8-0.9l0.9-0.7c-0.7,0.1-1.4,0.2-1.8-0.2c-0.3-0.1-0.4-0.4-0.3-0.6c0-0.1,0.1-0.1,0.1-0.2
			c0.4-0.4,0.9-0.7,1.4-0.9c-0.8-0.3-1.7-0.8-1.3-1.6s0.8-0.5,1.3-0.5h2.1c-0.2-0.8,0.1-1.6,1-1.6c0.5,0,1,0.1,1.4,0.4
			c0-0.1,0.1-0.2,0.1-0.3c0.3-0.5,0.9-0.7,1.5-0.7s1.2,0.2,1.8,0.5h0.1c0.1-0.5,0.5-0.9,1-0.9c0.7,0,1.4,0.7,1.9,1.2h0.5V510
			c0.1-0.7,0.5-1.2,1.1-1.5c0.9-0.2,1.5,0.6,1.9,1.3l0.4,0.7l0,0c0.1-0.1,0.2-0.2,0.2-0.3s0.6-1,1.2-1.1s0.9,0.7,1,1.2
			c0.1,0.1,0.1,0.3,0.1,0.4c0.5-0.4,1.2-0.6,1.8-0.6c0.7-0.1,1.4,0.4,1.6,1.1c0.1,0.3,0,0.6-0.1,0.8c0.6,0,1.7-0.1,2.1,0.4
			c0.3-0.1,0.7-0.1,1,0c0.5,0.1,0.8,0.5,0.7,1s-0.4,0.9-0.8,1.2l-0.4,0.3c0.3,0.1,0.6,0.4,0.7,0.7c0,0.2,0,0.4-0.1,0.6
			c0.7,0.3,1,1.2,0.6,1.9C559,518.2,558.9,518.3,558.8,518.4z"/>
		<path fill="#008C47" d="M560,507.3c-0.1-0.4-0.2-0.8-0.4-1.1l-0.5-0.4c-0.1-0.1-0.2-0.2-0.2-0.3c-0.1,0-0.1,0-0.1-0.1
			s0-0.2,0.1-0.3c0.4-0.6,0.4-1.5,0-2.1c-0.2-0.4-0.6-0.5-0.9-0.9s-0.2-0.4-0.3-0.7c0.3-0.4,0.4-0.9,0.3-1.4
			c-0.2-0.8-0.9-1.3-1.7-1.4c-0.3,0-0.3,0-0.3-0.4v-0.6c-0.1-0.3-0.3-0.6-0.6-0.8c-0.4-0.1-0.7,0-1.1,0.1c-0.3,0.1-0.6,0.1-0.9,0
			c-0.2-0.1-0.3-0.2-0.3-0.4c0.1-0.8-0.2-1.7-0.9-2.2c-0.4-0.2-0.9-0.2-1.3-0.1c-0.2,0.1-0.4,0.2-0.5,0.4c-0.2,0.1-0.4,0.5-0.6,0.6
			s0-0.2-0.1-0.4l-0.5-0.4c-0.4-0.2-0.8-0.3-1.2-0.2c-0.5,0.1-0.8,0.5-1.2,0.9h-0.4c-0.3-0.1-0.3-0.4-0.4-0.6
			c-0.2-0.5-0.6-0.9-1.1-1.1c-1-0.2-2,0.2-2.6,1c-0.1,0.2-0.2,0.5-0.4,0.4l-0.3-0.2l-0.3-0.3c-0.3-0.4-0.9-0.4-1.3-0.1
			c-0.8,0.3-0.9,1.4-1,2.1l0,0c-0.6-0.3-1.3-0.5-2-0.4c-0.9,0.2-1.4,1.1-1.1,2c0,0.1,0,0.1,0,0.1l0.3,0.7c0.1,0.3,0.2,0.3,0,0.6
			s-0.2,0.3-0.5,0.3c-0.5-0.1-1,0.1-1.4,0.4c-0.5,0.5-0.7,1.2-0.4,1.9c-0.6,0.5-0.8,1.4-0.5,2.1c-0.3,0.1-0.5,0.3-0.7,0.5l0,0
			c-0.2,0.2-0.4,0.4-0.5,0.7c-0.3,0.8-0.1,1.7,0.5,2.3l0.5,0.3c0.4,0.4,0.3,0.7,0,1.1c-0.3,0.3-0.5,0.8-0.5,1.2
			c0,0.6,0.3,1.2,0.8,1.5c-0.4,1-0.4,2,0,3c0.2,0.5,0.6,0.8,1.1,0.8c0.3,0.1,0.6,0.1,0.9,0c0.4,0,1-0.1,0.8,0.5s-0.3,0.5-0.4,0.8
			c-0.1,0.2-0.1,0.5-0.1,0.7c0.1,0.5,0.4,0.9,0.9,1.1c0.5,0.2,1.2,0.2,1.6-0.2c0.1,0.3,0.3,0.5,0.6,0.7c0.3,0.1,0.6,0.1,0.9-0.1
			c0.4-0.3,0.7-0.9,1.1-0.3s0.7,1.6,1.6,1.5s0.8-0.6,1.2-0.9c0.1,0.6,0.5,1,0.9,1.4c0.3,0.1,0.7,0.2,1,0.1c0.4-0.2,0.7-0.8,1.2-0.7
			s0.8,0.5,1.3,0.6l1.1-0.2c0.5-0.3,0.7-0.8,0.7-1.4l1.1,0.2c0.5,0.2,1,0.2,1.5,0.1c0.7-0.3,1.2-1.1,1.2-1.9c1,0.2,2.2,0.3,2.7-0.8
			c0.2-0.6,0.1-1.2-0.1-1.7c0.6,0.1,1.2,0,1.7-0.4c0.2-0.3,0.4-0.6,0.5-0.9c0.1-0.4,0.1-0.8,0-1.2c0-0.5,0.5-0.8,0.7-1.2
			c0.2-0.3,0.3-0.6,0.4-0.9c0-0.5-0.2-1-0.4-1.5C559.7,508.5,560,507.9,560,507.3z"/>
		<path fill="#00AD31" d="M556.9,500c0.2-0.3,0.4-0.6,0.5-0.9c-0.3-0.3-0.7-0.5-1.1-0.5c-0.3,0-0.3,0-0.3-0.4v-0.6
			c-0.1-0.3-0.3-0.6-0.6-0.8c-0.4-0.1-0.7,0-1.1,0.1c-0.3,0.1-0.6,0.1-0.9,0c-0.2-0.1-0.3-0.2-0.3-0.4c0.1-0.8-0.2-1.7-0.9-2.2
			c-0.4-0.2-0.9-0.2-1.3-0.1c-0.2,0.1-0.4,0.2-0.5,0.4c-0.2,0.1-0.4,0.5-0.6,0.6s0-0.2-0.1-0.4l-0.5-0.4c-0.4-0.2-0.8-0.3-1.2-0.2
			c-0.5,0.1-0.8,0.5-1.2,0.9h-0.4c-0.3-0.1-0.3-0.4-0.4-0.6c-0.2-0.5-0.6-0.9-1.1-1.1c-1-0.2-2,0.2-2.6,1c-0.1,0.2-0.2,0.5-0.4,0.4
			l-0.3-0.2l-0.3-0.3c-0.3-0.4-0.9-0.4-1.3-0.1c-0.8,0.3-0.9,1.4-1,2.1l0,0c-0.6-0.3-1.3-0.5-2-0.4c-0.9,0.2-1.4,1.1-1.1,2
			c0,0.1,0,0.1,0,0.1l0.3,0.7c0.1,0.3,0.2,0.3,0,0.6s-0.2,0.3-0.5,0.3c-0.4,0-0.8,0-1.1,0.2c-0.1,0.7,0.2,1.4,0.7,1.9
			c0.3,0.2,0.6,0.4,1,0.5c0.2,0,0.4,0,0.5,0.2s-0.2,0.4-0.2,0.5c-0.3,0.7-0.1,1.5,0.5,1.9c0.3,0.2,0.6,0.4,1,0.4
			c0.3,0,0.9-0.2,1.2,0s-0.3,1.6-0.2,2.3s0.9,0.9,1.4,1c0.4,0,0.9,0.1,1.2,0.4l1,0.5c0.9,0.2,1.5-0.7,1.7-1.5c0-0.5-0.1-0.9-0.3-1.3
			c-0.1-0.1-0.1-0.2-0.1-0.3c0-0.2,0.1-0.6,0.4-0.4s0.2,0.4,0.3,0.6c0.1,0.3,0.3,0.6,0.5,0.8c0.5,0.4,1.2,0.6,1.8,0.4
			c0.2-0.1,0.4-0.3,0.5-0.6c0-0.3-0.3-0.6-0.2-0.9s0.5,0.1,0.8,0.5s0.1,0.5,0.2,0.6c0.2,0.3,0.4,0.6,0.7,0.8
			c0.5,0.2,1.1,0.1,1.5-0.2c0.6-0.3,0.9-1,0.8-1.6c0-0.1-0.1-0.3-0.2-0.4l-0.3-0.3h0.6c0.5-0.1,1-0.1,1.2-0.6
			c0.3-0.5,0.1-1.1-0.3-1.5c-0.3-0.2-0.5-0.5-0.1-0.8c0.3-0.2,0.7-0.1,1,0.1v0.2c0.3,1,0.9,1.8,1.8,2.3c0.3,0.3,0.7,0.3,1.1,0.2
			c0.4-0.2,0.6-0.6,0.6-1.1c0-0.6-0.3-1.2-0.7-1.7c0.5-0.3,0.7-1,0.4-1.5c-0.1-0.2-0.4-0.4-0.2-0.7S556.7,500.2,556.9,500z"/>
		<path fill="#00AD31" d="M554.5,506.1l-0.3-0.2H554c-0.2-0.1-0.4-0.2-0.6-0.1c-0.2,0.1-0.3,0.4-0.3,0.6l0.3,0.5l0,0
			c0,0.3,0.2,0.5,0.5,0.5c0.2,0.1,0.4,0,0.6-0.1c0.2-0.2,0.3-0.4,0.3-0.6C554.8,506.5,554.7,506.2,554.5,506.1z"/>
		<path fill="#00AD31" d="M541.8,510.9c-0.1-0.5-0.3-0.9-0.6-1.2c-0.3-0.2-0.6-0.4-1-0.4c-0.5-0.1-0.9,0.2-1,0.7s0,1,0.3,1.4
			c0.1,0.3,0.3,0.5,0.6,0.6l0.3,0.2h0.1c0.4,0.2,1,0.1,1.3-0.3C542,511.6,542,511.2,541.8,510.9z"/>
		<path fill="#00AD31" d="M545.2,510.9c0-0.4-0.3-0.8-0.7-0.9h-0.1c-0.1-0.1-0.3-0.1-0.4,0c-0.2,0-0.4,0.1-0.5,0.3
			c-0.1,0.1-0.2,0.2-0.2,0.3c-0.2,0.2-0.3,0.6-0.2,0.9c0.1,0.4,0.5,0.7,0.9,0.7c0.3,0,0.6-0.1,0.8-0.3
			C545,511.6,545.2,511.3,545.2,510.9z"/>
	</g>
	<g id="bush1_00000003090896167894413990000015838158007908095878_">
		<path opacity="0.3" fill="#2E4149" enable-background="new    " d="M527.5,500.7c-0.5,1.1-1.8,1.2-3,1c0.1,0.2,0.2,0.5,0.2,0.7
			c0.1,0.5-0.2,0.9-0.7,1c-0.4,0.1-0.9,0-1.3-0.1c-0.5,0-1-0.2-1.4-0.4l0,0c0.3,0.3,0.5,0.7,0.5,1.1c0,1-1.4,0.6-2,0.3L519,504
			c0.3,0.7,0.4,1.6-0.4,2s-1.3-0.5-1.6-0.9l-0.3-0.5l-0.3,0.6c-0.3,0.3-0.6,0.4-1,0.4c-0.2,0.4-0.6,0.7-1,0.7c-0.5,0-1-0.3-1.3-0.7
			l-0.3-0.3c0,0.3-0.1,0.5-0.2,0.8c-0.2,0.2-0.4,0.3-0.7,0.2c-0.7-0.2-0.9-0.9-1.2-1.5c0-0.1,0-0.3-0.1-0.4
			c-0.1,0.4-0.3,0.7-0.6,0.9c-0.3,0.2-0.8,0.1-1-0.2c0,0,0,0,0-0.1c-0.3-0.4-0.4-0.9-0.3-1.4h-0.2l-0.8,0.2c0,0.2-0.2,0.3-0.3,0.5
			c-0.2,0.2-0.6,0.2-0.8,0c-0.5-0.5-0.8-1.1-0.7-1.8v-0.8c-0.2,0.5-0.7,0.9-1.2,1c-0.2,0-0.5,0-0.6-0.2c-0.2-0.7-0.2-1.4,0.2-2
			c-0.5,0.3-1.1,0.4-1.7,0.3c-0.4-0.2-0.5-0.7-0.3-1.1l0,0c0.2-0.4,0.4-0.7,0.8-0.9c0.2-0.3,0.5-0.5,0.8-0.7
			c-0.6,0.2-1.3,0.1-1.8-0.2c-0.2-0.1-0.3-0.4-0.2-0.7l0.1-0.1c0.4-0.4,0.9-0.7,1.4-0.9c-0.8-0.3-1.7-0.8-1.3-1.6s0.8-0.5,1.2-0.5
			h2.2c-0.2-0.7,0-1.5,0.9-1.5c0.5,0,1,0.1,1.4,0.3l0.2-0.2c0.3-0.5,0.8-0.7,1.4-0.7c0.6-0.1,1.3,0.1,1.8,0.5h0.2
			c0-0.5,0.4-0.9,0.9-0.9l0,0c0.8,0.1,1.4,0.6,1.9,1.2h0.5c0-0.1,0-0.2,0.1-0.3c0-0.6,0.4-1.2,1-1.5c0.9-0.3,1.5,0.6,1.9,1.2
			c0.1,0.3,0.3,0.5,0.5,0.8l0,0l0.2-0.3c0.1-0.5,0.6-1,1.1-1.1c0.8-0.1,1,0.7,1.1,1.2v0.4c0.5-0.3,1.2-0.5,1.8-0.6
			c0.7,0,1.5,0.3,1.6,1c0.1,0.3,0,0.6-0.1,0.9c0.7-0.1,1.8-0.2,2.1,0.4c0.4-0.1,0.7-0.1,1.1,0c0.4,0.1,0.7,0.6,0.6,1
			c-0.1,0.5-0.4,0.9-0.8,1.2l-0.4,0.3c0.4,0.1,0.7,0.3,0.7,0.7c0.1,0.2,0,0.4-0.1,0.5c0.7,0.4,0.9,1.2,0.5,1.9
			C527.6,500.6,527.5,500.6,527.5,500.7z"/>
		<path fill="#008C47" d="M528.7,489.7c0-0.4-0.2-0.8-0.4-1.1c-0.1-0.2-0.3-0.3-0.5-0.4c-0.1-0.1-0.2-0.2-0.2-0.3l0,0
			c-0.1-0.1,0-0.2,0-0.4c0.4-0.6,0.4-1.4,0-2c-0.2-0.4-0.6-0.6-0.8-0.9c-0.2-0.2-0.3-0.4-0.3-0.7c0.2-0.4,0.3-0.9,0.2-1.4
			c-0.2-0.8-0.9-1.4-1.7-1.5c-0.3,0-0.3-0.1-0.3-0.4V480c-0.1-0.4-0.2-0.7-0.6-0.8c-0.3-0.1-0.7,0-1,0.1h-0.9
			c-0.2-0.1-0.3-0.2-0.4-0.4c0.2-0.9-0.1-1.7-0.9-2.2c-0.4-0.2-0.8-0.2-1.2-0.1l-0.6,0.4l-0.5,0.6c0.1-0.1-0.1-0.2-0.2-0.4
			c-0.1-0.2-0.3-0.3-0.5-0.4c-0.3-0.2-0.7-0.3-1.1-0.2c-0.5,0.1-0.9,0.4-1.3,0.8h-0.4c-0.2-0.1-0.3-0.5-0.4-0.7
			c-0.2-0.4-0.6-0.8-1-1c-1-0.3-2,0.1-2.6,1c-0.1,0.1-0.3,0.5-0.5,0.4l-0.3-0.2l-0.2-0.3c-0.4-0.3-0.9-0.4-1.3-0.2
			c-0.8,0.4-0.9,1.4-1.1,2.2l0,0c-0.6-0.4-1.3-0.5-2-0.4c-0.8,0.3-1.3,1.2-1,2v0.1l0.3,0.7c0.1,0.2,0.1,0.4,0,0.6
			c-0.2,0.3-0.3,0.3-0.6,0.3c-0.5-0.1-1,0.1-1.4,0.4c-0.5,0.5-0.6,1.3-0.3,1.9c-0.6,0.5-0.8,1.3-0.6,2.1c-0.3,0.1-0.5,0.3-0.7,0.5
			l0,0l-0.5,0.7c-0.3,0.8-0.1,1.7,0.6,2.3l0.5,0.3c0.4,0.4,0.2,0.7,0,1.1c-0.3,0.3-0.5,0.7-0.6,1.2c0,0.6,0.4,1.1,0.9,1.4
			c-0.4,1-0.4,2.1-0.1,3.1c0.3,0.4,0.7,0.7,1.2,0.8h0.9c0.3,0,0.9-0.1,0.7,0.5c-0.1,0.2-0.2,0.5-0.4,0.7c-0.1,0.3-0.1,0.5,0,0.8
			c0.1,0.5,0.4,0.9,0.8,1.1c0.5,0.3,1.2,0.2,1.6-0.2c0.1,0.3,0.4,0.6,0.7,0.7c0.3,0.1,0.6,0,0.8-0.2c0.4-0.2,0.7-0.9,1.2-0.2
			s0.6,1.6,1.6,1.5c1-0.1,0.8-0.6,1.2-0.9c0.1,0.5,0.4,1,0.9,1.3c0.3,0.2,0.7,0.3,1,0.2c0.4-0.2,0.6-0.8,1.1-0.7s0.9,0.5,1.4,0.5
			c0.4,0.1,0.8,0,1.1-0.2c0.5-0.3,0.7-0.9,0.6-1.4l1.1,0.3c0.5,0.2,1.1,0.2,1.6,0.1c0.7-0.3,1.2-1.1,1.2-1.9c1,0.2,2.2,0.3,2.6-0.9
			c0.2-0.5,0.1-1.1-0.1-1.6c0.6,0.1,1.3,0,1.8-0.4c0.2-0.3,0.4-0.6,0.5-0.9c0.1-0.4-0.1-0.8-0.1-1.2s0.5-0.8,0.7-1.2
			c0.2-0.3,0.4-0.6,0.4-0.9c0-0.5-0.1-1-0.3-1.5C528.4,490.7,528.7,490.2,528.7,489.7z"/>
		<path fill="#00AD31" d="M525.6,482.4c0.2-0.3,0.4-0.6,0.5-0.9c-0.3-0.3-0.7-0.5-1.1-0.5c-0.3,0-0.3-0.1-0.3-0.4V480
			c-0.1-0.4-0.2-0.7-0.6-0.8c-0.3-0.1-0.7,0-1,0.1h-0.9c-0.2-0.1-0.3-0.2-0.4-0.4c0.2-0.9-0.1-1.7-0.9-2.2c-0.4-0.2-0.8-0.2-1.2-0.1
			l-0.6,0.4l-0.5,0.6c0.1-0.1-0.1-0.2-0.2-0.4c-0.1-0.2-0.3-0.3-0.5-0.4c-0.3-0.2-0.7-0.3-1.1-0.2c-0.5,0.1-0.9,0.4-1.3,0.8h-0.4
			c-0.2-0.1-0.3-0.5-0.4-0.7c-0.2-0.4-0.6-0.8-1-1c-1-0.3-2,0.1-2.6,1c-0.1,0.1-0.3,0.5-0.5,0.4l-0.3-0.2l-0.2-0.3
			c-0.4-0.3-0.9-0.4-1.3-0.2c-0.8,0.4-0.9,1.4-1.1,2.2l0,0c-0.6-0.4-1.3-0.5-2-0.4c-0.8,0.3-1.3,1.2-1,2v0.1l0.3,0.7
			c0.1,0.2,0.1,0.4,0,0.6c-0.2,0.3-0.3,0.3-0.6,0.3h-1c-0.1,0.7,0.1,1.4,0.6,2l1,0.5c0.2,0,0.5,0,0.5,0.2s-0.1,0.4-0.2,0.5
			c-0.3,0.7,0,1.5,0.6,1.9c0.3,0.2,0.6,0.4,0.9,0.4c0.4,0,0.9-0.2,1.3,0s-0.3,1.6-0.3,2.2s0.9,1,1.5,1.1c0.4,0,0.9,0.1,1.2,0.4
			l1,0.5c0.8,0.2,1.5-0.7,1.6-1.6c0-0.4-0.1-0.8-0.3-1.2c0-0.1-0.1-0.2-0.1-0.3s0.2-0.6,0.5-0.5s0.2,0.5,0.3,0.6
			c0,0.4,0.2,0.7,0.5,0.9c0.4,0.4,1.1,0.6,1.7,0.3c0.3-0.1,0.5-0.2,0.5-0.5s-0.2-0.6-0.2-0.9s0.6,0.1,0.9,0.5c0,0.2,0,0.4,0.1,0.6
			c0.2,0.3,0.4,0.5,0.7,0.7c0.5,0.3,1.1,0.2,1.6-0.1c0.6-0.3,0.8-1,0.7-1.6c0-0.1-0.1-0.3-0.2-0.4c0-0.1-0.2-0.2-0.2-0.3
			s0.4-0.1,0.5-0.1c0.5,0.1,1-0.2,1.3-0.6c0.2-0.5,0-1.1-0.4-1.4c-0.2-0.2-0.4-0.6,0-0.8c0.3-0.2,0.6-0.1,0.9,0.1v0.2
			c0.3,1,0.9,1.8,1.7,2.3c0.3,0.3,0.8,0.3,1.2,0.2c0.4-0.2,0.6-0.6,0.6-1.1c-0.1-0.6-0.4-1.2-0.8-1.7c0.5-0.3,0.7-1,0.4-1.5
			c-0.1-0.3-0.3-0.4-0.2-0.7L525.6,482.4z"/>
		<path fill="#00AD31" d="M523.2,488.4h-0.3c0-0.1,0-0.1-0.1-0.1l0,0c-0.2-0.2-0.5-0.2-0.7-0.1s-0.3,0.4-0.2,0.6l0.2,0.5l0,0
			c0.1,0.2,0.3,0.4,0.5,0.5s0.5,0,0.7-0.1c0.2-0.2,0.3-0.4,0.3-0.6C523.6,488.8,523.4,488.6,523.2,488.4z"/>
		<path fill="#00AD31" d="M510.6,493.3c-0.1-0.5-0.4-0.9-0.7-1.2l-0.9-0.5c-0.5,0-0.9,0.3-1.1,0.8c-0.1,0.5,0,1,0.3,1.4
			c0.2,0.2,0.4,0.5,0.6,0.6l0.4,0.2h0.1c0.4,0.2,1,0.1,1.3-0.3C510.7,494,510.7,493.6,510.6,493.3z"/>
		<path fill="#00AD31" d="M513.9,493.3c0-0.4-0.3-0.8-0.7-0.9h-0.5c-0.2,0-0.4,0.1-0.5,0.3c-0.1,0.1-0.1,0.2-0.1,0.3
			c-0.2,0.3-0.4,0.6-0.3,0.9c0.1,0.4,0.5,0.7,0.9,0.7c0.3,0,0.6-0.2,0.8-0.4C513.8,494,513.9,493.6,513.9,493.3z"/>
	</g>
	<path id="ponytail" fill="#45366D" d="M990.3,410.7c0,0,19.2-3.7,23.8,15.9s12.1,41.3,23.1,44.1c0,0-1.3,4.7-9.4,2.3
		s-30.8-5.7-29.9-42.5c0,0,0.6-19-7-17S990.3,410.7,990.3,410.7z"/>
</g>
<g id="head">
	<path fill="#E13F8E" d="M990.4,409.6c0.8-0.1,1.6,0.2,2.1,0.8c0.8,1.2,1.4,5.3-1,5.3S990.4,409.6,990.4,409.6z"/>
	<path fill="#FFB2B2" d="M962.9,450.4c1.2,0.5,2.6,0.6,3.8,0.2c2.1-0.5,13.3-7.6,15.4-16.4c0,0,3.3,0.6,4.7-3.5s-0.4-9.9-4.7-6
		c0,0,1.1-18.1-6.8-19.1s-23.1-3.8-23.7,9c-0.1,7.1,0.5,14.2,1.9,21.1C955.4,441.3,958.6,446.3,962.9,450.4z"/>
	<path fill="#45366D" d="M951.5,415.7c-1-3.8-0.2-7.9,2-11.2c5.1-7.2,24.4-14.1,34.9,0c7.7,10.3,2.9,26.1-1.6,30.6
		c-2.1,2-3.2,4.7-5.3,6.8c-0.2,0.2-0.4,0.4-0.7,0.5s-0.7,0-0.9-0.2c-0.1-0.2-0.1-0.4-0.1-0.6c0-1.1,0.1-2.1,0.3-3.2
		c0.2-0.7,0.5-1.4,0.9-2c0.3-0.5,0.6-1.6,1.1-2s0.6-0.1,1-0.2c1.8-0.4,3.2-1.7,3.7-3.5c1.3-4.1-0.4-9.7-4.5-6.2
		c-0.3,0.5-0.8,0.9-1.2,1.3c-0.9,0.5-4.8-3.4-3.9-7.2c0,0-8.5-12-19.7-5.5C957.5,413.1,952.8,412.5,951.5,415.7z"/>
	<path fill="none" stroke="#312E4E" stroke-linecap="round" stroke-miterlimit="10" d="M966.4,423.5c0.6-0.8,1.5-1.2,2.4-1.2
		c1,0,1.9,0.6,2.5,1.4"/>
	<path fill="#312E4E" d="M967.5,425.2c0,0.7,0.5,1.2,1.2,1.2s1.2-0.5,1.2-1.2l0,0c0-0.7-0.5-1.2-1.2-1.2S967.5,424.5,967.5,425.2z"
		/>
	<path fill="none" stroke="#312E4E" stroke-linecap="round" stroke-miterlimit="10" d="M954.1,423.5c0.6-0.8,1.5-1.2,2.4-1.2
		c1,0,1.9,0.6,2.5,1.4"/>
	<path fill="#312E4E" d="M955.2,425.2c-0.1,0.7,0.4,1.2,1.1,1.3h0.1c0.7,0,1.3-0.6,1.3-1.3c0-0.7-0.5-1.2-1.2-1.2h-0.1
		C955.7,424,955.2,424.5,955.2,425.2L955.2,425.2z"/>
	<path fill="#FFFFFF" d="M968.2,437.8h-10.7C957.5,437.8,963.1,444.7,968.2,437.8z"/>
	<path fill="#45366D" d="M977.2,418.6c0,0-15.7,3.2-19.7-9h8.9C966.4,409.6,975.9,413.2,977.2,418.6z"/>
	<path fill="#45366D" d="M956.5,411.7c0,0-2.7,8.3-5,10.6c0,0-1.8-11.6,0.7-15.3L956.5,411.7z"/>
</g>
</svg>
