<svg xmlns="http://www.w3.org/2000/svg" width="43" height="30.4" viewBox="0 0 43 30.4"><title>ico1</title><g id="ab1dd569-4ba9-4d81-94f8-3a3c7be0c5ec" data-name="Layer 2"><g id="a2245109-5557-4a37-929a-ba4a527df196" data-name="Layer 1"><path d="M41.6,27.6a5.2,5.2,0,0,1-4-1.8,1.2,1.2,0,0,0-1-.5,1.6,1.6,0,0,0-1.1.5,5,5,0,0,1-3.9,1.8,5,5,0,0,1-4-1.8,1.6,1.6,0,0,0-1.1-.5,1.2,1.2,0,0,0-1,.5,5.2,5.2,0,0,1-4,1.8,5,5,0,0,1-3.9-1.8,1.5,1.5,0,0,0-2.2,0,5,5,0,0,1-3.9,1.8,5.2,5.2,0,0,1-4-1.8,1.2,1.2,0,0,0-1-.5,1.6,1.6,0,0,0-1.1.5,5,5,0,0,1-4,1.8,1.4,1.4,0,1,0,0,2.8A8.1,8.1,0,0,0,6,29l.5-.3.4.3a8.6,8.6,0,0,0,4.6,1.4A8,8,0,0,0,16,29l.5-.3.5.3a8,8,0,0,0,4.5,1.4A8.6,8.6,0,0,0,26.1,29l.4-.3.5.3a8.1,8.1,0,0,0,4.6,1.4A8,8,0,0,0,36.1,29l.5-.3.5.3a8,8,0,0,0,4.5,1.4,1.4,1.4,0,0,0,0-2.8Z" fill="#3986c1"/><path d="M41.6,19.2a5.5,5.5,0,0,1-4-1.8,1,1,0,0,0-1-.5,1.3,1.3,0,0,0-1.1.5,5.2,5.2,0,0,1-7.9,0,1.3,1.3,0,0,0-1.1-.5,1,1,0,0,0-1,.5,5.5,5.5,0,0,1-4,1.8,5.3,5.3,0,0,1-3.9-1.8,1.3,1.3,0,0,0-1.1-.5,1.3,1.3,0,0,0-1.1.5,5.3,5.3,0,0,1-3.9,1.8,5.5,5.5,0,0,1-4-1.8,1,1,0,0,0-1-.5,1.3,1.3,0,0,0-1.1.5,5.4,5.4,0,0,1-4,1.8,1.4,1.4,0,0,0,0,2.8A8.1,8.1,0,0,0,6,20.6l.5-.4.4.4A8.6,8.6,0,0,0,11.5,22,8,8,0,0,0,16,20.6l.5-.4.5.4A8,8,0,0,0,21.5,22a8.6,8.6,0,0,0,4.6-1.4l.4-.4.5.4A8.1,8.1,0,0,0,31.6,22a8,8,0,0,0,4.5-1.4l.5-.4.5.4A8,8,0,0,0,41.6,22a1.4,1.4,0,0,0,0-2.8Z" fill="#3986c1"/><path d="M1.4,13.6a7.4,7.4,0,0,0,4.5-1.5l.5-.3.5.3a7.4,7.4,0,0,0,4.5,1.5A7.5,7.5,0,0,0,16,12.1l.5-.3.4.3a7.9,7.9,0,0,0,4.6,1.5A7.4,7.4,0,0,0,26,12.1l.5-.3.5.3a7.4,7.4,0,0,0,4.5,1.5,7.7,7.7,0,0,0,4.6-1.5l.4-.3.5.3a7.7,7.7,0,0,0,4.6,1.5A1.5,1.5,0,0,0,43,12.1a1.5,1.5,0,0,0-1.4-1.4,5,5,0,0,1-4-1.8,1.6,1.6,0,0,0-1.1-.5,1.2,1.2,0,0,0-1,.5,5.2,5.2,0,0,1-4,1.8,5,5,0,0,1-3.9-1.8,1.5,1.5,0,0,0-2.2,0,5,5,0,0,1-3.9,1.8,5.2,5.2,0,0,1-4-1.8,1.2,1.2,0,0,0-1-.5,1.6,1.6,0,0,0-1.1.5,5,5,0,0,1-4,1.8A5,5,0,0,1,7.5,8.9a1.6,1.6,0,0,0-1.1-.5,1.2,1.2,0,0,0-1,.5,5.2,5.2,0,0,1-4,1.8A1.4,1.4,0,0,0,0,12.1,1.5,1.5,0,0,0,1.4,13.6Z" fill="#3986c1"/><path d="M1.4,5.1A8,8,0,0,0,5.9,3.7a1,1,0,0,0,.5-.4l.5.4a8,8,0,0,0,4.5,1.4A8.1,8.1,0,0,0,16,3.7l.5-.4.4.4a8.6,8.6,0,0,0,4.6,1.4A8,8,0,0,0,26,3.7l.5-.4.5.4a8,8,0,0,0,4.5,1.4,8.3,8.3,0,0,0,4.6-1.4l.4-.4.5.4a8.3,8.3,0,0,0,4.6,1.4A1.4,1.4,0,0,0,43,3.7a1.4,1.4,0,0,0-1.4-1.4,5.4,5.4,0,0,1-4-1.8A1.6,1.6,0,0,0,36.5,0a1.2,1.2,0,0,0-1,.5,5.5,5.5,0,0,1-4,1.8A5.3,5.3,0,0,1,27.6.5a1.5,1.5,0,0,0-2.2,0,5.3,5.3,0,0,1-3.9,1.8,5.5,5.5,0,0,1-4-1.8,1.2,1.2,0,0,0-1-.5,1.6,1.6,0,0,0-1.1.5,5.4,5.4,0,0,1-4,1.8A5.3,5.3,0,0,1,7.5.5,1.6,1.6,0,0,0,6.4,0a1.2,1.2,0,0,0-1,.5,5.5,5.5,0,0,1-4,1.8A1.4,1.4,0,0,0,0,3.7,1.4,1.4,0,0,0,1.4,5.1Z" fill="#3986c1"/></g></g></svg>