<svg xmlns="http://www.w3.org/2000/svg" width="55" height="51.6" viewBox="0 0 55 51.6"><title>ico2</title><g id="b37846f9-9241-4918-9499-f0a7a14c0c8c" data-name="Layer 2"><g id="a0a58dd9-31cd-406e-b832-89b4224ba9c0" data-name="Capa 1"><path d="M40.4,3.1h.8a1.6,1.6,0,0,0,1.6-1.5A1.6,1.6,0,0,0,41.2,0h-.8a1.6,1.6,0,0,0-1.5,1.6A1.5,1.5,0,0,0,40.4,3.1Z" fill="#3986c1"/><path d="M25.9,3.1h.8a1.6,1.6,0,0,0,1.6-1.5A1.6,1.6,0,0,0,26.7,0h-.8a1.6,1.6,0,0,0-1.6,1.6A1.6,1.6,0,0,0,25.9,3.1Z" fill="#3986c1"/><path d="M18.6,3.1h.8A1.6,1.6,0,0,0,21,1.6,1.6,1.6,0,0,0,19.4,0h-.8A1.6,1.6,0,0,0,17,1.6,1.6,1.6,0,0,0,18.6,3.1Z" fill="#3986c1"/><path d="M33.2,3.1H34a1.5,1.5,0,0,0,1.5-1.5A1.6,1.6,0,0,0,34,0h-.8a1.6,1.6,0,0,0-1.6,1.6A1.6,1.6,0,0,0,33.2,3.1Z" fill="#3986c1"/><path d="M47.5,4.7h.8a1.6,1.6,0,0,0,1.6-1.6,1.6,1.6,0,0,0-1.6-1.5h-.8a1.6,1.6,0,0,0-1.6,1.5A1.6,1.6,0,0,0,47.5,4.7Z" fill="#3986c1"/><path d="M10.5,3.1h.8a1.6,1.6,0,0,0,1.6-1.5A1.6,1.6,0,0,0,11.3,0h-.8A1.6,1.6,0,0,0,8.9,1.6,1.6,1.6,0,0,0,10.5,3.1Z" fill="#3986c1"/><path d="M34.2,8.1a1.6,1.6,0,0,0,1.6,1.5h.8a1.5,1.5,0,0,0,1.5-1.5,1.6,1.6,0,0,0-1.5-1.6h-.8A1.6,1.6,0,0,0,34.2,8.1Z" fill="#3986c1"/><path d="M6.7,9.6h.8A1.6,1.6,0,0,0,9.1,8.1,1.6,1.6,0,0,0,7.5,6.5H6.7A1.6,1.6,0,0,0,5.1,8.1,1.6,1.6,0,0,0,6.7,9.6Z" fill="#3986c1"/><path d="M41.5,8.1A1.5,1.5,0,0,0,43,9.6h.9a1.5,1.5,0,0,0,1.5-1.5,1.6,1.6,0,0,0-1.5-1.6H43A1.6,1.6,0,0,0,41.5,8.1Z" fill="#3986c1"/><path d="M19.7,8.1a1.5,1.5,0,0,0,1.5,1.5H22a1.6,1.6,0,0,0,1.6-1.5A1.6,1.6,0,0,0,22,6.5h-.8A1.6,1.6,0,0,0,19.7,8.1Z" fill="#3986c1"/><path d="M26.9,8.1a1.6,1.6,0,0,0,1.6,1.5h.8a1.6,1.6,0,0,0,1.6-1.5,1.6,1.6,0,0,0-1.6-1.6h-.8A1.6,1.6,0,0,0,26.9,8.1Z" fill="#3986c1"/><path d="M12.4,8.1a1.5,1.5,0,0,0,1.5,1.5h.9a1.5,1.5,0,0,0,1.5-1.5,1.6,1.6,0,0,0-1.5-1.6h-.9A1.6,1.6,0,0,0,12.4,8.1Z" fill="#3986c1"/><path d="M48.7,8.1a1.6,1.6,0,0,0,1.6,1.5h.8a1.6,1.6,0,0,0,1.6-1.5,1.6,1.6,0,0,0-1.6-1.6h-.8A1.6,1.6,0,0,0,48.7,8.1Z" fill="#3986c1"/><path d="M18.6,15.1a1.5,1.5,0,0,0-1.5-1.5h-.9a1.5,1.5,0,0,0-1.5,1.5,1.6,1.6,0,0,0,1.5,1.6h.9A1.6,1.6,0,0,0,18.6,15.1Z" fill="#3986c1"/><path d="M23.5,16.7h.8a1.6,1.6,0,0,0,1.6-1.6,1.6,1.6,0,0,0-1.6-1.5h-.8A1.5,1.5,0,0,0,22,15.1,1.6,1.6,0,0,0,23.5,16.7Z" fill="#3986c1"/><path d="M38.1,16.7h.8a1.6,1.6,0,0,0,1.6-1.6,1.6,1.6,0,0,0-1.6-1.5h-.8a1.6,1.6,0,0,0-1.6,1.5A1.6,1.6,0,0,0,38.1,16.7Z" fill="#3986c1"/><path d="M30.8,16.7h.8a1.6,1.6,0,0,0,1.6-1.6,1.6,1.6,0,0,0-1.6-1.5h-.8a1.6,1.6,0,0,0-1.6,1.5A1.6,1.6,0,0,0,30.8,16.7Z" fill="#3986c1"/><path d="M51.1,15.1a1.6,1.6,0,0,0,1.5,1.6h.8A1.6,1.6,0,0,0,55,15.1a1.6,1.6,0,0,0-1.6-1.5h-.8A1.5,1.5,0,0,0,51.1,15.1Z" fill="#3986c1"/><path d="M45.4,16.7h.8a1.6,1.6,0,0,0,1.5-1.6,1.5,1.5,0,0,0-1.5-1.5h-.8a1.6,1.6,0,0,0-1.6,1.5A1.6,1.6,0,0,0,45.4,16.7Z" fill="#3986c1"/><path d="M11.4,15.1a1.6,1.6,0,0,0-1.6-1.5H9a1.6,1.6,0,0,0-1.6,1.5A1.6,1.6,0,0,0,9,16.7h.8A1.6,1.6,0,0,0,11.4,15.1Z" fill="#3986c1"/><path d="M1.7,16.7h.8a1.6,1.6,0,0,0,1.6-1.6,1.6,1.6,0,0,0-1.6-1.5H1.7A1.6,1.6,0,0,0,.1,15.1,1.6,1.6,0,0,0,1.7,16.7Z" fill="#3986c1"/><path d="M6.4,21.9a1.5,1.5,0,0,0-1.5-1.5H4.1a1.6,1.6,0,0,0-1.6,1.5,1.6,1.6,0,0,0,1.6,1.6h.8A1.6,1.6,0,0,0,6.4,21.9Z" fill="#3986c1"/><path d="M48.5,23.5a1.6,1.6,0,0,0,1.6-1.6,1.6,1.6,0,0,0-1.6-1.5h-.8a1.6,1.6,0,0,0-1.6,1.5,1.6,1.6,0,0,0,1.6,1.6Z" fill="#3986c1"/><path d="M34,23.5a1.6,1.6,0,0,0,1.5-1.6A1.5,1.5,0,0,0,34,20.4h-.8a1.6,1.6,0,0,0-1.6,1.5,1.6,1.6,0,0,0,1.6,1.6Z" fill="#3986c1"/><path d="M26.7,23.5a1.6,1.6,0,0,0,1.6-1.6,1.6,1.6,0,0,0-1.6-1.5h-.8a1.6,1.6,0,0,0-1.6,1.5,1.6,1.6,0,0,0,1.6,1.6Z" fill="#3986c1"/><path d="M18.6,23.5h.8A1.6,1.6,0,0,0,21,21.9a1.6,1.6,0,0,0-1.6-1.5h-.8A1.6,1.6,0,0,0,17,21.9,1.6,1.6,0,0,0,18.6,23.5Z" fill="#3986c1"/><path d="M41.2,23.5a1.6,1.6,0,0,0,1.6-1.6,1.6,1.6,0,0,0-1.6-1.5h-.8a1.5,1.5,0,0,0-1.5,1.5,1.6,1.6,0,0,0,1.5,1.6Z" fill="#3986c1"/><path d="M11.3,23.5h.8a1.6,1.6,0,0,0,1.6-1.6,1.6,1.6,0,0,0-1.6-1.5h-.8a1.5,1.5,0,0,0-1.5,1.5A1.6,1.6,0,0,0,11.3,23.5Z" fill="#3986c1"/><path d="M35.8,30.8h.8a1.5,1.5,0,0,0,1.5-1.5,1.6,1.6,0,0,0-1.5-1.6h-.8a1.6,1.6,0,0,0-1.6,1.6A1.6,1.6,0,0,0,35.8,30.8Z" fill="#3986c1"/><path d="M16.3,29.3a1.6,1.6,0,0,0-1.5-1.6h-.9a1.6,1.6,0,0,0-1.5,1.6,1.5,1.5,0,0,0,1.5,1.5h.9A1.5,1.5,0,0,0,16.3,29.3Z" fill="#3986c1"/><path d="M43,30.8h.9a1.5,1.5,0,0,0,1.5-1.5,1.6,1.6,0,0,0-1.5-1.6H43a1.6,1.6,0,0,0-1.5,1.6A1.5,1.5,0,0,0,43,30.8Z" fill="#3986c1"/><path d="M28.5,30.8h.8a1.6,1.6,0,0,0,1.6-1.5,1.6,1.6,0,0,0-1.6-1.6h-.8a1.6,1.6,0,0,0-1.6,1.6A1.6,1.6,0,0,0,28.5,30.8Z" fill="#3986c1"/><path d="M21.2,30.8H22a1.6,1.6,0,0,0,1.6-1.5A1.6,1.6,0,0,0,22,27.7h-.8a1.6,1.6,0,0,0-1.5,1.6A1.5,1.5,0,0,0,21.2,30.8Z" fill="#3986c1"/><path d="M9.1,29.3a1.6,1.6,0,0,0-1.6-1.6H6.7a1.6,1.6,0,0,0-1.6,1.6,1.6,1.6,0,0,0,1.6,1.5h.8A1.6,1.6,0,0,0,9.1,29.3Z" fill="#3986c1"/><path d="M52.7,29.3a1.6,1.6,0,0,0-1.6-1.6h-.8a1.6,1.6,0,0,0-1.5,1.6,1.5,1.5,0,0,0,1.5,1.5h.8A1.6,1.6,0,0,0,52.7,29.3Z" fill="#3986c1"/><path d="M37.9,37.4h.9a1.5,1.5,0,0,0,1.5-1.5,1.6,1.6,0,0,0-1.5-1.6h-.9a1.6,1.6,0,0,0-1.5,1.6A1.5,1.5,0,0,0,37.9,37.4Z" fill="#3986c1"/><path d="M30.7,37.4h.8A1.5,1.5,0,0,0,33,35.9a1.6,1.6,0,0,0-1.5-1.6h-.8a1.6,1.6,0,0,0-1.6,1.6A1.6,1.6,0,0,0,30.7,37.4Z" fill="#3986c1"/><path d="M45.2,37.4H46a1.6,1.6,0,0,0,1.6-1.5A1.6,1.6,0,0,0,46,34.3h-.8a1.6,1.6,0,0,0-1.5,1.6A1.5,1.5,0,0,0,45.2,37.4Z" fill="#3986c1"/><path d="M53.3,34.3h-.8a1.6,1.6,0,0,0-1.6,1.6,1.6,1.6,0,0,0,1.6,1.5h.8a1.6,1.6,0,0,0,1.6-1.5A1.6,1.6,0,0,0,53.3,34.3Z" fill="#3986c1"/><path d="M11.2,35.9a1.6,1.6,0,0,0-1.5-1.6H8.8a1.6,1.6,0,0,0-1.5,1.6,1.5,1.5,0,0,0,1.5,1.5h.9A1.5,1.5,0,0,0,11.2,35.9Z" fill="#3986c1"/><path d="M23.4,37.4h.8a1.6,1.6,0,0,0,1.6-1.5,1.6,1.6,0,0,0-1.6-1.6h-.8a1.6,1.6,0,0,0-1.6,1.6A1.6,1.6,0,0,0,23.4,37.4Z" fill="#3986c1"/><path d="M2.4,34.3H1.6A1.6,1.6,0,0,0,0,35.9a1.6,1.6,0,0,0,1.6,1.5h.8a1.5,1.5,0,0,0,1.5-1.5A1.6,1.6,0,0,0,2.4,34.3Z" fill="#3986c1"/><path d="M18.5,35.9a1.6,1.6,0,0,0-1.6-1.6h-.8a1.6,1.6,0,1,0,0,3.1h.8A1.6,1.6,0,0,0,18.5,35.9Z" fill="#3986c1"/><path d="M48.4,41.1h-.8A1.6,1.6,0,0,0,46,42.7a1.6,1.6,0,0,0,1.6,1.5h.8a1.5,1.5,0,0,0,1.5-1.5A1.5,1.5,0,0,0,48.4,41.1Z" fill="#3986c1"/><path d="M28.1,42.7a1.6,1.6,0,0,0-1.5-1.6h-.8a1.6,1.6,0,0,0-1.6,1.6,1.6,1.6,0,0,0,1.6,1.5h.8A1.5,1.5,0,0,0,28.1,42.7Z" fill="#3986c1"/><path d="M12,41.1h-.8a1.6,1.6,0,0,0-1.6,1.6,1.6,1.6,0,0,0,1.6,1.5H12a1.6,1.6,0,0,0,1.6-1.5A1.6,1.6,0,0,0,12,41.1Z" fill="#3986c1"/><path d="M42.7,42.7a1.6,1.6,0,0,0-1.6-1.6h-.8a1.6,1.6,0,0,0-1.6,1.6,1.6,1.6,0,0,0,1.6,1.5h.8A1.6,1.6,0,0,0,42.7,42.7Z" fill="#3986c1"/><path d="M35.4,42.7a1.6,1.6,0,0,0-1.6-1.6H33a1.6,1.6,0,0,0-1.5,1.6A1.5,1.5,0,0,0,33,44.2h.8A1.6,1.6,0,0,0,35.4,42.7Z" fill="#3986c1"/><path d="M20.9,42.7a1.6,1.6,0,0,0-1.6-1.6h-.8a1.6,1.6,0,0,0-1.6,1.6,1.6,1.6,0,0,0,1.6,1.5h.8A1.6,1.6,0,0,0,20.9,42.7Z" fill="#3986c1"/><path d="M29.2,48.4h-.8a1.6,1.6,0,1,0,0,3.2h.8a1.6,1.6,0,0,0,0-3.2Z" fill="#3986c1"/><path d="M43.7,48.4h-.8a1.6,1.6,0,1,0,0,3.2h.8a1.6,1.6,0,0,0,0-3.2Z" fill="#3986c1"/><path d="M36.4,48.4h-.8a1.6,1.6,0,0,0,0,3.2h.8a1.6,1.6,0,1,0,0-3.2Z" fill="#3986c1"/><path d="M21.9,48.4h-.8a1.6,1.6,0,1,0,0,3.2h.8a1.6,1.6,0,1,0,0-3.2Z" fill="#3986c1"/></g></g></svg>