<svg xmlns="http://www.w3.org/2000/svg" width="55" height="48.5" viewBox="0 0 55 48.5"><title>ico3</title><g id="f083900d-384a-4b15-b0bb-90529c710247" data-name="Layer 2"><g id="a615c1a7-1a65-4277-acde-44e0313c57d8" data-name="Layer 1"><path d="M41.9,25a1,1,0,0,0-1.3,0L4.2.2A.9.9,0,0,0,3,.3L.3,3a.9.9,0,0,0-.3.7V6.4a.9.9,0,0,0,.9.9H2.7V9.2a1,1,0,0,0,1,.9H5.5v1.8a.9.9,0,0,0,.9.9H8.2v1.9a1,1,0,0,0,1,.9H11v1.8a.9.9,0,0,0,.9.9h1.8v1.9a1,1,0,0,0,1,.9h1.8v1.8a.9.9,0,0,0,.9.9h1.8v1.9a1,1,0,0,0,1,.9H22v1.8a.9.9,0,0,0,.9.9h1.8v1.9a1,1,0,0,0,1,.9h1.8v1.8a.9.9,0,0,0,.9.9h1.8v1.9a1,1,0,0,0,1,.9H33v1.8a.9.9,0,0,0,.3.7l7.5,7.5a3.4,3.4,0,0,0,4.6,0,31.6,31.6,0,0,0,3.7-4.5,8.5,8.5,0,0,1,5.2-3.7,1,1,0,0,0,.7-.7.7.7,0,0,0-.3-.8Zm-8,10.7H32.1V33.9a.9.9,0,0,0-.9-.9H29.3V31.2a1,1,0,0,0-.9-1H26.6V28.4a.9.9,0,0,0-.9-.9H23.8V25.7a1,1,0,0,0-.9-1H21.1V22.9a.9.9,0,0,0-.9-.9H18.3V20.2a1,1,0,0,0-.9-1H15.6V17.4a.9.9,0,0,0-.9-.9H12.8V14.7a1,1,0,0,0-.9-1H10.1V11.9a.9.9,0,0,0-.9-.9H7.3V9.2a1,1,0,0,0-.9-1H4.6V6.4a.9.9,0,0,0-.9-.9H1.8V4l2-1.9L39.3,26.3l-4.2,4.2a.9.9,0,0,0-.3.7v5.5A1,1,0,0,0,33.9,35.7Zm13.7,6.4a35.4,35.4,0,0,1-3.5,4.2,1.5,1.5,0,0,1-2,0l-5.4-5.4V31.5L41.2,27,52.4,38.1A9.9,9.9,0,0,0,47.6,42.1Z" fill="#3986c1"/><path d="M39.2,40.2A2.9,2.9,0,0,0,41,42.9a2.8,2.8,0,0,0,3.1-.7l3.6-3.6a2.8,2.8,0,0,0,0-4.1,2.8,2.8,0,0,0-4,0L40,38.2A3,3,0,0,0,39.2,40.2Zm2.1-.7L45,35.8a1,1,0,0,1,1.4,0,1.1,1.1,0,0,1,0,1.5l-3.6,3.6a.9.9,0,0,1-1.5,0,1,1,0,0,1,0-1.4Z" fill="#3986c1"/><path d="M38.5,32.1h1.8v1.8H38.5Z" fill="#3986c1"/></g></g></svg>