<svg xmlns="http://www.w3.org/2000/svg" width="46" height="46" viewBox="0 0 46 46"><title>ico4</title><g id="ed94200f-d5b6-4fc7-b787-659fbdce91f8" data-name="Layer 2"><g id="a8ef9647-b7de-45a9-9e62-bc38074b1556" data-name="Layer 1"><path d="M43.6,30a9,9,0,0,0-4.3-3.8l2.6-2.5a1.1,1.1,0,0,0,.2-1.1,1.1,1.1,0,0,0-.9-.6H33.4a13.2,13.2,0,0,0,.9-4.8h0V15.8c-.3-7.4-.7-9.6-5-13.1A13.7,13.7,0,0,0,20.7,0,26.4,26.4,0,0,0,10.6,2.3l2.1,1.4S5.1,8.7,7,21.1h.2a9.9,9.9,0,0,0,2.6-1.7,17.5,17.5,0,0,0,3.3,7.2V30h0c-.2.4-1.2,1.5-5,2.9a26.2,26.2,0,0,1-4.2,1.7H3.6a5.3,5.3,0,0,0-3.6,5V46H37.4A8.7,8.7,0,0,0,46,37.4,14.1,14.1,0,0,0,43.6,30Zm-4.7-6-1.5,1.5L35.9,24Zm-6-.3,2.5,2.5A9.3,9.3,0,0,0,31.2,30l-.2.2h-.1V26.7a32.1,32.1,0,0,0,1.9-3.1Zm-.5-6.5a15,15,0,0,1-.2,2H29.6a2.6,2.6,0,0,0,1-2,2.6,2.6,0,0,0-1-1.9h2.7A11.5,11.5,0,0,1,32.4,17.2ZM19.3,13.4a20.5,20.5,0,0,1,8.5-2.1h.8l2.1,2Zm9.4,3.8c0,.4-.8,1-1.9,1s-2-.6-2-1,.8-.9,2-.9S28.7,16.9,28.7,17.2Zm-4.8,2H20.1a2.5,2.5,0,0,0,.9-2,2.5,2.5,0,0,0-.9-1.9h3.8a2.6,2.6,0,0,0-1,1.9A2.6,2.6,0,0,0,23.9,19.2ZM8.7,17.9A15.3,15.3,0,0,1,9,13.6a14.7,14.7,0,0,1,1.7-4.7,11.3,11.3,0,0,1,3-3.6l2.4-1.5-1.4-1a21.6,21.6,0,0,1,6-.9,11.7,11.7,0,0,1,7.4,2.3,18.1,18.1,0,0,1,2.4,2.3,6.5,6.5,0,0,1,1.1,2.2,14.6,14.6,0,0,1,.5,3.5L30,10l-.5-.5H27.8a21.5,21.5,0,0,0-6,1,26.6,26.6,0,0,0-5.3,2.3A49.8,49.8,0,0,0,8.7,17.9Zm10.4-.7c0,.4-.8,1-1.9,1s-1.9-.6-1.9-1,.7-.9,1.9-.9S19.1,16.9,19.1,17.2Zm-7.5.9,1.8-1.3c0,.2-.1.3-.1.4a2.6,2.6,0,0,0,1,2H11.7A4.1,4.1,0,0,1,11.6,18.1Zm.6,3H31.7a15.5,15.5,0,0,1-3.2,5.5,17,17,0,0,1-3.6,3.1,6.7,6.7,0,0,1-2.9,1,7,7,0,0,1-3-1,16.6,16.6,0,0,1-3.5-3.1A17.5,17.5,0,0,1,12.2,21.1ZM30,32c-.1.4-.3.7-.4,1.1A13.4,13.4,0,0,1,22,35.4a12.2,12.2,0,0,1-7-2l-1.5-1.1a3.9,3.9,0,0,0,1.2-1.4h.1V28.9c2.3,2.3,4.9,3.7,7,3.7s4.7-1.4,7-3.7v1.5l.2.4h0A4.4,4.4,0,0,0,30,32ZM4.2,36.5h.1a19.2,19.2,0,0,0,3.6-1.3l.8-.4a28.4,28.4,0,0,0,3.2-1.4A14.3,14.3,0,0,0,22,37.3a15.3,15.3,0,0,0,6.9-1.6,9.7,9.7,0,0,0-.1,1.7,6.2,6.2,0,0,0,.2,1.9H1.9A3.7,3.7,0,0,1,4.2,36.5ZM22,44.1H1.9V41.2H29.7A8,8,0,0,0,32,44.1Zm15.4,0a6.7,6.7,0,0,1-6.7-6.7A12.5,12.5,0,0,1,32.8,31c1.3-2,3-3.2,4.6-3.2S40.6,29,42,31a12.5,12.5,0,0,1,2.1,6.4A6.7,6.7,0,0,1,37.4,44.1Z" fill="#3986c1"/><path d="M38.3,36V34.5h1.9a.9.9,0,0,0,1-1,.9.9,0,0,0-1-.9H38.3v-1a.9.9,0,0,0-.9-.9.9.9,0,0,0-1,.9v1H34.5a.9.9,0,0,0-.7,1.6l2.6,2.6v1.5H34.5a1,1,0,0,0,0,2h1.9v.9a1,1,0,0,0,1,1,1,1,0,0,0,.9-1v-.9h1.9a1,1,0,0,0,.9-.6.9.9,0,0,0-.2-1.1Z" fill="#3986c1"/></g></g></svg>