<svg xmlns="http://www.w3.org/2000/svg" width="49" height="35.1" viewBox="0 0 49 35.1"><title>ico5</title><g id="acda440c-3934-4411-8b53-4f894ece2232" data-name="Layer 2"><g id="f8c3b2e9-1567-4a28-90d0-1f003e82e4f0" data-name="Layer 1"><path d="M49,31a4.2,4.2,0,0,0-4.1-4h-.3V15.7l.2.2a.7.7,0,0,0,.6.2h.4a.9.9,0,0,0,.6-.8V10.4a1.2,1.2,0,0,0-.4-.8L33.2.2A.9.9,0,0,0,32,.2L26.3,4.4V2.9a1,1,0,0,0-1-.9H21.7a1,1,0,0,0-1,.9V8.5L19.2,9.6a.9.9,0,0,0-.4.8v1.8c-3.1-1.3-7.7-1.2-10.5-1v-.9a.9.9,0,0,0-.9-1H1a.9.9,0,0,0-1,1V25.5a.9.9,0,0,0,1,1H7.4a.9.9,0,0,0,.9-1V23.2H9.7a18.5,18.5,0,0,1,.8,3.3c.9,5.6,4.3,8.6,9.6,8.6H45a4,4,0,0,0,2.9-1.2A4.4,4.4,0,0,0,49,31Zm-6.3-4H37.2V17.4a1,1,0,0,0-1-.9H29a.9.9,0,0,0-1,.9v2.4l-5.9-5.2L32.6,6.9l10.1,7.4Zm-7.6,0a3.8,3.8,0,0,0-1.4-2.2l-3.8-3.3V18.4h5.4V27ZM22.7,3.9h1.7V5.8L22.7,7.1Zm-2,7L32.6,2.1l11.9,8.8v2.4L33.2,5A1,1,0,0,0,32,5L20.7,13.2ZM6.4,24.6H1.9V11.2H6.4Zm40.1,8a2.2,2.2,0,0,1-1.5.6H20.1c-5.4,0-7.2-3.8-7.7-7.1L11.7,23c-.2-.6-.5-1.7-1.5-1.7H8.3V13.1c2.8-.2,8.7-.4,11.1,1.7h0L32.5,26.2h0a2.2,2.2,0,0,1,.4,3,2.8,2.8,0,0,1-1.5.8,2.1,2.1,0,0,1-1.5-.5l-11-8.8a.9.9,0,1,0-1.2,1.4l11,8.9a3.8,3.8,0,0,0,2.5.9h.4a4.3,4.3,0,0,0,2.8-1.5,5.1,5.1,0,0,0,.7-1.5h9.8a2.1,2.1,0,0,1,2.2,2A2.3,2.3,0,0,1,46.5,32.6Z" fill="#3986c1"/></g></g></svg>