<svg xmlns="http://www.w3.org/2000/svg" width="54" height="42.3" viewBox="0 0 54 42.3"><title>ico6</title><g id="b5991085-ac35-41d1-8924-385c9573617b" data-name="Layer 2"><g id="a4c35f67-ac8a-4e84-afd4-c605930935b3" data-name="Layer 1"><path d="M54,22.6h0v-.3h-.1a.4.4,0,0,0-.1-.3h0L36.7,3.9h0l-.2-.2h-.3c0-.1-.1-.1-.2-.1H34.2V1.8A1.8,1.8,0,0,0,32.4,0H25.2a1.8,1.8,0,0,0-1.8,1.8V3.6H18a1.1,1.1,0,0,0-.7.3h0l-17,18a.1.1,0,0,0-.1.1v.2a.1.1,0,0,0-.1.1v.6a.1.1,0,0,0,.1.1c0,.1,0,.1.1.1L3,25.8a.7.7,0,0,0,.6.3V40.5a1.8,1.8,0,0,0,1.8,1.8H48.6a1.8,1.8,0,0,0,1.8-1.8V26.1h.4l.3-.2,2.7-2.7a.3.3,0,0,0,.1-.2H54ZM35.6,5.4,51,21.6H35.5L20.1,5.4h3.8l3.2,3.3h0a.9.9,0,0,0,.6.3h5.6a.9.9,0,0,0,.9-.9V5.4Zm-1,18.9.9-.9H50.9l-.9.9ZM32.4,7.2H28.8V1.8h3.6ZM27,1.8V6L25.2,4.1V1.8ZM3.6,23.9,2.2,22.5,18,5.8,33.9,22.5l-1.5,1.4L18.7,9.3a.9.9,0,0,0-1.3,0ZM9.9,40.5v-9h5.4v9Zm13.5,0H17.1v-9a1.8,1.8,0,0,0-1.8-1.8H9.9a1.8,1.8,0,0,0-1.8,1.8v9H5.4V24.6L18,11.2,30.6,24.6V40.5Zm25.2,0H32.4V26.1H48.6V40.5Z" fill="#3986c1"/><path d="M35.1,36.9h3.6a.9.9,0,0,0,.9-.9V30.6a.9.9,0,0,0-.9-.9H35.1a.9.9,0,0,0-.9.9V36A.9.9,0,0,0,35.1,36.9Zm.9-5.4h1.8v3.6H36Z" fill="#3986c1"/><path d="M42.3,36.9h3.6a.9.9,0,0,0,.9-.9V30.6a.9.9,0,0,0-.9-.9H42.3a.9.9,0,0,0-.9.9V36A.9.9,0,0,0,42.3,36.9Zm.9-5.4H45v3.6H43.2Z" fill="#3986c1"/><path d="M25.2,29.7H21.6a.9.9,0,0,0-.9.9V36a.9.9,0,0,0,.9.9h3.6a.9.9,0,0,0,.9-.9V30.6A.9.9,0,0,0,25.2,29.7Zm-.9,5.4H22.5V31.5h1.8Z" fill="#3986c1"/></g></g></svg>