<svg xmlns="http://www.w3.org/2000/svg" width="54" height="54" viewBox="0 0 54 54"><title>ico7</title><g id="f7310a1d-3cd0-44d7-9945-c7f0c5af33ca" data-name="Layer 2"><g id="a4f2fa5b-68a6-4cbc-8092-eb7569f15351" data-name="Layer 1"><path d="M52.2,48.6H50.4V19.8h1.8a1.8,1.8,0,0,0,1.6-1,1.9,1.9,0,0,0-.1-1.9L46,7.1a1.8,1.8,0,0,0-1.5-.8H31.6L28.5.9A1.6,1.6,0,0,0,27,0a1.9,1.9,0,0,0-1.6.9l-3,5.4H9.5A2.1,2.1,0,0,0,8,7L.3,17a1.7,1.7,0,0,0-.1,1.8,1.8,1.8,0,0,0,1.6,1H3.6V48.6H1.8A1.8,1.8,0,0,0,0,50.4v1.8A1.8,1.8,0,0,0,1.8,54H52.2A1.8,1.8,0,0,0,54,52.2V50.4A1.8,1.8,0,0,0,52.2,48.6ZM38.7,19.8h9.9v1.8H42.3a1.8,1.8,0,0,0-1.8,1.8v8.1a1.8,1.8,0,0,0,1.8,1.8h6.3v1.8H42.3a1.8,1.8,0,0,0-1.8,1.8V45a1.8,1.8,0,0,0,1.8,1.8h6.3v1.8H38.7Zm9.9,19.8H42.3V36.9h6.3Zm-6.3,1.8h6.3V45H42.3Zm6.3-15.3H42.3V23.4h6.3Zm-6.3,1.8h6.3v3.6H42.3ZM44.6,8.1,52.2,18H38.3L32.7,8.1ZM27,1.8l9.9,17.3V48.6H34.2V35.1a6.4,6.4,0,0,0-4.1-5.9,5.7,5.7,0,0,0-2.2-.4H26.1a4.9,4.9,0,0,0-2.1.4,6.4,6.4,0,0,0-4.2,5.9V48.6H17.1V19.1L23.7,7.6h0ZM25.2,48.6V45h3.6v3.6Zm-3.6,0V45h1.8v3.6Zm4.5-18h2.7V36H25.2V30.7Zm6.3,4.5V36H30.6V31.5A4.7,4.7,0,0,1,32.4,35.1ZM21.6,37.8h1.8v5.4H21.6Zm3.6,0h3.6v5.4H25.2Zm5.4,0h1.8v5.4H30.6ZM23.4,36H21.6v-.9a4.7,4.7,0,0,1,1.8-3.6Zm7.2,9h1.8v3.6H30.6ZM1.8,18,9.5,8.1H21.3L15.7,18H1.8Zm9.9,13.5H5.4V27.9h6.3Zm0,13.5H5.4V41.4h6.3ZM5.4,39.6V36.9h6.3v2.7Zm0-13.5V23.4h6.3v2.7Zm0,20.7h6.3A1.8,1.8,0,0,0,13.5,45V36.9a1.8,1.8,0,0,0-1.8-1.8H5.4V33.3h6.3a1.8,1.8,0,0,0,1.8-1.8V23.4a1.8,1.8,0,0,0-1.8-1.8H5.4V19.8h9.9V48.6H5.4ZM1.8,52.2V50.4H52.2v1.8Z" fill="#3986c1"/><path d="M21.6,18.9A5.4,5.4,0,1,0,27,13.5,5.4,5.4,0,0,0,21.6,18.9Zm1.9.9h2.6v2.6A3.8,3.8,0,0,1,23.5,19.8Zm4.4,2.6V19.8h2.6A3.8,3.8,0,0,1,27.9,22.4ZM30.5,18H27.9V15.4A3.8,3.8,0,0,1,30.5,18Zm-4.4-2.6V18H23.5A3.8,3.8,0,0,1,26.1,15.4Z" fill="#3986c1"/></g></g></svg>