<svg xmlns="http://www.w3.org/2000/svg" width="48" height="48" viewBox="0 0 48 48"><title>ico8</title><g id="fb133e54-24dd-4107-b020-3b94b89c270f" data-name="Layer 2"><g id="bb074f1b-a44e-4034-bb5c-83d5802b3133" data-name="Layer 1"><path d="M47.1,37.6A29.7,29.7,0,0,0,26,46.4a.9.9,0,0,0,0,1.3.9.9,0,0,0,.6.3.9.9,0,0,0,.7-.3,28.2,28.2,0,0,1,19.8-8.2,1,1,0,0,0,.9-1A.9.9,0,0,0,47.1,37.6Z" fill="#3986c1"/><path d="M27.5,36.7a.9.9,0,0,0-1.3-.2,38.4,38.4,0,0,0-10.1,10,1,1,0,0,0,.3,1.3l.5.2a.9.9,0,0,0,.8-.4A35.1,35.1,0,0,1,27.3,38,.9.9,0,0,0,27.5,36.7Z" fill="#3986c1"/><path d="M47.1,30a37.7,37.7,0,0,0-12.4,2.2.9.9,0,0,0-.5,1.2.8.8,0,0,0,.8.6h.4a35.5,35.5,0,0,1,11.7-2A.9.9,0,0,0,48,31,1,1,0,0,0,47.1,30Z" fill="#3986c1"/><path d="M13.4,41.6a42.7,42.7,0,0,1,25-15.8h0a41.4,41.4,0,0,1,8.7-.9.9.9,0,0,0,0-1.8,42.5,42.5,0,0,0-8,.7v-2a14.1,14.1,0,0,0,5.3-10.7A14,14,0,0,0,38.8.2a.9.9,0,0,0-1.2,0A14,14,0,0,0,32,11.1a14.1,14.1,0,0,0,5.3,10.7v2.4A46.1,46.1,0,0,0,32,25.7V20.2a.7.7,0,0,0-.3-.6h0l-5.2-5.3a.9.9,0,0,0-.7-.3H15.1a.9.9,0,0,0-.7.3L9.2,19.6h0a.7.7,0,0,0-.3.6v3.6l-2-.3V20.1a10.5,10.5,0,0,0,4-8.1A10.6,10.6,0,0,0,6.6,3.6a.9.9,0,0,0-1.2,0A10.6,10.6,0,0,0,1.1,12a10.5,10.5,0,0,0,4,8.1v3.2a29.5,29.5,0,0,0-4.2-.2.9.9,0,1,0,0,1.8,41.8,41.8,0,0,1,21.3,5.8,47,47,0,0,0-4.4,3.4,38.2,38.2,0,0,0-16.9-4,.9.9,0,1,0,0,1.8,35.9,35.9,0,0,1,15.4,3.6c-1.4,1.4-2.7,2.9-4,4.4A29.4,29.4,0,0,0,.9,37.6a.9.9,0,0,0-.9.9.9.9,0,0,0,.9,1,25.9,25.9,0,0,1,10.3,2L9.3,44.2,7.9,46.6a1,1,0,0,0,.3,1.3h.5a1.2,1.2,0,0,0,.8-.4l1.4-2.4,2.4-3.5A.1.1,0,0,0,13.4,41.6ZM33.9,11.1a11.7,11.7,0,0,1,4.3-8.9,11.7,11.7,0,0,1,4.3,8.9,11.6,11.6,0,0,1-3.4,8.1V12a.9.9,0,1,0-1.8,0v7.2A11.6,11.6,0,0,1,33.9,11.1ZM3,12A8.6,8.6,0,0,1,6,5.5,8.6,8.6,0,0,1,9,12a8.2,8.2,0,0,1-2.1,5.5V11.2a.9.9,0,1,0-1.8,0v6.3A8.2,8.2,0,0,1,3,12Zm25.8,7.3H20.7l-3.4-3.4h8.1Zm-13.7-3,3,3h-6Zm-4.3,4.9h8.6v5.9l-1.3-.6V23.4a.9.9,0,0,0-.9-.9H13a.9.9,0,0,0-.9.9v1.1l-1.3-.3Zm5.4,4.6L14,25v-.7h2.2ZM21.3,28V21.2h8.8v5.2l-4.7,2.3-1.4.9Z" fill="#3986c1"/><path d="M38.2,9.4a1.1,1.1,0,0,0,.7-.3,1.4,1.4,0,0,0,.2-.7,1.1,1.1,0,0,0-.2-.6,1.1,1.1,0,0,0-.7-.3.9.9,0,0,0-.7.3,1.1,1.1,0,0,0-.2.6,1.4,1.4,0,0,0,.2.7A.9.9,0,0,0,38.2,9.4Z" fill="#3986c1"/><path d="M30.1,34.2a1.1,1.1,0,0,0-.3.7.9.9,0,0,0,.3.7l.6.2.7-.2a.9.9,0,0,0,.3-.7,1.1,1.1,0,0,0-.3-.7l-.7-.2Z" fill="#3986c1"/></g></g></svg>