<svg xmlns="http://www.w3.org/2000/svg" width="264.9" height="72.8" viewBox="0 0 264.9 72.8"><title>Logo</title><g id="a596db60-f9d4-4e87-a265-a2fd47a84cbd" data-name="Layer 2"><g id="a67d9838-ff2f-48ca-9098-1e0543b142d5" data-name="Layer 1"><path d="M72.8,36.4a41.4,41.4,0,0,1-1,8.7A43,43,0,0,1,68,54.5a37,37,0,0,1-3.5,5,32.4,32.4,0,0,1-3.6,3.8,36.3,36.3,0,0,1-14.2,8,35.2,35.2,0,0,1-10.3,1.5,35.6,35.6,0,0,1-16.5-4A36.5,36.5,0,0,1,11.6,63a34.1,34.1,0,0,1-3.7-3.9A36.4,36.4,0,0,1,36.4,0,35.2,35.2,0,0,1,46.7,1.5,35.7,35.7,0,0,1,64.4,13.2,36.4,36.4,0,0,1,72.8,36.4Z" fill="#5694cc"/><path d="M72.8,36.4A36.7,36.7,0,0,1,68,54.5a35.7,35.7,0,0,1-7.1,8.8,36.3,36.3,0,0,1-14.2,8V1.5A35.7,35.7,0,0,1,64.4,13.2,36.4,36.4,0,0,1,72.8,36.4Z" fill="#3a87c1"/><rect x="20.1" y="32.8" width="8" height="20.96" fill="#fff"/><path d="M46.8,20.1,7.9,59.1A34.1,34.1,0,0,0,11.6,63a36.5,36.5,0,0,0,8.3,5.8L46.8,41.9,64.5,59.5a37,37,0,0,0,3.5-5,43,43,0,0,0,3.8-9.4Z" fill="#fff"/><path d="M71.7,45.1a35.6,35.6,0,0,1-7.2,14.4L46.8,41.9V20.1Z" fill="#dfecf4"/><path d="M91.7,11.3H95V18a3,3,0,0,1,1.4-1,4.5,4.5,0,0,1,2-.4,4.4,4.4,0,0,1,2.3.6,3.3,3.3,0,0,1,1.5,1.6,4.9,4.9,0,0,1,.6,2.5v7H99.5V21.6a3.6,3.6,0,0,0-.5-1.9,1.8,1.8,0,0,0-1.5-.7,2.6,2.6,0,0,0-1.9.8,3.9,3.9,0,0,0-.6,2.3v6.2H91.7Z" fill="#0b0b0b"/><path d="M106.8,27a6,6,0,0,1-1.6-4.4,5.5,5.5,0,0,1,6-6,6.1,6.1,0,0,1,4.5,1.6,6.1,6.1,0,0,1,1.6,4.4,6.4,6.4,0,0,1-1.6,4.4,6.5,6.5,0,0,1-4.5,1.6A6.1,6.1,0,0,1,106.8,27Zm6.5-1.8a4,4,0,0,0,.7-2.6,4,4,0,0,0-.7-2.6,2.4,2.4,0,0,0-2.1-1,2.3,2.3,0,0,0-2,1,4,4,0,0,0-.8,2.6,4,4,0,0,0,.8,2.6,2.5,2.5,0,0,0,2,.9A2.6,2.6,0,0,0,113.3,25.2Z" fill="#0b0b0b"/><path d="M119.7,19.9c0-1.5-.1-2.6-.1-3.1h2.8a12.3,12.3,0,0,1,.2,2h0a2.6,2.6,0,0,1,1.3-1.6,4.1,4.1,0,0,1,2.3-.6,4.6,4.6,0,0,1,2.1.5,2.7,2.7,0,0,1,1.2,1.4,3.2,3.2,0,0,1,1.4-1.4,4.6,4.6,0,0,1,2-.5,3.8,3.8,0,0,1,3,1.2,4.7,4.7,0,0,1,1.1,3.4v7.1h-3.2V21.6a2.9,2.9,0,0,0-.5-1.7,1.7,1.7,0,0,0-1.3-.7,2.1,2.1,0,0,0-1.5.7,2.3,2.3,0,0,0-.5,1.7v6.7h-3.3V21.7a3,3,0,0,0-.4-1.8,1.7,1.7,0,0,0-1.3-.7,1.8,1.8,0,0,0-1.5.7,2.4,2.4,0,0,0-.6,1.8v6.6h-3.2Z" fill="#0b0b0b"/><path d="M150.8,23.8h-7.9a2.7,2.7,0,0,0,.9,1.5,2.4,2.4,0,0,0,1.8.5,4.7,4.7,0,0,0,1.7-.3,4.8,4.8,0,0,0,1.5-1.1l1.7,1.7a4.8,4.8,0,0,1-2.1,1.8,7.3,7.3,0,0,1-3,.7,6,6,0,0,1-4.3-1.6,6.2,6.2,0,0,1-1.5-4.4,6.3,6.3,0,0,1,1.5-4.4,5.4,5.4,0,0,1,4.2-1.6,5.1,5.1,0,0,1,4.1,1.6,6.1,6.1,0,0,1,1.4,4.4Zm-3.2-2.4a2.3,2.3,0,0,0-.6-1.6,2.9,2.9,0,0,0-1.7-.5,2.3,2.3,0,0,0-1.6.6,3,3,0,0,0-.8,1.7h4.7Z" fill="#0b0b0b"/><path d="M160,15.2a1.6,1.6,0,0,1-.6-1.3,1.7,1.7,0,0,1,.6-1.4,2.1,2.1,0,0,1,1.5-.5,2,2,0,0,1,1.4.5,1.7,1.7,0,0,1,.6,1.4,1.6,1.6,0,0,1-.6,1.3,2,2,0,0,1-1.4.5A2.1,2.1,0,0,1,160,15.2Zm-.2,1.6h3.3V28.3h-3.3Z"/><path d="M166.4,19.9a25.5,25.5,0,0,0-.1-3.1h3.1c0,.7.1,1.4.1,2h0a3.8,3.8,0,0,1,1.5-1.6,4.6,4.6,0,0,1,2.3-.6,3.5,3.5,0,0,1,3,1.3,6.4,6.4,0,0,1,1,4v6.4h-3.2V21.9a3.2,3.2,0,0,0-.5-2,1.4,1.4,0,0,0-1.4-.7,2.2,2.2,0,0,0-1.8.8,2.7,2.7,0,0,0-.7,2v6.3h-3.3Z"/><path d="M181.4,27.9a3.3,3.3,0,0,1-1.7-1.6l2-1.4a3.1,3.1,0,0,0,1.1.9,2.7,2.7,0,0,0,1.2.3,2.1,2.1,0,0,0,1.2-.3,1.1,1.1,0,0,0,.5-.9c0-.2-.1-.3-.1-.4l-.5-.4-1.2-.5a7.9,7.9,0,0,1-3-1.7,2.6,2.6,0,0,1-.9-2.1,2.8,2.8,0,0,1,1.2-2.3,5.1,5.1,0,0,1,3.2-.9,6,6,0,0,1,2.4.5,4.9,4.9,0,0,1,1.8,1.4l-1.9,1.4a2.9,2.9,0,0,0-2.2-.9l-.9.2c-.3.2-.4.3-.4.6a.5.5,0,0,0,.2.4,1,1,0,0,0,.5.4l1.5.6,2.2,1.1a2.6,2.6,0,0,1,1,1.1,2.6,2.6,0,0,1,.3,1.4,3.6,3.6,0,0,1-.6,2,3.9,3.9,0,0,1-1.7,1.3,6.6,6.6,0,0,1-2.5.5A4.5,4.5,0,0,1,181.4,27.9Z"/><path d="M192.2,27.2a6.3,6.3,0,0,1-1-3.9V16.8h3.3v6.5a3.5,3.5,0,0,0,.4,2,1.7,1.7,0,0,0,1.4.6,2.1,2.1,0,0,0,1.8-.9,3,3,0,0,0,.8-2.1V16.8h3.2v8.4c0,.9.1,1.9.2,3.1h-3.1a19.1,19.1,0,0,1-.2-2h0a4,4,0,0,1-1.5,1.7,4.1,4.1,0,0,1-2.3.6A3.6,3.6,0,0,1,192.2,27.2Z"/><path d="M205,19.6a20.2,20.2,0,0,0-.1-2.8h3.2v2.3h.1a3.5,3.5,0,0,1,1.6-1.8,4.6,4.6,0,0,1,2.6-.7h.7v2.5h-.4a4.3,4.3,0,0,0-2.2.6,4.1,4.1,0,0,0-1.6,1.6,3.9,3.9,0,0,0-.6,2.1v4.8H205Z"/><path d="M216.6,28.1a3.5,3.5,0,0,1-1.4-1.3,4.1,4.1,0,0,1-.5-1.9,3.4,3.4,0,0,1,1.4-2.8,7.8,7.8,0,0,1,4.1-.9h1.6v-.5a1.3,1.3,0,0,0-.5-1.2,2,2,0,0,0-1.4-.4,6.9,6.9,0,0,0-2,.3,5.6,5.6,0,0,0-1.5,1L215,18.5a7.4,7.4,0,0,1,2.3-1.4,8.6,8.6,0,0,1,2.7-.5,5.8,5.8,0,0,1,3.7,1.1,3.6,3.6,0,0,1,1.4,3v5.1a7.1,7.1,0,0,0,.1,1.4,2.7,2.7,0,0,0,.2,1.1h-2.9l-.2-.5a4.5,4.5,0,0,1-.2-.8h0a4.2,4.2,0,0,1-3.5,1.6A4.6,4.6,0,0,1,216.6,28.1Zm4.6-2.5a1.6,1.6,0,0,0,.6-1.3v-1h-1.7a3.1,3.1,0,0,0-1.6.4,1.4,1.4,0,0,0-.6,1.2,1,1,0,0,0,.4.9,2.1,2.1,0,0,0,1.2.3A2.5,2.5,0,0,0,221.2,25.6Z"/><path d="M228,19.9a25.5,25.5,0,0,0-.1-3.1H231a14.1,14.1,0,0,1,.1,2h.1a3.6,3.6,0,0,1,1.4-1.6,4.8,4.8,0,0,1,2.4-.6,3.5,3.5,0,0,1,3,1.3,7.1,7.1,0,0,1,1,4v6.4h-3.3V21.9a3.3,3.3,0,0,0-.4-2,1.5,1.5,0,0,0-1.4-.7,2.6,2.6,0,0,0-1.9.8,2.7,2.7,0,0,0-.7,2v6.3H228Z"/><path d="M242.9,27a6.3,6.3,0,0,1-1.5-4.4,6.2,6.2,0,0,1,1.5-4.4,5.7,5.7,0,0,1,4.3-1.6,6.5,6.5,0,0,1,2.9.6,4.5,4.5,0,0,1,1.9,1.7l-2,1.7a3.8,3.8,0,0,0-1.1-1.1,2.8,2.8,0,0,0-1.5-.4,2.4,2.4,0,0,0-2,.9,4,4,0,0,0-.8,2.6,3.7,3.7,0,0,0,.8,2.5,2.2,2.2,0,0,0,2,1,4.2,4.2,0,0,0,1.5-.4,3.2,3.2,0,0,0,1.1-1.2l2,1.7a4.7,4.7,0,0,1-1.9,1.8,6.5,6.5,0,0,1-2.9.6A6.1,6.1,0,0,1,242.9,27Z"/><path d="M264.9,23.8H257a2.3,2.3,0,0,0,.9,1.5,2.4,2.4,0,0,0,1.8.5,4.7,4.7,0,0,0,1.7-.3,4.8,4.8,0,0,0,1.5-1.1l1.7,1.7a4.8,4.8,0,0,1-2.1,1.8,7.3,7.3,0,0,1-3,.7,5.8,5.8,0,0,1-4.3-1.6,6.2,6.2,0,0,1-1.5-4.4,6.3,6.3,0,0,1,1.5-4.4,5.4,5.4,0,0,1,4.2-1.6,5.1,5.1,0,0,1,4.1,1.6,6.1,6.1,0,0,1,1.4,4.4Zm-3.2-2.4a2.3,2.3,0,0,0-.6-1.6,2.9,2.9,0,0,0-1.7-.5,2.1,2.1,0,0,0-1.6.6,3,3,0,0,0-.8,1.7h4.7Z"/><path d="M92.1,47.3c0-.9,0-1.9-.1-2.9h1.8a11.5,11.5,0,0,1,.1,1.9h0a5.4,5.4,0,0,1,1.5-1.5,4.3,4.3,0,0,1,2.2-.6,4.1,4.1,0,0,1,3.5,1.6,6.6,6.6,0,0,1,1.3,4.4,7.9,7.9,0,0,1-.6,3.2,5.1,5.1,0,0,1-1.7,2.1,5.2,5.2,0,0,1-2.5.7,4.6,4.6,0,0,1-2.1-.5,2.9,2.9,0,0,1-1.4-1.3h0v7.1h-2Zm7.5,6.2a6.8,6.8,0,0,0,.8-3.4,5.1,5.1,0,0,0-.8-3.2,2.8,2.8,0,0,0-2.3-1.1,3,3,0,0,0-2.3.9,3.2,3.2,0,0,0-.9,2.4v2a3.6,3.6,0,0,0,.9,2.6,2.6,2.6,0,0,0,2.3,1A2.8,2.8,0,0,0,99.6,53.5Z"/><path d="M105.4,47.3V44.4h1.8a14.1,14.1,0,0,1,.1,2.1v.2h.1a3.2,3.2,0,0,1,1.4-1.8,3.4,3.4,0,0,1,2.2-.7h.7v1.6h-.8a3.2,3.2,0,0,0-1.8.6,4,4,0,0,0-1.2,1.6,5.4,5.4,0,0,0-.5,2.2V56h-2Z"/><path d="M114.5,42.1a1,1,0,0,1-.4-.9,1.2,1.2,0,0,1,.4-1,1.3,1.3,0,0,1,1-.4,1.8,1.8,0,0,1,1,.4,1.5,1.5,0,0,1,.4,1,1.3,1.3,0,0,1-.4.9,1.7,1.7,0,0,1-1,.3A1.3,1.3,0,0,1,114.5,42.1Zm0,2.3h2V56h-2Z"/><path d="M121.2,54.6a6,6,0,0,1-1.4-4.4,6,6,0,0,1,1.4-4.4,4.9,4.9,0,0,1,4-1.6,5.1,5.1,0,0,1,2.5.6,4,4,0,0,1,1.8,1.6l-1.2,1.1a3.3,3.3,0,0,0-1.3-1.3,3.7,3.7,0,0,0-1.8-.4,3.1,3.1,0,0,0-2.5,1.1,4.8,4.8,0,0,0-1,3.3,4.4,4.4,0,0,0,1,3.2,2.9,2.9,0,0,0,2.5,1.2,3.7,3.7,0,0,0,1.8-.4,3.3,3.3,0,0,0,1.3-1.3l1.2,1.1a4,4,0,0,1-1.8,1.6,5.1,5.1,0,0,1-2.5.6A4.9,4.9,0,0,1,121.2,54.6Z"/><path d="M141.7,51h-8.3a4.1,4.1,0,0,0,1,2.6,3.2,3.2,0,0,0,2.4.9,3.8,3.8,0,0,0,3.3-1.6l1.1,1.1a4,4,0,0,1-1.8,1.6,5.8,5.8,0,0,1-2.6.6,4.9,4.9,0,0,1-4-1.6,6.4,6.4,0,0,1-1.4-4.4,6.8,6.8,0,0,1,1.4-4.4,5.3,5.3,0,0,1,3.9-1.6,4.1,4.1,0,0,1,3.6,1.6,6.4,6.4,0,0,1,1.4,4.4Zm-1.8-1.6a3.8,3.8,0,0,0-.9-2.7,3.2,3.2,0,0,0-2.4-.9,2.6,2.6,0,0,0-2.2,1,4.2,4.2,0,0,0-1,2.7h6.5Z"/><path d="M144.7,47.3V44.4h1.8c0,.7.1,1.3.1,2.1v.2h0a3.9,3.9,0,0,1,3.7-2.5h.7v1.6h-.8a2.8,2.8,0,0,0-1.8.6,4.2,4.2,0,0,0-1.3,1.6,5.4,5.4,0,0,0-.4,2.2V56h-2Z"/><rect x="159.1" y="11.3" width="4.5" height="4.5" rx="2.2" fill="#e34f35"/></g></g></svg>