<svg xmlns="http://www.w3.org/2000/svg" width="171.1" height="47" viewBox="0 0 171.1 47"><title>logo-white</title><g id="b1220f4f-9fc7-4d6c-9801-92b8c5685f50" data-name="Layer 2"><g id="a8b583b7-a723-4974-906e-ae0677d62073" data-name="Layer 1"><g id="f15ce27c-72a9-40b7-b83d-3a5f23127ca7" data-name="a35bde2d-0cbd-4267-84d6-fcfd81b72cca"><g id="b4b8a01a-2a54-4e8c-9540-0cf78882c34c" data-name="eca294e1-af06-4669-9295-6651d60f3469"><path d="M65,11.1a2.3,2.3,0,0,0-1.4-.4,2.8,2.8,0,0,0-1.3.3,1.5,1.5,0,0,0-.9.6V7.3H59.2v11h2.2v-4a3.3,3.3,0,0,1,.3-1.5,2.1,2.1,0,0,1,1.3-.5,1,1,0,0,1,.9.4,2.8,2.8,0,0,1,.4,1.2v4.4h2.1V13.8a3.3,3.3,0,0,0-.4-1.7A1.9,1.9,0,0,0,65,11.1Z" fill="#fff"/><path d="M71.8,10.7h-.6a3.7,3.7,0,0,0-3.3,3.9h0A4.1,4.1,0,0,0,69,17.4a4.1,4.1,0,0,0,2.8,1.1,4.4,4.4,0,0,0,2.9-1.1,4.3,4.3,0,0,0,1.1-2.8,3.8,3.8,0,0,0-4-3.9Zm1.4,5.6a2,2,0,0,1-1.4.6,1.6,1.6,0,0,1-1.3-.6,2.6,2.6,0,0,1-.5-1.7,2.6,2.6,0,0,1,.5-1.7,1.4,1.4,0,0,1,1.3-.6,1.4,1.4,0,0,1,1.4.6,2.5,2.5,0,0,1,.4,1.7A2.5,2.5,0,0,1,73.2,16.3Z" fill="#fff"/><path d="M85.2,12.4a1.3,1.3,0,0,1,.9.4,2.6,2.6,0,0,1,.3,1.1v4.4h2.1V13.7a3.4,3.4,0,0,0-.7-2.2,2.8,2.8,0,0,0-2-.8,3.1,3.1,0,0,0-1.3.3,2.6,2.6,0,0,0-.9.9,2,2,0,0,0-.7-.9,3.5,3.5,0,0,0-1.4-.3,2.8,2.8,0,0,0-1.5.4,1.6,1.6,0,0,0-.8,1c0-.4-.1-.8-.1-1.3H77.2c0,.4.1,1.1.1,2v5.5h2.1V14a1.5,1.5,0,0,1,.4-1.2,1.1,1.1,0,0,1,.9-.4,1.3,1.3,0,0,1,.9.4,1.7,1.7,0,0,1,.2,1.2v4.3H84V13.9a1.3,1.3,0,0,1,.3-1.1A1.5,1.5,0,0,1,85.2,12.4Z" fill="#fff"/><path d="M91.1,17.4a4.3,4.3,0,0,0,2.8,1.1,5.9,5.9,0,0,0,1.9-.5,2.6,2.6,0,0,0,1.4-1.1l-1.1-1.1-1,.7-1.1.2a1.6,1.6,0,0,1-1.7-1.3h5.1v-.8a3.9,3.9,0,0,0-.9-2.8,3.9,3.9,0,0,0-5.4,0,3.9,3.9,0,0,0-.9,2.8A3.5,3.5,0,0,0,91.1,17.4Zm1.7-4.6a1.9,1.9,0,0,1,1-.3,1.4,1.4,0,0,1,1.1.3,1.3,1.3,0,0,1,.4,1h-3a2.7,2.7,0,0,1,.5-1.1Z" fill="#fff"/><rect x="103.2" y="10.8" width="2.1" height="7.42" fill="#fff"/><path d="M111.9,10.7a2.8,2.8,0,0,0-1.5.4,2.2,2.2,0,0,0-.9,1c0-.3-.1-.8-.1-1.3h-2a14.1,14.1,0,0,1,.1,2v5.5h2.1V14.2a2,2,0,0,1,.4-1.3,1.8,1.8,0,0,1,1.2-.5.8.8,0,0,1,.9.4,1.6,1.6,0,0,1,.3,1.3v4.2h2.1V14.1a3.7,3.7,0,0,0-.7-2.5A2,2,0,0,0,111.9,10.7Z" fill="#fff"/><path d="M121.1,14.4l-1.4-.7-.9-.4c-.2,0-.3-.1-.4-.3v-.2c0-.2.1-.3.3-.4h.5a2.5,2.5,0,0,1,1.5.5l1.2-.9a3.8,3.8,0,0,0-1.2-.9l-1.5-.3a3.1,3.1,0,0,0-2.1.6,1.8,1.8,0,0,0-.8,1.5,1.6,1.6,0,0,0,.6,1.3,4,4,0,0,0,2,1.1l.7.4.4.2v.3a.9.9,0,0,1-.3.6,2.2,2.2,0,0,1-1.6,0l-.7-.6L116,17a3.5,3.5,0,0,0,1.1,1,4.1,4.1,0,0,0,1.8.5,4.7,4.7,0,0,0,1.6-.4,2.1,2.1,0,0,0,1.1-.8A2.8,2.8,0,0,0,122,16a2.9,2.9,0,0,0-.2-.9A2.3,2.3,0,0,0,121.1,14.4Z" fill="#fff"/><path d="M130.5,10.8h-2.1v4a1.5,1.5,0,0,1-.5,1.3,1.3,1.3,0,0,1-1.1.6,1,1,0,0,1-.9-.4,1.9,1.9,0,0,1-.3-1.3V10.8h-2.1V15a4,4,0,0,0,.6,2.6,2.9,2.9,0,0,0,2,.9,3.3,3.3,0,0,0,1.4-.4,2.6,2.6,0,0,0,1-1.1c0,.4.1.8.1,1.3h2c0-.8-.1-1.4-.1-2Z" fill="#fff"/><path d="M135.5,11.2a2,2,0,0,0-1.1,1.1h0V10.8h-2.1a12.1,12.1,0,0,1,.1,1.9v5.5h2.1V15.1a2,2,0,0,1,.4-1.3,2.7,2.7,0,0,1,1-1.1,3.7,3.7,0,0,1,1.4-.4h.3V10.7h-.4A3.4,3.4,0,0,0,135.5,11.2Z" fill="#fff"/><path d="M145.4,16.7V13.4a2.3,2.3,0,0,0-1-2,3.7,3.7,0,0,0-2.3-.7l-1.8.3-1.5.9.9,1.3,1-.7,1.3-.2a1.6,1.6,0,0,1,.9.3.6.6,0,0,1,.3.8v.3h-1a4.5,4.5,0,0,0-2.7.6,2.4,2.4,0,0,0-.9,1.8,5.6,5.6,0,0,0,.4,1.2,1.4,1.4,0,0,0,.9.8,2.8,2.8,0,0,0,1.3.4h.1a2.6,2.6,0,0,0,2.1-1.1,4.3,4.3,0,0,0,.1.5l.2.4h1.8c0-.3-.1-.5-.1-.7A2.7,2.7,0,0,1,145.4,16.7Zm-2.2-1a.9.9,0,0,1-.4.8,1.5,1.5,0,0,1-1.1.4l-.7-.2a.9.9,0,0,1-.3-.6.9.9,0,0,1,.4-.8,1.9,1.9,0,0,1,1-.3h1.1Z" fill="#fff"/><path d="M151.7,10.7a2.8,2.8,0,0,0-1.5.4,2.2,2.2,0,0,0-.9,1h-.1V10.8h-2v7.5h2.2V14.2a1.6,1.6,0,0,1,.4-1.3,1.8,1.8,0,0,1,1.2-.5.8.8,0,0,1,.9.4,2.1,2.1,0,0,1,.3,1.3v4.2h2.1V14.1a3.6,3.6,0,0,0-.6-2.5A2.2,2.2,0,0,0,151.7,10.7Z" fill="#fff"/><path d="M159.8,12.3a1.6,1.6,0,0,1,.9.3,2.3,2.3,0,0,1,.7.7l1.3-1.1a3.2,3.2,0,0,0-1.2-1.1,4.1,4.1,0,0,0-1.9-.4,3.5,3.5,0,0,0-2.8,1.1,3.5,3.5,0,0,0-.9,2.8,4.1,4.1,0,0,0,.9,2.8,4.3,4.3,0,0,0,2.8,1.1,5.8,5.8,0,0,0,1.9-.4,3.4,3.4,0,0,0,1.2-1.2l-1.3-1.1a1.8,1.8,0,0,1-.7.8l-.9.3a1.4,1.4,0,0,1-1.3-.7,2.5,2.5,0,0,1-.6-1.6,2.7,2.7,0,0,1,.6-1.7A1.5,1.5,0,0,1,159.8,12.3Z" fill="#fff"/><path d="M170.1,11.8a3.1,3.1,0,0,0-2.6-1.1,3.5,3.5,0,0,0-2.7,1.1,4,4,0,0,0-1,2.8,4.2,4.2,0,0,0,1,2.8,3.6,3.6,0,0,0,2.8,1.1,6.7,6.7,0,0,0,1.9-.5,3,3,0,0,0,1.4-1.1l-1.1-1.1-1,.7-1.1.2a1.7,1.7,0,0,1-1.8-1.3H171v-.8A3.5,3.5,0,0,0,170.1,11.8ZM169,13.9h-3.1a3,3,0,0,1,.6-1.1,1.1,1.1,0,0,1,1-.3,1.4,1.4,0,0,1,1.1.3,1.3,1.3,0,0,1,.4,1Z" fill="#fff"/><path d="M63,28.5a3.3,3.3,0,0,0-1.4.4,2.8,2.8,0,0,0-.9,1c0-.4-.1-.8-.1-1.2H59.4a11.5,11.5,0,0,1,.1,1.8v9.2h1.3V35.1a2,2,0,0,0,.9.9,3.1,3.1,0,0,0,1.3.3,3.4,3.4,0,0,0,1.7-.5,4.7,4.7,0,0,0,1.1-1.3,7.6,7.6,0,0,0,.3-2.1,4,4,0,0,0-.8-2.8A2.8,2.8,0,0,0,63,28.5Zm1.8,3.8a3.3,3.3,0,0,1-.5,2.2,1.8,1.8,0,0,1-1.5.8,1.5,1.5,0,0,1-1.4-.6,2.2,2.2,0,0,1-.6-1.7V31.7a1.7,1.7,0,0,1,.6-1.6,1.5,1.5,0,0,1,1.4-.5,1.7,1.7,0,0,1,1.5.7A2.9,2.9,0,0,1,64.8,32.3Z" fill="#fff"/><path d="M70.3,29a1.6,1.6,0,0,0-.9,1.1h-.1a5.7,5.7,0,0,0-.1-1.3H68.1v7.5h1.3V32.4a3.2,3.2,0,0,1,.3-1.4,2,2,0,0,1,.8-1,1.5,1.5,0,0,1,1.1-.4h.5V28.5h-.4A2.4,2.4,0,0,0,70.3,29Z" fill="#fff"/><path d="M74.6,25.7a1.1,1.1,0,0,0-.9.9.9.9,0,0,0,.3.6,1.3,1.3,0,0,0,1.2,0,.9.9,0,0,0,.3-.6,1.1,1.1,0,0,0-.9-.9Z" fill="#fff"/><rect x="74" y="28.7" width="1.3" height="7.49" fill="#fff"/><path d="M80.9,29.6a2,2,0,0,1,2,1.1l.7-.7a2,2,0,0,0-1.1-1.1,4.7,4.7,0,0,0-1.6-.4,3.5,3.5,0,0,0-2.6,1.1,3.7,3.7,0,0,0-.9,2.8,3.5,3.5,0,0,0,.9,2.8,3.5,3.5,0,0,0,4.2.7,2.2,2.2,0,0,0,1.1-1l-.7-.7a3.4,3.4,0,0,1-.9.8,1.4,1.4,0,0,1-1.1.2,1.8,1.8,0,0,1-1.7-.7,3.7,3.7,0,0,1-.6-2.1,3.1,3.1,0,0,1,.6-2.1A1.8,1.8,0,0,1,80.9,29.6Z" fill="#fff"/><path d="M88.3,28.5a3.3,3.3,0,0,0-2.5,1.1,3.7,3.7,0,0,0-.9,2.8,3.7,3.7,0,0,0,.9,2.8,3.1,3.1,0,0,0,2.5,1.1,3.3,3.3,0,0,0,1.7-.4,2.9,2.9,0,0,0,1.2-1l-.7-.7a2.9,2.9,0,0,1-2.2,1,2.2,2.2,0,0,1-1.5-.6,2.7,2.7,0,0,1-.6-1.7h5.3v-.5a3.7,3.7,0,0,0-.9-2.8A2.8,2.8,0,0,0,88.3,28.5Zm2,3.5H86.2a2.8,2.8,0,0,1,.6-1.8,1.5,1.5,0,0,1,1.4-.6,1.8,1.8,0,0,1,1.6.5,2.4,2.4,0,0,1,.5,1.8Z" fill="#fff"/><path d="M94.7,30.1h0c0-.5-.1-.9-.1-1.3H93.4v7.5h1.3V32.4A3.2,3.2,0,0,1,95,31a2.7,2.7,0,0,1,.8-1,1.9,1.9,0,0,1,1.2-.4h.5V28.5h-.4A2.7,2.7,0,0,0,94.7,30.1Z" fill="#fff"/><path d="M104.2,7.3h0a1.5,1.5,0,0,0-1.5,1.4h0a1.5,1.5,0,0,0,1.5,1.4h0a1.5,1.5,0,0,0,1.1-.4h.2V9.4h0a1.3,1.3,0,0,0,.1-.6h0a1.3,1.3,0,0,0-1.3-1.5Z" fill="#fff"/><path d="M30.2,1a21.8,21.8,0,0,0-6.7-1A23.5,23.5,0,0,0,0,23.5,23.9,23.9,0,0,0,5.1,38.2L13,30.3V21.2h5.2v3.9L30.2,13,46.4,29.1a26,26,0,0,0,.6-5.6,23.4,23.4,0,0,0-5.4-15A22.7,22.7,0,0,0,30.2,1Z" fill="#fff"/><path d="M12.9,44.4A23.1,23.1,0,0,0,23.5,47a21.8,21.8,0,0,0,6.7-1,22.8,22.8,0,0,0,9.1-5.1,18.8,18.8,0,0,0,2.4-2.5L30.2,27.1Z" fill="#fff"/></g></g></g></g></svg>