<svg xmlns="http://www.w3.org/2000/svg" width="37" height="37" viewBox="0 0 37 37"><title>tick</title><g id="ab8da003-86f2-48e1-bae7-3494144aa73e" data-name="Layer 2"><g id="f60750f2-f46d-4330-8a58-f9221d06f398" data-name="Capa 1"><path d="M31.6,5.4A18.6,18.6,0,1,0,37,18.5,18.5,18.5,0,0,0,31.6,5.4Zm-13.1,29A15.9,15.9,0,1,1,34.4,18.5,15.9,15.9,0,0,1,18.5,34.4Z" fill="#3986c1"/><path d="M23.5,13.7a1.3,1.3,0,0,0-1,.4l-6,6-2-2a1.8,1.8,0,0,0-1-.4,1.8,1.8,0,0,0-.9.4,1.8,1.8,0,0,0-.4.9,1.8,1.8,0,0,0,.4,1l3,2.9a1.2,1.2,0,0,0,1.8,0l7-7a1.3,1.3,0,0,0,.4-.9,1.5,1.5,0,0,0-.4-.9A1.8,1.8,0,0,0,23.5,13.7Z" fill="#3986c1"/></g></g></svg>